<svg width="103" height="48" viewBox="0 0 103 48" fill="none" xmlns="http://www.w3.org/2000/svg">
<mask id="path-1-outside-1_367_791" maskUnits="userSpaceOnUse" x="0" y="7" width="103" height="35" fill="black">
<rect fill="white" y="7" width="103" height="35"/>
<path d="M2 38.96V34.24L14.08 23.52C14.9867 22.72 15.6267 21.9667 16 21.26C16.3733 20.5533 16.56 19.8933 16.56 19.28C16.56 18.4 16.38 17.62 16.02 16.94C15.66 16.2467 15.1533 15.7067 14.5 15.32C13.8467 14.92 13.08 14.72 12.2 14.72C11.28 14.72 10.4667 14.9333 9.76 15.36C9.06667 15.7733 8.52667 16.3267 8.14 17.02C7.75333 17.7 7.57333 18.44 7.6 19.24H2C2 17.2667 2.43333 15.56 3.3 14.12C4.16667 12.68 5.37333 11.5667 6.92 10.78C8.46667 9.99333 10.2667 9.6 12.32 9.6C14.2 9.6 15.88 10.0133 17.36 10.84C18.8533 11.6533 20.0267 12.7933 20.88 14.26C21.7333 15.7267 22.16 17.4267 22.16 19.36C22.16 20.7867 21.96 21.9733 21.56 22.92C21.16 23.8533 20.5667 24.72 19.78 25.52C18.9933 26.3067 18.0267 27.2 16.88 28.2L9.08 35.04L8.64 33.84H22.16V38.96H2ZM37.6206 39.6C35.4873 39.6 33.6206 39.1533 32.0206 38.26C30.4206 37.3667 29.174 36.12 28.2806 34.52C27.3873 32.92 26.9406 31.0533 26.9406 28.92V20.28C26.9406 18.1467 27.3873 16.28 28.2806 14.68C29.174 13.08 30.4206 11.8333 32.0206 10.94C33.6206 10.0467 35.4873 9.6 37.6206 9.6C39.754 9.6 41.6206 10.0467 43.2206 10.94C44.8206 11.8333 46.0673 13.08 46.9606 14.68C47.854 16.28 48.3006 18.1467 48.3006 20.28V28.92C48.3006 31.0533 47.854 32.92 46.9606 34.52C46.0673 36.12 44.8206 37.3667 43.2206 38.26C41.6206 39.1533 39.754 39.6 37.6206 39.6ZM37.6206 34.44C38.5806 34.44 39.4473 34.2133 40.2206 33.76C40.994 33.3067 41.6073 32.6933 42.0606 31.92C42.514 31.1467 42.7406 30.28 42.7406 29.32V19.84C42.7406 18.88 42.514 18.0133 42.0606 17.24C41.6073 16.4667 40.994 15.8533 40.2206 15.4C39.4473 14.9467 38.5806 14.72 37.6206 14.72C36.6606 14.72 35.794 14.9467 35.0206 15.4C34.2473 15.8533 33.634 16.4667 33.1806 17.24C32.7273 18.0133 32.5006 18.88 32.5006 19.84V29.32C32.5006 30.28 32.7273 31.1467 33.1806 31.92C33.634 32.6933 34.2473 33.3067 35.0206 33.76C35.794 34.2133 36.6606 34.44 37.6206 34.44ZM64.5738 39.6C62.4404 39.6 60.5738 39.1533 58.9738 38.26C57.3738 37.3667 56.1271 36.12 55.2338 34.52C54.3404 32.92 53.8938 31.0533 53.8938 28.92V20.28C53.8938 18.1467 54.3404 16.28 55.2338 14.68C56.1271 13.08 57.3738 11.8333 58.9738 10.94C60.5738 10.0467 62.4404 9.6 64.5738 9.6C66.7071 9.6 68.5738 10.0467 70.1738 10.94C71.7738 11.8333 73.0204 13.08 73.9138 14.68C74.8071 16.28 75.2538 18.1467 75.2538 20.28V28.92C75.2538 31.0533 74.8071 32.92 73.9138 34.52C73.0204 36.12 71.7738 37.3667 70.1738 38.26C68.5738 39.1533 66.7071 39.6 64.5738 39.6ZM64.5738 34.44C65.5338 34.44 66.4004 34.2133 67.1738 33.76C67.9471 33.3067 68.5604 32.6933 69.0138 31.92C69.4671 31.1467 69.6938 30.28 69.6938 29.32V19.84C69.6938 18.88 69.4671 18.0133 69.0138 17.24C68.5604 16.4667 67.9471 15.8533 67.1738 15.4C66.4004 14.9467 65.5338 14.72 64.5738 14.72C63.6138 14.72 62.7471 14.9467 61.9738 15.4C61.2004 15.8533 60.5871 16.4667 60.1338 17.24C59.6804 18.0133 59.4538 18.88 59.4538 19.84V29.32C59.4538 30.28 59.6804 31.1467 60.1338 31.92C60.5871 32.6933 61.2004 33.3067 61.9738 33.76C62.7471 34.2133 63.6138 34.44 64.5738 34.44ZM90.4869 39.6C88.5402 39.6 86.8069 39.2067 85.2869 38.42C83.7802 37.62 82.5935 36.5267 81.7269 35.14C80.8735 33.74 80.4469 32.1467 80.4469 30.36C80.4469 28.84 80.7869 27.4067 81.4669 26.06C82.1602 24.7133 83.1535 23.6133 84.4469 22.76L84.3269 24.44C83.3535 23.4933 82.5869 22.4933 82.0269 21.44C81.4802 20.3867 81.2069 19.2 81.2069 17.88C81.2069 16.2133 81.6002 14.76 82.3869 13.52C83.1869 12.28 84.2802 11.32 85.6669 10.64C87.0669 9.94667 88.6735 9.6 90.4869 9.6C92.3002 9.6 93.9002 9.94667 95.2869 10.64C96.6869 11.32 97.7802 12.28 98.5669 13.52C99.3669 14.76 99.7669 16.2133 99.7669 17.88C99.7669 19.2 99.5069 20.3867 98.9869 21.44C98.4669 22.48 97.6735 23.4933 96.6069 24.48V22.8C97.8735 23.6 98.8469 24.68 99.5269 26.04C100.22 27.4 100.567 28.84 100.567 30.36C100.567 32.1467 100.134 33.74 99.2669 35.14C98.4002 36.5267 97.2069 37.62 95.6869 38.42C94.1669 39.2067 92.4335 39.6 90.4869 39.6ZM90.4869 34.48C91.7669 34.48 92.8069 34.1333 93.6069 33.44C94.4069 32.7467 94.8069 31.72 94.8069 30.36C94.8069 29.0133 94.4069 27.9867 93.6069 27.28C92.8069 26.56 91.7669 26.2 90.4869 26.2C89.2069 26.2 88.1735 26.56 87.3869 27.28C86.6002 27.9867 86.2069 29.0133 86.2069 30.36C86.2069 31.72 86.6002 32.7467 87.3869 33.44C88.1735 34.1333 89.2069 34.48 90.4869 34.48ZM90.4869 21.04C91.5269 21.04 92.3735 20.7867 93.0269 20.28C93.6802 19.76 94.0069 18.96 94.0069 17.88C94.0069 16.8 93.6802 16 93.0269 15.48C92.3735 14.9467 91.5269 14.68 90.4869 14.68C89.4469 14.68 88.6002 14.9467 87.9469 15.48C87.2935 16 86.9669 16.8 86.9669 17.88C86.9669 18.96 87.2935 19.76 87.9469 20.28C88.6002 20.7867 89.4469 21.04 90.4869 21.04Z"/>
</mask>
<path d="M2 38.96H2.98023e-08V40.96H2V38.96ZM2 34.24L0.672503 32.7441L2.98023e-08 33.3409V34.24H2ZM14.08 23.52L12.7568 22.0203L12.7525 22.0241L14.08 23.52ZM16 21.26L14.2316 20.3258L14.2316 20.3258L16 21.26ZM16.02 16.94L14.245 17.8616L14.2487 17.8687L14.2524 17.8758L16.02 16.94ZM14.5 15.32L13.4557 17.0257L13.4685 17.0335L13.4814 17.0412L14.5 15.32ZM9.76 15.36L10.7841 17.0779L10.7937 17.0721L9.76 15.36ZM8.14 17.02L9.87858 18.0086L9.88268 18.0014L9.88673 17.9941L8.14 17.02ZM7.6 19.24V21.24H9.66778L9.59889 19.1734L7.6 19.24ZM2 19.24H2.98023e-08V21.24H2V19.24ZM3.3 14.12L5.01358 15.1513L3.3 14.12ZM6.92 10.78L7.8267 12.5627H7.8267L6.92 10.78ZM17.36 10.84L16.3847 12.5861L16.394 12.5913L16.4034 12.5964L17.36 10.84ZM21.56 22.92L23.3983 23.7078L23.4023 23.6984L21.56 22.92ZM19.78 25.52L21.1942 26.9342L21.2002 26.9283L21.206 26.9223L19.78 25.52ZM16.88 28.2L15.5655 26.6927L15.5614 26.6963L16.88 28.2ZM9.08 35.04L7.20225 35.7285L8.20614 38.4664L10.3986 36.5437L9.08 35.04ZM8.64 33.84V31.84H5.77646L6.76225 34.5285L8.64 33.84ZM22.16 33.84H24.16V31.84H22.16V33.84ZM22.16 38.96V40.96H24.16V38.96H22.16ZM4 38.96V34.24H2.98023e-08V38.96H4ZM3.3275 35.7359L15.4075 25.0159L12.7525 22.0241L0.672503 32.7441L3.3275 35.7359ZM15.4032 25.0197C16.4077 24.1334 17.2397 23.195 17.7684 22.1942L14.2316 20.3258C14.0137 20.7383 13.5656 21.3066 12.7568 22.0203L15.4032 25.0197ZM17.7684 22.1942C18.2492 21.2841 18.56 20.3027 18.56 19.28H14.56C14.56 19.484 14.4974 19.8226 14.2316 20.3258L17.7684 22.1942ZM18.56 19.28C18.56 18.1211 18.3209 17.0116 17.7876 16.0042L14.2524 17.8758C14.4391 18.2284 14.56 18.6789 14.56 19.28H18.56ZM17.795 16.0184C17.2679 15.0032 16.5036 14.1818 15.5186 13.5988L13.4814 17.0412C13.8031 17.2315 14.0521 17.4901 14.245 17.8616L17.795 16.0184ZM15.5443 13.6143C14.5322 12.9946 13.3927 12.72 12.2 12.72V16.72C12.7673 16.72 13.1612 16.8454 13.4557 17.0257L15.5443 13.6143ZM12.2 12.72C10.9585 12.72 9.77961 13.0119 8.72626 13.6479L10.7937 17.0721C11.1537 16.8548 11.6015 16.72 12.2 16.72V12.72ZM8.73587 13.6421C7.74579 14.2323 6.95422 15.04 6.39327 16.0459L9.88673 17.9941C10.0991 17.6133 10.3875 17.3143 10.7841 17.0779L8.73587 13.6421ZM6.40142 16.0314C5.82782 17.0401 5.56244 18.1466 5.60111 19.3066L9.59889 19.1734C9.58422 18.7334 9.67885 18.3599 9.87858 18.0086L6.40142 16.0314ZM7.6 17.24H2V21.24H7.6V17.24ZM4 19.24C4 17.5661 4.36478 16.2293 5.01358 15.1513L1.58642 13.0887C0.501888 14.8907 2.98023e-08 16.9673 2.98023e-08 19.24H4ZM5.01358 15.1513C5.6805 14.0432 6.60267 13.1852 7.8267 12.5627L6.0133 8.99733C4.144 9.9481 2.65283 11.3168 1.58642 13.0887L5.01358 15.1513ZM7.8267 12.5627C9.04536 11.9428 10.5243 11.6 12.32 11.6V7.6C10.009 7.6 7.88797 8.04384 6.0133 8.99733L7.8267 12.5627ZM12.32 11.6C13.8966 11.6 15.2343 11.9435 16.3847 12.5861L18.3353 9.09391C16.5257 8.08313 14.5034 7.6 12.32 7.6V11.6ZM16.4034 12.5964C17.5763 13.2352 18.4823 14.1159 19.1513 15.2658L22.6087 13.2542C21.571 11.4708 20.1304 10.0715 18.3166 9.08361L16.4034 12.5964ZM19.1513 15.2658C19.8033 16.3865 20.16 17.7299 20.16 19.36H24.16C24.16 17.1234 23.6633 15.0669 22.6087 13.2542L19.1513 15.2658ZM20.16 19.36C20.16 20.6161 19.9816 21.517 19.7177 22.1416L23.4023 23.6984C23.9384 22.4296 24.16 20.9572 24.16 19.36H20.16ZM19.7217 22.1322C19.4295 22.814 18.9845 23.4765 18.354 24.1177L21.206 26.9223C22.1489 25.9635 22.8905 24.8927 23.3983 23.7078L19.7217 22.1322ZM18.3658 24.1058C17.6205 24.8511 16.6893 25.7126 15.5655 26.6927L18.1945 29.7073C19.364 28.6874 20.3662 27.7623 21.1942 26.9342L18.3658 24.1058ZM15.5614 26.6963L7.76135 33.5363L10.3986 36.5437L18.1986 29.7037L15.5614 26.6963ZM10.9578 34.3515L10.5178 33.1515L6.76225 34.5285L7.20225 35.7285L10.9578 34.3515ZM8.64 35.84H22.16V31.84H8.64V35.84ZM20.16 33.84V38.96H24.16V33.84H20.16ZM22.16 36.96H2V40.96H22.16V36.96ZM32.0206 38.26L32.9956 36.5137L32.0206 38.26ZM28.2806 34.52L30.0269 33.545L28.2806 34.52ZM28.2806 14.68L30.0269 15.655V15.655L28.2806 14.68ZM32.0206 10.94L31.0456 9.19375V9.19375L32.0206 10.94ZM43.2206 10.94L44.1956 9.19375L44.1956 9.19375L43.2206 10.94ZM43.2206 38.26L44.1956 40.0063L43.2206 38.26ZM40.2206 33.76L39.2092 32.0346L40.2206 33.76ZM42.0606 31.92L40.3352 30.9086L40.3352 30.9086L42.0606 31.92ZM42.0606 17.24L40.3352 18.2514H40.3352L42.0606 17.24ZM40.2206 15.4L39.2092 17.1254V17.1254L40.2206 15.4ZM35.0206 15.4L34.0092 13.6746L35.0206 15.4ZM33.1806 31.92L31.4552 32.9314L33.1806 31.92ZM35.0206 33.76L36.0321 32.0346L35.0206 33.76ZM37.6206 37.6C35.7722 37.6 34.2519 37.2152 32.9956 36.5137L31.0456 40.0063C32.9893 41.0915 35.2024 41.6 37.6206 41.6V37.6ZM32.9956 36.5137C31.7192 35.8011 30.7395 34.8214 30.0269 33.545L26.5344 35.495C27.6084 37.4186 29.1221 38.9323 31.0456 40.0063L32.9956 36.5137ZM30.0269 33.545C29.3254 32.2887 28.9406 30.7685 28.9406 28.92H24.9406C24.9406 31.3382 25.4491 33.5513 26.5344 35.495L30.0269 33.545ZM28.9406 28.92V20.28H24.9406V28.92H28.9406ZM28.9406 20.28C28.9406 18.4315 29.3254 16.9113 30.0269 15.655L26.5344 13.705C25.4491 15.6487 24.9406 17.8618 24.9406 20.28H28.9406ZM30.0269 15.655C30.7395 14.3786 31.7192 13.3989 32.9956 12.6862L31.0456 9.19375C29.1221 10.2677 27.6084 11.7814 26.5344 13.705L30.0269 15.655ZM32.9956 12.6862C34.2519 11.9848 35.7722 11.6 37.6206 11.6V7.6C35.2024 7.6 32.9893 8.10851 31.0456 9.19375L32.9956 12.6862ZM37.6206 11.6C39.4691 11.6 40.9893 11.9848 42.2456 12.6862L44.1956 9.19375C42.2519 8.10851 40.0388 7.6 37.6206 7.6V11.6ZM42.2456 12.6862C43.5221 13.3989 44.5017 14.3786 45.2144 15.655L48.7069 13.705C47.6329 11.7814 46.1192 10.2677 44.1956 9.19375L42.2456 12.6862ZM45.2144 15.655C45.9158 16.9113 46.3006 18.4315 46.3006 20.28H50.3006C50.3006 17.8618 49.7921 15.6487 48.7069 13.705L45.2144 15.655ZM46.3006 20.28V28.92H50.3006V20.28H46.3006ZM46.3006 28.92C46.3006 30.7685 45.9158 32.2887 45.2144 33.545L48.7069 35.495C49.7921 33.5513 50.3006 31.3382 50.3006 28.92H46.3006ZM45.2144 33.545C44.5017 34.8214 43.5221 35.8011 42.2456 36.5137L44.1956 40.0063C46.1192 38.9323 47.6329 37.4186 48.7069 35.495L45.2144 33.545ZM42.2456 36.5137C40.9893 37.2152 39.4691 37.6 37.6206 37.6V41.6C40.0388 41.6 42.2519 41.0915 44.1956 40.0063L42.2456 36.5137ZM37.6206 36.44C38.9101 36.44 40.1302 36.1313 41.2321 35.4854L39.2092 32.0346C38.7644 32.2953 38.2512 32.44 37.6206 32.44V36.44ZM41.2321 35.4854C42.3005 34.8591 43.1597 33.9999 43.786 32.9314L40.3352 30.9086C40.0549 31.3868 39.6874 31.7543 39.2092 32.0346L41.2321 35.4854ZM43.786 32.9314C44.4319 31.8296 44.7406 30.6094 44.7406 29.32H40.7406C40.7406 29.9506 40.596 30.4638 40.3352 30.9086L43.786 32.9314ZM44.7406 29.32V19.84H40.7406V29.32H44.7406ZM44.7406 19.84C44.7406 18.5506 44.4319 17.3304 43.786 16.2286L40.3352 18.2514C40.596 18.6962 40.7406 19.2094 40.7406 19.84H44.7406ZM43.786 16.2286C43.1597 15.1601 42.3005 14.3009 41.2321 13.6746L39.2092 17.1254C39.6874 17.4057 40.0549 17.7732 40.3352 18.2514L43.786 16.2286ZM41.2321 13.6746C40.1302 13.0287 38.9101 12.72 37.6206 12.72V16.72C38.2512 16.72 38.7644 16.8646 39.2092 17.1254L41.2321 13.6746ZM37.6206 12.72C36.3312 12.72 35.111 13.0287 34.0092 13.6746L36.0321 17.1254C36.4769 16.8646 36.9901 16.72 37.6206 16.72V12.72ZM34.0092 13.6746C32.9407 14.3009 32.0816 15.1601 31.4552 16.2286L34.906 18.2514C35.1863 17.7732 35.5539 17.4057 36.0321 17.1254L34.0092 13.6746ZM31.4552 16.2286C30.8093 17.3304 30.5006 18.5506 30.5006 19.84H34.5006C34.5006 19.2094 34.6453 18.6962 34.906 18.2514L31.4552 16.2286ZM30.5006 19.84V29.32H34.5006V19.84H30.5006ZM30.5006 29.32C30.5006 30.6094 30.8093 31.8296 31.4552 32.9314L34.906 30.9086C34.6453 30.4638 34.5006 29.9506 34.5006 29.32H30.5006ZM31.4552 32.9314C32.0816 33.9999 32.9407 34.8591 34.0092 35.4854L36.0321 32.0346C35.5539 31.7543 35.1863 31.3868 34.906 30.9086L31.4552 32.9314ZM34.0092 35.4854C35.111 36.1313 36.3312 36.44 37.6206 36.44V32.44C36.9901 32.44 36.4769 32.2953 36.0321 32.0346L34.0092 35.4854ZM58.9738 38.26L59.9487 36.5137L58.9738 38.26ZM55.2337 34.52L56.98 33.545L55.2337 34.52ZM55.2337 14.68L56.98 15.655V15.655L55.2337 14.68ZM58.9738 10.94L57.9988 9.19375V9.19375L58.9738 10.94ZM70.1738 10.94L71.1487 9.19375V9.19375L70.1738 10.94ZM70.1738 38.26L71.1487 40.0063L70.1738 38.26ZM67.1738 33.76L66.1623 32.0346H66.1623L67.1738 33.76ZM69.0137 31.92L67.2884 30.9086V30.9086L69.0137 31.92ZM69.0137 17.24L67.2884 18.2514L69.0137 17.24ZM67.1738 15.4L66.1623 17.1254V17.1254L67.1738 15.4ZM61.9738 15.4L60.9623 13.6746L61.9738 15.4ZM60.1338 31.92L58.4084 32.9314L60.1338 31.92ZM61.9738 33.76L62.9852 32.0346L61.9738 33.76ZM64.5738 37.6C62.7253 37.6 61.205 37.2152 59.9487 36.5137L57.9988 40.0063C59.9425 41.0915 62.1555 41.6 64.5738 41.6V37.6ZM59.9487 36.5137C58.6723 35.8011 57.6927 34.8214 56.98 33.545L53.4875 35.495C54.5615 37.4186 56.0752 38.9323 57.9988 40.0063L59.9487 36.5137ZM56.98 33.545C56.2786 32.2887 55.8937 30.7685 55.8937 28.92H51.8937C51.8937 31.3382 52.4023 33.5513 53.4875 35.495L56.98 33.545ZM55.8937 28.92V20.28H51.8937V28.92H55.8937ZM55.8937 20.28C55.8937 18.4315 56.2786 16.9113 56.98 15.655L53.4875 13.705C52.4023 15.6487 51.8937 17.8618 51.8937 20.28H55.8937ZM56.98 15.655C57.6927 14.3786 58.6723 13.3989 59.9487 12.6862L57.9988 9.19375C56.0752 10.2677 54.5615 11.7814 53.4875 13.705L56.98 15.655ZM59.9487 12.6862C61.205 11.9848 62.7253 11.6 64.5738 11.6V7.6C62.1555 7.6 59.9425 8.10851 57.9988 9.19375L59.9487 12.6862ZM64.5738 11.6C66.4222 11.6 67.9425 11.9848 69.1988 12.6862L71.1487 9.19375C69.205 8.10851 66.992 7.6 64.5738 7.6V11.6ZM69.1988 12.6862C70.4752 13.3989 71.4548 14.3786 72.1675 15.655L75.66 13.705C74.586 11.7814 73.0723 10.2677 71.1487 9.19375L69.1988 12.6862ZM72.1675 15.655C72.8689 16.9113 73.2538 18.4315 73.2538 20.28H77.2538C77.2538 17.8618 76.7452 15.6487 75.66 13.705L72.1675 15.655ZM73.2538 20.28V28.92H77.2538V20.28H73.2538ZM73.2538 28.92C73.2538 30.7685 72.8689 32.2887 72.1675 33.545L75.66 35.495C76.7452 33.5513 77.2538 31.3382 77.2538 28.92H73.2538ZM72.1675 33.545C71.4548 34.8214 70.4752 35.8011 69.1988 36.5137L71.1487 40.0063C73.0723 38.9323 74.586 37.4186 75.66 35.495L72.1675 33.545ZM69.1988 36.5137C67.9425 37.2152 66.4222 37.6 64.5738 37.6V41.6C66.992 41.6 69.205 41.0915 71.1487 40.0063L69.1988 36.5137ZM64.5738 36.44C65.8632 36.44 67.0833 36.1313 68.1852 35.4854L66.1623 32.0346C65.7175 32.2953 65.2043 32.44 64.5738 32.44V36.44ZM68.1852 35.4854C69.2537 34.8591 70.1128 33.9999 70.7391 32.9314L67.2884 30.9086C67.008 31.3868 66.6405 31.7543 66.1623 32.0346L68.1852 35.4854ZM70.7391 32.9314C71.3851 31.8296 71.6937 30.6094 71.6937 29.32H67.6937C67.6937 29.9506 67.5491 30.4638 67.2884 30.9086L70.7391 32.9314ZM71.6937 29.32V19.84H67.6937V29.32H71.6937ZM71.6937 19.84C71.6937 18.5506 71.3851 17.3304 70.7391 16.2286L67.2884 18.2514C67.5491 18.6962 67.6937 19.2094 67.6937 19.84H71.6937ZM70.7391 16.2286C70.1128 15.1601 69.2537 14.3009 68.1852 13.6746L66.1623 17.1254C66.6405 17.4057 67.008 17.7732 67.2884 18.2514L70.7391 16.2286ZM68.1852 13.6746C67.0833 13.0287 65.8632 12.72 64.5738 12.72V16.72C65.2043 16.72 65.7175 16.8646 66.1623 17.1254L68.1852 13.6746ZM64.5738 12.72C63.2843 12.72 62.0642 13.0287 60.9623 13.6746L62.9852 17.1254C63.43 16.8646 63.9432 16.72 64.5738 16.72V12.72ZM60.9623 13.6746C59.8938 14.3009 59.0347 15.1601 58.4084 16.2286L61.8591 18.2514C62.1395 17.7732 62.507 17.4057 62.9852 17.1254L60.9623 13.6746ZM58.4084 16.2286C57.7624 17.3304 57.4538 18.5506 57.4538 19.84H61.4538C61.4538 19.2094 61.5984 18.6962 61.8591 18.2514L58.4084 16.2286ZM57.4538 19.84V29.32H61.4538V19.84H57.4538ZM57.4538 29.32C57.4538 30.6094 57.7624 31.8296 58.4084 32.9314L61.8591 30.9086C61.5984 30.4638 61.4538 29.9506 61.4538 29.32H57.4538ZM58.4084 32.9314C59.0347 33.9999 59.8938 34.8591 60.9623 35.4854L62.9852 32.0346C62.507 31.7543 62.1395 31.3868 61.8591 30.9086L58.4084 32.9314ZM60.9623 35.4854C62.0642 36.1313 63.2843 36.44 64.5738 36.44V32.44C63.9432 32.44 63.43 32.2953 62.9852 32.0346L60.9623 35.4854ZM85.2869 38.42L84.3489 40.1864L84.3583 40.1914L84.3676 40.1962L85.2869 38.42ZM81.7269 35.14L80.0191 36.1809L80.0249 36.1905L80.0309 36.2L81.7269 35.14ZM81.4669 26.06L79.6887 25.1445L79.6851 25.1515L79.6816 25.1585L81.4669 26.06ZM84.4469 22.76L86.4418 22.9025L86.7308 18.857L83.3454 21.0906L84.4469 22.76ZM84.3269 24.44L82.9324 25.8737L86.0154 28.8722L86.3218 24.5825L84.3269 24.44ZM82.0269 21.44L80.2517 22.3613L80.2563 22.3701L80.2609 22.3789L82.0269 21.44ZM82.3869 13.52L80.7063 12.4357L80.7021 12.4422L80.6981 12.4486L82.3869 13.52ZM85.6669 10.64L86.5475 12.4357L86.5545 12.4323L85.6669 10.64ZM95.2869 10.64L94.3924 12.4289L94.4027 12.434L94.4131 12.439L95.2869 10.64ZM98.5669 13.52L96.8781 14.5914L96.8821 14.5978L96.8863 14.6043L98.5669 13.52ZM98.9869 21.44L100.776 22.3344L100.78 22.3253L98.9869 21.44ZM96.6069 24.48H94.6069V29.0544L97.965 25.9482L96.6069 24.48ZM96.6069 22.8L97.6749 21.109L94.6069 19.1713V22.8H96.6069ZM99.5269 26.04L97.738 26.9344L97.7415 26.9414L97.7451 26.9484L99.5269 26.04ZM99.2669 35.14L100.963 36.2L100.967 36.1927L99.2669 35.14ZM95.6869 38.42L96.6062 40.1963L96.6184 40.1898L95.6869 38.42ZM93.6069 33.44L92.297 31.9286L93.6069 33.44ZM93.6069 27.28L92.2689 28.7666L92.2758 28.7728L92.2828 28.7789L93.6069 27.28ZM87.3869 27.28L88.7234 28.7678L88.7303 28.7616L88.7372 28.7553L87.3869 27.28ZM87.3869 33.44L88.7093 31.9396L87.3869 33.44ZM93.0269 20.28L94.2525 21.8604L94.2625 21.8527L94.2724 21.8448L93.0269 20.28ZM93.0269 15.48L91.7621 17.0293L91.7717 17.0371L91.7814 17.0448L93.0269 15.48ZM87.9469 15.48L89.1924 17.0448L89.202 17.0371L89.2116 17.0293L87.9469 15.48ZM87.9469 20.28L86.7014 21.8448L86.7113 21.8527L86.7212 21.8604L87.9469 20.28ZM90.4869 37.6C88.8158 37.6 87.4051 37.2643 86.2061 36.6438L84.3676 40.1962C86.2086 41.149 88.2646 41.6 90.4869 41.6V37.6ZM86.2248 36.6536C85.0145 36.0109 84.0951 35.1555 83.4229 34.08L80.0309 36.2C81.092 37.8978 82.5459 39.2291 84.3489 40.1864L86.2248 36.6536ZM83.4346 34.0991C82.7894 33.0405 82.4469 31.8135 82.4469 30.36H78.4469C78.4469 32.4798 78.9576 34.4395 80.0191 36.1809L83.4346 34.0991ZM82.4469 30.36C82.4469 29.1507 82.7144 28.0264 83.2522 26.9615L79.6816 25.1585C78.8593 26.7869 78.4469 28.5293 78.4469 30.36H82.4469ZM83.245 26.9755C83.7775 25.9413 84.5346 25.0982 85.5483 24.4294L83.3454 21.0906C81.7724 22.1285 80.5429 23.4854 79.6887 25.1445L83.245 26.9755ZM82.452 22.6175L82.332 24.2975L86.3218 24.5825L86.4418 22.9025L82.452 22.6175ZM85.7213 23.0063C84.8765 22.1846 84.243 21.3479 83.7928 20.5011L80.2609 22.3789C80.9308 23.6388 81.8306 24.802 82.9324 25.8737L85.7213 23.0063ZM83.802 20.5187C83.4191 19.7808 83.2069 18.9159 83.2069 17.88H79.2069C79.2069 19.4841 79.5414 20.9926 80.2517 22.3613L83.802 20.5187ZM83.2069 17.88C83.2069 16.5402 83.5187 15.4693 84.0757 14.5914L80.6981 12.4486C79.6817 14.0507 79.2069 15.8865 79.2069 17.88H83.2069ZM84.0675 14.6043C84.661 13.6842 85.4713 12.9635 86.5475 12.4357L84.7863 8.84429C83.0891 9.67654 81.7127 10.8758 80.7063 12.4357L84.0675 14.6043ZM86.5545 12.4323C87.6374 11.8959 88.932 11.6 90.4869 11.6V7.6C88.4151 7.6 86.4963 7.99739 84.7793 8.84774L86.5545 12.4323ZM90.4869 11.6C92.0423 11.6 93.327 11.8961 94.3924 12.4289L96.1813 8.85114C94.4735 7.99723 92.5582 7.6 90.4869 7.6V11.6ZM94.4131 12.439C95.5 12.967 96.3023 13.6839 96.8781 14.5914L100.256 12.4486C99.2581 10.8761 97.8737 9.67304 96.1607 8.84098L94.4131 12.439ZM96.8863 14.6043C97.4516 15.4805 97.7669 16.5467 97.7669 17.88H101.767C101.767 15.88 101.282 14.0395 100.247 12.4357L96.8863 14.6043ZM97.7669 17.88C97.7669 18.9312 97.5616 19.8091 97.1935 20.5547L100.78 22.3253C101.452 20.9643 101.767 19.4688 101.767 17.88H97.7669ZM97.198 20.5456C96.809 21.3236 96.1809 22.1496 95.2488 23.0118L97.965 25.9482C99.1661 24.8371 100.125 23.6364 100.776 22.3344L97.198 20.5456ZM98.6069 24.48V22.8H94.6069V24.48H98.6069ZM95.5389 24.491C96.4923 25.0931 97.2186 25.8956 97.738 26.9344L101.316 25.1456C100.475 23.4644 99.2548 22.1069 97.6749 21.109L95.5389 24.491ZM97.7451 26.9484C98.2956 28.0283 98.5669 29.1572 98.5669 30.36H102.567C102.567 28.5228 102.145 26.7717 101.309 25.1316L97.7451 26.9484ZM98.5669 30.36C98.5669 31.8076 98.2206 33.0303 97.5663 34.0873L100.967 36.1927C102.046 34.4497 102.567 32.4857 102.567 30.36H98.5669ZM97.5709 34.08C96.9014 35.1512 95.9787 36.0063 94.7554 36.6502L96.6184 40.1898C98.4351 39.2337 99.899 37.9021 100.963 36.2L97.5709 34.08ZM94.7676 36.6438C93.5686 37.2643 92.158 37.6 90.4869 37.6V41.6C92.7091 41.6 94.7651 41.149 96.6061 40.1962L94.7676 36.6438ZM90.4869 36.48C92.1429 36.48 93.6808 36.0225 94.9167 34.9514L92.297 31.9286C91.9329 32.2441 91.3909 32.48 90.4869 32.48V36.48ZM94.9167 34.9514C96.2731 33.7759 96.8069 32.1231 96.8069 30.36H92.8069C92.8069 31.3169 92.5407 31.7174 92.297 31.9286L94.9167 34.9514ZM96.8069 30.36C96.8069 28.6011 96.2683 26.9624 94.9309 25.7811L92.2828 28.7789C92.5454 29.0109 92.8069 29.4256 92.8069 30.36H96.8069ZM94.9448 25.7934C93.7102 24.6823 92.1622 24.2 90.4869 24.2V28.2C91.3716 28.2 91.9035 28.4377 92.2689 28.7666L94.9448 25.7934ZM90.4869 24.2C88.8127 24.2 87.2632 24.682 86.0366 25.8047L88.7372 28.7553C89.0839 28.438 89.601 28.2 90.4869 28.2V24.2ZM86.0503 25.7922C84.732 26.9764 84.2069 28.6115 84.2069 30.36H88.2069C88.2069 29.4152 88.4684 28.9969 88.7234 28.7678L86.0503 25.7922ZM84.2069 30.36C84.2069 32.1127 84.7273 33.7619 86.0645 34.9404L88.7093 31.9396C88.4731 31.7314 88.2069 31.3273 88.2069 30.36H84.2069ZM86.0645 34.9404C87.2927 36.0229 88.8322 36.48 90.4869 36.48V32.48C89.5815 32.48 89.0544 32.2438 88.7093 31.9396L86.0645 34.9404ZM90.4869 23.04C91.8542 23.04 93.1665 22.7027 94.2525 21.8604L91.8012 18.6996C91.5806 18.8706 91.1995 19.04 90.4869 19.04V23.04ZM94.2724 21.8448C95.5359 20.8391 96.0069 19.3754 96.0069 17.88H92.0069C92.0069 18.5446 91.8245 18.6808 91.7814 18.7151L94.2724 21.8448ZM96.0069 17.88C96.0069 16.3846 95.5359 14.9208 94.2724 13.9151L91.7814 17.0448C91.8245 17.0791 92.0069 17.2154 92.0069 17.88H96.0069ZM94.2916 13.9307C93.204 13.0428 91.8771 12.68 90.4869 12.68V16.68C91.1767 16.68 91.5431 16.8505 91.7621 17.0293L94.2916 13.9307ZM90.4869 12.68C89.0967 12.68 87.7698 13.0428 86.6821 13.9307L89.2116 17.0293C89.4306 16.8505 89.7971 16.68 90.4869 16.68V12.68ZM86.7014 13.9151C85.4378 14.9208 84.9669 16.3846 84.9669 17.88H88.9669C88.9669 17.2154 89.1493 17.0791 89.1924 17.0448L86.7014 13.9151ZM84.9669 17.88C84.9669 19.3754 85.4378 20.8391 86.7014 21.8448L89.1924 18.7151C89.1493 18.6808 88.9669 18.5446 88.9669 17.88H84.9669ZM86.7212 21.8604C87.8073 22.7027 89.1195 23.04 90.4869 23.04V19.04C89.7742 19.04 89.3931 18.8706 89.1725 18.6996L86.7212 21.8604Z" fill="#2D5183" mask="url(#path-1-outside-1_367_791)"/>
</svg>
