<svg width="186" height="31" viewBox="0 0 186 31" fill="none" xmlns="http://www.w3.org/2000/svg">
<mask id="path-1-outside-1_367_785" maskUnits="userSpaceOnUse" x="-2" y="-2" width="190" height="35" fill="black">
<rect fill="white" x="-2" y="-2" width="190" height="35"/>
<path d="M5.8 30V7.12L0.4 10.44V4.44L5.8 1.2H11.36V30H5.8ZM29.0041 30.6C27.0974 30.6 25.3841 30.1533 23.8641 29.26C22.3574 28.3667 21.1641 27.1267 20.2841 25.54C19.4041 23.94 18.9641 22.0933 18.9641 20V11.64C18.9641 9.37333 19.4041 7.42 20.2841 5.78C21.1641 4.12667 22.4041 2.86 24.0041 1.98C25.6041 1.08667 27.4841 0.639999 29.6441 0.639999C31.0441 0.639999 32.3774 0.846666 33.6441 1.26C34.9107 1.67333 36.0707 2.37333 37.1241 3.36L33.2441 7.24C32.7641 6.76 32.2107 6.38667 31.5841 6.12C30.9574 5.85333 30.3107 5.72 29.6441 5.72C28.6041 5.72 27.6974 5.96666 26.9241 6.46C26.1641 6.94 25.5707 7.57333 25.1441 8.36C24.7307 9.13333 24.5241 9.96 24.5241 10.84V15.12L23.6041 14.12C24.4307 13.28 25.3841 12.64 26.4641 12.2C27.5574 11.7467 28.6841 11.52 29.8441 11.52C31.6574 11.52 33.2507 11.9267 34.6241 12.74C36.0107 13.5533 37.0907 14.6667 37.8641 16.08C38.6507 17.4933 39.0441 19.1067 39.0441 20.92C39.0441 22.7333 38.5841 24.3733 37.6641 25.84C36.7441 27.2933 35.5241 28.4533 34.0041 29.32C32.4841 30.1733 30.8174 30.6 29.0041 30.6ZM29.0041 25.4C29.8307 25.4 30.5841 25.2 31.2641 24.8C31.9574 24.4 32.5041 23.86 32.9041 23.18C33.3174 22.5 33.5241 21.7467 33.5241 20.92C33.5241 20.0933 33.3241 19.34 32.9241 18.66C32.5241 17.9667 31.9841 17.42 31.3041 17.02C30.6241 16.6067 29.8707 16.4 29.0441 16.4C28.2174 16.4 27.4574 16.6067 26.7641 17.02C26.0841 17.42 25.5374 17.9667 25.1241 18.66C24.7241 19.34 24.5241 20.0933 24.5241 20.92C24.5241 21.72 24.7241 22.46 25.1241 23.14C25.5241 23.82 26.0641 24.3667 26.7441 24.78C27.4241 25.1933 28.1774 25.4 29.0041 25.4ZM54.5269 30.6C52.3935 30.6 50.5269 30.1533 48.9269 29.26C47.3269 28.3667 46.0802 27.12 45.1869 25.52C44.2935 23.92 43.8469 22.0533 43.8469 19.92V11.28C43.8469 9.14667 44.2935 7.28 45.1869 5.68C46.0802 4.08 47.3269 2.83333 48.9269 1.94C50.5269 1.04667 52.3935 0.599999 54.5269 0.599999C56.6602 0.599999 58.5269 1.04667 60.1269 1.94C61.7269 2.83333 62.9735 4.08 63.8669 5.68C64.7602 7.28 65.2069 9.14667 65.2069 11.28V19.92C65.2069 22.0533 64.7602 23.92 63.8669 25.52C62.9735 27.12 61.7269 28.3667 60.1269 29.26C58.5269 30.1533 56.6602 30.6 54.5269 30.6ZM54.5269 25.44C55.4869 25.44 56.3535 25.2133 57.1269 24.76C57.9002 24.3067 58.5135 23.6933 58.9669 22.92C59.4202 22.1467 59.6469 21.28 59.6469 20.32V10.84C59.6469 9.88 59.4202 9.01333 58.9669 8.24C58.5135 7.46667 57.9002 6.85333 57.1269 6.4C56.3535 5.94666 55.4869 5.72 54.5269 5.72C53.5669 5.72 52.7002 5.94666 51.9269 6.4C51.1535 6.85333 50.5402 7.46667 50.0869 8.24C49.6335 9.01333 49.4069 9.88 49.4069 10.84V20.32C49.4069 21.28 49.6335 22.1467 50.0869 22.92C50.5402 23.6933 51.1535 24.3067 51.9269 24.76C52.7002 25.2133 53.5669 25.44 54.5269 25.44ZM89.4878 30.6C87.3545 30.6 85.4878 30.1533 83.8878 29.26C82.2878 28.3667 81.0411 27.12 80.1478 25.52C79.2545 23.92 78.8078 22.0533 78.8078 19.92V11.28C78.8078 9.14667 79.2545 7.28 80.1478 5.68C81.0411 4.08 82.2878 2.83333 83.8878 1.94C85.4878 1.04667 87.3545 0.599999 89.4878 0.599999C91.6211 0.599999 93.4878 1.04667 95.0878 1.94C96.6878 2.83333 97.9345 4.08 98.8278 5.68C99.7211 7.28 100.168 9.14667 100.168 11.28V19.92C100.168 22.0533 99.7211 23.92 98.8278 25.52C97.9345 27.12 96.6878 28.3667 95.0878 29.26C93.4878 30.1533 91.6211 30.6 89.4878 30.6ZM89.4878 25.44C90.4478 25.44 91.3145 25.2133 92.0878 24.76C92.8611 24.3067 93.4745 23.6933 93.9278 22.92C94.3811 22.1467 94.6078 21.28 94.6078 20.32V10.84C94.6078 9.88 94.3811 9.01333 93.9278 8.24C93.4745 7.46667 92.8611 6.85333 92.0878 6.4C91.3145 5.94666 90.4478 5.72 89.4878 5.72C88.5278 5.72 87.6611 5.94666 86.8878 6.4C86.1145 6.85333 85.5011 7.46667 85.0478 8.24C84.5945 9.01333 84.3678 9.88 84.3678 10.84V20.32C84.3678 21.28 84.5945 22.1467 85.0478 22.92C85.5011 23.6933 86.1145 24.3067 86.8878 24.76C87.6611 25.2133 88.5278 25.44 89.4878 25.44ZM116.441 30.6C114.308 30.6 112.441 30.1533 110.841 29.26C109.241 28.3667 107.994 27.12 107.101 25.52C106.208 23.92 105.761 22.0533 105.761 19.92V11.28C105.761 9.14667 106.208 7.28 107.101 5.68C107.994 4.08 109.241 2.83333 110.841 1.94C112.441 1.04667 114.308 0.599999 116.441 0.599999C118.574 0.599999 120.441 1.04667 122.041 1.94C123.641 2.83333 124.888 4.08 125.781 5.68C126.674 7.28 127.121 9.14667 127.121 11.28V19.92C127.121 22.0533 126.674 23.92 125.781 25.52C124.888 27.12 123.641 28.3667 122.041 29.26C120.441 30.1533 118.574 30.6 116.441 30.6ZM116.441 25.44C117.401 25.44 118.268 25.2133 119.041 24.76C119.814 24.3067 120.428 23.6933 120.881 22.92C121.334 22.1467 121.561 21.28 121.561 20.32V10.84C121.561 9.88 121.334 9.01333 120.881 8.24C120.428 7.46667 119.814 6.85333 119.041 6.4C118.268 5.94666 117.401 5.72 116.441 5.72C115.481 5.72 114.614 5.94666 113.841 6.4C113.068 6.85333 112.454 7.46667 112.001 8.24C111.548 9.01333 111.321 9.88 111.321 10.84V20.32C111.321 21.28 111.548 22.1467 112.001 22.92C112.454 23.6933 113.068 24.3067 113.841 24.76C114.614 25.2133 115.481 25.44 116.441 25.44ZM143.394 30.6C141.261 30.6 139.394 30.1533 137.794 29.26C136.194 28.3667 134.947 27.12 134.054 25.52C133.161 23.92 132.714 22.0533 132.714 19.92V11.28C132.714 9.14667 133.161 7.28 134.054 5.68C134.947 4.08 136.194 2.83333 137.794 1.94C139.394 1.04667 141.261 0.599999 143.394 0.599999C145.527 0.599999 147.394 1.04667 148.994 1.94C150.594 2.83333 151.841 4.08 152.734 5.68C153.627 7.28 154.074 9.14667 154.074 11.28V19.92C154.074 22.0533 153.627 23.92 152.734 25.52C151.841 27.12 150.594 28.3667 148.994 29.26C147.394 30.1533 145.527 30.6 143.394 30.6ZM143.394 25.44C144.354 25.44 145.221 25.2133 145.994 24.76C146.767 24.3067 147.381 23.6933 147.834 22.92C148.287 22.1467 148.514 21.28 148.514 20.32V10.84C148.514 9.88 148.287 9.01333 147.834 8.24C147.381 7.46667 146.767 6.85333 145.994 6.4C145.221 5.94666 144.354 5.72 143.394 5.72C142.434 5.72 141.567 5.94666 140.794 6.4C140.021 6.85333 139.407 7.46667 138.954 8.24C138.501 9.01333 138.274 9.88 138.274 10.84V20.32C138.274 21.28 138.501 22.1467 138.954 22.92C139.407 23.6933 140.021 24.3067 140.794 24.76C141.567 25.2133 142.434 25.44 143.394 25.44ZM174.195 24.6V17.68H167.275V13.48H174.195V6.6H178.395V13.48H185.275V17.68H178.395V24.6H174.195Z"/>
</mask>
<path d="M5.8 30H3.8V32H5.8V30ZM5.8 7.12H7.8V3.54261L4.75251 5.41625L5.8 7.12ZM0.4 10.44H-1.6V14.0174L1.44749 12.1437L0.4 10.44ZM0.4 4.44L-0.628991 2.72501L-1.6 3.30762V4.44H0.4ZM5.8 1.2V-0.800001H5.24603L4.77101 -0.514987L5.8 1.2ZM11.36 1.2H13.36V-0.800001H11.36V1.2ZM11.36 30V32H13.36V30H11.36ZM7.8 30V7.12H3.8V30H7.8ZM4.75251 5.41625L-0.647491 8.73625L1.44749 12.1437L6.84749 8.82375L4.75251 5.41625ZM2.4 10.44V4.44H-1.6V10.44H2.4ZM1.42899 6.15498L6.82899 2.91498L4.77101 -0.514987L-0.628991 2.72501L1.42899 6.15498ZM5.8 3.2H11.36V-0.800001H5.8V3.2ZM9.36 1.2V30H13.36V1.2H9.36ZM11.36 28H5.8V32H11.36V28ZM23.8641 29.26L22.844 30.9803L22.8507 30.9843L23.8641 29.26ZM20.2841 25.54L18.5316 26.5038L18.5351 26.51L20.2841 25.54ZM20.2841 5.78L22.0464 6.72564L22.0496 6.7197L20.2841 5.78ZM24.0041 1.98L24.9679 3.73247L24.9791 3.72625L24.0041 1.98ZM33.6441 1.26L33.0236 3.16133L33.6441 1.26ZM37.1241 3.36L38.5383 4.77421L39.9995 3.31303L38.4913 1.90035L37.1241 3.36ZM33.2441 7.24L31.8298 8.65421L33.2441 10.0684L34.6583 8.65421L33.2441 7.24ZM31.5841 6.12L30.8009 7.96031L30.801 7.96031L31.5841 6.12ZM26.9241 6.46L27.9921 8.15099L27.9997 8.14612L26.9241 6.46ZM25.1441 8.36L23.386 7.40646L23.3802 7.41724L25.1441 8.36ZM24.5241 15.12L23.0522 16.4741L26.5241 20.2479V15.12H24.5241ZM23.6041 14.12L22.1786 12.7171L20.8437 14.0736L22.1322 15.4741L23.6041 14.12ZM26.4641 12.2L27.2187 14.0522L27.2301 14.0475L26.4641 12.2ZM34.6241 12.74L33.6049 14.4609L33.6122 14.4651L34.6241 12.74ZM37.8641 16.08L36.1095 17.04L36.113 17.0464L36.1165 17.0527L37.8641 16.08ZM37.6641 25.84L39.354 26.9097L39.3583 26.9028L37.6641 25.84ZM34.0041 29.32L34.9832 31.064L34.9947 31.0574L34.0041 29.32ZM31.2641 24.8L30.2646 23.0676L30.2573 23.0718L30.25 23.0761L31.2641 24.8ZM32.9041 23.18L31.195 22.1412L31.1875 22.1535L31.1802 22.166L32.9041 23.18ZM32.9241 18.66L31.1917 19.6594L31.1959 19.6668L31.2002 19.674L32.9241 18.66ZM31.3041 17.02L30.2652 18.729L30.2776 18.7365L30.29 18.7439L31.3041 17.02ZM26.7641 17.02L27.7781 18.7439L27.7882 18.7379L26.7641 17.02ZM25.1241 18.66L23.4061 17.6359L23.4002 17.646L25.1241 18.66ZM26.7441 24.78L27.7829 23.071L26.7441 24.78ZM29.0041 28.6C27.4237 28.6 26.0654 28.2339 24.8774 27.5357L22.8507 30.9843C24.7028 32.0728 26.7711 32.6 29.0041 32.6V28.6ZM24.8841 27.5397C23.6939 26.834 22.7474 25.8579 22.0331 24.57L18.5351 26.51C19.5807 28.3954 21.0209 29.8993 22.844 30.9803L24.8841 27.5397ZM22.0365 24.5762C21.3414 23.3123 20.9641 21.8062 20.9641 20H16.9641C16.9641 22.3805 17.4668 24.5677 18.5316 26.5038L22.0365 24.5762ZM20.9641 20V11.64H16.9641V20H20.9641ZM20.9641 11.64C20.9641 9.63213 21.3529 8.01799 22.0464 6.72563L18.5217 4.83436C17.4552 6.822 16.9641 9.11454 16.9641 11.64H20.9641ZM22.0496 6.7197C22.7519 5.40007 23.7176 4.42012 24.9679 3.73243L23.0402 0.227568C21.0906 1.29987 19.5762 2.85326 18.5186 4.8403L22.0496 6.7197ZM24.9791 3.72625C26.2318 3.02681 27.7642 2.64 29.6441 2.64V-1.36C27.204 -1.36 24.9763 -0.853476 23.0291 0.233748L24.9791 3.72625ZM29.6441 2.64C30.8441 2.64 31.9673 2.81662 33.0236 3.16133L34.2645 -0.641332C32.7875 -1.12329 31.244 -1.36 29.6441 -1.36V2.64ZM33.0236 3.16133C33.9894 3.47649 34.899 4.01618 35.7568 4.81965L38.4913 1.90035C37.2424 0.730484 35.832 -0.129826 34.2645 -0.641332L33.0236 3.16133ZM35.7099 1.94579L31.8298 5.82579L34.6583 8.65421L38.5383 4.77421L35.7099 1.94579ZM34.6583 5.82579C33.9965 5.16404 33.2288 4.64632 32.3672 4.27969L30.801 7.96031C31.1927 8.12701 31.5316 8.35596 31.8298 8.65421L34.6583 5.82579ZM32.3672 4.27969C31.4984 3.90998 30.5857 3.72 29.6441 3.72V7.72C30.0357 7.72 30.4164 7.79669 30.8009 7.96031L32.3672 4.27969ZM29.6441 3.72C28.2753 3.72 26.9846 4.04909 25.8484 4.77388L27.9997 8.14612C28.4102 7.88424 28.9328 7.72 29.6441 7.72V3.72ZM25.8561 4.76902C24.8081 5.43091 23.9766 6.31761 23.386 7.40647L26.9021 9.31353C27.1649 8.82906 27.52 8.44909 27.9921 8.15098L25.8561 4.76902ZM23.3802 7.41724C22.8113 8.48172 22.5241 9.63234 22.5241 10.84H26.5241C26.5241 10.2877 26.6502 9.78495 26.9079 9.30276L23.3802 7.41724ZM22.5241 10.84V15.12H26.5241V10.84H22.5241ZM25.9959 13.7659L25.0759 12.7659L22.1322 15.4741L23.0522 16.4741L25.9959 13.7659ZM25.0295 15.5229C25.6675 14.8746 26.3932 14.3885 27.2187 14.0522L25.7095 10.3478C24.3749 10.8915 23.1939 11.6854 22.1786 12.7171L25.0295 15.5229ZM27.2301 14.0475C28.0856 13.6927 28.9524 13.52 29.8441 13.52V9.52C28.4158 9.52 27.0291 9.80059 25.698 10.3525L27.2301 14.0475ZM29.8441 13.52C31.3486 13.52 32.5803 13.8541 33.6049 14.4609L35.6432 11.0191C33.9211 9.99928 31.9662 9.52 29.8441 9.52V13.52ZM33.6122 14.4651C34.6859 15.0949 35.5096 15.9435 36.1095 17.04L39.6186 15.12C38.6719 13.3898 37.3355 12.0117 35.6359 11.0149L33.6122 14.4651ZM36.1165 17.0527C36.7183 18.1339 37.0441 19.4051 37.0441 20.92H41.0441C41.0441 18.8082 40.5831 16.8527 39.6116 15.1073L36.1165 17.0527ZM37.0441 20.92C37.0441 22.3761 36.6803 23.6445 35.9698 24.7772L39.3583 26.9028C40.4878 25.1022 41.0441 23.0906 41.0441 20.92H37.0441ZM35.9742 24.7703C35.2323 25.9423 34.2544 26.875 33.0134 27.5826L34.9947 31.0574C36.7938 30.0316 38.2559 28.6444 39.3539 26.9097L35.9742 24.7703ZM33.025 27.576C31.8163 28.2546 30.4889 28.6 29.0041 28.6V32.6C31.1459 32.6 33.1518 32.0921 34.9831 31.064L33.025 27.576ZM29.0041 27.4C30.1695 27.4 31.2758 27.1135 32.2781 26.5239L30.25 23.0761C29.8924 23.2865 29.4919 23.4 29.0041 23.4V27.4ZM32.2635 26.5324C33.2518 25.9622 34.0499 25.1766 34.6279 24.194L31.1802 22.166C30.9582 22.5434 30.663 22.8378 30.2646 23.0676L32.2635 26.5324ZM34.6131 24.2188C35.2243 23.2132 35.5241 22.0981 35.5241 20.92H31.5241C31.5241 21.3952 31.4104 21.7868 31.195 22.1412L34.6131 24.2188ZM35.5241 20.92C35.5241 19.7545 35.2375 18.6483 34.6479 17.646L31.2002 19.674C31.4106 20.0317 31.5241 20.4321 31.5241 20.92H35.5241ZM34.6564 17.6606C34.0863 16.6723 33.3007 15.8741 32.3181 15.2961L30.29 18.7439C30.6675 18.9659 30.9618 19.261 31.1917 19.6594L34.6564 17.6606ZM32.3429 15.311C31.3373 14.6997 30.2222 14.4 29.0441 14.4V18.4C29.5193 18.4 29.9108 18.5136 30.2652 18.729L32.3429 15.311ZM29.0441 14.4C27.866 14.4 26.7507 14.6995 25.7399 15.3021L27.7882 18.7379C28.1641 18.5138 28.5688 18.4 29.0441 18.4V14.4ZM25.75 15.2961C24.7734 15.8706 23.9874 16.6608 23.4062 17.6359L26.842 19.6841C27.0873 19.2725 27.3947 18.9694 27.7781 18.7439L25.75 15.2961ZM23.4002 17.646C22.8106 18.6483 22.5241 19.7545 22.5241 20.92H26.5241C26.5241 20.4321 26.6375 20.0317 26.8479 19.674L23.4002 17.646ZM22.5241 20.92C22.5241 22.0713 22.8167 23.1622 23.4002 24.154L26.8479 22.126C26.6314 21.7578 26.5241 21.3687 26.5241 20.92H22.5241ZM23.4002 24.154C23.9692 25.1213 24.7456 25.9057 25.7052 26.489L27.7829 23.071C27.3826 22.8276 27.079 22.5187 26.8479 22.126L23.4002 24.154ZM25.7052 26.489C26.7108 27.1003 27.8259 27.4 29.0041 27.4V23.4C28.5289 23.4 28.1373 23.2864 27.7829 23.071L25.7052 26.489ZM48.9269 29.26L49.9019 27.5137L48.9269 29.26ZM45.1869 25.52L46.9331 24.545L45.1869 25.52ZM45.1869 5.68L46.9331 6.65499V6.65499L45.1869 5.68ZM48.9269 1.94L47.9519 0.193746V0.193747L48.9269 1.94ZM60.1269 1.94L61.1019 0.193747L61.1019 0.193746L60.1269 1.94ZM60.1269 29.26L61.1019 31.0063L60.1269 29.26ZM57.1269 24.76L56.1154 23.0346L57.1269 24.76ZM58.9669 22.92L57.2415 21.9086L57.2415 21.9086L58.9669 22.92ZM58.9669 8.24L57.2415 9.25144H57.2415L58.9669 8.24ZM57.1269 6.4L56.1154 8.12539V8.12539L57.1269 6.4ZM51.9269 6.4L50.9154 4.6746L51.9269 6.4ZM50.0869 22.92L48.3615 23.9314L50.0869 22.92ZM51.9269 24.76L52.9383 23.0346L51.9269 24.76ZM54.5269 28.6C52.6784 28.6 51.1582 28.2152 49.9019 27.5137L47.9519 31.0063C49.8956 32.0915 52.1087 32.6 54.5269 32.6V28.6ZM49.9019 27.5137C48.6254 26.8011 47.6458 25.8214 46.9331 24.545L43.4406 26.495C44.5146 28.4186 46.0283 29.9323 47.9519 31.0063L49.9019 27.5137ZM46.9331 24.545C46.2317 23.2887 45.8469 21.7685 45.8469 19.92H41.8469C41.8469 22.3382 42.3554 24.5513 43.4406 26.495L46.9331 24.545ZM45.8469 19.92V11.28H41.8469V19.92H45.8469ZM45.8469 11.28C45.8469 9.43154 46.2317 7.91128 46.9331 6.65499L43.4406 4.70501C42.3554 6.64872 41.8469 8.86179 41.8469 11.28H45.8469ZM46.9331 6.65499C47.6458 5.37857 48.6254 4.39892 49.9019 3.68625L47.9519 0.193747C46.0283 1.26775 44.5146 2.78143 43.4406 4.70501L46.9331 6.65499ZM49.9019 3.68625C51.1582 2.98482 52.6784 2.6 54.5269 2.6V-1.4C52.1087 -1.4 49.8956 -0.891489 47.9519 0.193746L49.9019 3.68625ZM54.5269 2.6C56.3753 2.6 57.8956 2.98482 59.1519 3.68625L61.1019 0.193746C59.1582 -0.891489 56.9451 -1.4 54.5269 -1.4V2.6ZM59.1519 3.68625C60.4283 4.39892 61.408 5.37857 62.1206 6.65499L65.6131 4.70501C64.5391 2.78143 63.0254 1.26775 61.1019 0.193747L59.1519 3.68625ZM62.1206 6.65499C62.8221 7.91128 63.2069 9.43154 63.2069 11.28H67.2069C67.2069 8.86179 66.6984 6.64872 65.6131 4.70501L62.1206 6.65499ZM63.2069 11.28V19.92H67.2069V11.28H63.2069ZM63.2069 19.92C63.2069 21.7685 62.8221 23.2887 62.1206 24.545L65.6131 26.495C66.6984 24.5513 67.2069 22.3382 67.2069 19.92H63.2069ZM62.1206 24.545C61.408 25.8214 60.4283 26.8011 59.1519 27.5137L61.1019 31.0063C63.0254 29.9323 64.5391 28.4186 65.6131 26.495L62.1206 24.545ZM59.1519 27.5137C57.8956 28.2152 56.3753 28.6 54.5269 28.6V32.6C56.9451 32.6 59.1582 32.0915 61.1019 31.0063L59.1519 27.5137ZM54.5269 27.44C55.8163 27.44 57.0364 27.1313 58.1383 26.4854L56.1154 23.0346C55.6706 23.2953 55.1574 23.44 54.5269 23.44V27.44ZM58.1383 26.4854C59.2068 25.8591 60.0659 24.9999 60.6923 23.9314L57.2415 21.9086C56.9612 22.3868 56.5936 22.7543 56.1154 23.0346L58.1383 26.4854ZM60.6923 23.9314C61.3382 22.8296 61.6469 21.6094 61.6469 20.32H57.6469C57.6469 20.9506 57.5022 21.4638 57.2415 21.9086L60.6923 23.9314ZM61.6469 20.32V10.84H57.6469V20.32H61.6469ZM61.6469 10.84C61.6469 9.55057 61.3382 8.33042 60.6923 7.22856L57.2415 9.25144C57.5022 9.69624 57.6469 10.2094 57.6469 10.84H61.6469ZM60.6923 7.22856C60.0659 6.1601 59.2068 5.30094 58.1383 4.6746L56.1154 8.12539C56.5936 8.40572 56.9612 8.77324 57.2415 9.25144L60.6923 7.22856ZM58.1383 4.6746C57.0365 4.02868 55.8163 3.72 54.5269 3.72V7.72C55.1574 7.72 55.6706 7.86465 56.1154 8.12539L58.1383 4.6746ZM54.5269 3.72C53.2374 3.72 52.0173 4.02868 50.9154 4.6746L52.9383 8.12539C53.3831 7.86465 53.8963 7.72 54.5269 7.72V3.72ZM50.9154 4.6746C49.847 5.30094 48.9878 6.1601 48.3615 7.22856L51.8123 9.25144C52.0926 8.77324 52.4601 8.40572 52.9383 8.12539L50.9154 4.6746ZM48.3615 7.22856C47.7156 8.33042 47.4069 9.55057 47.4069 10.84H51.4069C51.4069 10.2094 51.5515 9.69624 51.8123 9.25144L48.3615 7.22856ZM47.4069 10.84V20.32H51.4069V10.84H47.4069ZM47.4069 20.32C47.4069 21.6094 47.7156 22.8296 48.3615 23.9314L51.8123 21.9086C51.5515 21.4638 51.4069 20.9506 51.4069 20.32H47.4069ZM48.3615 23.9314C48.9878 24.9999 49.847 25.8591 50.9154 26.4854L52.9383 23.0346C52.4601 22.7543 52.0926 22.3868 51.8123 21.9086L48.3615 23.9314ZM50.9154 26.4854C52.0173 27.1313 53.2374 27.44 54.5269 27.44V23.44C53.8963 23.44 53.3831 23.2953 52.9383 23.0346L50.9154 26.4854ZM83.8878 29.26L84.8628 27.5137L83.8878 29.26ZM80.1478 25.52L81.8941 24.545L80.1478 25.52ZM80.1478 5.68L81.8941 6.65499V6.65499L80.1478 5.68ZM83.8878 1.94L82.9128 0.193746L82.9128 0.193747L83.8878 1.94ZM95.0878 1.94L96.0628 0.193747V0.193746L95.0878 1.94ZM95.0878 29.26L96.0628 31.0063L95.0878 29.26ZM92.0878 24.76L91.0764 23.0346H91.0764L92.0878 24.76ZM93.9278 22.92L92.2024 21.9086V21.9086L93.9278 22.92ZM93.9278 8.24L92.2024 9.25144L93.9278 8.24ZM92.0878 6.4L91.0764 8.12539V8.12539L92.0878 6.4ZM86.8878 6.4L85.8764 4.6746L86.8878 6.4ZM85.0478 22.92L83.3224 23.9314L85.0478 22.92ZM86.8878 24.76L87.8993 23.0346L86.8878 24.76ZM89.4878 28.6C87.6394 28.6 86.1191 28.2152 84.8628 27.5137L82.9128 31.0063C84.8565 32.0915 87.0696 32.6 89.4878 32.6V28.6ZM84.8628 27.5137C83.5864 26.8011 82.6067 25.8214 81.8941 24.545L78.4016 26.495C79.4756 28.4186 80.9892 29.9323 82.9128 31.0063L84.8628 27.5137ZM81.8941 24.545C81.1926 23.2887 80.8078 21.7685 80.8078 19.92H76.8078C76.8078 22.3382 77.3163 24.5513 78.4016 26.495L81.8941 24.545ZM80.8078 19.92V11.28H76.8078V19.92H80.8078ZM80.8078 11.28C80.8078 9.43154 81.1926 7.91128 81.8941 6.65499L78.4016 4.70501C77.3163 6.64872 76.8078 8.86179 76.8078 11.28H80.8078ZM81.8941 6.65499C82.6067 5.37857 83.5864 4.39892 84.8628 3.68625L82.9128 0.193747C80.9892 1.26775 79.4756 2.78143 78.4016 4.70501L81.8941 6.65499ZM84.8628 3.68625C86.1191 2.98482 87.6394 2.6 89.4878 2.6V-1.4C87.0696 -1.4 84.8565 -0.891489 82.9128 0.193746L84.8628 3.68625ZM89.4878 2.6C91.3363 2.6 92.8565 2.98482 94.1128 3.68625L96.0628 0.193746C94.1191 -0.891489 91.906 -1.4 89.4878 -1.4V2.6ZM94.1128 3.68625C95.3892 4.39892 96.3689 5.37857 97.0816 6.65499L100.574 4.70501C99.5001 2.78143 97.9864 1.26775 96.0628 0.193747L94.1128 3.68625ZM97.0816 6.65499C97.783 7.91128 98.1678 9.43154 98.1678 11.28H102.168C102.168 8.86179 101.659 6.64872 100.574 4.70501L97.0816 6.65499ZM98.1678 11.28V19.92H102.168V11.28H98.1678ZM98.1678 19.92C98.1678 21.7685 97.783 23.2887 97.0816 24.545L100.574 26.495C101.659 24.5513 102.168 22.3382 102.168 19.92H98.1678ZM97.0816 24.545C96.3689 25.8214 95.3892 26.8011 94.1128 27.5137L96.0628 31.0063C97.9864 29.9323 99.5001 28.4186 100.574 26.495L97.0816 24.545ZM94.1128 27.5137C92.8565 28.2152 91.3363 28.6 89.4878 28.6V32.6C91.906 32.6 94.1191 32.0915 96.0628 31.0063L94.1128 27.5137ZM89.4878 27.44C90.7772 27.44 91.9974 27.1313 93.0993 26.4854L91.0764 23.0346C90.6316 23.2953 90.1184 23.44 89.4878 23.44V27.44ZM93.0993 26.4854C94.1677 25.8591 95.0269 24.9999 95.6532 23.9314L92.2024 21.9086C91.9221 22.3868 91.5546 22.7543 91.0764 23.0346L93.0993 26.4854ZM95.6532 23.9314C96.2991 22.8296 96.6078 21.6094 96.6078 20.32H92.6078C92.6078 20.9506 92.4632 21.4638 92.2024 21.9086L95.6532 23.9314ZM96.6078 20.32V10.84H92.6078V20.32H96.6078ZM96.6078 10.84C96.6078 9.55057 96.2991 8.33042 95.6532 7.22856L92.2024 9.25144C92.4632 9.69624 92.6078 10.2094 92.6078 10.84H96.6078ZM95.6532 7.22856C95.0269 6.1601 94.1677 5.30094 93.0993 4.6746L91.0764 8.12539C91.5546 8.40572 91.9221 8.77324 92.2024 9.25144L95.6532 7.22856ZM93.0993 4.6746C91.9974 4.02868 90.7772 3.72 89.4878 3.72V7.72C90.1184 7.72 90.6316 7.86465 91.0764 8.12539L93.0993 4.6746ZM89.4878 3.72C88.1984 3.72 86.9782 4.02868 85.8764 4.6746L87.8993 8.12539C88.3441 7.86465 88.8572 7.72 89.4878 7.72V3.72ZM85.8764 4.6746C84.8079 5.30094 83.9488 6.1601 83.3224 7.22856L86.7732 9.25144C87.0535 8.77324 87.4211 8.40572 87.8993 8.12539L85.8764 4.6746ZM83.3224 7.22856C82.6765 8.33042 82.3678 9.55057 82.3678 10.84H86.3678C86.3678 10.2094 86.5125 9.69624 86.7732 9.25144L83.3224 7.22856ZM82.3678 10.84V20.32H86.3678V10.84H82.3678ZM82.3678 20.32C82.3678 21.6094 82.6765 22.8296 83.3224 23.9314L86.7732 21.9086C86.5125 21.4638 86.3678 20.9506 86.3678 20.32H82.3678ZM83.3224 23.9314C83.9488 24.9999 84.8079 25.8591 85.8764 26.4854L87.8993 23.0346C87.4211 22.7543 87.0535 22.3868 86.7732 21.9086L83.3224 23.9314ZM85.8764 26.4854C86.9782 27.1313 88.1984 27.44 89.4878 27.44V23.44C88.8572 23.44 88.3441 23.2953 87.8993 23.0346L85.8764 26.4854ZM110.841 29.26L111.816 27.5137L110.841 29.26ZM107.101 25.52L108.847 24.545L107.101 25.52ZM107.101 5.68L108.847 6.65499V6.65499L107.101 5.68ZM110.841 1.94L109.866 0.193746L109.866 0.193747L110.841 1.94ZM122.041 1.94L123.016 0.193747V0.193746L122.041 1.94ZM122.041 29.26L123.016 31.0063L122.041 29.26ZM119.041 24.76L118.03 23.0346H118.029L119.041 24.76ZM120.881 22.92L119.156 21.9086V21.9086L120.881 22.92ZM120.881 8.24L119.156 9.25144L120.881 8.24ZM119.041 6.4L118.029 8.12539V8.12539L119.041 6.4ZM113.841 6.4L112.829 4.6746L113.841 6.4ZM112.001 22.92L110.276 23.9314L112.001 22.92ZM113.841 24.76L114.852 23.0346L113.841 24.76ZM116.441 28.6C114.592 28.6 113.072 28.2152 111.816 27.5137L109.866 31.0063C111.81 32.0915 114.023 32.6 116.441 32.6V28.6ZM111.816 27.5137C110.54 26.8011 109.56 25.8214 108.847 24.545L105.355 26.495C106.429 28.4186 107.942 29.9323 109.866 31.0063L111.816 27.5137ZM108.847 24.545C108.146 23.2887 107.761 21.7685 107.761 19.92H103.761C103.761 22.3382 104.269 24.5513 105.355 26.495L108.847 24.545ZM107.761 19.92V11.28H103.761V19.92H107.761ZM107.761 11.28C107.761 9.43154 108.146 7.91128 108.847 6.65499L105.355 4.70501C104.269 6.64872 103.761 8.86179 103.761 11.28H107.761ZM108.847 6.65499C109.56 5.37857 110.54 4.39892 111.816 3.68625L109.866 0.193747C107.942 1.26775 106.429 2.78143 105.355 4.70501L108.847 6.65499ZM111.816 3.68625C113.072 2.98482 114.592 2.6 116.441 2.6V-1.4C114.023 -1.4 111.81 -0.891489 109.866 0.193746L111.816 3.68625ZM116.441 2.6C118.289 2.6 119.81 2.98482 121.066 3.68625L123.016 0.193746C121.072 -0.891489 118.859 -1.4 116.441 -1.4V2.6ZM121.066 3.68625C122.342 4.39892 123.322 5.37857 124.035 6.65499L127.527 4.70501C126.453 2.78143 124.94 1.26775 123.016 0.193747L121.066 3.68625ZM124.035 6.65499C124.736 7.91128 125.121 9.43154 125.121 11.28H129.121C129.121 8.86179 128.612 6.64872 127.527 4.70501L124.035 6.65499ZM125.121 11.28V19.92H129.121V11.28H125.121ZM125.121 19.92C125.121 21.7685 124.736 23.2887 124.035 24.545L127.527 26.495C128.612 24.5513 129.121 22.3382 129.121 19.92H125.121ZM124.035 24.545C123.322 25.8214 122.342 26.8011 121.066 27.5137L123.016 31.0063C124.94 29.9323 126.453 28.4186 127.527 26.495L124.035 24.545ZM121.066 27.5137C119.81 28.2152 118.289 28.6 116.441 28.6V32.6C118.859 32.6 121.072 32.0915 123.016 31.0063L121.066 27.5137ZM116.441 27.44C117.73 27.44 118.951 27.1313 120.052 26.4854L118.029 23.0346C117.585 23.2953 117.072 23.44 116.441 23.44V27.44ZM120.052 26.4854C121.121 25.8591 121.98 24.9999 122.606 23.9314L119.156 21.9086C118.875 22.3868 118.508 22.7543 118.03 23.0346L120.052 26.4854ZM122.606 23.9314C123.252 22.8296 123.561 21.6094 123.561 20.32H119.561C119.561 20.9506 119.416 21.4638 119.156 21.9086L122.606 23.9314ZM123.561 20.32V10.84H119.561V20.32H123.561ZM123.561 10.84C123.561 9.55057 123.252 8.33042 122.606 7.22856L119.156 9.25144C119.416 9.69624 119.561 10.2094 119.561 10.84H123.561ZM122.606 7.22856C121.98 6.1601 121.121 5.30094 120.052 4.6746L118.029 8.12539C118.508 8.40572 118.875 8.77324 119.156 9.25144L122.606 7.22856ZM120.052 4.6746C118.951 4.02868 117.73 3.72 116.441 3.72V7.72C117.072 7.72 117.585 7.86465 118.029 8.12539L120.052 4.6746ZM116.441 3.72C115.152 3.72 113.931 4.02868 112.829 4.6746L114.852 8.12539C115.297 7.86465 115.81 7.72 116.441 7.72V3.72ZM112.829 4.6746C111.761 5.30094 110.902 6.1601 110.276 7.22856L113.726 9.25144C114.007 8.77324 114.374 8.40572 114.852 8.12539L112.829 4.6746ZM110.276 7.22856C109.63 8.33042 109.321 9.55057 109.321 10.84H113.321C113.321 10.2094 113.466 9.69624 113.726 9.25144L110.276 7.22856ZM109.321 10.84V20.32H113.321V10.84H109.321ZM109.321 20.32C109.321 21.6094 109.63 22.8296 110.276 23.9314L113.726 21.9086C113.466 21.4638 113.321 20.9506 113.321 20.32H109.321ZM110.276 23.9314C110.902 24.9999 111.761 25.8591 112.829 26.4854L114.852 23.0346C114.374 22.7543 114.007 22.3868 113.726 21.9086L110.276 23.9314ZM112.829 26.4854C113.931 27.1313 115.152 27.44 116.441 27.44V23.44C115.81 23.44 115.297 23.2953 114.852 23.0346L112.829 26.4854ZM137.794 29.26L138.769 27.5137L137.794 29.26ZM134.054 25.52L135.8 24.545L134.054 25.52ZM134.054 5.68L135.8 6.65499V6.65499L134.054 5.68ZM137.794 1.94L136.819 0.193746V0.193747L137.794 1.94ZM148.994 1.94L149.969 0.193747V0.193746L148.994 1.94ZM148.994 29.26L149.969 31.0063L148.994 29.26ZM145.994 24.76L144.983 23.0346L145.994 24.76ZM147.834 22.92L146.109 21.9086V21.9086L147.834 22.92ZM147.834 8.24L146.109 9.25144L147.834 8.24ZM145.994 6.4L144.983 8.12539V8.12539L145.994 6.4ZM140.794 6.4L139.783 4.6746L140.794 6.4ZM138.954 22.92L137.229 23.9314L138.954 22.92ZM140.794 24.76L141.805 23.0346L140.794 24.76ZM143.394 28.6C141.546 28.6 140.025 28.2152 138.769 27.5137L136.819 31.0063C138.763 32.0915 140.976 32.6 143.394 32.6V28.6ZM138.769 27.5137C137.493 26.8011 136.513 25.8214 135.8 24.545L132.308 26.495C133.382 28.4186 134.895 29.9323 136.819 31.0063L138.769 27.5137ZM135.8 24.545C135.099 23.2887 134.714 21.7685 134.714 19.92H130.714C130.714 22.3382 131.223 24.5513 132.308 26.495L135.8 24.545ZM134.714 19.92V11.28H130.714V19.92H134.714ZM134.714 11.28C134.714 9.43154 135.099 7.91128 135.8 6.65499L132.308 4.70501C131.223 6.64872 130.714 8.86179 130.714 11.28H134.714ZM135.8 6.65499C136.513 5.37857 137.493 4.39892 138.769 3.68625L136.819 0.193747C134.895 1.26775 133.382 2.78143 132.308 4.70501L135.8 6.65499ZM138.769 3.68625C140.025 2.98482 141.546 2.6 143.394 2.6V-1.4C140.976 -1.4 138.763 -0.891489 136.819 0.193746L138.769 3.68625ZM143.394 2.6C145.243 2.6 146.763 2.98482 148.019 3.68625L149.969 0.193746C148.025 -0.891489 145.812 -1.4 143.394 -1.4V2.6ZM148.019 3.68625C149.295 4.39892 150.275 5.37857 150.988 6.65499L154.48 4.70501C153.406 2.78143 151.893 1.26775 149.969 0.193747L148.019 3.68625ZM150.988 6.65499C151.689 7.91128 152.074 9.43154 152.074 11.28H156.074C156.074 8.86179 155.566 6.64872 154.48 4.70501L150.988 6.65499ZM152.074 11.28V19.92H156.074V11.28H152.074ZM152.074 19.92C152.074 21.7685 151.689 23.2887 150.988 24.545L154.48 26.495C155.566 24.5513 156.074 22.3382 156.074 19.92H152.074ZM150.988 24.545C150.275 25.8214 149.295 26.8011 148.019 27.5137L149.969 31.0063C151.893 29.9323 153.406 28.4186 154.48 26.495L150.988 24.545ZM148.019 27.5137C146.763 28.2152 145.243 28.6 143.394 28.6V32.6C145.812 32.6 148.025 32.0915 149.969 31.0063L148.019 27.5137ZM143.394 27.44C144.683 27.44 145.904 27.1313 147.006 26.4854L144.983 23.0346C144.538 23.2953 144.025 23.44 143.394 23.44V27.44ZM147.006 26.4854C148.074 25.8591 148.933 24.9999 149.559 23.9314L146.109 21.9086C145.828 22.3868 145.461 22.7543 144.983 23.0346L147.006 26.4854ZM149.559 23.9314C150.205 22.8296 150.514 21.6094 150.514 20.32H146.514C146.514 20.9506 146.369 21.4638 146.109 21.9086L149.559 23.9314ZM150.514 20.32V10.84H146.514V20.32H150.514ZM150.514 10.84C150.514 9.55057 150.205 8.33042 149.559 7.22856L146.109 9.25144C146.369 9.69624 146.514 10.2094 146.514 10.84H150.514ZM149.559 7.22856C148.933 6.1601 148.074 5.30094 147.006 4.6746L144.983 8.12539C145.461 8.40572 145.828 8.77324 146.109 9.25144L149.559 7.22856ZM147.006 4.6746C145.904 4.02868 144.683 3.72 143.394 3.72V7.72C144.025 7.72 144.538 7.86465 144.983 8.12539L147.006 4.6746ZM143.394 3.72C142.105 3.72 140.884 4.02868 139.783 4.6746L141.805 8.12539C142.25 7.86465 142.763 7.72 143.394 7.72V3.72ZM139.783 4.6746C138.714 5.30094 137.855 6.1601 137.229 7.22856L140.679 9.25144C140.96 8.77324 141.327 8.40572 141.805 8.12539L139.783 4.6746ZM137.229 7.22856C136.583 8.33042 136.274 9.55057 136.274 10.84H140.274C140.274 10.2094 140.419 9.69624 140.679 9.25144L137.229 7.22856ZM136.274 10.84V20.32H140.274V10.84H136.274ZM136.274 20.32C136.274 21.6094 136.583 22.8296 137.229 23.9314L140.679 21.9086C140.419 21.4638 140.274 20.9506 140.274 20.32H136.274ZM137.229 23.9314C137.855 24.9999 138.714 25.8591 139.783 26.4854L141.805 23.0346C141.327 22.7543 140.96 22.3868 140.679 21.9086L137.229 23.9314ZM139.783 26.4854C140.884 27.1313 142.105 27.44 143.394 27.44V23.44C142.763 23.44 142.25 23.2953 141.805 23.0346L139.783 26.4854ZM174.195 24.6H172.195V26.6H174.195V24.6ZM174.195 17.68H176.195V15.68H174.195V17.68ZM167.275 17.68H165.275V19.68H167.275V17.68ZM167.275 13.48V11.48H165.275V13.48H167.275ZM174.195 13.48V15.48H176.195V13.48H174.195ZM174.195 6.6V4.6H172.195V6.6H174.195ZM178.395 6.6H180.395V4.6H178.395V6.6ZM178.395 13.48H176.395V15.48H178.395V13.48ZM185.275 13.48H187.275V11.48H185.275V13.48ZM185.275 17.68V19.68H187.275V17.68H185.275ZM178.395 17.68V15.68H176.395V17.68H178.395ZM178.395 24.6V26.6H180.395V24.6H178.395ZM176.195 24.6V17.68H172.195V24.6H176.195ZM174.195 15.68H167.275V19.68H174.195V15.68ZM169.275 17.68V13.48H165.275V17.68H169.275ZM167.275 15.48H174.195V11.48H167.275V15.48ZM176.195 13.48V6.6H172.195V13.48H176.195ZM174.195 8.6H178.395V4.6H174.195V8.6ZM176.395 6.6V13.48H180.395V6.6H176.395ZM178.395 15.48H185.275V11.48H178.395V15.48ZM183.275 13.48V17.68H187.275V13.48H183.275ZM185.275 15.68H178.395V19.68H185.275V15.68ZM176.395 17.68V24.6H180.395V17.68H176.395ZM178.395 22.6H174.195V26.6H178.395V22.6Z" fill="#2D5183" mask="url(#path-1-outside-1_367_785)"/>
</svg>
