<svg width="89" height="31" viewBox="0 0 89 31" fill="none" xmlns="http://www.w3.org/2000/svg">
<mask id="path-1-outside-1_367_788" maskUnits="userSpaceOnUse" x="-2" y="-2" width="93" height="35" fill="black">
<rect fill="white" x="-2" y="-2" width="93" height="35"/>
<path d="M10.04 0.639999C11.9467 0.639999 13.6533 1.08667 15.16 1.98C16.68 2.87333 17.88 4.12 18.76 5.72C19.64 7.30667 20.08 9.14667 20.08 11.24V19.6C20.08 21.8667 19.64 23.8267 18.76 25.48C17.88 27.12 16.64 28.3867 15.04 29.28C13.44 30.16 11.56 30.6 9.4 30.6C8 30.6 6.66667 30.3933 5.4 29.98C4.14667 29.5533 2.98667 28.8533 1.92 27.88L5.8 24C6.28 24.48 6.83333 24.8533 7.46 25.12C8.1 25.3867 8.74667 25.52 9.4 25.52C10.44 25.52 11.34 25.28 12.1 24.8C12.8733 24.3067 13.4667 23.6733 13.88 22.9C14.3067 22.1133 14.52 21.28 14.52 20.4V16.12L15.44 17.12C14.6267 17.96 13.6733 18.6067 12.58 19.06C11.4867 19.5 10.36 19.72 9.2 19.72C7.38667 19.72 5.78667 19.3133 4.4 18.5C3.02667 17.6867 1.94667 16.5733 1.16 15.16C0.386667 13.7467 2.98023e-08 12.1333 2.98023e-08 10.32C2.98023e-08 8.50667 0.46 6.87333 1.38 5.42C2.3 3.95333 3.52 2.79333 5.04 1.94C6.56 1.07333 8.22667 0.639999 10.04 0.639999ZM10.04 5.84C9.21333 5.84 8.45333 6.04 7.76 6.44C7.08 6.84 6.53333 7.38 6.12 8.06C5.72 8.74 5.52 9.49333 5.52 10.32C5.52 11.1467 5.72 11.9067 6.12 12.6C6.52 13.28 7.06 13.8267 7.74 14.24C8.42 14.64 9.17333 14.84 10 14.84C10.8267 14.84 11.58 14.64 12.26 14.24C12.9533 13.8267 13.5 13.28 13.9 12.6C14.3133 11.9067 14.52 11.1467 14.52 10.32C14.52 9.52 14.32 8.78 13.92 8.1C13.52 7.42 12.98 6.87333 12.3 6.46C11.62 6.04667 10.8667 5.84 10.04 5.84ZM34.2428 30.6C32.7895 30.6 31.4228 30.3 30.1428 29.7C28.8761 29.1 27.7828 28.2667 26.8628 27.2C25.9428 26.1333 25.2828 24.8933 24.8828 23.48L30.1228 22.08C30.2961 22.76 30.6028 23.3467 31.0428 23.84C31.4961 24.3333 32.0161 24.72 32.6028 25C33.2028 25.2667 33.8161 25.4 34.4428 25.4C35.2695 25.4 36.0228 25.2 36.7028 24.8C37.3961 24.4 37.9428 23.86 38.3428 23.18C38.7561 22.5 38.9628 21.7467 38.9628 20.92C38.9628 20.0933 38.7561 19.34 38.3428 18.66C37.9428 17.98 37.3961 17.44 36.7028 17.04C36.0228 16.64 35.2695 16.44 34.4428 16.44C33.4295 16.44 32.6028 16.6133 31.9628 16.96C31.3228 17.2933 30.8428 17.6133 30.5228 17.92L25.9228 16.52L26.8028 1.2H42.5228V6.28H29.8028L31.7228 4.48L31.1228 14.36L30.2028 13.24C30.9228 12.6533 31.7428 12.2267 32.6628 11.96C33.5828 11.6933 34.4428 11.56 35.2428 11.56C37.0561 11.56 38.6495 11.9667 40.0228 12.78C41.4095 13.58 42.4895 14.6867 43.2628 16.1C44.0495 17.5 44.4428 19.1067 44.4428 20.92C44.4428 22.7333 43.9695 24.3733 43.0228 25.84C42.0761 27.2933 40.8295 28.4533 39.2828 29.32C37.7361 30.1733 36.0561 30.6 34.2428 30.6ZM61.6453 30L58.0453 26.4L83.2453 1.2L86.8453 4.84L61.6453 30ZM80.8453 30.6C79.5253 30.6 78.3186 30.28 77.2253 29.64C76.1453 28.9867 75.2786 28.12 74.6253 27.04C73.972 25.9467 73.6453 24.7333 73.6453 23.4C73.6453 22.0933 73.9786 20.8933 74.6453 19.8C75.312 18.7067 76.192 17.8333 77.2853 17.18C78.3786 16.5267 79.5653 16.2 80.8453 16.2C82.1653 16.2 83.372 16.5267 84.4653 17.18C85.5586 17.82 86.4253 18.6867 87.0653 19.78C87.7186 20.86 88.0453 22.0667 88.0453 23.4C88.0453 24.7333 87.7186 25.9467 87.0653 27.04C86.4253 28.12 85.5586 28.9867 84.4653 29.64C83.372 30.28 82.1653 30.6 80.8453 30.6ZM80.8453 26C81.312 26 81.7386 25.88 82.1253 25.64C82.5253 25.4 82.8453 25.0867 83.0853 24.7C83.3253 24.3 83.4453 23.8667 83.4453 23.4C83.4453 22.9333 83.3253 22.5067 83.0853 22.12C82.8453 21.72 82.5253 21.4 82.1253 21.16C81.7386 20.92 81.312 20.8 80.8453 20.8C80.3786 20.8 79.9453 20.92 79.5453 21.16C79.1586 21.4 78.8453 21.72 78.6053 22.12C78.3653 22.5067 78.2453 22.9333 78.2453 23.4C78.2453 23.8667 78.3653 24.3 78.6053 24.7C78.8453 25.0867 79.1586 25.4 79.5453 25.64C79.9453 25.88 80.3786 26 80.8453 26ZM64.0453 15C62.7253 15 61.5186 14.68 60.4253 14.04C59.332 13.3867 58.4586 12.52 57.8053 11.44C57.1653 10.3467 56.8453 9.13333 56.8453 7.8C56.8453 6.49333 57.1786 5.29333 57.8453 4.2C58.512 3.10666 59.392 2.23333 60.4853 1.58C61.5786 0.926665 62.7653 0.599999 64.0453 0.599999C65.3653 0.599999 66.5653 0.926665 67.6453 1.58C68.7386 2.22 69.612 3.08667 70.2653 4.18C70.9186 5.26 71.2453 6.46667 71.2453 7.8C71.2453 9.13333 70.9186 10.3467 70.2653 11.44C69.612 12.52 68.7386 13.3867 67.6453 14.04C66.5653 14.68 65.3653 15 64.0453 15ZM64.0453 10.4C64.512 10.4 64.9386 10.28 65.3253 10.04C65.7253 9.8 66.0453 9.48667 66.2853 9.1C66.5253 8.7 66.6453 8.26667 66.6453 7.8C66.6453 7.33333 66.5253 6.90667 66.2853 6.52C66.0453 6.12 65.7253 5.8 65.3253 5.56C64.9386 5.32 64.512 5.2 64.0453 5.2C63.5786 5.2 63.1453 5.32 62.7453 5.56C62.3586 5.8 62.0453 6.12 61.8053 6.52C61.5653 6.90667 61.4453 7.33333 61.4453 7.8C61.4453 8.26667 61.5653 8.7 61.8053 9.1C62.0453 9.48667 62.3586 9.8 62.7453 10.04C63.1453 10.28 63.5786 10.4 64.0453 10.4Z"/>
</mask>
<path d="M15.16 1.98L14.14 3.70035L14.1466 3.70426L15.16 1.98ZM18.76 5.72L17.0076 6.68384L17.011 6.69003L18.76 5.72ZM18.76 25.48L20.5223 26.4256L20.5255 26.4197L18.76 25.48ZM15.04 29.28L16.0039 31.0325L16.015 31.0263L15.04 29.28ZM5.4 29.98L4.75547 31.8733L4.76749 31.8774L4.77957 31.8813L5.4 29.98ZM1.92 27.88L0.505787 26.4658L-0.974609 27.9462L0.571899 29.3574L1.92 27.88ZM5.8 24L7.21421 22.5858L5.8 21.1716L4.38579 22.5858L5.8 24ZM7.46 25.12L6.67689 26.9603L6.68382 26.9633L6.69077 26.9662L7.46 25.12ZM12.1 24.8L13.168 26.491L13.1756 26.4861L12.1 24.8ZM13.88 22.9L12.1219 21.9465L12.1161 21.9572L13.88 22.9ZM14.52 16.12L15.9919 14.7659L12.52 10.9921V16.12H14.52ZM15.44 17.12L16.8768 18.5112L18.1899 17.1551L16.9119 15.7659L15.44 17.12ZM12.58 19.06L13.3267 20.9154L13.3364 20.9115L13.346 20.9075L12.58 19.06ZM4.4 18.5L3.38084 20.2209L3.38813 20.2251L4.4 18.5ZM1.16 15.16L-0.594524 16.12L-0.591053 16.1264L-0.587536 16.1327L1.16 15.16ZM1.38 5.42L3.06989 6.48974L3.07426 6.48276L1.38 5.42ZM5.04 1.94L6.01909 3.684L6.03064 3.67742L5.04 1.94ZM7.76 6.44L6.76056 4.70763L6.75324 4.71185L6.74596 4.71613L7.76 6.44ZM6.12 8.06L4.41096 7.02117L4.40345 7.03351L4.39613 7.04596L6.12 8.06ZM6.12 12.6L4.38763 13.5994L4.39185 13.6068L4.39613 13.614L6.12 12.6ZM7.74 14.24L6.70117 15.949L6.71351 15.9565L6.72596 15.9639L7.74 14.24ZM12.26 14.24L13.2741 15.9639L13.2841 15.9579L12.26 14.24ZM13.9 12.6L12.1821 11.5759L12.1761 11.586L13.9 12.6ZM13.92 8.1L15.6439 7.08596V7.08596L13.92 8.1ZM10.04 2.64C11.6205 2.64 12.9691 3.00611 14.14 3.70033L16.18 0.259665C14.3376 -0.832776 12.2728 -1.36 10.04 -1.36V2.64ZM14.1466 3.70426C15.3449 4.40853 16.2945 5.3874 17.0076 6.68384L20.5124 4.75616C19.4655 2.8526 18.0151 1.33813 16.1734 0.255742L14.1466 3.70426ZM17.011 6.69003C17.7026 7.93699 18.08 9.43338 18.08 11.24H22.08C22.08 8.85995 21.5774 6.67634 20.509 4.74996L17.011 6.69003ZM18.08 11.24V19.6H22.08V11.24H18.08ZM18.08 19.6C18.08 21.6073 17.6913 23.2311 16.9945 24.5403L20.5255 26.4197C21.5887 24.4222 22.08 22.1261 22.08 19.6H18.08ZM16.9977 24.5344C16.2953 25.8434 15.326 26.8297 14.065 27.5337L16.015 31.0263C17.954 29.9436 19.4647 28.3966 20.5223 26.4256L16.9977 24.5344ZM14.0762 27.5276C12.8212 28.2178 11.2847 28.6 9.4 28.6V32.6C11.8353 32.6 14.0588 32.1022 16.0038 31.0324L14.0762 27.5276ZM9.4 28.6C8.19996 28.6 7.0768 28.4234 6.02043 28.0787L4.77957 31.8813C6.25653 32.3633 7.80004 32.6 9.4 32.6V28.6ZM6.04453 28.0867C5.07469 27.7565 4.14998 27.2073 3.2681 26.4026L0.571899 29.3574C1.82335 30.4993 3.21865 31.3501 4.75547 31.8733L6.04453 28.0867ZM3.33421 29.2942L7.21421 25.4142L4.38579 22.5858L0.505787 26.4658L3.33421 29.2942ZM4.38579 25.4142C5.04753 26.076 5.8153 26.5937 6.67689 26.9603L8.24311 23.2797C7.85137 23.113 7.51247 22.884 7.21421 22.5858L4.38579 25.4142ZM6.69077 26.9662C7.55938 27.3281 8.4667 27.52 9.4 27.52V23.52C9.02663 23.52 8.64062 23.4453 8.22923 23.2738L6.69077 26.9662ZM9.4 27.52C10.7575 27.52 12.0407 27.2029 13.168 26.491L11.032 23.109C10.6393 23.3571 10.1225 23.52 9.4 23.52V27.52ZM13.1756 26.4861C14.2245 25.817 15.0611 24.933 15.6439 23.8428L12.1161 21.9572C11.8722 22.4137 11.5222 22.7963 11.0244 23.1139L13.1756 26.4861ZM15.6381 23.8535C16.2207 22.7793 16.52 21.6189 16.52 20.4H12.52C12.52 20.9411 12.3926 21.4474 12.1219 21.9465L15.6381 23.8535ZM16.52 20.4V16.12H12.52V20.4H16.52ZM13.0481 17.4741L13.9681 18.4741L16.9119 15.7659L15.9919 14.7659L13.0481 17.4741ZM14.0032 15.7288C13.3823 16.37 12.6581 16.8625 11.814 17.2125L13.346 20.9075C14.6886 20.3508 15.871 19.55 16.8768 18.5112L14.0032 15.7288ZM11.8333 17.2046C10.9735 17.5507 10.1 17.72 9.2 17.72V21.72C10.62 21.72 11.9999 21.4493 13.3267 20.9154L11.8333 17.2046ZM9.2 17.72C7.6959 17.72 6.45393 17.3861 5.41187 16.7749L3.38813 20.2251C5.11941 21.2406 7.07743 21.72 9.2 21.72V17.72ZM5.41915 16.7791C4.35484 16.1488 3.52437 15.2955 2.90754 14.1873L-0.587536 16.1327C0.368965 17.8511 1.69849 19.2245 3.38085 20.2209L5.41915 16.7791ZM2.91452 14.2C2.32161 13.1164 2 11.8406 2 10.32H-2C-2 12.4261 -1.54828 14.377 -0.594524 16.12L2.91452 14.2ZM2 10.32C2 8.86389 2.36367 7.60533 3.06987 6.48973L-0.309872 4.35026C-1.44367 6.14133 -2 8.14945 -2 10.32H2ZM3.07426 6.48276C3.8153 5.3014 4.78859 4.37476 6.01907 3.68397L4.06093 0.19603C2.25142 1.2119 0.784701 2.60526 -0.314264 4.35723L3.07426 6.48276ZM6.03064 3.67742C7.23759 2.98924 8.56091 2.64 10.04 2.64V-1.36C7.89243 -1.36 5.88241 -0.842581 4.04937 0.202574L6.03064 3.67742ZM10.04 3.84C8.87449 3.84 7.76803 4.12639 6.76056 4.70763L8.75945 8.17237C9.13864 7.95361 9.55218 7.84 10.04 7.84V3.84ZM6.74596 4.71613C5.77871 5.2851 4.99429 6.0615 4.41096 7.02117L7.82904 9.09883C8.07238 8.6985 8.38129 8.3949 8.77404 8.16387L6.74596 4.71613ZM4.39613 7.04596C3.80653 8.04829 3.52 9.15454 3.52 10.32H7.52C7.52 9.83213 7.63348 9.43171 7.84387 9.07404L4.39613 7.04596ZM3.52 10.32C3.52 11.4855 3.80639 12.592 4.38763 13.5994L7.85237 11.6006C7.63361 11.2214 7.52 10.8078 7.52 10.32H3.52ZM4.39613 13.614C4.9651 14.5813 5.7415 15.3657 6.70117 15.949L8.77883 12.531C8.3785 12.2876 8.0749 11.9787 7.84387 11.586L4.39613 13.614ZM6.72596 15.9639C7.72829 16.5535 8.83454 16.84 10 16.84V12.84C9.51213 12.84 9.11171 12.7265 8.75404 12.5161L6.72596 15.9639ZM10 16.84C11.1655 16.84 12.2717 16.5535 13.274 15.9639L11.246 12.5161C10.8883 12.7265 10.4879 12.84 10 12.84V16.84ZM13.2841 15.9579C14.2592 15.3766 15.0494 14.5906 15.6239 13.614L12.1761 11.586C11.9506 11.9694 11.6475 12.2767 11.2359 12.5221L13.2841 15.9579ZM15.6179 13.6241C16.2205 12.6133 16.52 11.4981 16.52 10.32H12.52C12.52 10.7952 12.4062 11.2 12.1821 11.5759L15.6179 13.6241ZM16.52 10.32C16.52 9.16868 16.2273 8.07782 15.6439 7.08596L12.1961 9.11404C12.4127 9.48218 12.52 9.87132 12.52 10.32H16.52ZM15.6439 7.08596C15.0749 6.11871 14.2985 5.33428 13.3388 4.75096L11.2612 8.16904C11.6615 8.41238 11.9651 8.72129 12.1961 9.11404L15.6439 7.08596ZM13.3388 4.75096C12.3332 4.13971 11.2181 3.84 10.04 3.84V7.84C10.5152 7.84 10.9068 7.95362 11.2612 8.16904L13.3388 4.75096ZM30.1428 29.7L29.2866 31.5075L29.2939 31.5109L30.1428 29.7ZM26.8628 27.2L28.3773 25.8937L26.8628 27.2ZM24.8828 23.48L24.3666 21.5478L22.4057 22.0717L22.9584 24.0246L24.8828 23.48ZM30.1228 22.08L32.0608 21.586L31.5611 19.6256L29.6066 20.1478L30.1228 22.08ZM31.0428 23.84L29.5502 25.1712L29.5601 25.1823L29.5702 25.1932L31.0428 23.84ZM32.6028 25L31.7414 26.805L31.7658 26.8166L31.7905 26.8276L32.6028 25ZM36.7028 24.8L35.7034 23.0676L35.6961 23.0718L35.6888 23.0761L36.7028 24.8ZM38.3428 23.18L36.6338 22.1412L36.6263 22.1535L36.6189 22.166L38.3428 23.18ZM38.3428 18.66L36.6189 19.674L36.6263 19.6865L36.6338 19.6988L38.3428 18.66ZM36.7028 17.04L35.6888 18.7639L35.6961 18.7682L35.7034 18.7724L36.7028 17.04ZM31.9628 16.96L32.8867 18.7338L32.9011 18.7263L32.9154 18.7186L31.9628 16.96ZM30.5228 17.92L29.9405 19.8333L31.061 20.1744L31.9066 19.364L30.5228 17.92ZM25.9228 16.52L23.9261 16.4053L23.8359 17.9754L25.3405 18.4333L25.9228 16.52ZM26.8028 1.2V-0.800001H24.9144L24.8061 1.08531L26.8028 1.2ZM42.5228 1.2H44.5228V-0.800001H42.5228V1.2ZM42.5228 6.28V8.28H44.5228V6.28H42.5228ZM29.8028 6.28L28.4349 4.82092L24.7452 8.28H29.8028V6.28ZM31.7228 4.48L33.7191 4.60123L34.024 -0.41882L30.3549 3.02092L31.7228 4.48ZM31.1228 14.36L29.5774 15.6295L32.8104 19.5653L33.1191 14.4812L31.1228 14.36ZM30.2028 13.24L28.9395 11.6895L27.3828 12.9579L28.6574 14.5095L30.2028 13.24ZM32.6628 11.96L32.106 10.0391H32.106L32.6628 11.96ZM40.0228 12.78L39.0037 14.5009L39.0135 14.5067L39.0234 14.5124L40.0228 12.78ZM43.2628 16.1L41.5083 17.06L41.5137 17.0699L41.5192 17.0797L43.2628 16.1ZM43.0228 25.84L44.6987 26.9316L44.7032 26.9246L43.0228 25.84ZM39.2828 29.32L40.249 31.0712L40.2605 31.0648L39.2828 29.32ZM34.2428 28.6C33.0744 28.6 31.9984 28.361 30.9917 27.8891L29.2939 31.5109C30.8472 32.239 32.5046 32.6 34.2428 32.6V28.6ZM30.999 27.8925C29.9856 27.4125 29.1161 26.7504 28.3773 25.8937L25.3483 28.5063C26.4495 29.783 27.7667 30.7875 29.2866 31.5075L30.999 27.8925ZM28.3773 25.8937C27.656 25.0575 27.1313 24.0803 26.8072 22.9354L22.9584 24.0246C23.4344 25.7064 24.2296 27.2092 25.3483 28.5063L28.3773 25.8937ZM25.3991 25.4122L30.6391 24.0122L29.6066 20.1478L24.3666 21.5478L25.3991 25.4122ZM28.1848 22.574C28.4323 23.5451 28.8837 24.4239 29.5502 25.1712L32.5354 22.5088C32.322 22.2695 32.16 21.9749 32.0608 21.586L28.1848 22.574ZM29.5702 25.1932C30.1911 25.8689 30.9168 26.4114 31.7414 26.805L33.4643 23.195C33.1154 23.0286 32.8012 22.7977 32.5155 22.4867L29.5702 25.1932ZM31.7905 26.8276C32.6338 27.2024 33.523 27.4 34.4428 27.4V23.4C34.1093 23.4 33.7718 23.3309 33.4151 23.1724L31.7905 26.8276ZM34.4428 27.4C35.6083 27.4 36.7145 27.1135 37.7169 26.5239L35.6888 23.0761C35.3311 23.2865 34.9307 23.4 34.4428 23.4V27.4ZM37.7023 26.5324C38.6905 25.9622 39.4887 25.1766 40.0667 24.194L36.6189 22.166C36.3969 22.5434 36.1018 22.8378 35.7034 23.0676L37.7023 26.5324ZM40.0519 24.2188C40.6631 23.2132 40.9628 22.0981 40.9628 20.92H36.9628C36.9628 21.3952 36.8492 21.7868 36.6338 22.1412L40.0519 24.2188ZM40.9628 20.92C40.9628 19.7419 40.6631 18.6268 40.0519 17.6212L36.6338 19.6988C36.8492 20.0532 36.9628 20.4448 36.9628 20.92H40.9628ZM40.0667 17.646C39.4887 16.6634 38.6905 15.8778 37.7023 15.3076L35.7034 18.7724C36.1018 19.0022 36.3969 19.2966 36.6189 19.674L40.0667 17.646ZM37.7169 15.3161C36.7145 14.7265 35.6083 14.44 34.4428 14.44V18.44C34.9307 18.44 35.3311 18.5535 35.6888 18.7639L37.7169 15.3161ZM34.4428 14.44C33.2204 14.44 32.0349 14.6464 31.0102 15.2014L32.9154 18.7186C33.1707 18.5803 33.6386 18.44 34.4428 18.44V14.44ZM31.0389 15.1862C30.3221 15.5595 29.6544 15.9821 29.139 16.476L31.9066 19.364C32.0313 19.2445 32.3235 19.0271 32.8867 18.7338L31.0389 15.1862ZM31.1051 16.0067L26.5051 14.6067L25.3405 18.4333L29.9405 19.8333L31.1051 16.0067ZM27.9195 16.6347L28.7995 1.31469L24.8061 1.08531L23.9261 16.4053L27.9195 16.6347ZM26.8028 3.2H42.5228V-0.800001H26.8028V3.2ZM40.5228 1.2V6.28H44.5228V1.2H40.5228ZM42.5228 4.28H29.8028V8.28H42.5228V4.28ZM31.1707 7.73907L33.0907 5.93907L30.3549 3.02092L28.4349 4.82092L31.1707 7.73907ZM29.7265 4.35877L29.1265 14.2388L33.1191 14.4812L33.7191 4.60123L29.7265 4.35877ZM32.6683 13.0905L31.7483 11.9705L28.6574 14.5095L29.5774 15.6295L32.6683 13.0905ZM31.4662 14.7905C31.9713 14.3788 32.5493 14.0752 33.2196 13.8809L32.106 10.0391C30.9363 10.3781 29.8743 10.9278 28.9395 11.6895L31.4662 14.7905ZM33.2196 13.8809C33.9931 13.6567 34.664 13.56 35.2428 13.56V9.56C34.2216 9.56 33.1725 9.72994 32.106 10.0391L33.2196 13.8809ZM35.2428 13.56C36.7473 13.56 37.9791 13.8941 39.0037 14.5009L41.042 11.0591C39.3199 10.0393 37.365 9.56 35.2428 9.56V13.56ZM39.0234 14.5124C40.0901 15.1278 40.9099 15.9664 41.5083 17.06L45.0173 15.14C44.0691 13.407 42.7288 12.0322 41.0223 11.0476L39.0234 14.5124ZM41.5192 17.0797C42.117 18.1436 42.4428 19.4047 42.4428 20.92H46.4428C46.4428 18.8086 45.982 16.8564 45.0064 15.1203L41.5192 17.0797ZM42.4428 20.92C42.4428 22.3643 42.0721 23.625 41.3424 24.7554L44.7032 26.9246C45.8669 25.1217 46.4428 23.1024 46.4428 20.92H42.4428ZM41.347 24.7484C40.5808 25.9246 39.5762 26.863 38.3051 27.5752L40.2605 31.0648C42.0827 30.0437 43.5715 28.6621 44.6986 26.9316L41.347 24.7484ZM38.3167 27.5688C37.0739 28.2545 35.7276 28.6 34.2428 28.6V32.6C36.3847 32.6 38.3984 32.0922 40.249 31.0712L38.3167 27.5688ZM61.6453 30L60.2311 31.4142L61.6442 32.8273L63.0584 31.4153L61.6453 30ZM58.0453 26.4L56.6311 24.9858L55.2169 26.4L56.6311 27.8142L58.0453 26.4ZM83.2453 1.2L84.6673 -0.20638L83.2532 -1.63626L81.8311 -0.214214L83.2453 1.2ZM86.8453 4.84L88.2584 6.25534L89.6671 4.84892L88.2673 3.43362L86.8453 4.84ZM77.2253 29.64L76.1901 31.3512L76.2025 31.3587L76.215 31.366L77.2253 29.64ZM74.6253 27.04L72.9085 28.0659L72.9141 28.0752L74.6253 27.04ZM74.6453 19.8L72.9377 18.7588V18.7588L74.6453 19.8ZM84.4653 17.18L83.4394 18.8968L83.4472 18.9015L83.455 18.906L84.4653 17.18ZM87.0653 19.78L85.3393 20.7904L85.3466 20.8028L85.3541 20.8152L87.0653 19.78ZM87.0653 27.04L85.3485 26.0141L85.3447 26.0204L87.0653 27.04ZM84.4653 29.64L85.4757 31.366L85.4835 31.3615L85.4912 31.3568L84.4653 29.64ZM82.1253 25.64L81.0963 23.925L81.0834 23.9328L81.0706 23.9407L82.1253 25.64ZM83.0853 24.7L84.7846 25.7547L84.7925 25.7419L84.8003 25.729L83.0853 24.7ZM83.0853 22.12L81.3703 23.149L81.3781 23.1619L81.386 23.1747L83.0853 22.12ZM82.1253 21.16L81.0706 22.8593L81.0834 22.8672L81.0963 22.875L82.1253 21.16ZM79.5453 21.16L78.5163 19.445L78.5034 19.4528L78.4906 19.4607L79.5453 21.16ZM78.6053 22.12L80.3046 23.1747L80.3125 23.1619L80.3203 23.149L78.6053 22.12ZM78.6053 24.7L76.8903 25.729L76.8981 25.7419L76.906 25.7547L78.6053 24.7ZM79.5453 25.64L78.4906 27.3393L78.5034 27.3472L78.5163 27.355L79.5453 25.64ZM60.4253 14.04L59.3994 15.7568L59.4072 15.7615L59.415 15.766L60.4253 14.04ZM57.8053 11.44L56.0793 12.4504L56.0866 12.4628L56.0941 12.4752L57.8053 11.44ZM57.8453 4.2L56.1377 3.15878H56.1377L57.8453 4.2ZM60.4853 1.58L59.4594 -0.136834L59.4594 -0.136832L60.4853 1.58ZM67.6453 1.58L66.6101 3.29124L66.6225 3.29873L66.635 3.30603L67.6453 1.58ZM70.2653 4.18L68.5485 5.20592L68.5541 5.2152L70.2653 4.18ZM70.2653 11.44L71.9766 12.4752L71.9821 12.4659L70.2653 11.44ZM67.6453 14.04L68.6649 15.7606L68.6712 15.7568L67.6453 14.04ZM65.3253 10.04L64.2963 8.32501L64.2834 8.33277L64.2706 8.34072L65.3253 10.04ZM66.2853 9.1L67.9846 10.1547L67.9925 10.1419L68.0003 10.129L66.2853 9.1ZM66.2853 6.52L64.5703 7.54899L64.5781 7.56192L64.586 7.57473L66.2853 6.52ZM65.3253 5.56L64.2706 7.25928L64.2834 7.26723L64.2963 7.27499L65.3253 5.56ZM62.7453 5.56L61.7163 3.84501L61.7034 3.85277L61.6906 3.86072L62.7453 5.56ZM61.8053 6.52L63.5046 7.57473L63.5125 7.56192L63.5203 7.54899L61.8053 6.52ZM61.8053 9.1L60.0903 10.129L60.0981 10.1419L60.106 10.1547L61.8053 9.1ZM62.7453 10.04L61.6906 11.7393L61.7034 11.7472L61.7163 11.755L62.7453 10.04ZM63.0595 28.5858L59.4595 24.9858L56.6311 27.8142L60.2311 31.4142L63.0595 28.5858ZM59.4595 27.8142L84.6595 2.61421L81.8311 -0.214214L56.6311 24.9858L59.4595 27.8142ZM81.8233 2.60638L85.4233 6.24638L88.2673 3.43362L84.6673 -0.20638L81.8233 2.60638ZM85.4322 3.42466L60.2322 28.5847L63.0584 31.4153L88.2584 6.25534L85.4322 3.42466ZM80.8453 28.6C79.8649 28.6 79.0094 28.3669 78.2357 27.914L76.215 31.366C77.6279 32.1931 79.1857 32.6 80.8453 32.6V28.6ZM78.2605 27.9288C77.4572 27.4428 76.8225 26.8081 76.3366 26.0048L72.9141 28.0752C73.7348 29.4319 74.8334 30.5305 76.1901 31.3512L78.2605 27.9288ZM76.3421 26.0141C75.883 25.2457 75.6453 24.3897 75.6453 23.4H71.6453C71.6453 25.0769 72.061 26.6476 72.9085 28.0659L76.3421 26.0141ZM75.6453 23.4C75.6453 22.4528 75.8815 21.6142 76.3529 20.8412L72.9377 18.7588C72.0757 20.1724 71.6453 21.7339 71.6453 23.4H75.6453ZM76.3529 20.8412C76.8515 20.0235 77.4982 19.3827 78.3112 18.8968L76.2594 15.4632C74.8858 16.284 73.7725 17.3898 72.9377 18.7588L76.3529 20.8412ZM78.3112 18.8968C79.0928 18.4298 79.9247 18.2 80.8453 18.2V14.2C79.2059 14.2 77.6645 14.6236 76.2594 15.4632L78.3112 18.8968ZM80.8453 18.2C81.8178 18.2 82.6678 18.4357 83.4394 18.8968L85.4912 15.4632C84.0762 14.6176 82.5128 14.2 80.8453 14.2V18.2ZM83.455 18.906C84.2523 19.3728 84.8725 19.993 85.3393 20.7904L88.7913 18.7696C87.9781 17.3803 86.865 16.2672 85.4757 15.454L83.455 18.906ZM85.3541 20.8152C85.8077 21.5651 86.0453 22.4102 86.0453 23.4H90.0453C90.0453 21.7232 89.6296 20.1549 88.7766 18.7448L85.3541 20.8152ZM86.0453 23.4C86.0453 24.3897 85.8076 25.2457 85.3485 26.0141L88.7821 28.0659C89.6297 26.6476 90.0453 25.0769 90.0453 23.4H86.0453ZM85.3447 26.0204C84.8772 26.8094 84.2511 27.4382 83.4394 27.9232L85.4912 31.3568C86.8662 30.5352 87.9735 29.4306 88.7859 28.0596L85.3447 26.0204ZM83.455 27.914C82.6813 28.3669 81.8257 28.6 80.8453 28.6V32.6C82.5049 32.6 84.0627 32.1931 85.4757 31.366L83.455 27.914ZM80.8453 28C81.6747 28 82.4683 27.781 83.18 27.3393L81.0706 23.9407C81.009 23.979 80.9492 24 80.8453 24V28ZM83.1543 27.355C83.82 26.9556 84.3726 26.4186 84.7846 25.7547L81.386 23.6453C81.3181 23.7548 81.2306 23.8444 81.0963 23.925L83.1543 27.355ZM84.8003 25.729C85.2269 25.018 85.4453 24.229 85.4453 23.4H81.4453C81.4453 23.5043 81.4238 23.582 81.3703 23.671L84.8003 25.729ZM85.4453 23.4C85.4453 22.5706 85.2264 21.777 84.7846 21.0653L81.386 23.1747C81.4243 23.2363 81.4453 23.2961 81.4453 23.4H85.4453ZM84.8003 21.091C84.3914 20.4095 83.8358 19.8539 83.1543 19.445L81.0963 22.875C81.2148 22.9461 81.2992 23.0305 81.3703 23.149L84.8003 21.091ZM83.18 19.4607C82.4683 19.019 81.6747 18.8 80.8453 18.8V22.8C80.9492 22.8 81.009 22.821 81.0706 22.8593L83.18 19.4607ZM80.8453 18.8C80.0163 18.8 79.2273 19.0184 78.5163 19.445L80.5743 22.875C80.6633 22.8216 80.741 22.8 80.8453 22.8V18.8ZM78.4906 19.4607C77.8267 19.8728 77.2897 20.4253 76.8903 21.091L80.3203 23.149C80.4009 23.0147 80.4906 22.9272 80.6 22.8593L78.4906 19.4607ZM76.906 21.0653C76.4643 21.777 76.2453 22.5706 76.2453 23.4H80.2453C80.2453 23.2961 80.2664 23.2363 80.3046 23.1747L76.906 21.0653ZM76.2453 23.4C76.2453 24.229 76.4638 25.018 76.8903 25.729L80.3203 23.671C80.2669 23.582 80.2453 23.5043 80.2453 23.4H76.2453ZM76.906 25.7547C77.3084 26.403 77.8423 26.9369 78.4906 27.3393L80.6 23.9407C80.475 23.8631 80.3822 23.7703 80.3046 23.6453L76.906 25.7547ZM78.5163 27.355C79.2273 27.7816 80.0163 28 80.8453 28V24C80.741 24 80.6633 23.9784 80.5743 23.925L78.5163 27.355ZM64.0453 13C63.0649 13 62.2094 12.7669 61.4357 12.314L59.415 15.766C60.8279 16.5931 62.3857 17 64.0453 17V13ZM61.4512 12.3232C60.636 11.836 59.999 11.2023 59.5166 10.4048L56.0941 12.4752C56.9183 13.8377 58.028 14.9373 59.3994 15.7568L61.4512 12.3232ZM59.5313 10.4296C59.0803 9.65911 58.8453 8.79759 58.8453 7.8H54.8453C54.8453 9.46908 55.2503 11.0342 56.0793 12.4504L59.5313 10.4296ZM58.8453 7.8C58.8453 6.85278 59.0815 6.01425 59.5529 5.24121L56.1377 3.15878C55.2757 4.57242 54.8453 6.13388 54.8453 7.8H58.8453ZM59.5529 5.24121C60.0515 4.42351 60.6982 3.78269 61.5112 3.29683L59.4594 -0.136832C58.0858 0.683977 56.9725 1.78982 56.1377 3.15878L59.5529 5.24121ZM61.5112 3.29683C62.2928 2.82978 63.1247 2.6 64.0453 2.6V-1.4C62.4059 -1.4 60.8645 -0.976451 59.4594 -0.136834L61.5112 3.29683ZM64.0453 2.6C65.0178 2.6 65.857 2.83565 66.6101 3.29124L68.6805 -0.131249C67.2736 -0.982319 65.7128 -1.4 64.0453 -1.4V2.6ZM66.635 3.30603C67.436 3.77491 68.067 4.40009 68.5485 5.20591L71.9821 3.15409C71.157 1.77324 70.0413 0.665083 68.6557 -0.14603L66.635 3.30603ZM68.5541 5.2152C69.0077 5.96509 69.2453 6.81017 69.2453 7.8H73.2453C73.2453 6.12316 72.8296 4.55491 71.9766 3.1448L68.5541 5.2152ZM69.2453 7.8C69.2453 8.78974 69.0076 9.6457 68.5485 10.4141L71.9821 12.4659C72.8297 11.0476 73.2453 9.47693 73.2453 7.8H69.2453ZM68.5541 10.4048C68.0716 11.2023 67.4346 11.836 66.6194 12.3232L68.6712 15.7568C70.0426 14.9373 71.1524 13.8377 71.9766 12.4752L68.5541 10.4048ZM66.6257 12.3194C65.8705 12.7669 65.0258 13 64.0453 13V17C65.7048 17 67.2601 16.5931 68.6649 15.7606L66.6257 12.3194ZM64.0453 12.4C64.8747 12.4 65.6683 12.181 66.38 11.7393L64.2706 8.34072C64.209 8.37895 64.1492 8.4 64.0453 8.4V12.4ZM66.3543 11.755C67.02 11.3556 67.5725 10.8186 67.9846 10.1547L64.586 8.04527C64.5181 8.15476 64.4306 8.24442 64.2963 8.32501L66.3543 11.755ZM68.0003 10.129C68.4269 9.41803 68.6453 8.629 68.6453 7.8H64.6453C64.6453 7.90433 64.6237 7.98197 64.5703 8.07101L68.0003 10.129ZM68.6453 7.8C68.6453 6.97059 68.4264 6.177 67.9846 5.46527L64.586 7.57473C64.6243 7.63633 64.6453 7.69607 64.6453 7.8H68.6453ZM68.0003 5.49101C67.5914 4.80951 67.0358 4.25391 66.3543 3.84501L64.2963 7.27499C64.4148 7.34609 64.4992 7.43049 64.5703 7.54899L68.0003 5.49101ZM66.38 3.86072C65.6683 3.41895 64.8747 3.2 64.0453 3.2V7.2C64.1492 7.2 64.209 7.22104 64.2706 7.25928L66.38 3.86072ZM64.0453 3.2C63.2163 3.2 62.4273 3.41844 61.7163 3.84501L63.7743 7.27499C63.8633 7.22157 63.941 7.2 64.0453 7.2V3.2ZM61.6906 3.86072C61.0267 4.27276 60.4897 4.82533 60.0903 5.49101L63.5203 7.54899C63.6009 7.41467 63.6906 7.32724 63.8 7.25928L61.6906 3.86072ZM60.106 5.46527C59.6643 6.177 59.4453 6.97059 59.4453 7.8H63.4453C63.4453 7.69607 63.4664 7.63633 63.5046 7.57473L60.106 5.46527ZM59.4453 7.8C59.4453 8.629 59.6637 9.41803 60.0903 10.129L63.5203 8.07101C63.4669 7.98197 63.4453 7.90433 63.4453 7.8H59.4453ZM60.106 10.1547C60.5084 10.803 61.0423 11.3369 61.6906 11.7393L63.8 8.34072C63.675 8.26309 63.5822 8.17034 63.5046 8.04527L60.106 10.1547ZM61.7163 11.755C62.4273 12.1816 63.2163 12.4 64.0453 12.4V8.4C63.941 8.4 63.8633 8.37844 63.7743 8.32501L61.7163 11.755Z" fill="#2D5183" mask="url(#path-1-outside-1_367_788)"/>
</svg>
