<svg width="80" height="80" viewBox="0 0 80 80" fill="none" xmlns="http://www.w3.org/2000/svg">
<path d="M14.9651 45.5872L36.3083 78.3187C36.9871 79.3596 38.1502 80 39.4117 80C40.6325 80 41.7762 79.3983 42.4676 78.39L64.5671 46.1533C64.5745 46.1425 64.5818 46.1318 64.589 46.1209C67.8613 41.238 69.591 35.5387 69.591 29.6392C69.591 13.2962 56.295 0 39.9517 0C23.6087 0 10.3125 13.2962 10.3125 29.6392C10.3125 35.299 11.9143 40.8029 14.9446 45.5555L14.9651 45.5872ZM39.9517 7.40981C52.209 7.40981 62.1812 17.3819 62.1812 29.6392C62.1812 34.0584 60.8891 38.3252 58.444 41.9803L39.4888 69.6303L21.1825 41.5562C18.9188 37.9994 17.7223 33.8789 17.7223 29.6392C17.7223 17.3819 27.6944 7.40981 39.9517 7.40981Z" fill="#2D5183"/>
<path d="M39.9517 7.40981C52.209 7.40981 62.1812 17.3819 62.1812 29.6392C62.1812 34.0584 60.8891 38.3252 58.444 41.9803L39.4888 69.6303L21.1825 41.5562C18.9188 37.9994 17.7223 33.8789 17.7223 29.6392C17.7223 17.3819 27.6944 7.40981 39.9517 7.40981Z" fill="#F2F7FD"/>
<mask id="mask0_367_1165" style="mask-type:luminance" maskUnits="userSpaceOnUse" x="27" y="18" width="26" height="22">
<path d="M27.5 18.75H52.6459V40H27.5V18.75Z" fill="white"/>
</mask>
<g mask="url(#mask0_367_1165)">
<path d="M27.5 32.1713C27.5 29.083 30.0205 26.5791 33.1299 26.5791H52.6459C52.6459 29.6677 50.1254 32.1716 47.0164 32.1716L27.5 32.1713ZM27.5 40C27.5 36.9118 30.0205 34.4079 33.1299 34.4079H52.6459C52.6459 37.4965 50.1254 40.0004 47.0164 40.0004L27.5 40ZM27.5 24.3421C27.5 21.2535 30.0205 18.75 33.1299 18.75H52.6459C52.6459 21.8386 50.1254 24.3421 47.0164 24.3421H27.5Z" fill="#2D5183"/>
</g>
</svg>
