<svg width="240" height="56" viewBox="0 0 240 56" fill="none" xmlns="http://www.w3.org/2000/svg">
<g clip-path="url(#clip0_367_764)">
<mask id="mask0_367_764" style="mask-type:luminance" maskUnits="userSpaceOnUse" x="0" y="0" width="66" height="56">
<path d="M0 0H65.287V55.172H0V0Z" fill="white"/>
</mask>
<g mask="url(#mask0_367_764)">
<path d="M0 34.846C0 26.828 6.544 20.327 14.617 20.327H65.287C65.287 28.346 58.743 34.847 50.671 34.847L0 34.846ZM0 55.172C0 47.154 6.544 40.653 14.617 40.653H65.287C65.287 48.672 58.743 55.173 50.671 55.173L0 55.172ZM0 14.519C0 6.5 6.544 0 14.617 0H65.287C65.287 8.019 58.743 14.519 50.671 14.519H0Z" fill="#2D5183"/>
</g>
<mask id="mask1_367_764" style="mask-type:luminance" maskUnits="userSpaceOnUse" x="83" y="0" width="157" height="56">
<path d="M83.6782 0H240V55.172H83.6782V0Z" fill="white"/>
</mask>
<g mask="url(#mask1_367_764)">
<path d="M91.0595 5.49691C91.6775 5.70891 92.1595 6.04291 92.5045 6.49791C92.8595 6.94291 93.0375 7.46391 93.0375 8.06091C93.0467 8.68334 92.8178 9.28577 92.3975 9.74492C91.9725 10.2209 91.3935 10.5849 90.6635 10.8379C89.9435 11.0899 89.1515 11.2169 88.2895 11.2169C87.5595 11.2169 86.8295 11.1259 86.0985 10.9439C85.3782 10.7619 84.6866 10.4809 84.0435 10.1089L84.8045 8.34892C85.2715 8.63292 85.7845 8.84991 86.3415 9.00191C86.8837 9.1401 87.4409 9.2113 88.0005 9.21391C88.7305 9.21391 89.3345 9.08291 89.8105 8.81991C90.2985 8.55692 90.5415 8.18691 90.5415 7.71191C90.5484 7.53095 90.5053 7.35158 90.4167 7.19363C90.3281 7.03568 90.1975 6.9053 90.0395 6.81691C89.7145 6.61491 89.2685 6.51291 88.6995 6.51291H86.0985V4.66291H88.5185C89.0145 4.66291 89.4005 4.56091 89.6745 4.35891C89.8102 4.26707 89.9205 4.14231 89.995 3.99629C90.0695 3.85027 90.1058 3.68775 90.1005 3.52391C90.1005 3.10991 89.8975 2.78591 89.4915 2.55391C89.0965 2.32091 88.5835 2.20391 87.9545 2.20391C87.4885 2.20391 87.0065 2.26991 86.5095 2.40191C86.0138 2.52245 85.5372 2.71125 85.0935 2.96291L84.3485 1.05091C85.4787 0.473683 86.7314 0.177317 88.0005 0.186915C88.7814 0.178639 89.5583 0.301686 90.2985 0.550915C90.9985 0.792915 91.5565 1.14691 91.9725 1.61291C92.3794 2.05478 92.6026 2.63521 92.5965 3.23591C92.5965 3.74191 92.4585 4.19191 92.1855 4.58591C91.9115 4.98091 91.5355 5.28391 91.0595 5.49591V5.49691ZM102.734 8.75891H97.7885L96.8455 11.0349H94.3195L99.0675 0.414915H101.501L106.264 11.0349H103.677L102.734 8.75891ZM101.958 6.89291L100.269 2.82691L98.5795 6.89291H101.958ZM115.59 5.49691C116.239 5.68891 116.736 6.00291 117.081 6.43691C117.426 6.87191 117.598 7.40891 117.598 8.04591C117.598 8.98591 117.238 9.71992 116.518 10.2459C115.808 10.7719 114.788 11.0349 113.459 11.0349H108.209V0.414915H113.17C114.408 0.414915 115.372 0.651915 116.062 1.12691C116.751 1.60291 117.096 2.27991 117.096 3.15991C117.096 3.68591 116.964 4.15191 116.701 4.55591C116.422 4.96326 116.038 5.28795 115.59 5.49591V5.49691ZM110.659 4.81391H112.957C113.495 4.81391 113.901 4.70791 114.175 4.49491C114.449 4.27291 114.585 3.94891 114.585 3.52491C114.585 3.10991 114.443 2.79091 114.159 2.56891C113.885 2.34591 113.485 2.23491 112.957 2.23491H110.659V4.81391ZM113.368 9.21391C114.525 9.21391 115.103 8.75891 115.103 7.84891C115.103 6.96891 114.525 6.52891 113.368 6.52891H110.659V9.21391H113.368ZM125.163 11.2169C124.057 11.2169 123.058 10.9789 122.165 10.5039C121.307 10.0511 120.587 9.37497 120.081 8.54692C119.584 7.70691 119.335 6.76691 119.335 5.72391C119.335 4.68291 119.584 3.74691 120.081 2.91791C120.584 2.08283 121.304 1.40064 122.165 0.944915C123.058 0.469915 124.057 0.231915 125.163 0.231915C126.269 0.231915 127.263 0.469915 128.146 0.944915C129.008 1.40087 129.729 2.08298 130.231 2.91791C130.738 3.74691 130.991 4.68291 130.991 5.72391C130.991 6.76591 130.738 7.70691 130.231 8.54692C129.725 9.37479 129.005 10.0508 128.146 10.5039C127.263 10.9789 126.269 11.2169 125.163 11.2169ZM125.163 9.12292C125.759 9.13124 126.346 8.98479 126.868 8.69792C127.369 8.4112 127.779 7.99084 128.054 7.48391C128.349 6.96891 128.496 6.38191 128.496 5.72391C128.496 5.06691 128.349 4.47991 128.054 3.96391C127.782 3.4595 127.37 3.04377 126.868 2.76591C126.35 2.4697 125.761 2.31777 125.163 2.32591C124.566 2.31761 123.978 2.46955 123.459 2.76591C122.955 3.04597 122.539 3.46078 122.257 3.96391C121.973 4.47991 121.831 5.06691 121.831 5.72391C121.831 6.38191 121.973 6.96891 122.257 7.48391C122.551 7.99991 122.952 8.40392 123.459 8.69792C123.981 8.98493 124.568 9.13139 125.163 9.12292ZM144.113 9.03191V13.2349H141.83V11.0349H134.313V13.2349H132.03L132.045 9.03191H132.471C133.111 9.01191 133.562 8.54692 133.826 7.63591C134.09 6.72591 134.252 5.42591 134.313 3.73591L134.434 0.413915H142.621V9.03191H144.113ZM136.489 3.96391C136.438 5.22891 136.332 6.29091 136.169 7.15091C136.007 8.00091 135.758 8.62691 135.424 9.03191H140.187V2.41691H136.534L136.489 3.96391Z" fill="#2D5183"/>
<path d="M94.6952 31.6228L94.6802 25.2658L91.5452 30.4998H90.4502L87.3152 25.3868V31.6228H85.0022V21.0028H87.0412L91.0282 27.6028L94.9542 21.0028H96.9932L97.0082 31.6228H94.6952ZM108.435 29.6508V31.6228H100.187V21.0028H108.237V22.9748H102.637V25.2808H107.582V27.1928H102.637V29.6508H108.435ZM119.1 23.0048H115.691V31.6228H113.256V23.0048H109.863V21.0018H119.1V23.0048ZM127.858 29.3468H122.912L121.969 31.6228H119.443L124.191 21.0028H126.625L131.388 31.6228H128.802L127.858 29.3468ZM127.082 27.4808L125.393 23.4148L123.704 27.4808H127.082ZM142.918 21.0018V31.6228H140.484V23.0048H136.831L136.755 25.2198C136.705 26.7268 136.583 27.9508 136.39 28.8918C136.197 29.8218 135.873 30.5408 135.416 31.0468C134.97 31.5418 134.341 31.7898 133.529 31.7898C133.194 31.7898 132.789 31.7338 132.312 31.6228L132.464 29.5438C132.596 29.5838 132.743 29.6048 132.905 29.6048C133.494 29.6048 133.905 29.2608 134.138 28.5728C134.371 27.8748 134.518 26.7878 134.579 25.3108L134.731 21.0018H142.918ZM155.533 21.0018V31.6228H153.098V23.0048H149.446L149.37 25.2198C149.319 26.7268 149.197 27.9508 149.004 28.8918C148.812 29.8218 148.487 30.5408 148.03 31.0468C147.584 31.5418 146.955 31.7898 146.143 31.7898C145.809 31.7898 145.403 31.7338 144.926 31.6228L145.078 29.5438C145.21 29.5838 145.357 29.6048 145.52 29.6048C146.108 29.6048 146.519 29.2608 146.752 28.5728C146.986 27.8748 147.133 26.7878 147.193 25.3108L147.346 21.0018H155.533ZM158.726 21.0018H161.176V27.9208L166.258 21.0018H168.571V31.6228H166.136V24.7198L161.054 31.6228H158.726V21.0018ZM180.209 21.0018V31.6228H177.774V27.7998C176.851 28.1328 175.994 28.2998 175.202 28.2998C173.772 28.2998 172.676 27.9618 171.915 27.2838C171.155 26.5958 170.774 25.6098 170.774 24.3248V21.0018H173.209V24.0518C173.209 24.7798 173.401 25.3318 173.787 25.7058C174.183 26.0698 174.751 26.2518 175.491 26.2518C176.303 26.2518 177.064 26.0948 177.774 25.7818V21.0018H180.209ZM191.637 29.6508V31.6228H183.389V21.0028H191.439V22.9748H185.839V25.2808H190.785V27.1928H185.839V29.6508H191.637ZM199.168 31.8048C198.082 31.8048 197.098 31.5728 196.216 31.1068C195.364 30.651 194.649 29.9753 194.146 29.1498C193.649 28.3098 193.401 27.3648 193.401 26.3128C193.401 25.2608 193.649 24.3198 194.146 23.4908C194.643 22.6604 195.359 21.9829 196.216 21.5328C197.098 21.0578 198.088 20.8198 199.183 20.8198C200.106 20.8198 200.938 20.9818 201.679 21.3058C202.429 21.6288 203.058 22.0948 203.566 22.7018L201.983 24.1578C201.262 23.3278 200.37 22.9138 199.305 22.9138C198.645 22.9138 198.057 23.0608 197.54 23.3538C197.029 23.6304 196.607 24.0461 196.322 24.5528C196.038 25.0688 195.896 25.6548 195.896 26.3128C195.896 26.9698 196.038 27.5568 196.322 28.0728C196.616 28.5888 197.022 28.9928 197.54 29.2858C198.057 29.5698 198.645 29.7108 199.305 29.7108C200.37 29.7108 201.262 29.2908 201.983 28.4518L203.566 29.9088C203.06 30.5241 202.413 31.0078 201.679 31.3188C200.928 31.6428 200.091 31.8048 199.168 31.8048ZM209.829 27.3448H208.125V31.6228H205.675V21.0028H208.125V25.2958H209.89L212.69 21.0018H215.292L211.807 26.1308L215.398 31.6228H212.598L209.829 27.3448ZM217.085 21.0018H219.535V27.9208L224.618 21.0018H226.931V31.6228H224.496V24.7198L219.414 31.6228H217.085V21.0018ZM232.034 21.0018L234.24 24.2188L236.447 21.0018H239.338L235.792 26.0848L239.627 31.6228H236.72L234.24 28.1028L231.79 31.6228H228.944L232.749 26.1908L229.188 21.0018H232.034ZM95.9892 50.3098V54.5128H93.7062V52.3128H86.1902V54.5128H83.9072L83.9222 50.3098H84.3482C84.9882 50.2898 85.4392 49.8238 85.7032 48.9138C85.9672 48.0038 86.1292 46.7038 86.1902 45.0138L86.3122 41.6918H94.4982V50.3098H95.9892ZM88.3652 45.2418C88.3152 46.5068 88.2082 47.5688 88.0452 48.4288C87.8832 49.2788 87.6352 49.9048 87.3002 50.3088H92.0632V43.6948H88.4102L88.3652 45.2418ZM105.561 46.7748C106.21 46.9668 106.707 47.2808 107.052 47.7148C107.397 48.1498 107.57 48.6858 107.57 49.3238C107.57 50.2638 107.21 50.9978 106.489 51.5238C105.779 52.0498 104.76 52.3128 103.431 52.3128H98.1812V41.6918H103.142C104.379 41.6918 105.343 41.9298 106.033 42.4048C106.723 42.8798 107.068 43.5578 107.068 44.4378C107.068 44.9638 106.936 45.4288 106.672 45.8338C106.393 46.2412 106.009 46.5659 105.561 46.7738V46.7748ZM100.631 46.0918H102.929C103.466 46.0918 103.872 45.9858 104.146 45.7728C104.42 45.5508 104.557 45.2268 104.557 44.8028C104.557 44.3878 104.415 44.0688 104.131 43.8468C103.857 43.6238 103.456 43.5128 102.929 43.5128H100.631V46.0918ZM103.339 50.4918C104.496 50.4918 105.074 50.0368 105.074 49.1268C105.074 48.2468 104.496 47.8068 103.339 47.8068H100.631V50.4918H103.339ZM118.3 50.3398V52.3128H110.052V41.6918H118.102V43.6638H112.502V45.9708H117.447V47.8818H112.502V50.3398H118.3ZM125.434 41.6918C126.378 41.6918 127.194 41.8488 127.884 42.1618C128.584 42.4758 129.122 42.9208 129.497 43.4978C129.873 44.0738 130.06 44.7568 130.06 45.5458C130.06 46.3248 129.873 47.0068 129.497 47.5938C129.122 48.1708 128.584 48.6158 127.884 48.9288C127.194 49.2328 126.378 49.3838 125.434 49.3838H123.289V52.3128H120.823V41.6918H125.434ZM125.297 47.3818C126.038 47.3818 126.601 47.2248 126.986 46.9118C127.372 46.5878 127.565 46.1318 127.565 45.5458C127.565 44.9488 127.372 44.4938 126.986 44.1798C126.601 43.8568 126.038 43.6948 125.297 43.6948H123.289V47.3818H125.297ZM140.467 50.3398V52.3128H132.219V41.6918H140.269V43.6638H134.669V45.9708H139.615V47.8818H134.669V50.3398H140.467ZM142.991 41.6918H145.44V48.6108L150.523 41.6918H152.836V52.3118H150.401V45.4098L145.319 52.3138H142.991V41.6918ZM147.906 41.0088C145.958 41.0088 144.974 40.2358 144.954 38.6878H146.643C146.663 39.4258 147.084 39.7948 147.906 39.7948C148.311 39.7948 148.621 39.7048 148.834 39.5218C149.047 39.3298 149.159 39.0518 149.169 38.6878H150.858C150.848 39.4458 150.599 40.0228 150.112 40.4178C149.625 40.8118 148.89 41.0088 147.906 41.0088Z" fill="#2D5183"/>
</g>
</g>
<defs>
<clipPath id="clip0_367_764">
<rect width="240" height="56" fill="white"/>
</clipPath>
</defs>
</svg>
