<svg width="186" height="31" fill="none" xmlns="http://www.w3.org/2000/svg">
    <mask id="a" maskUnits="userSpaceOnUse" x="-2" y="-2" width="190" height="35" fill="#000">
        <path fill="#fff" d="M-2-2h190v35H-2z"/>
        <path d="M5.8 30V7.12L.4 10.44v-6L5.8 1.2h5.56V30H5.8Zm23.204.6c-1.907 0-3.62-.447-5.14-1.34-1.507-.893-2.7-2.133-3.58-3.72-.88-1.6-1.32-3.447-1.32-5.54v-8.36c0-2.267.44-4.22 1.32-5.86.88-1.653 2.12-2.92 3.72-3.8 1.6-.893 3.48-1.34 5.64-1.34 1.4 0 2.733.207 4 .62 1.267.413 2.427 1.113 3.48 2.1l-3.88 3.88a5.213 5.213 0 0 0-1.66-1.12 4.908 4.908 0 0 0-1.94-.4c-1.04 0-1.947.247-2.72.74a5.073 5.073 0 0 0-1.78 1.9c-.413.773-.62 1.6-.62 2.48v4.28l-.92-1a8.445 8.445 0 0 1 2.86-1.92 8.745 8.745 0 0 1 3.38-.68c1.813 0 3.407.407 4.78 1.22a8.574 8.574 0 0 1 3.24 3.34c.787 1.413 1.18 3.027 1.18 4.84 0 1.813-.46 3.453-1.38 4.92a10.296 10.296 0 0 1-3.66 3.48c-1.52.853-3.187 1.28-5 1.28Zm0-5.2c.827 0 1.58-.2 2.26-.6.693-.4 1.24-.94 1.64-1.62.413-.68.62-1.433.62-2.26 0-.827-.2-1.58-.6-2.26-.4-.693-.94-1.24-1.62-1.64a4.267 4.267 0 0 0-2.26-.62 4.37 4.37 0 0 0-2.28.62c-.68.4-1.227.947-1.64 1.64-.4.68-.6 1.433-.6 2.26 0 .8.2 1.54.6 2.22.4.68.94 1.227 1.62 1.64.68.413 1.433.62 2.26.62Zm25.523 5.2c-2.133 0-4-.447-5.6-1.34a9.518 9.518 0 0 1-3.74-3.74c-.893-1.6-1.34-3.467-1.34-5.6v-8.64c0-2.133.447-4 1.34-5.6a9.518 9.518 0 0 1 3.74-3.74c1.6-.893 3.467-1.34 5.6-1.34 2.133 0 4 .447 5.6 1.34a9.519 9.519 0 0 1 3.74 3.74c.893 1.6 1.34 3.467 1.34 5.6v8.64c0 2.133-.447 4-1.34 5.6a9.518 9.518 0 0 1-3.74 3.74c-1.6.893-3.467 1.34-5.6 1.34Zm0-5.16c.96 0 1.826-.227 2.6-.68a5.073 5.073 0 0 0 1.84-1.84c.453-.773.68-1.64.68-2.6v-9.48c0-.96-.227-1.827-.68-2.6a5.073 5.073 0 0 0-1.84-1.84c-.774-.453-1.64-.68-2.6-.68-.96 0-1.827.227-2.6.68a5.072 5.072 0 0 0-1.84 1.84c-.454.773-.68 1.64-.68 2.6v9.48c0 .96.227 1.827.68 2.6a5.072 5.072 0 0 0 1.84 1.84c.773.453 1.64.68 2.6.68Zm34.96 5.16c-2.132 0-4-.447-5.6-1.34a9.518 9.518 0 0 1-3.74-3.74c-.893-1.6-1.34-3.467-1.34-5.6v-8.64c0-2.133.447-4 1.34-5.6a9.518 9.518 0 0 1 3.74-3.74c1.6-.893 3.468-1.34 5.6-1.34 2.134 0 4 .447 5.6 1.34a9.518 9.518 0 0 1 3.74 3.74c.894 1.6 1.341 3.467 1.341 5.6v8.64c0 2.133-.447 4-1.34 5.6a9.518 9.518 0 0 1-3.74 3.74c-1.6.893-3.467 1.34-5.6 1.34Zm0-5.16c.96 0 1.828-.227 2.6-.68a5.072 5.072 0 0 0 1.84-1.84c.454-.773.68-1.64.68-2.6v-9.48c0-.96-.226-1.827-.68-2.6a5.072 5.072 0 0 0-1.84-1.84c-.773-.453-1.64-.68-2.6-.68-.96 0-1.826.227-2.6.68a5.072 5.072 0 0 0-1.84 1.84c-.453.773-.68 1.64-.68 2.6v9.48c0 .96.227 1.827.68 2.6a5.072 5.072 0 0 0 1.84 1.84c.774.453 1.64.68 2.6.68Zm26.954 5.16c-2.133 0-4-.447-5.6-1.34a9.516 9.516 0 0 1-3.74-3.74c-.893-1.6-1.34-3.467-1.34-5.6v-8.64c0-2.133.447-4 1.34-5.6a9.516 9.516 0 0 1 3.74-3.74c1.6-.893 3.467-1.34 5.6-1.34 2.133 0 4 .447 5.6 1.34a9.516 9.516 0 0 1 3.74 3.74c.893 1.6 1.34 3.467 1.34 5.6v8.64c0 2.133-.447 4-1.34 5.6a9.516 9.516 0 0 1-3.74 3.74c-1.6.893-3.467 1.34-5.6 1.34Zm0-5.16c.96 0 1.827-.227 2.6-.68a5.072 5.072 0 0 0 1.84-1.84c.453-.773.68-1.64.68-2.6v-9.48c0-.96-.227-1.827-.68-2.6a5.072 5.072 0 0 0-1.84-1.84c-.773-.453-1.64-.68-2.6-.68-.96 0-1.827.227-2.6.68a5.072 5.072 0 0 0-1.84 1.84c-.453.773-.68 1.64-.68 2.6v9.48c0 .96.227 1.827.68 2.6a5.072 5.072 0 0 0 1.84 1.84c.773.453 1.64.68 2.6.68Zm26.953 5.16c-2.133 0-4-.447-5.6-1.34a9.516 9.516 0 0 1-3.74-3.74c-.893-1.6-1.34-3.467-1.34-5.6v-8.64c0-2.133.447-4 1.34-5.6a9.516 9.516 0 0 1 3.74-3.74c1.6-.893 3.467-1.34 5.6-1.34 2.133 0 4 .447 5.6 1.34a9.516 9.516 0 0 1 3.74 3.74c.893 1.6 1.34 3.467 1.34 5.6v8.64c0 2.133-.447 4-1.34 5.6a9.516 9.516 0 0 1-3.74 3.74c-1.6.893-3.467 1.34-5.6 1.34Zm0-5.16c.96 0 1.827-.227 2.6-.68a5.072 5.072 0 0 0 1.84-1.84c.453-.773.68-1.64.68-2.6v-9.48c0-.96-.227-1.827-.68-2.6a5.072 5.072 0 0 0-1.84-1.84c-.773-.453-1.64-.68-2.6-.68-.96 0-1.827.227-2.6.68a5.072 5.072 0 0 0-1.84 1.84c-.453.773-.68 1.64-.68 2.6v9.48c0 .96.227 1.827.68 2.6a5.072 5.072 0 0 0 1.84 1.84c.773.453 1.64.68 2.6.68Zm30.801-.84v-6.92h-6.92v-4.2h6.92V6.6h4.2v6.88h6.88v4.2h-6.88v6.92h-4.2Z"/>
    </mask>
    <path d="M5.8 30h-2v2h2v-2Zm0-22.88h2V3.543L4.753 5.416 5.8 7.12ZM.4 10.44h-2v3.577l3.047-1.873L.4 10.44Zm0-6L-.629 2.725l-.971.583V4.44h2ZM5.8 1.2v-2h-.554l-.475.285L5.8 1.2Zm5.56 0h2v-2h-2v2Zm0 28.8v2h2v-2h-2ZM7.8 30V7.12h-4V30h4ZM4.753 5.416l-5.4 3.32 2.094 3.408 5.4-3.32-2.094-3.408ZM2.4 10.44v-6h-4v6h4Zm-.971-4.285 5.4-3.24-2.058-3.43-5.4 3.24 2.058 3.43ZM5.8 3.2h5.56v-4H5.8v4Zm3.56-2V30h4V1.2h-4Zm2 26.8H5.8v4h5.56v-4Zm12.504 1.26-1.02 1.72.007.004 1.013-1.724Zm-3.58-3.72-1.752.964.003.006 1.75-.97Zm0-19.76 1.762.946.004-.006-1.766-.94Zm3.72-3.8.964 1.752.011-.006-.975-1.746Zm9.64-.72-.62 1.901.62-1.901Zm3.48 2.1 1.414 1.414L40 3.313 38.49 1.9l-1.367 1.46Zm-3.88 3.88L31.83 8.654l1.414 1.414 1.414-1.414-1.414-1.414Zm-1.66-1.12-.783 1.84.783-1.84Zm-4.66.34 1.068 1.691.008-.005-1.076-1.686Zm-1.78 1.9-1.758-.954-.006.011 1.764.943Zm-.62 6.76-1.472 1.354 3.472 3.774V15.12h-2Zm-.92-1-1.425-1.403-1.335 1.357 1.288 1.4 1.472-1.354Zm2.86-1.92.755 1.852.011-.005-.766-1.847Zm8.16.54-1.02 1.72.008.005 1.012-1.725Zm3.24 3.34-1.755.96.004.006.004.007 1.747-.973Zm-.2 9.76 1.69 1.07.004-.007-1.694-1.063Zm-3.66 3.48.98 1.744.01-.007-.99-1.737Zm-2.74-4.52-1-1.732-.007.004-.007.004 1.014 1.724Zm1.64-1.62-1.709-1.039-.008.013-.007.012 1.724 1.014Zm.02-4.52-1.732 1 .004.007.004.007 1.724-1.014Zm-1.62-1.64-1.039 1.709.013.008.012.007 1.014-1.724Zm-4.54 0 1.014 1.724.01-.006-1.024-1.718Zm-1.64 1.64-1.718-1.024-.006.01 1.724 1.014Zm1.62 6.12 1.039-1.709-1.039 1.709Zm2.26 3.82c-1.58 0-2.939-.366-4.127-1.064l-2.026 3.448c1.852 1.089 3.92 1.616 6.153 1.616v-4Zm-4.12-1.06c-1.19-.706-2.137-1.682-2.85-2.97l-3.499 1.94c1.046 1.885 2.486 3.39 4.309 4.47l2.04-3.44Zm-2.848-2.964c-.695-1.264-1.072-2.77-1.072-4.576h-4c0 2.38.503 4.568 1.568 6.504l3.505-1.928ZM20.965 20v-8.36h-4V20h4Zm0-8.36c0-2.008.389-3.622 1.082-4.914l-3.524-1.892c-1.067 1.988-1.558 4.28-1.558 6.806h4Zm1.086-4.92c.702-1.32 1.668-2.3 2.918-2.988L23.04.228C21.09 1.3 19.576 2.853 18.52 4.84l3.53 1.88Zm2.93-2.994c1.252-.7 2.784-1.086 4.664-1.086v-4c-2.44 0-4.668.507-6.615 1.594l1.95 3.492Zm4.664-1.086c1.2 0 2.323.177 3.38.521l1.24-3.802a14.812 14.812 0 0 0-4.62-.719v4Zm3.38.521c.965.315 1.875.855 2.733 1.659L38.49 1.9C37.242.73 35.832-.13 34.264-.64l-1.24 3.802Zm2.686-1.215-3.88 3.88 2.828 2.828 3.88-3.88-2.828-2.828Zm-1.052 3.88a7.212 7.212 0 0 0-2.29-1.546L30.8 7.96c.392.167.73.396 1.029.694l2.828-2.828Zm-2.29-1.546a6.908 6.908 0 0 0-2.724-.56v4c.392 0 .772.077 1.157.24l1.566-3.68Zm-2.724-.56c-1.369 0-2.66.33-3.796 1.054L28 8.146c.41-.262.933-.426 1.644-.426v-4Zm-3.788 1.049a7.073 7.073 0 0 0-2.47 2.637l3.516 1.908a3.074 3.074 0 0 1 1.09-1.163l-2.136-3.382ZM23.38 7.417a7.183 7.183 0 0 0-.856 3.423h4c0-.552.126-1.055.384-1.537L23.38 7.417Zm-.856 3.423v4.28h4v-4.28h-4Zm3.472 2.926-.92-1-2.944 2.708.92 1 2.944-2.708Zm-.966 1.757a6.446 6.446 0 0 1 2.189-1.47l-1.51-3.705a10.445 10.445 0 0 0-3.53 2.37l2.85 2.805Zm2.2-1.476a6.744 6.744 0 0 1 2.614-.527v-4c-1.428 0-2.815.28-4.146.832l1.532 3.695Zm2.614-.527c1.505 0 2.736.334 3.76.94l2.04-3.44c-1.723-1.02-3.678-1.5-5.8-1.5v4Zm3.768.945a6.574 6.574 0 0 1 2.497 2.575l3.51-1.92a10.572 10.572 0 0 0-3.983-4.105l-2.024 3.45Zm2.505 2.588c.601 1.08.927 2.352.927 3.867h4c0-2.112-.46-4.067-1.432-5.813l-3.495 1.946Zm.927 3.867c0 1.456-.364 2.724-1.074 3.857l3.388 2.126c1.13-1.8 1.686-3.812 1.686-5.983h-4Zm-1.07 3.85a8.296 8.296 0 0 1-2.96 2.813l1.98 3.474a12.294 12.294 0 0 0 4.36-4.147l-3.38-2.14Zm-2.949 2.806c-1.209.679-2.536 1.024-4.02 1.024v4c2.14 0 4.147-.508 5.978-1.536l-1.958-3.488Zm-4.02-.176a6.374 6.374 0 0 0 3.273-.876l-2.028-3.448c-.358.21-.758.324-1.246.324v4Zm3.259-.868a6.446 6.446 0 0 0 2.364-2.338l-3.448-2.028a2.447 2.447 0 0 1-.915.902l1.998 3.464Zm2.35-2.313a6.266 6.266 0 0 0 .91-3.299h-4c0 .475-.114.867-.329 1.221l3.418 2.078Zm.91-3.299a6.374 6.374 0 0 0-.876-3.274L31.2 19.674c.21.358.324.758.324 1.246h4Zm-.868-3.26a6.445 6.445 0 0 0-2.338-2.364l-2.028 3.448c.378.222.672.517.902.915l3.464-1.998Zm-2.313-2.349a6.266 6.266 0 0 0-3.299-.911v4c.475 0 .867.114 1.221.329l2.078-3.418Zm-3.299-.911a6.37 6.37 0 0 0-3.304.902l2.048 3.436c.376-.224.78-.338 1.256-.338v-4Zm-3.294.896a6.601 6.601 0 0 0-2.344 2.34l3.436 2.048c.245-.412.553-.715.936-.94l-2.028-3.448Zm-2.35 2.35a6.374 6.374 0 0 0-.876 3.274h4c0-.488.113-.888.324-1.246L23.4 17.646Zm-.876 3.274a6.3 6.3 0 0 0 .876 3.234l3.448-2.028a2.303 2.303 0 0 1-.324-1.206h-4Zm.876 3.234a6.654 6.654 0 0 0 2.305 2.335l2.078-3.418a2.657 2.657 0 0 1-.935-.945L23.4 24.154Zm2.305 2.335a6.266 6.266 0 0 0 3.3.911v-4a2.27 2.27 0 0 1-1.222-.329l-2.078 3.418Zm23.222 2.771.975-1.746-.975 1.746Zm-3.74-3.74 1.746-.975-1.746.975Zm0-19.84 1.746.975-1.746-.975Zm3.74-3.74L47.952.194l.975 1.746Zm11.2 0 .975-1.746-.975 1.746Zm0 27.32.975 1.746-.975-1.746Zm-3-4.5-1.012-1.725 1.012 1.725Zm1.84-1.84-1.725-1.011 1.725 1.011Zm0-14.68-1.725 1.011 1.725-1.011Zm-1.84-1.84-1.012 1.725L57.127 6.4Zm-5.2 0-1.012-1.725L51.927 6.4Zm-1.84 16.52-1.726 1.011 1.726-1.011Zm1.84 1.84 1.011-1.725-1.011 1.725Zm2.6 3.84c-1.849 0-3.369-.385-4.625-1.086l-1.95 3.492c1.944 1.086 4.157 1.594 6.575 1.594v-4Zm-4.625-1.086a7.519 7.519 0 0 1-2.969-2.969l-3.492 1.95a11.518 11.518 0 0 0 4.51 4.511l1.95-3.492Zm-2.969-2.969c-.701-1.256-1.086-2.777-1.086-4.625h-4c0 2.418.508 4.631 1.594 6.575l3.492-1.95Zm-1.086-4.625v-8.64h-4v8.64h4Zm0-8.64c0-1.848.385-3.369 1.086-4.625l-3.492-1.95c-1.086 1.944-1.594 4.157-1.594 6.575h4Zm1.086-4.625a7.519 7.519 0 0 1 2.969-2.969L47.952.194a11.518 11.518 0 0 0-4.511 4.511l3.492 1.95Zm2.969-2.969c1.256-.701 2.776-1.086 4.625-1.086v-4c-2.418 0-4.631.509-6.575 1.594l1.95 3.492ZM54.527 2.6c1.848 0 3.369.385 4.625 1.086l1.95-3.492C59.158-.891 56.945-1.4 54.527-1.4v4Zm4.625 1.086a7.519 7.519 0 0 1 2.969 2.969l3.492-1.95A11.518 11.518 0 0 0 61.102.194l-1.95 3.492Zm2.969 2.969c.701 1.256 1.086 2.777 1.086 4.625h4c0-2.418-.509-4.631-1.594-6.575l-3.492 1.95Zm1.086 4.625v8.64h4v-8.64h-4Zm0 8.64c0 1.848-.385 3.369-1.086 4.625l3.492 1.95c1.085-1.944 1.594-4.157 1.594-6.575h-4Zm-1.086 4.625a7.518 7.518 0 0 1-2.97 2.969l1.95 3.492a11.518 11.518 0 0 0 4.512-4.511l-3.492-1.95Zm-2.97 2.969c-1.255.701-2.776 1.086-4.624 1.086v4c2.418 0 4.631-.508 6.575-1.594l-1.95-3.492Zm-4.624-.074c1.29 0 2.51-.309 3.611-.955l-2.023-3.45c-.444.26-.958.405-1.588.405v4Zm3.611-.955a7.072 7.072 0 0 0 2.554-2.554l-3.45-2.022c-.28.478-.648.845-1.127 1.126l2.023 3.45Zm2.554-2.554c.646-1.101.955-2.322.955-3.611h-4c0 .63-.145 1.144-.405 1.589l3.45 2.022Zm.955-3.611v-9.48h-4v9.48h4Zm0-9.48c0-1.29-.309-2.51-.955-3.611l-3.45 2.022c.26.445.405.958.405 1.589h4Zm-.955-3.611a7.072 7.072 0 0 0-2.554-2.554l-2.023 3.45c.479.28.846.648 1.127 1.126l3.45-2.022Zm-2.554-2.554c-1.102-.646-2.322-.955-3.611-.955v4c.63 0 1.144.145 1.588.405l2.023-3.45Zm-3.611-.955c-1.29 0-2.51.309-3.612.955l2.023 3.45c.445-.26.958-.405 1.589-.405v-4Zm-3.612.955a7.072 7.072 0 0 0-2.553 2.554l3.45 2.022c.28-.478.648-.845 1.126-1.126l-2.023-3.45Zm-2.553 2.554c-.646 1.101-.955 2.322-.955 3.611h4c0-.63.145-1.144.405-1.589l-3.45-2.022Zm-.955 3.611v9.48h4v-9.48h-4Zm0 9.48c0 1.29.309 2.51.955 3.611l3.45-2.022c-.26-.445-.405-.958-.405-1.589h-4Zm.955 3.611a7.071 7.071 0 0 0 2.553 2.554l2.023-3.45a3.073 3.073 0 0 1-1.126-1.126l-3.45 2.022Zm2.553 2.554c1.102.646 2.322.955 3.612.955v-4c-.63 0-1.144-.145-1.589-.405l-2.023 3.45Zm32.973 2.775.975-1.746-.975 1.746Zm-3.74-3.74 1.746-.975-1.746.975Zm0-19.84 1.746.975-1.746-.975Zm3.74-3.74L82.913.194l.975 1.746Zm11.2 0 .975-1.746-.975 1.746Zm0 27.32.975 1.746-.975-1.746Zm-3-4.5-1.012-1.725 1.012 1.725Zm1.84-1.84-1.726-1.011 1.726 1.011Zm0-14.68-1.726 1.011 1.726-1.011Zm-1.84-1.84-1.012 1.725L92.088 6.4Zm-5.2 0-1.012-1.725L86.888 6.4Zm-1.84 16.52-1.726 1.011 1.726-1.011Zm1.84 1.84 1.011-1.725-1.011 1.725Zm2.6 3.84c-1.849 0-3.369-.385-4.625-1.086l-1.95 3.492c1.944 1.086 4.157 1.594 6.575 1.594v-4Zm-4.625-1.086a7.518 7.518 0 0 1-2.969-2.969l-3.492 1.95a11.517 11.517 0 0 0 4.51 4.511l1.95-3.492Zm-2.969-2.969c-.701-1.256-1.086-2.777-1.086-4.625h-4c0 2.418.508 4.631 1.594 6.575l3.492-1.95Zm-1.086-4.625v-8.64h-4v8.64h4Zm0-8.64c0-1.848.385-3.369 1.086-4.625l-3.492-1.95c-1.086 1.944-1.594 4.157-1.594 6.575h4Zm1.086-4.625a7.519 7.519 0 0 1 2.969-2.969L82.913.194a11.517 11.517 0 0 0-4.511 4.511l3.492 1.95Zm2.969-2.969c1.256-.701 2.776-1.086 4.625-1.086v-4c-2.418 0-4.632.509-6.575 1.594l1.95 3.492ZM89.488 2.6c1.848 0 3.368.385 4.625 1.086l1.95-3.492C94.119-.891 91.906-1.4 89.488-1.4v4Zm4.625 1.086a7.52 7.52 0 0 1 2.969 2.969l3.492-1.95A11.517 11.517 0 0 0 96.063.194l-1.95 3.492Zm2.969 2.969c.701 1.256 1.086 2.777 1.086 4.625h4c0-2.418-.509-4.631-1.594-6.575l-3.492 1.95Zm1.086 4.625v8.64h4v-8.64h-4Zm0 8.64c0 1.848-.385 3.369-1.086 4.625l3.492 1.95c1.085-1.944 1.594-4.157 1.594-6.575h-4Zm-1.086 4.625a7.52 7.52 0 0 1-2.97 2.969l1.95 3.492a11.517 11.517 0 0 0 4.512-4.511l-3.492-1.95Zm-2.97 2.969c-1.255.701-2.776 1.086-4.624 1.086v4c2.418 0 4.631-.508 6.575-1.594l-1.95-3.492Zm-4.624-.074c1.29 0 2.51-.309 3.611-.955l-2.023-3.45c-.444.26-.958.405-1.588.405v4Zm3.611-.955a7.071 7.071 0 0 0 2.554-2.554l-3.45-2.022c-.28.478-.648.845-1.127 1.126l2.023 3.45Zm2.554-2.554c.646-1.101.955-2.322.955-3.611h-4c0 .63-.145 1.144-.406 1.589l3.451 2.022Zm.955-3.611v-9.48h-4v9.48h4Zm0-9.48c0-1.29-.309-2.51-.955-3.611l-3.45 2.022c.26.445.405.958.405 1.589h4Zm-.955-3.611A7.072 7.072 0 0 0 93.1 4.675l-2.023 3.45c.479.28.846.648 1.126 1.126l3.451-2.022ZM93.1 4.675c-1.102-.646-2.322-.955-3.611-.955v4c.63 0 1.144.145 1.588.405l2.023-3.45Zm-3.611-.955c-1.29 0-2.51.309-3.612.955l2.023 3.45c.445-.26.958-.405 1.589-.405v-4Zm-3.612.955a7.072 7.072 0 0 0-2.554 2.554l3.451 2.022c.28-.478.648-.845 1.126-1.126l-2.023-3.45Zm-2.554 2.554c-.645 1.101-.954 2.322-.954 3.611h4c0-.63.145-1.144.405-1.589l-3.45-2.022Zm-.954 3.611v9.48h4v-9.48h-4Zm0 9.48c0 1.29.309 2.51.954 3.611l3.451-2.022c-.26-.445-.405-.958-.405-1.589h-4Zm.954 3.611a7.072 7.072 0 0 0 2.554 2.554l2.023-3.45a3.073 3.073 0 0 1-1.126-1.126l-3.45 2.022Zm2.554 2.554c1.102.646 2.322.955 3.612.955v-4c-.63 0-1.144-.145-1.589-.405l-2.023 3.45Zm24.965 2.775.975-1.746-.975 1.746Zm-3.74-3.74 1.746-.975-1.746.975Zm0-19.84 1.746.975-1.746-.975Zm3.74-3.74-.975-1.746.975 1.746Zm11.2 0 .975-1.746-.975 1.746Zm0 27.32.975 1.746-.975-1.746Zm-3-4.5-1.011-1.725h-.001l1.012 1.725Zm1.84-1.84-1.725-1.011 1.725 1.011Zm0-14.68-1.725 1.011 1.725-1.011Zm-1.84-1.84-1.012 1.725 1.012-1.725Zm-5.2 0-1.012-1.725 1.012 1.725Zm-1.84 16.52-1.725 1.011 1.725-1.011Zm1.84 1.84 1.011-1.725-1.011 1.725Zm2.6 3.84c-1.849 0-3.369-.385-4.625-1.086l-1.95 3.492c1.944 1.086 4.157 1.594 6.575 1.594v-4Zm-4.625-1.086a7.524 7.524 0 0 1-2.969-2.969l-3.492 1.95a11.514 11.514 0 0 0 4.511 4.511l1.95-3.492Zm-2.969-2.969c-.701-1.256-1.086-2.777-1.086-4.625h-4c0 2.418.508 4.631 1.594 6.575l3.492-1.95Zm-1.086-4.625v-8.64h-4v8.64h4Zm0-8.64c0-1.848.385-3.369 1.086-4.625l-3.492-1.95c-1.086 1.944-1.594 4.157-1.594 6.575h4Zm1.086-4.625a7.525 7.525 0 0 1 2.969-2.969l-1.95-3.492a11.514 11.514 0 0 0-4.511 4.511l3.492 1.95Zm2.969-2.969c1.256-.701 2.776-1.086 4.625-1.086v-4c-2.418 0-4.631.509-6.575 1.594l1.95 3.492Zm4.625-1.086c1.848 0 3.369.385 4.625 1.086l1.95-3.492c-1.944-1.085-4.157-1.594-6.575-1.594v4Zm4.625 1.086a7.525 7.525 0 0 1 2.969 2.969l3.492-1.95a11.514 11.514 0 0 0-4.511-4.511l-1.95 3.492Zm2.969 2.969c.701 1.256 1.086 2.777 1.086 4.625h4c0-2.418-.509-4.631-1.594-6.575l-3.492 1.95Zm1.086 4.625v8.64h4v-8.64h-4Zm0 8.64c0 1.848-.385 3.369-1.086 4.625l3.492 1.95c1.085-1.944 1.594-4.157 1.594-6.575h-4Zm-1.086 4.625a7.524 7.524 0 0 1-2.969 2.969l1.95 3.492a11.514 11.514 0 0 0 4.511-4.511l-3.492-1.95Zm-2.969 2.969c-1.256.701-2.777 1.086-4.625 1.086v4c2.418 0 4.631-.508 6.575-1.594l-1.95-3.492Zm-4.625-.074c1.289 0 2.51-.309 3.611-.955l-2.023-3.45c-.444.26-.957.405-1.588.405v4Zm3.611-.955a7.065 7.065 0 0 0 2.554-2.554l-3.45-2.022a3.08 3.08 0 0 1-1.126 1.126l2.022 3.45Zm2.554-2.554c.646-1.101.955-2.322.955-3.611h-4c0 .63-.145 1.144-.405 1.589l3.45 2.022Zm.955-3.611v-9.48h-4v9.48h4Zm0-9.48c0-1.29-.309-2.51-.955-3.611l-3.45 2.022c.26.445.405.958.405 1.589h4Zm-.955-3.611a7.065 7.065 0 0 0-2.554-2.554l-2.023 3.45c.479.28.846.648 1.127 1.126l3.45-2.022Zm-2.554-2.554c-1.101-.646-2.322-.955-3.611-.955v4c.631 0 1.144.145 1.588.405l2.023-3.45Zm-3.611-.955c-1.289 0-2.51.309-3.612.955l2.023 3.45c.445-.26.958-.405 1.589-.405v-4Zm-3.612.955a7.07 7.07 0 0 0-2.553 2.554l3.45 2.022a3.08 3.08 0 0 1 1.126-1.126l-2.023-3.45Zm-2.553 2.554c-.646 1.101-.955 2.322-.955 3.611h4c0-.63.145-1.144.405-1.589l-3.45-2.022Zm-.955 3.611v9.48h4v-9.48h-4Zm0 9.48c0 1.29.309 2.51.955 3.611l3.45-2.022c-.26-.445-.405-.958-.405-1.589h-4Zm.955 3.611a7.07 7.07 0 0 0 2.553 2.554l2.023-3.45a3.08 3.08 0 0 1-1.126-1.126l-3.45 2.022Zm2.553 2.554c1.102.646 2.323.955 3.612.955v-4c-.631 0-1.144-.145-1.589-.405l-2.023 3.45Zm24.965 2.775.975-1.746-.975 1.746Zm-3.74-3.74 1.746-.975-1.746.975Zm0-19.84 1.746.975-1.746-.975Zm3.74-3.74-.975-1.746.975 1.746Zm11.2 0 .975-1.746-.975 1.746Zm0 27.32.975 1.746-.975-1.746Zm-3-4.5-1.011-1.725 1.011 1.725Zm1.84-1.84-1.725-1.011 1.725 1.011Zm0-14.68-1.725 1.011 1.725-1.011Zm-1.84-1.84-1.011 1.725 1.011-1.725Zm-5.2 0-1.011-1.725 1.011 1.725Zm-1.84 16.52-1.725 1.011 1.725-1.011Zm1.84 1.84 1.011-1.725-1.011 1.725Zm2.6 3.84c-1.848 0-3.369-.385-4.625-1.086l-1.95 3.492c1.944 1.086 4.157 1.594 6.575 1.594v-4Zm-4.625-1.086a7.524 7.524 0 0 1-2.969-2.969l-3.492 1.95a11.514 11.514 0 0 0 4.511 4.511l1.95-3.492Zm-2.969-2.969c-.701-1.256-1.086-2.777-1.086-4.625h-4c0 2.418.509 4.631 1.594 6.575l3.492-1.95Zm-1.086-4.625v-8.64h-4v8.64h4Zm0-8.64c0-1.848.385-3.369 1.086-4.625l-3.492-1.95c-1.085 1.944-1.594 4.157-1.594 6.575h4Zm1.086-4.625a7.525 7.525 0 0 1 2.969-2.969l-1.95-3.492a11.514 11.514 0 0 0-4.511 4.511l3.492 1.95Zm2.969-2.969c1.256-.701 2.777-1.086 4.625-1.086v-4c-2.418 0-4.631.509-6.575 1.594l1.95 3.492Zm4.625-1.086c1.849 0 3.369.385 4.625 1.086l1.95-3.492c-1.944-1.085-4.157-1.594-6.575-1.594v4Zm4.625 1.086a7.525 7.525 0 0 1 2.969 2.969l3.492-1.95a11.514 11.514 0 0 0-4.511-4.511l-1.95 3.492Zm2.969 2.969c.701 1.256 1.086 2.777 1.086 4.625h4c0-2.418-.508-4.631-1.594-6.575l-3.492 1.95Zm1.086 4.625v8.64h4v-8.64h-4Zm0 8.64c0 1.848-.385 3.369-1.086 4.625l3.492 1.95c1.086-1.944 1.594-4.157 1.594-6.575h-4Zm-1.086 4.625a7.524 7.524 0 0 1-2.969 2.969l1.95 3.492a11.514 11.514 0 0 0 4.511-4.511l-3.492-1.95Zm-2.969 2.969c-1.256.701-2.776 1.086-4.625 1.086v4c2.418 0 4.631-.508 6.575-1.594l-1.95-3.492Zm-4.625-.074c1.289 0 2.51-.309 3.612-.955l-2.023-3.45c-.445.26-.958.405-1.589.405v4Zm3.612-.955a7.07 7.07 0 0 0 2.553-2.554l-3.45-2.022a3.08 3.08 0 0 1-1.126 1.126l2.023 3.45Zm2.553-2.554c.646-1.101.955-2.322.955-3.611h-4c0 .63-.145 1.144-.405 1.589l3.45 2.022Zm.955-3.611v-9.48h-4v9.48h4Zm0-9.48c0-1.29-.309-2.51-.955-3.611l-3.45 2.022c.26.445.405.958.405 1.589h4Zm-.955-3.611a7.07 7.07 0 0 0-2.553-2.554l-2.023 3.45c.478.28.845.648 1.126 1.126l3.45-2.022Zm-2.553-2.554c-1.102-.646-2.323-.955-3.612-.955v4c.631 0 1.144.145 1.589.405l2.023-3.45Zm-3.612-.955c-1.289 0-2.51.309-3.611.955l2.022 3.45c.445-.26.958-.405 1.589-.405v-4Zm-3.611.955a7.065 7.065 0 0 0-2.554 2.554l3.45 2.022a3.08 3.08 0 0 1 1.126-1.126l-2.022-3.45Zm-2.554 2.554c-.646 1.101-.955 2.322-.955 3.611h4c0-.63.145-1.144.405-1.589l-3.45-2.022Zm-.955 3.611v9.48h4v-9.48h-4Zm0 9.48c0 1.29.309 2.51.955 3.611l3.45-2.022c-.26-.445-.405-.958-.405-1.589h-4Zm.955 3.611a7.065 7.065 0 0 0 2.554 2.554l2.022-3.45a3.08 3.08 0 0 1-1.126-1.126l-3.45 2.022Zm2.554 2.554c1.101.646 2.322.955 3.611.955v-4c-.631 0-1.144-.145-1.589-.405l-2.022 3.45Zm34.412-1.885h-2v2h2v-2Zm0-6.92h2v-2h-2v2Zm-6.92 0h-2v2h2v-2Zm0-4.2v-2h-2v2h2Zm6.92 0v2h2v-2h-2Zm0-6.88v-2h-2v2h2Zm4.2 0h2v-2h-2v2Zm0 6.88h-2v2h2v-2Zm6.88 0h2v-2h-2v2Zm0 4.2v2h2v-2h-2Zm-6.88 0v-2h-2v2h2Zm0 6.92v2h2v-2h-2Zm-2.2 0v-6.92h-4v6.92h4Zm-2-8.92h-6.92v4h6.92v-4Zm-4.92 2v-4.2h-4v4.2h4Zm-2-2.2h6.92v-4h-6.92v4Zm8.92-2V6.6h-4v6.88h4Zm-2-4.88h4.2v-4h-4.2v4Zm2.2-2v6.88h4V6.6h-4Zm2 8.88h6.88v-4h-6.88v4Zm4.88-2v4.2h4v-4.2h-4Zm2 2.2h-6.88v4h6.88v-4Zm-8.88 2v6.92h4v-6.92h-4Zm2 4.92h-4.2v4h4.2v-4Z" fill="#2D5183" mask="url(#a)"/>
</svg>
