<svg width="103" height="48" fill="none" xmlns="http://www.w3.org/2000/svg">
    <mask id="a" maskUnits="userSpaceOnUse" x="0" y="7" width="103" height="35" fill="#000">
        <path fill="#fff" d="M0 7h103v35H0z"/>
        <path d="M2 38.96v-4.72l12.08-10.72c.907-.8 1.547-1.553 1.92-2.26.373-.707.56-1.367.56-1.98 0-.88-.18-1.66-.54-2.34a3.962 3.962 0 0 0-1.52-1.62c-.653-.4-1.42-.6-2.3-.6-.92 0-1.733.213-2.44.64a4.399 4.399 0 0 0-1.62 1.66 4.127 4.127 0 0 0-.54 2.22H2c0-1.973.433-3.68 1.3-5.12s2.073-2.553 3.62-3.34c1.547-.787 3.347-1.18 5.4-1.18 1.88 0 3.56.413 5.04 1.24a8.95 8.95 0 0 1 3.52 3.42c.853 1.467 1.28 3.167 1.28 5.1 0 1.427-.2 2.613-.6 3.56-.4.933-.993 1.8-1.78 2.6a58.935 58.935 0 0 1-2.9 2.68l-7.8 6.84-.44-1.2h13.52v5.12H2Zm35.62.64c-2.133 0-4-.447-5.6-1.34a9.518 9.518 0 0 1-3.74-3.74c-.893-1.6-1.34-3.467-1.34-5.6v-8.64c0-2.133.447-4 1.34-5.6a9.518 9.518 0 0 1 3.74-3.74c1.6-.893 3.467-1.34 5.6-1.34 2.134 0 4 .447 5.6 1.34a9.518 9.518 0 0 1 3.74 3.74c.894 1.6 1.34 3.467 1.34 5.6v8.64c0 2.133-.446 4-1.34 5.6a9.518 9.518 0 0 1-3.74 3.74c-1.6.893-3.466 1.34-5.6 1.34Zm0-5.16c.96 0 1.827-.227 2.6-.68a5.072 5.072 0 0 0 1.84-1.84c.454-.773.68-1.64.68-2.6v-9.48c0-.96-.226-1.827-.68-2.6a5.072 5.072 0 0 0-1.84-1.84c-.773-.453-1.64-.68-2.6-.68-.96 0-1.826.227-2.6.68a5.073 5.073 0 0 0-1.84 1.84c-.453.773-.68 1.64-.68 2.6v9.48c0 .96.227 1.827.68 2.6a5.073 5.073 0 0 0 1.84 1.84c.774.453 1.64.68 2.6.68Zm26.954 5.16c-2.134 0-4-.447-5.6-1.34a9.518 9.518 0 0 1-3.74-3.74c-.894-1.6-1.34-3.467-1.34-5.6v-8.64c0-2.133.446-4 1.34-5.6a9.518 9.518 0 0 1 3.74-3.74c1.6-.893 3.466-1.34 5.6-1.34 2.133 0 4 .447 5.6 1.34a9.518 9.518 0 0 1 3.74 3.74c.893 1.6 1.34 3.467 1.34 5.6v8.64c0 2.133-.447 4-1.34 5.6a9.518 9.518 0 0 1-3.74 3.74c-1.6.893-3.467 1.34-5.6 1.34Zm0-5.16c.96 0 1.826-.227 2.6-.68a5.073 5.073 0 0 0 1.84-1.84c.453-.773.68-1.64.68-2.6v-9.48c0-.96-.227-1.827-.68-2.6a5.073 5.073 0 0 0-1.84-1.84c-.774-.453-1.64-.68-2.6-.68-.96 0-1.827.227-2.6.68a5.072 5.072 0 0 0-1.84 1.84c-.454.773-.68 1.64-.68 2.6v9.48c0 .96.226 1.827.68 2.6a5.072 5.072 0 0 0 1.84 1.84c.773.453 1.64.68 2.6.68Zm25.913 5.16c-1.947 0-3.68-.393-5.2-1.18-1.507-.8-2.694-1.893-3.56-3.28-.853-1.4-1.28-2.993-1.28-4.78 0-1.52.34-2.953 1.02-4.3a8.637 8.637 0 0 1 2.98-3.3l-.12 1.68c-.974-.947-1.74-1.947-2.3-3-.547-1.053-.82-2.24-.82-3.56 0-1.667.393-3.12 1.18-4.36.8-1.24 1.893-2.2 3.28-2.88 1.4-.693 3.007-1.04 4.82-1.04 1.813 0 3.413.347 4.8 1.04 1.4.68 2.493 1.64 3.28 2.88.8 1.24 1.2 2.693 1.2 4.36 0 1.32-.26 2.507-.78 3.56-.52 1.04-1.313 2.053-2.38 3.04V22.8c1.267.8 2.24 1.88 2.92 3.24a9.386 9.386 0 0 1 1.04 4.32c0 1.787-.433 3.38-1.3 4.78-.867 1.387-2.06 2.48-3.58 3.28-1.52.787-3.254 1.18-5.2 1.18Zm0-5.12c1.28 0 2.32-.347 3.12-1.04.8-.693 1.2-1.72 1.2-3.08 0-1.347-.4-2.373-1.2-3.08-.8-.72-1.84-1.08-3.12-1.08s-2.313.36-3.1 1.08c-.787.707-1.18 1.733-1.18 3.08 0 1.36.393 2.387 1.18 3.08.787.693 1.82 1.04 3.1 1.04Zm0-13.44c1.04 0 1.887-.253 2.54-.76.653-.52.98-1.32.98-2.4 0-1.08-.327-1.88-.98-2.4-.653-.533-1.5-.8-2.54-.8s-1.887.267-2.54.8c-.654.52-.98 1.32-.98 2.4 0 1.08.326 1.88.98 2.4.653.507 1.5.76 2.54.76Z"/>
    </mask>
    <path d="M2 38.96H0v2h2v-2Zm0-4.72L.673 32.744 0 33.341v.899h2Zm12.08-10.72-1.323-1.5-.005.004 1.328 1.496ZM16 21.26l-1.768-.934L16 21.26Zm.02-4.32-1.775.922.004.007.003.007 1.768-.936Zm-1.52-1.62-1.044 1.706.013.008.012.007L14.5 15.32Zm-4.74.04 1.024 1.718.01-.006L9.76 15.36Zm-1.62 1.66 1.739.989.004-.008.004-.007-1.747-.974Zm-.54 2.22v2h2.068l-.07-2.067-1.998.067Zm-5.6 0H0v2h2v-2Zm1.3-5.12 1.714 1.031L3.3 14.12Zm3.62-3.34.907 1.783-.907-1.783Zm10.44.06-.975 1.746.009.005.01.005.956-1.756Zm4.2 12.08 1.838.788.004-.01-1.842-.778Zm-1.78 2.6 1.414 1.414.006-.006.006-.006-1.426-1.402Zm-2.9 2.68-1.314-1.507-.005.003L16.88 28.2Zm-7.8 6.84-1.878.688 1.004 2.738 2.193-1.922L9.08 35.04Zm-.44-1.2v-2H5.776l.986 2.689 1.878-.689Zm13.52 0h2v-2h-2v2Zm0 5.12v2h2v-2h-2ZM4 38.96v-4.72H0v4.72h4Zm-.672-3.224 12.08-10.72-2.655-2.992-12.08 10.72 2.655 2.992ZM15.402 25.02c1.005-.887 1.837-1.825 2.365-2.826l-3.536-1.868c-.218.412-.666.98-1.475 1.694l2.646 3Zm2.365-2.826c.481-.91.792-1.891.792-2.914h-4c0 .204-.063.543-.328 1.046l3.536 1.868Zm.792-2.914c0-1.159-.24-2.268-.772-3.276l-3.536 1.872c.187.352.308.803.308 1.404h4Zm-.765-3.262a5.96 5.96 0 0 0-2.276-2.42l-2.038 3.443c.322.19.571.45.764.82l3.55-1.843Zm-2.25-2.404c-1.013-.62-2.152-.894-3.345-.894v4c.567 0 .961.125 1.256.306l2.088-3.412ZM12.2 12.72c-1.241 0-2.42.292-3.474.928l2.068 3.424c.36-.217.807-.352 1.406-.352v-4Zm-3.464.922a6.398 6.398 0 0 0-2.343 2.404l3.494 1.948c.212-.38.5-.68.897-.916l-2.048-3.436ZM6.4 16.032a6.126 6.126 0 0 0-.8 3.275l3.998-.134c-.015-.44.08-.813.28-1.164L6.4 16.03ZM7.6 17.24H2v4h5.6v-4Zm-3.6 2c0-1.674.365-3.01 1.014-4.089L1.586 13.09C.502 14.89 0 16.967 0 19.24h4Zm1.014-4.089c.667-1.108 1.589-1.966 2.813-2.588L6.013 8.997c-1.869.951-3.36 2.32-4.427 4.092l3.428 2.062Zm2.813-2.588c1.218-.62 2.697-.963 4.493-.963v-4c-2.311 0-4.432.444-6.307 1.397l1.814 3.566Zm4.493-.963c1.577 0 2.914.344 4.065.986l1.95-3.492C16.525 8.084 14.503 7.6 12.32 7.6v4Zm4.083.996a6.951 6.951 0 0 1 2.748 2.67l3.458-2.012a10.95 10.95 0 0 0-4.292-4.17l-1.914 3.512Zm2.748 2.67c.652 1.12 1.009 2.464 1.009 4.094h4c0-2.237-.497-4.293-1.551-6.106l-3.458 2.012Zm1.009 4.094c0 1.256-.178 2.157-.442 2.782l3.684 1.556c.536-1.268.758-2.74.758-4.338h-4Zm-.438 2.772c-.293.682-.738 1.345-1.368 1.986l2.852 2.804c.943-.959 1.684-2.03 2.192-3.214l-3.676-1.576Zm-1.356 1.974a57.014 57.014 0 0 1-2.8 2.587l2.629 3.014a60.86 60.86 0 0 0 3-2.773l-2.83-2.828Zm-2.805 2.59-7.8 6.84 2.638 3.008 7.8-6.84-2.638-3.008Zm-4.603 7.655-.44-1.2-3.756 1.377.44 1.2 3.756-1.377ZM8.64 35.84h13.52v-4H8.64v4Zm11.52-2v5.12h4v-5.12h-4Zm2 3.12H2v4h20.16v-4Zm9.86 1.3.976-1.746-.975 1.746Zm-3.74-3.74 1.747-.975-1.746.975Zm0-19.84 1.747.975-1.746-.975Zm3.74-3.74-.974-1.746.975 1.746Zm11.2 0 .976-1.746-.975 1.746Zm0 27.32.976 1.746-.975-1.746Zm-3-4.5-1.01-1.725 1.01 1.725Zm1.84-1.84-1.725-1.011 1.726 1.011Zm0-14.68-1.725 1.011 1.726-1.011Zm-1.84-1.84-1.01 1.725 1.01-1.725Zm-5.2 0-1.01-1.725 1.01 1.725Zm-1.84 16.52-1.725 1.011 1.726-1.011Zm1.84 1.84 1.012-1.725-1.011 1.725Zm2.6 3.84c-1.848 0-3.368-.385-4.624-1.086l-1.95 3.492c1.943 1.086 4.156 1.594 6.575 1.594v-4Zm-4.624-1.086a7.518 7.518 0 0 1-2.97-2.969l-3.492 1.95a11.518 11.518 0 0 0 4.512 4.511l1.95-3.492Zm-2.97-2.969c-.7-1.256-1.085-2.777-1.085-4.625h-4c0 2.418.508 4.631 1.593 6.575l3.493-1.95Zm-1.085-4.625v-8.64h-4v8.64h4Zm0-8.64c0-1.849.384-3.369 1.086-4.625l-3.493-1.95c-1.085 1.944-1.593 4.157-1.593 6.575h4Zm1.086-4.625a7.52 7.52 0 0 1 2.969-2.969l-1.95-3.492a11.518 11.518 0 0 0-4.512 4.511l3.493 1.95Zm2.969-2.969c1.256-.701 2.776-1.086 4.625-1.086v-4c-2.419 0-4.632.509-6.575 1.594l1.95 3.492ZM37.62 11.6c1.848 0 3.368.385 4.625 1.086l1.95-3.492C42.252 8.109 40.039 7.6 37.62 7.6v4Zm4.625 1.086a7.52 7.52 0 0 1 2.968 2.969l3.493-1.95a11.517 11.517 0 0 0-4.511-4.511l-1.95 3.492Zm2.968 2.969c.702 1.256 1.087 2.777 1.087 4.625h4c0-2.418-.509-4.631-1.594-6.575l-3.493 1.95Zm1.087 4.625v8.64h4v-8.64h-4Zm0 8.64c0 1.848-.385 3.369-1.087 4.625l3.493 1.95c1.085-1.944 1.594-4.157 1.594-6.575h-4Zm-1.087 4.625a7.519 7.519 0 0 1-2.968 2.969l1.95 3.492a11.518 11.518 0 0 0 4.51-4.511l-3.492-1.95Zm-2.968 2.969c-1.257.701-2.777 1.086-4.625 1.086v4c2.418 0 4.63-.508 6.575-1.594l-1.95-3.492Zm-4.625-.074c1.29 0 2.51-.309 3.611-.955l-2.023-3.45c-.445.26-.958.405-1.588.405v4Zm3.611-.955a7.071 7.071 0 0 0 2.554-2.554l-3.45-2.022c-.281.478-.649.845-1.127 1.126l2.023 3.45Zm2.554-2.554c.646-1.101.955-2.322.955-3.611h-4c0 .63-.145 1.144-.406 1.589l3.451 2.022Zm.955-3.611v-9.48h-4v9.48h4Zm0-9.48c0-1.29-.31-2.51-.955-3.611l-3.45 2.022c.26.445.405.958.405 1.589h4Zm-.955-3.611a7.071 7.071 0 0 0-2.554-2.554l-2.023 3.45c.478.28.846.648 1.126 1.126l3.451-2.022Zm-2.554-2.554c-1.102-.646-2.322-.955-3.611-.955v4c.63 0 1.143.145 1.588.405l2.023-3.45Zm-3.611-.955c-1.29 0-2.51.309-3.612.955l2.023 3.45c.445-.26.958-.405 1.589-.405v-4Zm-3.612.955a7.072 7.072 0 0 0-2.554 2.554l3.451 2.022c.28-.478.648-.845 1.126-1.126l-2.023-3.45Zm-2.554 2.554c-.646 1.101-.954 2.322-.954 3.611h4c0-.63.144-1.144.405-1.589l-3.45-2.022Zm-.954 3.611v9.48h4v-9.48h-4Zm0 9.48c0 1.29.308 2.51.954 3.611l3.451-2.022c-.26-.445-.405-.958-.405-1.589h-4Zm.954 3.611a7.072 7.072 0 0 0 2.554 2.554l2.023-3.45a3.073 3.073 0 0 1-1.126-1.126l-3.45 2.022Zm2.554 2.554c1.102.646 2.322.955 3.612.955v-4c-.63 0-1.144-.145-1.589-.405l-2.023 3.45Zm24.965 2.775.975-1.746-.975 1.746Zm-3.74-3.74 1.746-.975-1.746.975Zm0-19.84 1.746.975-1.746-.975Zm3.74-3.74-.975-1.746.975 1.746Zm11.2 0 .975-1.746-.975 1.746Zm0 27.32.975 1.746-.975-1.746Zm-3-4.5-1.012-1.725 1.012 1.725Zm1.84-1.84-1.726-1.011 1.726 1.011Zm0-14.68-1.726 1.011 1.726-1.011Zm-1.84-1.84-1.012 1.725 1.012-1.725Zm-5.2 0-1.012-1.725 1.012 1.725Zm-1.84 16.52-1.726 1.011 1.726-1.011Zm1.84 1.84 1.011-1.725-1.011 1.725Zm2.6 3.84c-1.849 0-3.369-.385-4.625-1.086l-1.95 3.492c1.944 1.086 4.157 1.594 6.575 1.594v-4Zm-4.625-1.086a7.519 7.519 0 0 1-2.969-2.969l-3.492 1.95a11.518 11.518 0 0 0 4.51 4.511l1.95-3.492Zm-2.969-2.969c-.701-1.256-1.086-2.777-1.086-4.625h-4c0 2.418.508 4.631 1.593 6.575l3.493-1.95Zm-1.086-4.625v-8.64h-4v8.64h4Zm0-8.64c0-1.849.385-3.369 1.086-4.625l-3.492-1.95c-1.086 1.944-1.594 4.157-1.594 6.575h4Zm1.086-4.625a7.52 7.52 0 0 1 2.969-2.969l-1.95-3.492a11.517 11.517 0 0 0-4.512 4.511l3.493 1.95Zm2.969-2.969c1.256-.701 2.776-1.086 4.625-1.086v-4c-2.418 0-4.631.509-6.575 1.594l1.95 3.492Zm4.625-1.086c1.848 0 3.368.385 4.625 1.086l1.95-3.492C69.205 8.109 66.992 7.6 64.574 7.6v4Zm4.625 1.086a7.52 7.52 0 0 1 2.969 2.969l3.492-1.95a11.517 11.517 0 0 0-4.511-4.511l-1.95 3.492Zm2.969 2.969c.7 1.256 1.086 2.777 1.086 4.625h4c0-2.418-.509-4.631-1.594-6.575l-3.492 1.95Zm1.086 4.625v8.64h4v-8.64h-4Zm0 8.64c0 1.848-.385 3.369-1.087 4.625l3.493 1.95c1.085-1.944 1.594-4.157 1.594-6.575h-4Zm-1.087 4.625a7.519 7.519 0 0 1-2.968 2.969l1.95 3.492a11.518 11.518 0 0 0 4.511-4.511l-3.492-1.95ZM69.2 36.514c-1.257.701-2.777 1.086-4.625 1.086v4c2.418 0 4.631-.508 6.575-1.594l-1.95-3.492Zm-4.625-.074c1.29 0 2.51-.309 3.611-.955l-2.023-3.45c-.445.26-.958.405-1.588.405v4Zm3.611-.955a7.07 7.07 0 0 0 2.554-2.554l-3.45-2.022c-.281.478-.648.845-1.127 1.126l2.023 3.45Zm2.554-2.554c.646-1.101.955-2.322.955-3.611h-4c0 .63-.145 1.144-.406 1.589l3.451 2.022Zm.955-3.611v-9.48h-4v9.48h4Zm0-9.48c0-1.29-.309-2.51-.955-3.611l-3.45 2.022c.26.445.405.958.405 1.589h4Zm-.955-3.611a7.07 7.07 0 0 0-2.554-2.554l-2.023 3.45c.478.28.846.648 1.126 1.126l3.451-2.022Zm-2.554-2.554c-1.102-.646-2.322-.955-3.611-.955v4c.63 0 1.144.145 1.588.405l2.023-3.45Zm-3.611-.955c-1.29 0-2.51.309-3.612.955l2.023 3.45c.445-.26.958-.405 1.589-.405v-4Zm-3.612.955a7.07 7.07 0 0 0-2.554 2.554l3.451 2.022c.28-.478.648-.845 1.126-1.126l-2.023-3.45Zm-2.554 2.554c-.646 1.101-.954 2.322-.954 3.611h4c0-.63.144-1.144.405-1.589l-3.45-2.022Zm-.954 3.611v9.48h4v-9.48h-4Zm0 9.48c0 1.29.308 2.51.954 3.611l3.451-2.022c-.26-.445-.405-.958-.405-1.589h-4Zm.954 3.611a7.07 7.07 0 0 0 2.554 2.554l2.023-3.45a3.074 3.074 0 0 1-1.126-1.126l-3.45 2.022Zm2.554 2.554c1.102.646 2.322.955 3.612.955v-4c-.63 0-1.144-.145-1.589-.405l-2.023 3.45Zm24.325 2.935-.938 1.766.01.005.009.005.919-1.776Zm-3.56-3.28-1.708 1.04.006.01.006.01 1.696-1.06Zm-.26-9.08-1.778-.915-.004.006-.003.008 1.785.901Zm2.98-3.3 1.995.142.289-4.045-3.386 2.234 1.102 1.669Zm-.12 1.68-1.395 1.434 3.083 2.998.307-4.29-1.995-.142Zm-2.3-3-1.775.921.004.01.005.008 1.766-.939Zm.36-7.92-1.68-1.084-.005.006-.004.007 1.689 1.071Zm3.28-2.88.88 1.796.008-.004-.888-1.792Zm9.62 0-.895 1.789.01.005.011.005.874-1.799Zm3.28 2.88-1.689 1.071.004.007.004.006 1.68-1.084Zm.42 7.92 1.789.894.004-.009-1.793-.885Zm-2.38 3.04h-2v4.574l3.358-3.106-1.358-1.468Zm0-1.68 1.068-1.691-3.068-1.938V22.8h2Zm2.92 3.24-1.789.894.004.007.003.007 1.782-.908Zm-.26 9.1 1.696 1.06.004-.007-1.7-1.053Zm-3.58 3.28.92 1.776.011-.006-.931-1.77Zm-2.08-4.98-1.31-1.511 1.31 1.511Zm0-6.16-1.338 1.487.007.006.007.006 1.324-1.499Zm-6.22 0 1.336 1.488.007-.006.007-.007-1.35-1.475Zm0 6.16 1.322-1.5-1.322 1.5Zm5.64-13.16 1.225 1.58.01-.007.01-.008-1.245-1.565Zm0-4.8-1.265 1.55.01.007.01.008 1.245-1.565Zm-5.08 0 1.245 1.565.01-.008.01-.008-1.265-1.549Zm0 4.8L86.7 21.845l.01.008.01.007 1.226-1.58Zm2.54 17.32c-1.671 0-3.082-.336-4.28-.956l-1.84 3.552c1.842.953 3.898 1.404 6.12 1.404v-4Zm-4.262-.946c-1.21-.643-2.13-1.498-2.802-2.574L80.03 36.2c1.061 1.698 2.515 3.03 4.318 3.986l1.876-3.532Zm-2.79-2.555c-.646-1.058-.988-2.285-.988-3.739h-4c0 2.12.51 4.08 1.572 5.82l3.416-2.08Zm-.988-3.739c0-1.21.267-2.334.805-3.398l-3.57-1.803a11.41 11.41 0 0 0-1.235 5.201h4Zm.798-3.384a6.64 6.64 0 0 1 2.303-2.547l-2.203-3.338a10.638 10.638 0 0 0-3.656 4.053l3.556 1.832Zm-.793-4.358-.12 1.68 3.99.285.12-1.68-3.99-.285Zm3.27.388c-.846-.821-1.479-1.658-1.93-2.505l-3.531 1.878c.67 1.26 1.57 2.423 2.671 3.495l2.79-2.868Zm-1.92-2.487c-.383-.738-.595-1.603-.595-2.639h-4c0 1.604.334 3.113 1.045 4.481l3.55-1.842Zm-.595-2.639c0-1.34.312-2.41.869-3.289l-3.378-2.142c-1.016 1.602-1.491 3.438-1.491 5.431h4Zm.86-3.276c.594-.92 1.404-1.64 2.48-2.168l-1.76-3.592c-1.698.833-3.074 2.032-4.08 3.592l3.36 2.168Zm2.488-2.172c1.082-.536 2.377-.832 3.932-.832v-4c-2.072 0-3.99.397-5.708 1.248l1.776 3.584Zm3.932-.832c1.555 0 2.84.296 3.905.829l1.79-3.578C94.472 7.997 92.557 7.6 90.486 7.6v4Zm3.926.839c1.087.528 1.89 1.245 2.465 2.152l3.378-2.142c-.998-1.573-2.382-2.776-4.095-3.608l-1.748 3.598Zm2.473 2.165c.566.877.88 1.943.88 3.276h4.001c0-2-.485-3.84-1.52-5.444l-3.36 2.168Zm.88 3.276c0 1.051-.204 1.93-.573 2.675l3.587 1.77c.672-1.36.987-2.856.987-4.445h-4Zm-.568 2.666c-.389.778-1.017 1.604-1.95 2.466l2.717 2.936c1.201-1.11 2.16-2.312 2.811-3.614l-3.578-1.788Zm1.409 3.934V22.8h-4v1.68h4Zm-3.068.011a5.975 5.975 0 0 1 2.199 2.443l3.578-1.788a9.977 9.977 0 0 0-3.641-4.037l-2.136 3.382Zm2.206 2.457c.55 1.08.822 2.21.822 3.412h4c0-1.837-.422-3.588-1.258-5.228l-3.564 1.816Zm.822 3.412c0 1.448-.346 2.67-1 3.727l3.4 2.106c1.079-1.743 1.6-3.707 1.6-5.833h-4Zm-.996 3.72c-.67 1.071-1.592 1.926-2.816 2.57l1.863 3.54c1.817-.956 3.281-2.288 4.345-3.99l-3.392-2.12Zm-2.803 2.564c-1.2.62-2.61.956-4.281.956v4c2.222 0 4.278-.451 6.12-1.404l-1.84-3.552Zm-4.281-.164c1.656 0 3.194-.457 4.43-1.529l-2.62-3.022c-.364.315-.906.551-1.81.551v4Zm4.43-1.529c1.356-1.175 1.89-2.828 1.89-4.591h-4c0 .957-.266 1.357-.51 1.569l2.62 3.022Zm1.89-4.591c0-1.759-.539-3.398-1.876-4.579l-2.648 2.998c.262.232.524.647.524 1.581h4Zm-1.862-4.567c-1.235-1.11-2.783-1.593-4.458-1.593v4c.885 0 1.416.238 1.782.567l2.676-2.974ZM90.487 24.2c-1.674 0-3.224.482-4.45 1.605l2.7 2.95c.347-.317.864-.555 1.75-.555v-4Zm-4.437 1.592c-1.318 1.184-1.843 2.82-1.843 4.568h4c0-.945.261-1.363.516-1.592l-2.673-2.976Zm-1.843 4.568c0 1.753.52 3.402 1.858 4.58l2.644-3c-.236-.209-.502-.613-.502-1.58h-4Zm1.858 4.58c1.228 1.083 2.767 1.54 4.422 1.54v-4c-.905 0-1.433-.236-1.778-.54l-2.645 3Zm4.422-11.9c1.367 0 2.68-.337 3.766-1.18L91.8 18.7c-.22.17-.602.34-1.314.34v4Zm3.785-1.195c1.264-1.006 1.735-2.47 1.735-3.965h-4c0 .665-.183.8-.226.835l2.491 3.13Zm1.735-3.965c0-1.495-.471-2.96-1.735-3.965l-2.49 3.13c.043.034.225.17.225.835h4Zm-1.715-3.95c-1.088-.887-2.415-1.25-3.805-1.25v4c.69 0 1.056.17 1.275.35l2.53-3.1Zm-3.805-1.25c-1.39 0-2.717.363-3.805 1.25l2.53 3.1c.219-.18.585-.35 1.275-.35v-4ZM86.7 13.915c-1.263 1.006-1.734 2.47-1.734 3.965h4c0-.665.182-.8.225-.835l-2.49-3.13Zm-1.734 3.965c0 1.495.47 2.96 1.734 3.965l2.491-3.13c-.043-.034-.225-.17-.225-.835h-4Zm1.754 3.98c1.086.843 2.398 1.18 3.766 1.18v-4c-.713 0-1.094-.17-1.314-.34l-2.452 3.16Z" fill="#2D5183" mask="url(#a)"/>
</svg>
