<svg width="89" height="31" fill="none" xmlns="http://www.w3.org/2000/svg">
    <mask id="a" maskUnits="userSpaceOnUse" x="-2" y="-2" width="93" height="35" fill="#000">
        <path fill="#fff" d="M-2-2h93v35H-2z"/>
        <path d="M10.04.64c1.907 0 3.613.447 5.12 1.34 1.52.893 2.72 2.14 3.6 3.74.88 1.587 1.32 3.427 1.32 5.52v8.36c0 2.267-.44 4.227-1.32 5.88-.88 1.64-2.12 2.907-3.72 3.8-1.6.88-3.48 1.32-5.64 1.32-1.4 0-2.733-.207-4-.62-1.253-.427-2.413-1.127-3.48-2.1L5.8 24c.48.48 1.033.853 1.66 1.12.64.267 1.287.4 1.94.4 1.04 0 1.94-.24 2.7-.72a5.06 5.06 0 0 0 1.78-1.9c.427-.787.64-1.62.64-2.5v-4.28l.92 1a8.432 8.432 0 0 1-2.86 1.94c-1.093.44-2.22.66-3.38.66-1.813 0-3.413-.407-4.8-1.22a8.761 8.761 0 0 1-3.24-3.34C.387 13.747 0 12.133 0 10.32c0-1.813.46-3.447 1.38-4.9a10.07 10.07 0 0 1 3.66-3.48c1.52-.867 3.187-1.3 5-1.3Zm0 5.2c-.827 0-1.587.2-2.28.6-.68.4-1.227.94-1.64 1.62-.4.68-.6 1.433-.6 2.26 0 .827.2 1.587.6 2.28.4.68.94 1.227 1.62 1.64.68.4 1.433.6 2.26.6.827 0 1.58-.2 2.26-.6a4.602 4.602 0 0 0 1.64-1.64 4.37 4.37 0 0 0 .62-2.28c0-.8-.2-1.54-.6-2.22-.4-.68-.94-1.227-1.62-1.64a4.267 4.267 0 0 0-2.26-.62ZM34.243 30.6a9.54 9.54 0 0 1-4.1-.9 9.861 9.861 0 0 1-3.28-2.5 9.634 9.634 0 0 1-1.98-3.72l5.24-1.4c.173.68.48 1.267.92 1.76.453.493.973.88 1.56 1.16.6.267 1.213.4 1.84.4.827 0 1.58-.2 2.26-.6.693-.4 1.24-.94 1.64-1.62.413-.68.62-1.433.62-2.26 0-.827-.207-1.58-.62-2.26-.4-.68-.947-1.22-1.64-1.62-.68-.4-1.434-.6-2.26-.6-1.014 0-1.84.173-2.48.52-.64.333-1.12.653-1.44.96l-4.6-1.4.88-15.32h15.72v5.08h-12.72l1.92-1.8-.6 9.88-.92-1.12a6.884 6.884 0 0 1 2.46-1.28c.92-.267 1.78-.4 2.58-.4 1.813 0 3.407.407 4.78 1.22a8.433 8.433 0 0 1 3.24 3.32c.787 1.4 1.18 3.007 1.18 4.82 0 1.813-.474 3.453-1.42 4.92a10.536 10.536 0 0 1-3.74 3.48c-1.547.853-3.227 1.28-5.04 1.28Zm27.402-.6-3.6-3.6 25.2-25.2 3.6 3.64L61.645 30Zm19.2.6c-1.32 0-2.526-.32-3.62-.96a7.581 7.581 0 0 1-2.6-2.6c-.653-1.093-.98-2.307-.98-3.64 0-1.307.334-2.507 1-3.6a7.64 7.64 0 0 1 2.64-2.62 6.816 6.816 0 0 1 3.56-.98c1.32 0 2.527.327 3.62.98a7.15 7.15 0 0 1 2.6 2.6c.654 1.08.98 2.287.98 3.62 0 1.333-.326 2.547-.98 3.64a7.36 7.36 0 0 1-2.6 2.6c-1.093.64-2.3.96-3.62.96Zm0-4.6c.467 0 .894-.12 1.28-.36.4-.24.72-.553.96-.94.24-.4.36-.833.36-1.3 0-.467-.12-.893-.36-1.28-.24-.4-.56-.72-.96-.96a2.38 2.38 0 0 0-1.28-.36c-.466 0-.9.12-1.3.36-.386.24-.7.56-.94.96a2.38 2.38 0 0 0-.36 1.28c0 .467.12.9.36 1.3.24.387.554.7.94.94.4.24.834.36 1.3.36Zm-16.8-11c-1.32 0-2.526-.32-3.62-.96a7.526 7.526 0 0 1-2.62-2.6c-.64-1.093-.96-2.307-.96-3.64 0-1.307.334-2.507 1-3.6a7.64 7.64 0 0 1 2.64-2.62 6.816 6.816 0 0 1 3.56-.98c1.32 0 2.52.327 3.6.98a7.308 7.308 0 0 1 2.62 2.6c.654 1.08.98 2.287.98 3.62 0 1.333-.326 2.547-.98 3.64a7.526 7.526 0 0 1-2.62 2.6c-1.08.64-2.28.96-3.6.96Zm0-4.6c.467 0 .894-.12 1.28-.36.4-.24.72-.553.96-.94.24-.4.36-.833.36-1.3 0-.467-.12-.893-.36-1.28-.24-.4-.56-.72-.96-.96a2.38 2.38 0 0 0-1.28-.36c-.466 0-.9.12-1.3.36-.386.24-.7.56-.94.96a2.38 2.38 0 0 0-.36 1.28c0 .467.12.9.36 1.3.24.387.554.7.94.94.4.24.834.36 1.3.36Z"/>
    </mask>
    <path d="M15.16 1.98 14.14 3.7l.007.004L15.16 1.98Zm3.6 3.74-1.752.964.003.006 1.749-.97Zm0 19.76 1.762.946.004-.006-1.766-.94Zm-3.72 3.8.964 1.752.011-.006-.975-1.746Zm-9.64.7-.645 1.893.012.004.013.004.62-1.901Zm-3.48-2.1L.506 26.466l-1.48 1.48 1.546 1.411L1.92 27.88ZM5.8 24l1.414-1.414L5.8 21.172l-1.414 1.414L5.8 24Zm1.66 1.12-.783 1.84.007.003.007.003.769-1.846Zm4.64-.32 1.068 1.691.008-.005L12.1 24.8Zm1.78-1.9-1.758-.953-.006.01 1.764.943Zm.64-6.78 1.472-1.354-3.472-3.774v5.128h2Zm.92 1 1.437 1.391 1.313-1.356-1.278-1.39-1.472 1.355Zm-2.86 1.94.747 1.855.01-.003.009-.005-.766-1.847ZM4.4 18.5l-1.02 1.72.008.005L4.4 18.5Zm-3.24-3.34-1.755.96.004.006.003.007 1.748-.973Zm.22-9.74 1.69 1.07.004-.007L1.38 5.42Zm3.66-3.48.98 1.744.01-.007-.99-1.737Zm2.72 4.5-1-1.732-.007.004-.007.004L7.76 6.44ZM6.12 8.06 4.411 7.021l-.008.013-.007.012L6.12 8.06Zm0 4.54-1.732 1 .004.007.004.007L6.12 12.6Zm1.62 1.64-1.039 1.709.013.008.012.007L7.74 14.24Zm4.52 0 1.014 1.724.01-.006-1.024-1.718Zm1.64-1.64-1.718-1.024-.006.01L13.9 12.6Zm.02-4.5 1.724-1.014L13.92 8.1Zm-3.88-5.46c1.58 0 2.93.366 4.1 1.06L16.18.26c-1.842-1.093-3.907-1.62-6.14-1.62v4Zm4.107 1.064c1.198.705 2.147 1.683 2.86 2.98l3.505-1.928c-1.047-1.903-2.497-3.418-4.339-4.5l-2.026 3.448ZM17.01 6.69c.692 1.247 1.069 2.743 1.069 4.55h4c0-2.38-.503-4.564-1.571-6.49l-3.498 1.94Zm1.069 4.55v8.36h4v-8.36h-4Zm0 8.36c0 2.007-.389 3.631-1.085 4.94l3.53 1.88c1.064-1.998 1.555-4.294 1.555-6.82h-4Zm-1.082 4.934c-.703 1.31-1.672 2.296-2.933 3l1.95 3.492c1.939-1.082 3.45-2.63 4.507-4.6l-3.524-1.892Zm-2.922 2.994c-1.255.69-2.791 1.072-4.676 1.072v4c2.435 0 4.659-.498 6.604-1.568l-1.928-3.504ZM9.4 28.6c-1.2 0-2.323-.177-3.38-.521L4.78 31.88a14.81 14.81 0 0 0 4.62.719v-4Zm-3.355-.513c-.97-.33-1.895-.88-2.777-1.684L.572 29.357c1.251 1.142 2.647 1.993 4.183 2.516l1.29-3.786Zm-2.71 1.207 3.88-3.88-2.83-2.828-3.88 3.88 2.83 2.828Zm1.05-3.88a7.21 7.21 0 0 0 2.292 1.546l1.566-3.68a3.213 3.213 0 0 1-1.029-.694l-2.828 2.828Zm2.306 1.552a7.004 7.004 0 0 0 2.709.554v-4c-.373 0-.76-.075-1.17-.246l-1.54 3.692Zm2.709.554c1.357 0 2.64-.317 3.768-1.029l-2.136-3.382c-.393.248-.91.411-1.632.411v4Zm3.776-1.034a7.06 7.06 0 0 0 2.468-2.643l-3.528-1.886a3.06 3.06 0 0 1-1.092 1.157l2.152 3.372Zm2.462-2.633a7.167 7.167 0 0 0 .882-3.453h-4c0 .541-.127 1.047-.398 1.547l3.516 1.907Zm.882-3.453v-4.28h-4v4.28h4Zm-3.472-2.926.92 1 2.944-2.708-.92-1-2.944 2.708Zm.955-1.745a6.433 6.433 0 0 1-2.189 1.483l1.532 3.695a10.432 10.432 0 0 0 3.53-2.396l-2.873-2.782Zm-2.17 1.476a6.974 6.974 0 0 1-2.633.515v4c1.42 0 2.8-.27 4.127-.805l-1.494-3.71ZM9.2 17.72c-1.504 0-2.746-.334-3.788-.945l-2.024 3.45C5.12 21.241 7.078 21.72 9.2 21.72v-4Zm-3.78-.94a6.762 6.762 0 0 1-2.512-2.593l-3.496 1.946a10.762 10.762 0 0 0 3.969 4.088l2.038-3.442ZM2.914 14.2C2.322 13.116 2 11.84 2 10.32h-4c0 2.106.452 4.057 1.405 5.8l3.51-1.92ZM2 10.32c0-1.456.364-2.715 1.07-3.83L-.31 4.35C-1.444 6.141-2 8.15-2 10.32h4Zm1.074-3.837A8.071 8.071 0 0 1 6.02 3.684L4.061.196A12.07 12.07 0 0 0-.314 4.357l3.388 2.126Zm2.957-2.806C7.238 2.99 8.56 2.64 10.04 2.64v-4c-2.148 0-4.158.517-5.99 1.563l1.98 3.474Zm4.009.163a6.481 6.481 0 0 0-3.28.868l2 3.464c.379-.218.792-.332 1.28-.332v-4Zm-3.294.876a6.654 6.654 0 0 0-2.335 2.305L7.829 9.1c.243-.4.552-.704.945-.935L6.746 4.716Zm-2.35 2.33a6.374 6.374 0 0 0-.876 3.274h4c0-.488.113-.888.324-1.246L4.396 7.046ZM3.52 10.32c0 1.165.286 2.272.868 3.28l3.464-2a2.484 2.484 0 0 1-.332-1.28h-4Zm.876 3.294a6.653 6.653 0 0 0 2.305 2.335l2.078-3.418a2.656 2.656 0 0 1-.935-.945l-3.448 2.028Zm2.33 2.35A6.374 6.374 0 0 0 10 16.84v-4c-.488 0-.888-.114-1.246-.324l-2.028 3.448ZM10 16.84a6.374 6.374 0 0 0 3.274-.876l-2.028-3.448c-.358.21-.758.324-1.246.324v4Zm3.284-.882a6.602 6.602 0 0 0 2.34-2.344l-3.448-2.028c-.225.383-.528.69-.94.936l2.048 3.436Zm2.334-2.334a6.37 6.37 0 0 0 .902-3.304h-4c0 .475-.114.88-.338 1.256l3.436 2.048Zm.902-3.304a6.3 6.3 0 0 0-.876-3.234l-3.448 2.028c.217.368.324.757.324 1.206h4Zm-.876-3.234a6.654 6.654 0 0 0-2.305-2.335L11.26 8.169c.4.243.704.552.935.945l3.448-2.028Zm-2.305-2.335a6.266 6.266 0 0 0-3.299-.911v4c.475 0 .867.114 1.221.329l2.078-3.418ZM30.143 29.7l-.856 1.808.007.003.849-1.811Zm-3.28-2.5 1.514-1.306-1.514 1.306Zm-1.98-3.72-.516-1.932-1.961.524.552 1.953 1.925-.545Zm5.24-1.4 1.938-.494-.5-1.96-1.954.522.516 1.932Zm.92 1.76-1.493 1.331.01.011.01.011 1.473-1.353Zm1.56 1.16-.862 1.805.025.012.025.01.812-1.827Zm4.1-.2-1-1.732-.007.004-.007.004 1.014 1.724Zm1.64-1.62-1.71-1.039-.007.013-.007.012 1.724 1.014Zm0-4.52-1.724 1.014.007.012.008.013 1.709-1.039Zm-1.64-1.62-1.014 1.724.007.004.007.004 1-1.732Zm-4.74-.08.924 1.774.014-.008.014-.007-.952-1.759Zm-1.44.96-.582 1.913 1.12.341.846-.81-1.384-1.444Zm-4.6-1.4-1.997-.115-.09 1.57 1.505.458.582-1.913Zm.88-15.32v-2h-1.889l-.108 1.885 1.997.115Zm15.72 0h2v-2h-2v2Zm0 5.08v2h2v-2h-2Zm-12.72 0-1.368-1.46-3.69 3.46h5.058v-2Zm1.92-1.8 1.996.121.305-5.02-3.67 3.44 1.369 1.459Zm-.6 9.88-1.546 1.27 3.233 3.935.31-5.084-1.997-.121Zm-.92-1.12-1.264-1.55-1.556 1.268 1.274 1.551 1.546-1.269Zm2.46-1.28-.557-1.92.557 1.92Zm7.36.82-1.02 1.72.01.007.01.005 1-1.732Zm3.24 3.32-1.755.96.006.01.005.01 1.744-.98Zm-.24 9.74 1.676 1.092.004-.007-1.68-1.085Zm-3.74 3.48.966 1.751.011-.006-.977-1.745Zm-5.04-.72a7.541 7.541 0 0 1-3.251-.71l-1.698 3.62a11.54 11.54 0 0 0 4.949 1.09v-4Zm-3.244-.708a7.86 7.86 0 0 1-2.622-1.998l-3.029 2.612a11.863 11.863 0 0 0 3.939 3.002l1.712-3.616Zm-2.622-1.998a7.635 7.635 0 0 1-1.57-2.959l-3.849 1.09a11.634 11.634 0 0 0 2.39 4.481l3.03-2.612Zm-2.978-.482 5.24-1.4-1.032-3.864-5.24 1.4 1.032 3.864Zm2.786-2.838a6.13 6.13 0 0 0 1.365 2.597l2.985-2.662a2.137 2.137 0 0 1-.474-.923l-3.876.988Zm1.385 2.62a7.07 7.07 0 0 0 2.171 1.611l1.723-3.61a3.068 3.068 0 0 1-.948-.708l-2.946 2.706Zm2.22 1.634a6.488 6.488 0 0 0 2.653.572v-4a2.49 2.49 0 0 1-1.028-.228l-1.624 3.656Zm2.653.572a6.374 6.374 0 0 0 3.274-.876l-2.028-3.448c-.358.21-.758.324-1.246.324v4Zm3.26-.868a6.446 6.446 0 0 0 2.364-2.338l-3.448-2.028a2.446 2.446 0 0 1-.916.902l2 3.464Zm2.349-2.313c.611-1.006.91-2.12.91-3.299h-4c0 .475-.113.867-.328 1.221l3.418 2.078Zm.91-3.299c0-1.178-.299-2.293-.91-3.299L36.634 19.7c.215.354.329.746.329 1.221h4Zm-.895-3.274a6.446 6.446 0 0 0-2.365-2.338l-1.999 3.464c.399.23.694.525.916.902l3.448-2.028Zm-2.35-2.33a6.374 6.374 0 0 0-3.274-.876v4c.488 0 .888.113 1.246.324l2.028-3.448Zm-3.274-.876c-1.223 0-2.408.206-3.433.761l1.905 3.518c.256-.139.724-.279 1.528-.279v-4Zm-3.404.746c-.717.373-1.385.796-1.9 1.29l2.768 2.888c.124-.12.417-.337.98-.63l-1.848-3.548Zm.066.82-4.6-1.4-1.165 3.827 4.6 1.4 1.165-3.826Zm-3.186.629.88-15.32-3.993-.23-.88 15.32 3.994.23ZM26.803 3.2h15.72v-4h-15.72v4Zm13.72-2v5.08h4V1.2h-4Zm2 3.08h-12.72v4h12.72v-4ZM31.17 7.74l1.92-1.8-2.736-2.92-1.92 1.8 2.736 2.92Zm-1.444-3.381-.6 9.88 3.992.242.6-9.88-3.992-.242Zm2.941 8.732-.92-1.12-3.09 2.538.92 1.12 3.09-2.538Zm-1.202 1.7a4.883 4.883 0 0 1 1.754-.91l-1.114-3.842a8.883 8.883 0 0 0-3.167 1.65l2.527 3.101Zm1.754-.91c.773-.224 1.444-.321 2.023-.321v-4c-1.021 0-2.07.17-3.137.48l1.114 3.84Zm2.023-.321c1.504 0 2.736.334 3.76.94l2.039-3.44c-1.722-1.02-3.677-1.5-5.8-1.5v4Zm3.78.952a6.435 6.435 0 0 1 2.485 2.548l3.51-1.92a10.433 10.433 0 0 0-3.996-4.092l-1.999 3.464Zm2.496 2.568c.598 1.064.924 2.325.924 3.84h4c0-2.111-.461-4.064-1.437-5.8l-3.487 1.96Zm.924 3.84c0 1.444-.37 2.705-1.1 3.835l3.36 2.17c1.164-1.803 1.74-3.823 1.74-6.005h-4Zm-1.096 3.828a8.536 8.536 0 0 1-3.042 2.827l1.956 3.49a12.534 12.534 0 0 0 4.438-4.133l-3.352-2.184Zm-3.03 2.82c-1.243.686-2.59 1.032-4.074 1.032v4c2.142 0 4.155-.508 6.006-1.529l-1.932-3.502ZM61.645 30l-1.414 1.414 1.413 1.413 1.414-1.412L61.645 30Zm-3.6-3.6-1.414-1.414-1.414 1.414 1.414 1.414 1.414-1.414Zm25.2-25.2 1.422-1.406-1.414-1.43-1.422 1.422L83.245 1.2Zm3.6 3.64 1.413 1.415 1.41-1.406-1.4-1.415-1.423 1.406Zm-9.62 24.8-1.035 1.711.013.008.012.007 1.01-1.726Zm-2.6-2.6-1.716 1.026.005.01 1.711-1.036Zm.02-7.24-1.707-1.041 1.707 1.041Zm9.82-2.62-1.026 1.717.008.005.008.004 1.01-1.726Zm2.6 2.6-1.726 1.01.008.013.007.012 1.711-1.035Zm0 7.26-1.716-1.026-.004.006 1.72 1.02Zm-2.6 2.6 1.01 1.726.009-.005.007-.004-1.026-1.717Zm-2.34-4-1.029-1.715-.013.008-.012.008 1.054 1.699Zm.96-.94 1.7 1.055.008-.013.007-.013-1.715-1.029Zm0-2.58-1.715 1.029.008.013.008.013 1.7-1.055Zm-.96-.96-1.054 1.7.012.007.013.008 1.03-1.715Zm-2.58 0-1.029-1.715-.013.008-.012.008 1.054 1.699Zm-.94.96 1.7 1.055.007-.013.008-.013-1.715-1.029Zm0 2.58-1.715 1.029.008.013.008.013 1.7-1.055Zm.94.94-1.054 1.7.012.007.013.008 1.03-1.715Zm-19.12-11.6L59.4 15.757l.008.005.008.004 1.01-1.726Zm-2.62-2.6-1.726 1.01.008.013.007.012 1.711-1.035Zm.04-7.24-1.707-1.041L57.845 4.2Zm2.64-2.62L59.46-.137l1.026 1.717Zm7.16 0L66.61 3.291l.013.008.012.007 1.01-1.726Zm2.62 2.6L68.55 5.206l.005.01 1.711-1.036Zm0 7.26 1.712 1.035.005-.01-1.717-1.025Zm-2.62 2.6 1.02 1.72.006-.003-1.026-1.717Zm-2.32-4-1.029-1.715-.013.008-.012.008 1.054 1.699Zm.96-.94 1.7 1.055.008-.013.007-.013L66.285 9.1Zm0-2.58L64.57 7.549l.008.013.008.013 1.7-1.055Zm-.96-.96-1.054 1.7.012.007.013.008 1.03-1.715Zm-2.58 0-1.029-1.715-.013.008-.012.008 1.054 1.699Zm-.94.96 1.7 1.055.008-.013.007-.013-1.715-1.029Zm0 2.58-1.715 1.029.008.013.008.013 1.7-1.055Zm.94.94-1.054 1.7.012.007.013.008 1.03-1.715Zm.315 18.546-3.6-3.6-2.829 2.828 3.6 3.6 2.828-2.828Zm-3.6-.772 25.2-25.2L81.83-.214l-25.2 25.2 2.828 2.828ZM81.822 2.606l3.6 3.64 2.844-2.812-3.6-3.64-2.844 2.812Zm3.61.819-25.2 25.16 2.825 2.83 25.2-25.16-2.826-2.83ZM80.844 28.6c-.98 0-1.836-.233-2.61-.686l-2.02 3.452c1.413.827 2.97 1.234 4.63 1.234v-4Zm-2.585-.671a5.583 5.583 0 0 1-1.923-1.924l-3.423 2.07a9.58 9.58 0 0 0 3.276 3.276l2.07-3.422Zm-1.918-1.915c-.459-.768-.697-1.624-.697-2.614h-4c0 1.677.416 3.248 1.264 4.666l3.433-2.052Zm-.697-2.614c0-.947.237-1.786.708-2.559l-3.415-2.082a8.783 8.783 0 0 0-1.293 4.641h4Zm.708-2.559a5.64 5.64 0 0 1 1.958-1.944l-2.052-3.434a9.639 9.639 0 0 0-3.321 3.296l3.415 2.082Zm1.958-1.944a4.818 4.818 0 0 1 2.534-.697v-4c-1.64 0-3.18.424-4.586 1.263l2.052 3.434Zm2.534-.697c.973 0 1.823.236 2.594.697l2.052-3.434c-1.415-.845-2.978-1.263-4.646-1.263v4Zm2.61.706a5.151 5.151 0 0 1 1.884 1.884l3.452-2.02a9.148 9.148 0 0 0-3.315-3.316l-2.021 3.452Zm1.9 1.91c.453.75.69 1.594.69 2.584h4c0-1.677-.415-3.245-1.268-4.655l-3.423 2.07Zm.69 2.584c0 .99-.237 1.846-.697 2.614l3.434 2.052c.848-1.418 1.263-2.99 1.263-4.666h-4Zm-.7 2.62a5.359 5.359 0 0 1-1.906 1.903l2.052 3.434a9.358 9.358 0 0 0 3.295-3.297l-3.441-2.04Zm-1.89 1.894c-.774.453-1.63.686-2.61.686v4c1.66 0 3.218-.407 4.63-1.234l-2.02-3.452Zm-2.61.086a4.38 4.38 0 0 0 2.335-.66l-2.11-3.4a.384.384 0 0 1-.225.06v4Zm2.31-.645a4.816 4.816 0 0 0 1.63-1.6l-3.399-2.11a.818.818 0 0 1-.29.28l2.058 3.43Zm1.645-1.626c.427-.711.645-1.5.645-2.329h-4a.484.484 0 0 1-.075.271l3.43 2.058Zm.645-2.329c0-.83-.219-1.623-.66-2.335l-3.399 2.11c.038.061.06.121.06.225h4Zm-.645-2.309a4.757 4.757 0 0 0-1.646-1.646l-2.058 3.43a.76.76 0 0 1 .274.274l3.43-2.058Zm-1.62-1.63a4.38 4.38 0 0 0-2.335-.661v4c.104 0 .164.021.226.06l2.109-3.4Zm-2.335-.661c-.829 0-1.618.218-2.329.645l2.058 3.43a.485.485 0 0 1 .271-.075v-4Zm-2.354.66c-.664.413-1.201.965-1.6 1.631l3.43 2.058a.82.82 0 0 1 .279-.29l-2.11-3.398Zm-1.585 1.605a4.38 4.38 0 0 0-.66 2.335h4c0-.104.02-.164.059-.225l-3.399-2.11Zm-.66 2.335c0 .829.218 1.618.644 2.329l3.43-2.058a.485.485 0 0 1-.075-.271h-4Zm.66 2.355a4.879 4.879 0 0 0 1.585 1.584l2.109-3.398a.88.88 0 0 1-.295-.296l-3.399 2.11Zm1.61 1.6c.711.427 1.5.645 2.33.645v-4a.485.485 0 0 1-.272-.075l-2.058 3.43ZM64.046 13c-.981 0-1.837-.233-2.61-.686l-2.021 3.452c1.413.827 2.97 1.234 4.63 1.234v-4Zm-2.595-.677a5.527 5.527 0 0 1-1.934-1.918l-3.423 2.07a9.525 9.525 0 0 0 3.305 3.282l2.052-3.434Zm-1.92-1.893c-.45-.77-.686-1.632-.686-2.63h-4c0 1.67.405 3.234 1.234 4.65l3.452-2.02Zm-.686-2.63c0-.947.236-1.786.708-2.559L56.138 3.16A8.783 8.783 0 0 0 54.845 7.8h4Zm.708-2.559a5.64 5.64 0 0 1 1.958-1.944L59.46-.137a9.64 9.64 0 0 0-3.321 3.296l3.415 2.082Zm1.958-1.944a4.817 4.817 0 0 1 2.534-.697v-4c-1.64 0-3.18.424-4.586 1.263l2.052 3.434Zm2.534-.697c.973 0 1.812.236 2.565.691L68.68-.13C67.274-.982 65.713-1.4 64.045-1.4v4Zm2.59.706a5.308 5.308 0 0 1 1.913 1.9l3.434-2.052a9.307 9.307 0 0 0-3.326-3.3l-2.021 3.452Zm1.92 1.91c.453.75.69 1.594.69 2.584h4c0-1.677-.415-3.245-1.268-4.655l-3.423 2.07Zm.69 2.584c0 .99-.237 1.846-.697 2.614l3.434 2.052c.848-1.418 1.263-2.99 1.263-4.666h-4Zm-.69 2.605a5.528 5.528 0 0 1-1.936 1.918l2.052 3.434a9.525 9.525 0 0 0 3.306-3.282l-3.423-2.07Zm-1.93 1.914c-.754.448-1.6.681-2.58.681v4c1.66 0 3.215-.407 4.62-1.24l-2.04-3.44Zm-2.58.081a4.38 4.38 0 0 0 2.335-.66l-2.11-3.4a.384.384 0 0 1-.225.06v4Zm2.31-.645a4.816 4.816 0 0 0 1.63-1.6l-3.399-2.11a.818.818 0 0 1-.29.28l2.058 3.43ZM68 10.129c.427-.711.645-1.5.645-2.329h-4a.485.485 0 0 1-.075.271L68 10.129Zm.645-2.329c0-.83-.219-1.623-.66-2.335l-3.399 2.11c.038.061.06.121.06.225h4ZM68 5.491a4.757 4.757 0 0 0-1.646-1.646l-2.058 3.43a.76.76 0 0 1 .274.274L68 5.491Zm-1.62-1.63a4.379 4.379 0 0 0-2.335-.661v4c.104 0 .164.021.226.06l2.109-3.4ZM64.045 3.2c-.829 0-1.618.218-2.329.645l2.058 3.43a.485.485 0 0 1 .271-.075v-4Zm-2.354.66c-.664.413-1.201.965-1.6 1.631l3.43 2.058a.82.82 0 0 1 .279-.29l-2.11-3.398Zm-1.585 1.605a4.38 4.38 0 0 0-.66 2.335h4c0-.104.02-.164.059-.225l-3.399-2.11Zm-.66 2.335c0 .829.218 1.618.644 2.329l3.43-2.058a.485.485 0 0 1-.075-.271h-4Zm.66 2.355a4.879 4.879 0 0 0 1.585 1.584L63.8 8.341a.88.88 0 0 1-.295-.296l-3.399 2.11Zm1.61 1.6c.711.427 1.5.645 2.33.645v-4a.485.485 0 0 1-.272-.075l-2.058 3.43Z" fill="#2D5183" mask="url(#a)"/>
</svg>
