<svg width="80" height="80" fill="none" xmlns="http://www.w3.org/2000/svg">
    <path d="M14.965 45.587 36.308 78.32a3.705 3.705 0 0 0 6.16.071l22.1-32.237a29.502 29.502 0 0 0 5.024-16.514C69.59 13.296 56.294 0 39.951 0s-29.64 13.296-29.64 29.64a29.55 29.55 0 0 0 4.633 15.916l.02.031ZM39.952 7.41c12.257 0 22.23 9.972 22.23 22.23 0 4.418-1.293 8.685-3.738 12.34L39.489 69.63 21.183 41.556a22.153 22.153 0 0 1-3.46-11.917c0-12.257 9.971-22.23 22.229-22.23Z" fill="#2D5183"/>
    <path d="M39.952 7.41c12.257 0 22.23 9.972 22.23 22.23 0 4.418-1.293 8.685-3.738 12.34L39.489 69.63 21.183 41.556a22.153 22.153 0 0 1-3.46-11.917c0-12.257 9.971-22.23 22.229-22.23Z" fill="#F2F7FD"/>
    <mask id="a" style="mask-type:luminance" maskUnits="userSpaceOnUse" x="27" y="18" width="26" height="22">
        <path d="M27.5 18.75h25.146V40H27.5V18.75Z" fill="#fff"/>
    </mask>
    <g mask="url(#a)">
        <path d="M27.5 32.171c0-3.088 2.52-5.592 5.63-5.592h19.516c0 3.089-2.52 5.593-5.63 5.593H27.5Zm0 7.829c0-3.088 2.52-5.592 5.63-5.592h19.516c0 3.088-2.52 5.592-5.63 5.592H27.5Zm0-15.658c0-3.088 2.52-5.592 5.63-5.592h19.516c0 3.089-2.52 5.592-5.63 5.592H27.5Z" fill="#2D5183"/>
    </g>
</svg>
