<svg width="240" height="56" fill="none" xmlns="http://www.w3.org/2000/svg">
    <g clip-path="url(#a)">
        <mask id="b" style="mask-type:luminance" maskUnits="userSpaceOnUse" x="0" y="0" width="66" height="56">
            <path d="M0 0h65.287v55.172H0V0Z" fill="#fff"/>
        </mask>
        <g mask="url(#b)">
            <path d="M0 34.846c0-8.018 6.544-14.519 14.617-14.519h50.67c0 8.019-6.544 14.52-14.616 14.52L0 34.846Zm0 20.326c0-8.018 6.544-14.519 14.617-14.519h50.67c0 8.019-6.544 14.52-14.616 14.52L0 55.172Zm0-40.653C0 6.5 6.544 0 14.617 0h50.67c0 8.019-6.544 14.519-14.616 14.519H0Z" fill="#2D5183"/>
        </g>
        <mask id="c" style="mask-type:luminance" maskUnits="userSpaceOnUse" x="83" y="0" width="157" height="56">
            <path d="M83.678 0H240v55.172H83.678V0Z" fill="#fff"/>
        </mask>
        <g mask="url(#c)" fill="#2D5183">
            <path d="M91.06 5.497c.617.212 1.1.546 1.444 1 .355.446.533.967.533 1.564a2.44 2.44 0 0 1-.64 1.684c-.425.476-1.004.84-1.734 1.093a7.147 7.147 0 0 1-2.373.379c-.73 0-1.46-.091-2.192-.273a8.036 8.036 0 0 1-2.055-.835l.761-1.76c.468.284.98.5 1.537.653.543.138 1.1.21 1.66.212.73 0 1.334-.131 1.81-.394.487-.263.73-.633.73-1.108a.983.983 0 0 0-.501-.895c-.326-.202-.772-.304-1.34-.304h-2.602v-1.85h2.42c.496 0 .882-.102 1.156-.304a.97.97 0 0 0 .426-.835c0-.414-.203-.738-.608-.97-.395-.233-.909-.35-1.538-.35-.465 0-.947.066-1.444.198-.496.12-.973.31-1.416.56l-.745-1.911A7.898 7.898 0 0 1 88 .187 6.97 6.97 0 0 1 90.3.55c.7.242 1.257.596 1.673 1.062a2.36 2.36 0 0 1 .625 1.623c0 .506-.138.956-.411 1.35-.275.395-.65.698-1.127.91Zm11.674 3.262h-4.945l-.944 2.276H94.32L99.068.415h2.433l4.763 10.62h-2.587l-.943-2.276Zm-.776-1.866-1.689-4.066-1.69 4.066h3.379Zm13.632-1.396c.649.192 1.146.506 1.491.94.345.435.517.972.517 1.609 0 .94-.36 1.674-1.08 2.2-.71.526-1.73.789-3.059.789h-5.25V.415h4.961c1.238 0 2.202.237 2.892.712.689.476 1.034 1.153 1.034 2.033 0 .526-.132.992-.395 1.396a2.75 2.75 0 0 1-1.111.94Zm-4.931-.683h2.298c.538 0 .944-.106 1.218-.32.274-.221.41-.545.41-.97 0-.414-.142-.733-.426-.955-.274-.223-.674-.334-1.202-.334h-2.298v2.579Zm2.709 4.4c1.157 0 1.735-.455 1.735-1.365 0-.88-.578-1.32-1.735-1.32h-2.709v2.685h2.709Zm11.795 2.003c-1.106 0-2.105-.238-2.998-.713a5.391 5.391 0 0 1-2.084-1.957c-.497-.84-.746-1.78-.746-2.823 0-1.041.249-1.977.746-2.806a5.36 5.36 0 0 1 2.084-1.973c.893-.475 1.892-.713 2.998-.713 1.106 0 2.1.238 2.983.713a5.353 5.353 0 0 1 2.085 1.973c.507.829.76 1.765.76 2.806 0 1.042-.253 1.983-.76 2.823a5.39 5.39 0 0 1-2.085 1.957c-.883.475-1.877.713-2.983.713Zm0-2.094a3.439 3.439 0 0 0 1.705-.425 3.102 3.102 0 0 0 1.186-1.214c.295-.515.442-1.102.442-1.76 0-.657-.147-1.244-.442-1.76a2.995 2.995 0 0 0-1.186-1.198 3.343 3.343 0 0 0-1.705-.44 3.342 3.342 0 0 0-1.704.44 3.11 3.11 0 0 0-1.202 1.198c-.284.516-.426 1.103-.426 1.76 0 .658.142 1.245.426 1.76.294.516.695.92 1.202 1.214a3.435 3.435 0 0 0 1.704.425Zm18.95-.091v4.203h-2.283v-2.2h-7.517v2.2h-2.283l.015-4.203h.426c.64-.02 1.091-.485 1.355-1.396.264-.91.426-2.21.487-3.9l.121-3.322h8.187v8.618h1.492Zm-7.624-5.068c-.051 1.265-.157 2.327-.32 3.187-.162.85-.411 1.476-.745 1.88h4.763V2.418h-3.653l-.045 1.547ZM94.695 31.623l-.015-6.357-3.135 5.234H90.45l-3.135-5.113v6.236h-2.313v-10.62h2.04l3.986 6.6 3.926-6.6h2.04l.014 10.62h-2.313Zm13.74-1.972v1.972h-8.248v-10.62h8.05v1.972h-5.6v2.306h4.945v1.912h-4.945v2.458h5.798Zm10.665-6.646h-3.409v8.618h-2.435v-8.618h-3.393v-2.003h9.237v2.003Zm8.758 6.342h-4.946l-.943 2.276h-2.526l4.748-10.62h2.434l4.763 10.62h-2.586l-.944-2.276Zm-.776-1.866-1.689-4.066-1.689 4.066h3.378ZM142.918 21v10.622h-2.434v-8.618h-3.653l-.076 2.215c-.05 1.507-.172 2.73-.365 3.672-.193.93-.517 1.649-.974 2.155-.446.495-1.075.743-1.887.743-.335 0-.74-.056-1.217-.167l.152-2.08c.132.04.279.062.441.062.589 0 1-.344 1.233-1.032.233-.698.38-1.785.441-3.262l.152-4.31h8.187Zm12.615 0v10.622h-2.435v-8.618h-3.652l-.076 2.215c-.051 1.507-.173 2.73-.366 3.672-.192.93-.517 1.649-.974 2.155-.446.495-1.075.743-1.887.743-.334 0-.74-.056-1.217-.167l.152-2.08c.132.04.279.062.442.062.588 0 .999-.344 1.232-1.032.234-.698.381-1.785.441-3.262l.153-4.31h8.187Zm3.193 0h2.45v6.92l5.082-6.92h2.313v10.622h-2.435V24.72l-5.082 6.903h-2.328V21.002Zm21.483 0v10.622h-2.435V27.8c-.923.333-1.78.5-2.572.5-1.43 0-2.526-.338-3.287-1.016-.76-.688-1.141-1.674-1.141-2.96v-3.322h2.435v3.05c0 .728.192 1.28.578 1.654.396.364.964.546 1.704.546.812 0 1.573-.157 2.283-.47v-4.78h2.435Zm11.428 8.65v1.972h-8.248v-10.62h8.05v1.972h-5.6v2.306h4.946v1.912h-4.946v2.458h5.798Zm7.531 2.154c-1.086 0-2.07-.232-2.952-.698a5.416 5.416 0 0 1-2.07-1.957c-.497-.84-.745-1.785-.745-2.837 0-1.052.248-1.993.745-2.822a5.266 5.266 0 0 1 2.07-1.958c.882-.475 1.872-.713 2.967-.713.923 0 1.755.162 2.496.486.75.323 1.379.789 1.887 1.396l-1.583 1.456c-.721-.83-1.613-1.244-2.678-1.244-.66 0-1.248.147-1.765.44a3.08 3.08 0 0 0-1.218 1.199c-.284.516-.426 1.102-.426 1.76 0 .657.142 1.244.426 1.76.294.516.7.92 1.218 1.213.517.284 1.105.425 1.765.425 1.065 0 1.957-.42 2.678-1.26l1.583 1.458a4.936 4.936 0 0 1-1.887 1.41c-.751.324-1.588.486-2.511.486Zm10.661-4.46h-1.704v4.278h-2.45v-10.62h2.45v4.293h1.765l2.8-4.294h2.602l-3.485 5.129 3.591 5.492h-2.8l-2.769-4.278Zm7.256-6.343h2.45v6.919l5.083-6.92h2.313v10.622h-2.435V24.72l-5.082 6.903h-2.329V21.002Zm14.949 0 2.206 3.217 2.207-3.217h2.891l-3.546 5.083 3.835 5.538h-2.907l-2.48-3.52-2.45 3.52h-2.846l3.805-5.432-3.561-5.19h2.846ZM95.989 50.31v4.203h-2.283v-2.2H86.19v2.2h-2.283l.015-4.203h.426c.64-.02 1.091-.486 1.355-1.396.264-.91.426-2.21.487-3.9l.122-3.322h8.186v8.618h1.491Zm-7.624-5.068c-.05 1.265-.157 2.327-.32 3.187-.162.85-.41 1.476-.745 1.88h4.763v-6.614H88.41l-.045 1.547Zm17.196 1.533c.649.192 1.146.506 1.491.94.345.435.518.97.518 1.609 0 .94-.36 1.674-1.081 2.2-.71.526-1.729.789-3.058.789h-5.25V41.692h4.961c1.237 0 2.201.238 2.891.713s1.035 1.153 1.035 2.033c0 .526-.132.99-.396 1.396a2.75 2.75 0 0 1-1.111.94Zm-4.93-.683h2.298c.537 0 .943-.106 1.217-.32.274-.221.411-.545.411-.97 0-.414-.142-.733-.426-.955-.274-.223-.675-.334-1.202-.334h-2.298v2.579Zm2.708 4.4c1.157 0 1.735-.455 1.735-1.365 0-.88-.578-1.32-1.735-1.32h-2.708v2.685h2.708Zm14.961-.152v1.973h-8.248V41.692h8.05v1.972h-5.6v2.307h4.945v1.91h-4.945v2.459h5.798Zm7.134-8.648c.944 0 1.76.157 2.45.47.7.314 1.238.759 1.613 1.336.376.576.563 1.259.563 2.048 0 .779-.187 1.46-.563 2.048-.375.577-.913 1.022-1.613 1.335-.69.304-1.506.455-2.45.455h-2.145v2.929h-2.466V41.692h4.611Zm-.137 5.69c.741 0 1.304-.157 1.689-.47.386-.324.579-.78.579-1.366 0-.597-.193-1.052-.579-1.366-.385-.323-.948-.485-1.689-.485h-2.008v3.687h2.008Zm15.17 2.958v1.973h-8.248V41.692h8.05v1.972h-5.6v2.307h4.946v1.91h-4.946v2.459h5.798Zm2.524-8.648h2.449v6.919l5.083-6.92h2.313v10.62h-2.435V45.41l-5.082 6.904h-2.328V41.692Zm4.915-.683c-1.948 0-2.932-.773-2.952-2.321h1.689c.02.738.441 1.107 1.263 1.107.405 0 .715-.09.928-.273.213-.192.325-.47.335-.834h1.689c-.01.758-.259 1.335-.746 1.73-.487.394-1.222.59-2.206.59Z"/>
        </g>
    </g>
    <defs>
        <clipPath id="a">
            <path fill="#fff" d="M0 0h240v56H0z"/>
        </clipPath>
    </defs>
</svg>
