<svg width="40" height="41" viewBox="0 0 40 41" fill="none" xmlns="http://www.w3.org/2000/svg">
<path d="M37.3137 8.19639C35.5061 6.16584 33.3123 5.13623 30.7933 5.13623C28.5294 5.13623 26.6102 5.9424 25.0886 7.53225C23.5766 9.11193 22.81 11.074 22.81 13.3642C22.81 15.5284 23.5844 17.4569 25.1116 19.0963C26.4588 20.5426 28.1559 21.4625 30.165 21.8374C29.8137 24.5011 27.4589 26.9121 23.152 29.0129L22.3765 29.3912L25.5562 35.2615L26.274 34.8977C35.3819 30.281 40 23.7564 40 15.5051C40 12.6583 39.0962 10.1994 37.3137 8.19639ZM26.2402 33.0513L24.6471 30.1105C29.4379 27.6001 31.8652 24.5824 31.8652 21.1321V20.3933L31.1312 20.3102C29.1543 20.0865 27.5812 19.3206 26.322 17.9688C25.0719 16.6269 24.4642 15.1208 24.4642 13.3642C24.4642 11.4886 25.0594 9.95514 26.2837 8.67592C27.4979 7.40709 28.9732 6.79029 30.7934 6.79029C32.8485 6.79029 34.5771 7.60998 36.078 9.29607C37.604 11.0108 38.3459 13.0417 38.3459 15.505C38.3459 19.2868 37.281 22.701 35.1809 25.6528C33.177 28.4692 30.1715 30.9557 26.2402 33.0513Z" fill="#2D5183"/>
<path d="M14.8936 8.19264C13.066 6.16459 10.8631 5.13623 8.34602 5.13623C6.07992 5.13623 4.16937 5.94389 2.66773 7.5367C1.17898 9.11576 0.424062 11.0764 0.424062 13.3642C0.424062 15.5283 1.19844 17.4569 2.72555 19.0963C4.06992 20.5394 5.74664 21.4585 7.71836 21.8351C7.37125 24.5008 5.03609 26.913 0.76375 29.0142L0 29.3897L3.10063 35.2642L3.82555 34.8984C12.9748 30.2819 17.6138 23.757 17.6138 15.505C17.6138 12.6561 16.6984 10.1958 14.8936 8.19264ZM3.80148 33.0485L2.2518 30.1122C7.00789 27.6009 9.41781 24.5825 9.41781 21.132V20.3949L8.68547 20.3104C6.74906 20.0869 5.19531 19.321 3.93578 17.9687C2.6857 16.6269 2.07812 15.1207 2.07812 13.3642C2.07812 11.4862 2.66469 9.95107 3.87117 8.67146C5.06453 7.40568 6.52836 6.79029 8.34602 6.79029C10.4031 6.79029 12.143 7.61115 13.6647 9.2999C15.209 11.0137 15.9597 13.0434 15.9597 15.505C15.9597 19.2862 14.8902 22.6999 12.7805 25.6514C10.768 28.467 7.74953 30.9531 3.80148 33.0485Z" fill="#2D5183"/>
</svg>
