<svg width="81" height="81" viewBox="0 0 81 81" fill="none" xmlns="http://www.w3.org/2000/svg">
<g clip-path="url(#clip0_367_930)">
<path d="M20.3663 0.738831H1.68386C0.937742 0.738831 0.333008 1.34357 0.333008 2.08969V79.3103C0.333008 80.0564 0.937742 80.6611 1.68386 80.6611H20.3663C21.1124 80.6611 21.7172 80.0562 21.7172 79.3103V2.08969C21.7173 1.34357 21.1124 0.738831 20.3663 0.738831ZM19.0155 77.9594H3.03489V71.9427H12.8935C13.6396 71.9427 14.2444 71.338 14.2444 70.5919C14.2444 69.8458 13.6395 69.241 12.8935 69.241H3.03489V65.3003H6.66591C7.41203 65.3003 8.01676 64.6954 8.01676 63.9494C8.01676 63.2033 7.41203 62.5986 6.66591 62.5986H3.03489V58.6575H6.66591C7.41203 58.6575 8.01676 58.0528 8.01676 57.3067C8.01676 56.5605 7.41203 55.9558 6.66591 55.9558H3.03489V52.0151H12.8935C13.6396 52.0151 14.2444 51.4102 14.2444 50.6642C14.2444 49.9181 13.6395 49.3134 12.8935 49.3134H3.03489V45.3726H6.66591C7.41203 45.3726 8.01676 44.7679 8.01676 44.0218C8.01676 43.2757 7.41203 42.6709 6.66591 42.6709H3.03489V38.7302H6.66591C7.41203 38.7302 8.01676 38.1254 8.01676 37.3793C8.01676 36.6332 7.41203 36.0285 6.66591 36.0285H3.03489V32.0877H12.8935C13.6396 32.0877 14.2444 31.4828 14.2444 30.7369C14.2444 29.9907 13.6395 29.386 12.8935 29.386H3.03489V25.4453H6.66591C7.41203 25.4453 8.01676 24.8405 8.01676 24.0944C8.01676 23.3483 7.41203 22.7436 6.66591 22.7436H3.03489V18.8028H6.66591C7.41203 18.8028 8.01676 18.1979 8.01676 17.452C8.01676 16.7059 7.41203 16.1011 6.66591 16.1011H3.03489V12.1591H12.8935C13.6396 12.1591 14.2444 11.5543 14.2444 10.8082C14.2444 10.0621 13.6395 9.45736 12.8935 9.45736H3.03489V3.44054H19.0155V77.9594Z" fill="#8FA4C0"/>
<path d="M80.1003 78.5519L27.7121 1.33114C27.379 0.840197 26.7643 0.624197 26.1973 0.798238C25.6301 0.972442 25.2432 1.49636 25.2432 2.08967V79.3102C25.2432 80.0564 25.8479 80.6611 26.594 80.6611H78.9823C79.4825 80.6611 79.9416 80.3847 80.1759 79.9427C80.4102 79.5009 80.3811 78.9657 80.1003 78.5519ZM27.945 77.9594V6.48722L76.4334 77.9594H27.945Z" fill="#8FA4C0"/>
<path d="M35.3899 70.6974H60.6668C61.1671 70.6974 61.6263 70.421 61.8605 69.9792C62.0947 69.5372 62.0655 69.002 61.7849 68.588L36.5078 31.3297C36.1747 30.8386 35.5602 30.6228 34.9932 30.7968C34.426 30.971 34.0391 31.4949 34.0391 32.0882V69.3465C34.0389 70.0925 34.6438 70.6974 35.3899 70.6974ZM36.7408 36.4856L58.1178 67.9955H36.7408V36.4856Z" fill="#8FA4C0"/>
</g>
<defs>
<clipPath id="clip0_367_930">
<rect width="80" height="80" fill="white" transform="translate(0.333008 0.699951)"/>
</clipPath>
</defs>
</svg>
