<svg width="24" height="25" viewBox="0 0 24 25" fill="none" xmlns="http://www.w3.org/2000/svg">
<path d="M21 13.7002H19.5C18.6731 13.7002 18 14.3734 18 15.2002V18.2002H6V15.2002C6 14.3734 5.32687 13.7002 4.5 13.7002H3C2.17313 13.7002 1.5 14.3734 1.5 15.2002V18.9502C1.5 21.0178 3.18244 22.7002 5.25 22.7002H18.75C20.8176 22.7002 22.5 21.0178 22.5 18.9502V15.2002C22.5 14.3734 21.8269 13.7002 21 13.7002ZM6 19.7002H18C18.8269 19.7002 19.5 19.0271 19.5 18.2002V15.1987L21 15.2002V18.9502C21 20.1909 19.9907 21.2002 18.75 21.2002H5.25C4.00931 21.2002 3 20.1909 3 18.9502V15.2002H4.5V18.2002C4.5 19.0271 5.17313 19.7002 6 19.7002ZM13.5 16.7002H10.5C9.67313 16.7002 9 16.0271 9 15.2002V9.20024H6C5.69681 9.20024 5.42288 9.0178 5.30719 8.7373C5.19075 8.4568 5.25525 8.13449 5.46975 7.91999L11.4698 1.91999C11.7628 1.62693 12.2374 1.62693 12.5303 1.91999L18.5303 7.91999C18.7449 8.13468 18.8092 8.4568 18.6928 8.7373C18.5771 9.0178 18.3032 9.20024 18 9.20024H15V15.2002C15 16.0271 14.3269 16.7002 13.5 16.7002ZM7.8105 7.70024H9.75C10.1646 7.70024 10.5 8.03568 10.5 8.45024V15.2002H13.5V8.45024C13.5 8.03568 13.8354 7.70024 14.25 7.70024H16.1895L12 3.51074L7.8105 7.70024Z" fill="#2D5183"/>
</svg>
