<svg width="80" height="80" viewBox="0 0 80 80" fill="none" xmlns="http://www.w3.org/2000/svg">
<g clip-path="url(#clip0_367_805)">
<path d="M39.9997 80C39.7449 79.9999 39.4955 79.9268 39.281 79.7893L28.073 72.616C21.0875 68.1688 15.3398 62.0277 11.3641 54.7635C7.38838 47.4993 5.31378 39.3478 5.33314 31.0669V12.0003C5.33341 11.7168 5.42404 11.4407 5.59188 11.2122C5.75971 10.9837 5.99602 10.8147 6.26647 10.7296L39.5997 0.0630008C39.8643 -0.0210003 40.1484 -0.0210003 40.413 0.0630008L73.7462 10.7296C74.0142 10.817 74.2475 10.987 74.4128 11.2153C74.5781 11.4436 74.6668 11.7184 74.6662 12.0003V31.0669C74.6855 39.3478 72.611 47.4993 68.6352 54.7635C64.6595 62.0277 58.9118 68.1688 51.9263 72.616L40.7183 79.7893C40.5038 79.9268 40.2544 79.9999 39.9997 80ZM7.9998 12.9736V31.0669C7.98108 38.9007 9.94332 46.6122 13.7041 53.4843C17.4649 60.3564 22.9021 66.1661 29.5104 70.3734L39.9997 77.0827L50.489 70.3707C57.0968 66.1637 62.5338 60.3544 66.2946 53.4828C70.0553 46.6112 72.0178 38.9003 71.9995 31.0669V12.9736L39.9997 2.73366L7.9998 12.9736Z" fill="#8FA4C0"/>
<path d="M39.9997 70.5013C39.745 70.5016 39.4957 70.429 39.281 70.292L32.3864 65.8787C26.5333 62.1528 21.7174 57.0075 18.3862 50.9212C15.055 44.8349 13.3168 38.0051 13.3331 31.0668V17.8402C13.3334 17.5567 13.424 17.2806 13.5919 17.0521C13.7597 16.8236 13.996 16.6546 14.2665 16.5695L39.5997 8.4629C39.8643 8.3789 40.1484 8.3789 40.413 8.4629L65.7462 16.5695C66.0167 16.6546 66.253 16.8236 66.4208 17.0521C66.5887 17.2806 66.6793 17.5567 66.6796 17.8402V31.0668C66.6945 38.0063 64.9542 44.8369 61.6207 50.9234C58.2871 57.0098 53.4685 62.1544 47.613 65.8787L40.7183 70.292C40.5037 70.429 40.2543 70.5016 39.9997 70.5013ZM15.9998 18.8135V31.0668C15.9846 37.5573 17.6108 43.9463 20.727 49.6398C23.8433 55.3334 28.3484 60.1466 33.8237 63.632L39.9997 67.5853L46.1757 63.632C51.6509 60.1466 56.1561 55.3334 59.2723 49.6398C62.3886 43.9463 64.0147 37.5573 63.9996 31.0668V18.8135L39.9997 11.1336L15.9998 18.8135Z" fill="#8FA4C0"/>
<path d="M50.1433 53.9722C49.5792 53.9703 49.0304 53.7886 48.5767 53.4535L39.9994 47.2229L31.4221 53.4535C30.9665 53.7847 30.4178 53.9631 29.8545 53.9632C29.2913 53.9632 28.7425 53.785 28.2869 53.454C27.8312 53.123 27.492 52.6562 27.318 52.1205C27.144 51.5848 27.144 51.0078 27.3181 50.4722L30.5941 40.3896L22.0181 34.1576C21.5626 33.8266 21.2235 33.3599 21.0495 32.8244C20.8755 32.2889 20.8754 31.7121 21.0493 31.1766C21.2233 30.641 21.5622 30.1743 22.0177 29.8432C22.4732 29.5122 23.0217 29.3338 23.5848 29.3336H34.1874L37.4661 19.251C37.6414 18.7175 37.9807 18.2529 38.4356 17.9236C38.8905 17.5943 39.4378 17.417 39.9994 17.417C40.561 17.417 41.1082 17.5943 41.5631 17.9236C42.018 18.2529 42.3573 18.7175 42.5327 19.251L45.8114 29.3336H56.414C56.977 29.3338 57.5256 29.5122 57.9811 29.8432C58.4365 30.1743 58.7755 30.641 58.9494 31.1766C59.1233 31.7121 59.1233 32.2889 58.9492 32.8244C58.7752 33.3599 58.4362 33.8266 57.9806 34.1576L49.4047 40.3896L52.6807 50.4722C52.8088 50.8727 52.841 51.2977 52.7746 51.7129C52.7083 52.1281 52.5452 52.5219 52.2987 52.8625C52.0522 53.2032 51.729 53.4811 51.3553 53.6738C50.9816 53.8666 50.5678 53.9688 50.1473 53.9722H50.1433ZM39.9994 44.5535C40.563 44.5542 41.1119 44.7335 41.5674 45.0655L50.1433 51.2962L46.8673 41.2136C46.6931 40.6777 46.693 40.1005 46.8672 39.5647C47.0413 39.0288 47.3807 38.5619 47.8367 38.2309L56.414 32.0003H45.8114C45.2487 31.9997 44.7006 31.8211 44.2456 31.4901C43.7906 31.1592 43.4519 30.6927 43.278 30.1576L39.9994 20.075V20.0576L36.7301 30.1576C36.5557 30.6943 36.2156 31.1618 35.7587 31.4929C35.3018 31.824 34.7517 32.0016 34.1874 32.0003H23.5848L32.1621 38.2322C32.6189 38.5625 32.9589 39.0294 33.1329 39.5656C33.3069 40.1017 33.3059 40.6793 33.1301 41.2149L29.8554 51.2962L38.4314 45.0669C38.8866 44.7343 39.4356 44.5546 39.9994 44.5535Z" fill="#8FA4C0"/>
</g>
<defs>
<clipPath id="clip0_367_805">
<rect width="80" height="80" fill="white"/>
</clipPath>
</defs>
</svg>
