<svg width="81" height="81" viewBox="0 0 81 81" fill="none" xmlns="http://www.w3.org/2000/svg">
<path d="M4.29561 35.6569H11.0065C11.4034 37.0889 11.9752 38.4666 12.7104 39.7577L7.96056 44.5081C7.73374 44.735 7.60616 45.0428 7.60616 45.3643C7.60616 45.6857 7.73374 45.9935 7.96056 46.2204L13.0922 51.3561C13.5648 51.828 14.3303 51.828 14.8028 51.3561L19.5531 46.6029C20.8436 47.3381 22.2192 47.9106 23.6505 48.3072V55.0215C23.6505 55.69 24.192 56.2318 24.8601 56.2318H32.1182C32.7864 56.2318 33.3279 55.69 33.3279 55.0215V48.3072C34.7592 47.9106 36.1347 47.3381 37.4252 46.6029L42.1755 51.3561C42.6556 51.81 43.4065 51.81 43.8861 51.3561L49.0187 46.2204C49.2455 45.9935 49.3731 45.6857 49.3731 45.3643C49.3731 45.0428 49.2455 44.735 49.0187 44.5081L44.2679 39.7577C45.0031 38.4666 45.5749 37.0889 45.9718 35.6569H52.6827C53.3509 35.6569 53.8924 35.1151 53.8924 34.4466V27.1849C53.8924 26.5169 53.3509 25.9746 52.6827 25.9746H45.9718C45.5749 24.5431 45.0031 23.1654 44.2679 21.8743L49.0178 17.1239C49.2446 16.897 49.3722 16.5892 49.3722 16.2677C49.3722 15.9462 49.2446 15.6385 49.0178 15.4115L43.8861 10.2759C43.4136 9.80356 42.6481 9.80356 42.1755 10.2759L37.4252 15.0291C36.1347 14.2944 34.7587 13.7219 33.3279 13.3247V6.61001C33.3279 5.94198 32.7864 5.39972 32.1182 5.39972H24.8601C24.192 5.39972 23.6505 5.94198 23.6505 6.61001V13.3247C22.2196 13.7219 20.8436 14.2944 19.5531 15.0291L14.8028 10.2759C14.3227 9.822 13.5719 9.822 13.0922 10.2759L7.95961 15.4115C7.7328 15.6385 7.60522 15.9462 7.60522 16.2677C7.60522 16.5892 7.7328 16.897 7.95961 17.1239L12.7104 21.8743C11.9752 23.1654 11.4034 24.5431 11.0065 25.9746H4.29561C3.62746 25.9746 3.08594 26.5169 3.08594 27.1849V34.4466C3.08594 35.1151 3.62746 35.6569 4.29561 35.6569ZM5.50529 28.3952H11.953C12.5214 28.3952 13.0133 27.9995 13.1348 27.444C13.5317 25.6314 14.2495 23.9039 15.2541 22.3437C15.5607 21.8653 15.4927 21.237 15.0906 20.8347L10.5255 16.2672L13.9475 12.843L18.5117 17.4104C18.9138 17.8137 19.5423 17.8818 20.0214 17.5745C21.5812 16.5698 23.3074 15.8517 25.1191 15.4541C25.6738 15.3321 26.0698 14.84 26.0698 14.2712V7.82029H30.9085V14.2712C30.9085 14.84 31.3045 15.3321 31.8592 15.4541C33.6709 15.8517 35.3971 16.5698 36.9569 17.5745C37.4361 17.8818 38.0645 17.8137 38.4666 17.4104L43.0308 12.843L46.4519 16.2672L41.8878 20.8332C41.4847 21.236 41.4171 21.8648 41.7243 22.3437C42.7289 23.9048 43.4457 25.6318 43.8421 27.4449C43.9641 28.0004 44.456 28.3966 45.0239 28.3966H51.473V33.2377H45.0239C44.456 33.2377 43.9641 33.6335 43.8421 34.189C43.4457 36.0016 42.7284 37.7286 41.7243 39.2878C41.4176 39.7667 41.4856 40.395 41.8878 40.7973L46.4529 45.3638L43.0308 48.789L38.4666 44.2211C38.0645 43.8183 37.4361 43.7502 36.9569 44.0575C35.398 45.0626 33.6723 45.7808 31.8607 46.1779C31.305 46.2989 30.9085 46.7915 30.9085 47.3603V53.8112H26.0698V47.3603C26.0698 46.7915 25.6734 46.2989 25.1177 46.1779C23.306 45.7808 21.5803 45.0626 20.0214 44.0575C19.5423 43.7502 18.9138 43.8183 18.5117 44.2211L13.9475 48.789L10.5264 45.3647L15.0906 40.7983C15.4936 40.3959 15.5612 39.7672 15.2541 39.2878C14.2495 37.7272 13.5317 35.9997 13.1348 34.1866C13.0129 33.6311 12.5214 33.2363 11.953 33.2363H5.50529V28.3952Z" fill="#8FA4C0"/>
<path d="M28.4889 40.4981C33.8337 40.4981 38.1664 36.1637 38.1664 30.8158C38.1664 25.4683 33.8337 21.1335 28.4889 21.1335C23.1442 21.1335 18.8115 25.4683 18.8115 30.8158C18.8172 36.1604 23.147 40.4924 28.4889 40.4981ZM28.4889 23.5541C32.4969 23.5541 35.747 26.8058 35.747 30.8158C35.747 34.8263 32.4969 38.0775 28.4889 38.0775C24.4809 38.0775 21.2309 34.8263 21.2309 30.8158C21.2351 26.8067 24.4819 23.5583 28.4889 23.5541Z" fill="#8FA4C0"/>
<path d="M28.4891 44.1289C35.8379 44.1289 41.7955 38.1688 41.7955 30.8158C41.7955 23.4633 35.8379 17.5026 28.4891 17.5026C21.1403 17.5026 15.1826 23.4633 15.1826 30.8158C15.1916 38.165 21.1436 44.1204 28.4891 44.1289ZM28.4891 19.9232C34.502 19.9232 39.3762 24.7998 39.3762 30.8158C39.3762 36.8318 34.502 41.7084 28.4891 41.7084C22.4761 41.7084 17.602 36.8318 17.602 30.8158C17.6086 24.8031 22.479 19.9298 28.4891 19.9232Z" fill="#8FA4C0"/>
<path d="M72.0376 61.073V51.3907C72.0376 50.7226 71.496 50.1804 70.8279 50.1804H68.4085V40.4981C68.4085 39.83 67.867 39.2878 67.1988 39.2878H56.3117C55.6436 39.2878 55.1021 39.83 55.1021 40.4981V50.1804H49.0537C48.3855 50.1804 47.844 50.7226 47.844 51.3907V61.073H9.13432C5.79543 61.0772 3.09019 63.7838 3.08594 67.1244V69.545C3.09019 72.886 5.79543 75.5926 9.13432 75.5964H72.0376C75.3764 75.5926 78.0817 72.886 78.0859 69.545V67.1244C78.0817 63.7838 75.3764 61.0772 72.0376 61.073ZM69.6182 61.073H61.1505V52.6009H69.6182V61.073ZM57.5214 41.7084H65.9892V50.1804H57.5214V41.7084ZM50.2634 52.6009H58.7311V61.073H50.2634V52.6009ZM75.6666 69.545C75.6666 71.5505 74.0415 73.1758 72.0376 73.1758H9.13432C7.13032 73.1758 5.50529 71.5505 5.50529 69.545V67.1244C5.50529 65.1194 7.13032 63.4935 9.13432 63.4935H72.0376C74.0415 63.4935 75.6666 65.1194 75.6666 67.1244V69.545Z" fill="#8FA4C0"/>
<path d="M40.5861 64.7039C38.5821 64.7039 36.957 66.3297 36.957 68.3347C36.957 70.3402 38.5821 71.9656 40.5861 71.9656C42.5901 71.9656 44.2151 70.3402 44.2151 68.3347C44.2151 66.3297 42.5901 64.7039 40.5861 64.7039ZM40.5861 69.545C39.9179 69.545 39.3764 69.0032 39.3764 68.3347C39.3764 67.6667 39.9179 67.1244 40.5861 67.1244C41.2542 67.1244 41.7957 67.6667 41.7957 68.3347C41.7957 69.0032 41.2542 69.545 40.5861 69.545Z" fill="#8FA4C0"/>
<path d="M28.4889 64.7039C26.4849 64.7039 24.8599 66.3297 24.8599 68.3347C24.8599 70.3402 26.4849 71.9656 28.4889 71.9656C30.4929 71.9656 32.1179 70.3402 32.1179 68.3347C32.1179 66.3297 30.4929 64.7039 28.4889 64.7039ZM28.4889 69.545C27.8207 69.545 27.2792 69.0032 27.2792 68.3347C27.2792 67.6667 27.8207 67.1244 28.4889 67.1244C29.1571 67.1244 29.6986 67.6667 29.6986 68.3347C29.6986 69.0032 29.1571 69.545 28.4889 69.545Z" fill="#8FA4C0"/>
<path d="M52.6827 64.7039C50.6787 64.7039 49.0537 66.3297 49.0537 68.3347C49.0537 70.3402 50.6787 71.9656 52.6827 71.9656C54.6867 71.9656 56.3118 70.3402 56.3118 68.3347C56.3118 66.3297 54.6867 64.7039 52.6827 64.7039ZM52.6827 69.545C52.0146 69.545 51.4731 69.0032 51.4731 68.3347C51.4731 67.6667 52.0146 67.1244 52.6827 67.1244C53.3509 67.1244 53.8924 67.6667 53.8924 68.3347C53.8924 69.0032 53.3509 69.545 52.6827 69.545Z" fill="#8FA4C0"/>
<path d="M16.3922 64.7039C14.3882 64.7039 12.7632 66.3297 12.7632 68.3347C12.7632 70.3402 14.3882 71.9656 16.3922 71.9656C18.3962 71.9656 20.0212 70.3402 20.0212 68.3347C20.0212 66.3297 18.3962 64.7039 16.3922 64.7039ZM16.3922 69.545C15.7241 69.545 15.1825 69.0032 15.1825 68.3347C15.1825 67.6667 15.7241 67.1244 16.3922 67.1244C17.0604 67.1244 17.6019 67.6667 17.6019 68.3347C17.6019 69.0032 17.0604 69.545 16.3922 69.545Z" fill="#8FA4C0"/>
<path d="M64.7794 64.7039C62.7754 64.7039 61.1504 66.3297 61.1504 68.3347C61.1504 70.3402 62.7754 71.9656 64.7794 71.9656C66.7834 71.9656 68.4085 70.3402 68.4085 68.3347C68.4085 66.3297 66.7834 64.7039 64.7794 64.7039ZM64.7794 69.545C64.1113 69.545 63.5697 69.0032 63.5697 68.3347C63.5697 67.6667 64.1113 67.1244 64.7794 67.1244C65.4476 67.1244 65.9891 67.6667 65.9891 68.3347C65.9891 69.0032 65.4476 69.545 64.7794 69.545Z" fill="#8FA4C0"/>
</svg>
