<svg width="80" height="81" viewBox="0 0 80 81" fill="none" xmlns="http://www.w3.org/2000/svg">
<g clip-path="url(#clip0_367_942)">
<path d="M61.5739 53.8335C62.9355 51.604 63.9312 49.2014 64.5439 46.6682H68.2748C68.9652 46.6682 69.5248 46.1085 69.5248 45.4182V35.9815C69.5248 35.2912 68.9652 34.7315 68.2748 34.7315H64.5439C63.9309 32.1976 62.935 29.7951 61.5739 27.5665L64.2136 24.927C64.7017 24.4389 64.7017 23.6475 64.2136 23.1593L57.5409 16.4864C57.3064 16.252 56.9886 16.1203 56.657 16.1203C56.3255 16.1203 56.0077 16.252 55.7731 16.4864L53.1334 19.126C50.9036 17.7645 48.5013 16.7685 45.9684 16.1559V12.4251C45.9684 11.7348 45.4087 11.1751 44.7184 11.1751H35.2816C34.5913 11.1751 34.0316 11.7348 34.0316 12.4251V16.1557C31.4973 16.7689 29.0948 17.7646 26.8664 19.1257L24.2269 16.4862C23.7388 15.9981 22.9473 15.9981 22.4592 16.4862L15.7864 23.1589C15.552 23.3932 15.4203 23.7112 15.4203 24.0428C15.4203 24.3743 15.552 24.6923 15.7864 24.9267L18.4259 27.5664C17.0644 29.796 16.0684 32.1985 15.4558 34.7317H11.7252C11.0348 34.7317 10.4752 35.2914 10.4752 35.9817V45.4184C10.4752 46.1087 11.0348 46.6684 11.7252 46.6684H15.4556C16.0688 49.2028 17.0645 51.6054 18.4256 53.8339L15.7864 56.4732C15.2983 56.9614 15.2983 57.7528 15.7864 58.2409L22.4591 64.9137C22.9472 65.402 23.7386 65.4018 24.2267 64.9137L26.8662 62.2743C29.0959 63.6359 31.4984 64.6317 34.0314 65.2443V68.9748C34.0314 69.6651 34.5911 70.2248 35.2814 70.2248H44.7183C45.4086 70.2248 45.9683 69.6651 45.9683 68.9748V65.2443C48.5023 64.6314 50.9044 63.6357 53.1334 62.2743L55.7728 64.9137C56.2611 65.402 57.0523 65.402 57.5406 64.9137L64.2133 58.241C64.4478 58.0067 64.5795 57.6887 64.5795 57.3571C64.5795 57.0256 64.4478 56.7076 64.2134 56.4732L61.5739 53.8335ZM56.6569 62.262L54.1914 59.7964C53.7698 59.375 53.1094 59.3095 52.6134 59.6404C50.1314 61.297 47.393 62.4321 44.4739 63.0142C43.8894 63.1307 43.4683 63.644 43.4683 64.2401V67.7248H36.5314V64.2401C36.5314 63.644 36.1105 63.1307 35.5256 63.0142C32.6078 62.4326 29.8694 61.2976 27.3861 59.6406C26.8902 59.3096 26.2302 59.375 25.8084 59.7965L23.3427 62.2621L18.4377 57.357L20.9031 54.8914C21.3247 54.4698 21.3898 53.8093 21.0589 53.3135C19.4027 50.8321 18.2677 48.0935 17.6853 45.1737C17.5686 44.5892 17.0555 44.1682 16.4594 44.1682H12.9752V37.2315H16.4597C17.0558 37.2315 17.5691 36.8106 17.6856 36.2259C18.2673 33.3081 19.4025 30.5693 21.0595 28.0862C21.3905 27.5904 21.3252 26.93 20.9036 26.5085L18.4378 24.0428L23.343 19.1378L25.8088 21.6035C26.2302 22.025 26.8905 22.0904 27.3866 21.7593C29.868 20.1031 32.6066 18.9679 35.5261 18.3856C36.1106 18.269 36.5317 17.7559 36.5317 17.1598V13.6751H43.4686V17.1601C43.4686 17.7562 43.8895 18.2695 44.4744 18.386C47.3919 18.9675 50.1303 20.1026 52.6138 21.7598C53.1097 22.0907 53.7697 22.0254 54.1916 21.6039L56.6573 19.1381L61.5623 24.0432L59.0966 26.509C58.6752 26.9306 58.61 27.591 58.9408 28.0868C60.5973 30.5685 61.7322 33.307 62.3144 36.2262C62.4309 36.8107 62.9441 37.2318 63.5403 37.2318H67.0255V44.1685H63.5403C62.9442 44.1685 62.4309 44.5895 62.3144 45.1743C61.7328 48.0923 60.5978 50.8309 58.9408 53.314C58.61 53.8098 58.6752 54.4703 59.0966 54.8917L61.5623 57.3575L56.6569 62.262ZM75.2258 68.5693C75.2811 69.2575 74.7678 69.8601 74.0797 69.9153L66.1873 70.5485C66.1539 70.5514 66.1205 70.5526 66.0872 70.5526C65.7572 70.5526 65.4389 70.4218 65.2034 70.1865C64.9445 69.9275 64.812 69.5679 64.8414 69.2028L65.4745 61.3106C65.5298 60.6224 66.1331 60.1092 66.8205 60.1646C67.5086 60.2198 68.0217 60.8223 67.9666 61.5106L67.6098 65.9575C73.9444 59.0417 77.4219 50.1117 77.4219 40.7C77.4219 33.0301 75.1158 25.6565 70.753 19.3764C70.3591 18.8093 70.4995 18.0304 71.0664 17.6365C71.6334 17.2428 72.4122 17.3828 72.8063 17.95C77.4614 24.651 79.9219 32.5178 79.9219 40.7C79.9219 50.8062 76.163 60.3915 69.3205 67.7892L73.8798 67.4234C74.5644 67.3682 75.1706 67.8811 75.2258 68.5693ZM16.9367 9.63339C16.5428 9.06651 16.6831 8.28745 17.25 7.8937C23.9505 3.2387 31.8173 0.778076 40 0.778076C50.1063 0.778076 59.6916 4.53698 67.0892 11.3792L66.7233 6.82011C66.668 6.13198 67.1813 5.52933 67.8694 5.47417C68.5545 5.41886 69.1602 5.93198 69.2153 6.62011L69.8486 14.5123C69.878 14.8775 69.7455 15.2371 69.4866 15.496C69.2511 15.7314 68.9328 15.8621 68.6028 15.8621C68.5695 15.8621 68.5361 15.8609 68.5027 15.8581L60.6105 15.2253C59.9223 15.17 59.4092 14.5675 59.4644 13.8793C59.5197 13.1912 60.1217 12.6778 60.8103 12.7334L65.257 13.09C58.3417 6.75542 49.4117 3.27808 40 3.27808C32.3297 3.27808 24.9561 5.58401 18.6764 9.94683C18.1097 10.3407 17.3306 10.2004 16.9367 9.63339ZM9.24687 62.0235C9.64078 62.5904 9.50047 63.3695 8.93344 63.7632C8.71594 63.9143 8.4675 63.9868 8.22125 63.9868C7.82562 63.9868 7.43656 63.7995 7.19359 63.45C2.53859 56.7493 0.078125 48.8825 0.078125 40.7C0.078125 30.5937 3.83703 21.0084 10.6792 13.6107L6.12016 13.9765C5.43328 14.0332 4.82953 13.5187 4.77422 12.8306C4.71891 12.1425 5.23203 11.5398 5.92016 11.4846L13.8125 10.8514C14.1778 10.8215 14.5372 10.9545 14.7962 11.2134C15.0553 11.4725 15.1877 11.832 15.1583 12.1971L14.5252 20.0893C14.4728 20.7435 13.9256 21.2393 13.2806 21.2395C13.247 21.2395 13.2133 21.2381 13.1794 21.2354C12.4913 21.1803 11.9781 20.5778 12.0334 19.8895L12.3902 15.4425C6.05547 22.3582 2.57812 31.2882 2.57812 40.7C2.57812 48.3701 4.88406 55.7437 9.24687 62.0235ZM63.0631 71.7665C63.457 72.3335 63.3166 73.1124 62.7497 73.5064C56.0491 78.1614 48.1823 80.6218 40 80.6218C29.8936 80.6218 20.3083 76.8629 12.9108 70.0207L13.2766 74.5798C13.3319 75.2679 12.8188 75.8706 12.1306 75.9257C12.0967 75.9285 12.0628 75.9298 12.0294 75.9298C11.3844 75.9298 10.8373 75.4339 10.7848 74.7796L10.1514 66.8875C10.122 66.5223 10.2545 66.1626 10.5134 65.9037C10.7725 65.6446 11.1322 65.5115 11.4972 65.5417L19.3894 66.1748C20.0775 66.2299 20.5906 66.8325 20.5353 67.5207C20.4802 68.2089 19.8769 68.7225 19.1894 68.6667L14.7423 68.31C21.6581 74.6445 30.5883 78.1218 40 78.1218C47.67 78.1218 55.0434 75.8159 61.3234 71.4531C61.8905 71.0595 62.6691 71.1995 63.0631 71.7665ZM40 23.2085C30.3552 23.2085 22.5086 31.0553 22.5086 40.7C22.5086 50.3446 30.3552 58.1914 40 58.1914C49.6448 58.1914 57.4912 50.3448 57.4912 40.7C57.4912 31.0551 49.6448 23.2085 40 23.2085ZM40 55.6914C31.7337 55.6914 25.0086 48.9662 25.0086 40.7C25.0086 32.4337 31.7337 25.7085 40 25.7085C48.2663 25.7085 54.9912 32.4337 54.9912 40.7C54.9912 48.9662 48.2663 55.6914 40 55.6914ZM40 26.9907C32.4406 26.9907 26.2908 33.1407 26.2908 40.7C26.2908 48.2592 32.4406 54.409 40 54.409C47.5592 54.409 53.7091 48.2592 53.7091 40.7C53.7091 33.1407 47.5592 26.9907 40 26.9907ZM40 51.909C33.8191 51.909 28.7908 46.8806 28.7908 40.7C28.7908 34.5192 33.8192 29.4907 40 29.4907C46.1808 29.4907 51.2091 34.5192 51.2091 40.7C51.2091 46.8807 46.1808 51.909 40 51.909ZM42.2144 39.664C42.5597 40.2618 42.3547 41.0264 41.7569 41.3715L41.25 41.6642V42.2496C41.25 42.94 40.6903 43.4996 40 43.4996C39.5798 43.4996 39.2089 43.2915 38.9822 42.9735L35.03 45.2554C34.8331 45.369 34.6181 45.4231 34.4062 45.4231C33.9741 45.4231 33.5541 45.1989 33.3225 44.7979C32.9772 44.2001 33.1822 43.4356 33.78 43.0904L38.75 40.2209V31.7742C38.75 31.0839 39.3097 30.5242 40 30.5242C40.6903 30.5242 41.25 31.0839 41.25 31.7742V39.0457C41.6387 39.0829 42.0044 39.3001 42.2144 39.664Z" fill="#8FA4C0"/>
</g>
<defs>
<clipPath id="clip0_367_942">
<rect width="80" height="80" fill="white" transform="translate(0 0.699951)"/>
</clipPath>
</defs>
</svg>
