<svg width="80" height="81" viewBox="0 0 80 81" fill="none" xmlns="http://www.w3.org/2000/svg">
<g clip-path="url(#clip0_495_327)">
<path d="M23.9998 24.4992H37.3332C38.0695 24.4992 38.6665 23.9022 38.6665 23.1659V7.16591C38.6665 6.42959 38.0695 5.83258 37.3332 5.83258H23.9998C23.2635 5.83258 22.6665 6.42959 22.6665 7.16591V23.1659C22.6665 23.9022 23.2635 24.4992 23.9998 24.4992ZM25.3332 8.49925H35.9998V21.8326H25.3332V8.49925Z" fill="#8FA4C0"/>
<path d="M10.6665 27.166H15.9998V29.8326H10.6665V27.166Z" fill="#8FA4C0"/>
<path d="M18.6665 27.166H31.9998V29.8326H18.6665V27.166Z" fill="#8FA4C0"/>
<path d="M34.6665 27.166H47.9998V29.8326H34.6665V27.166Z" fill="#8FA4C0"/>
<path d="M10.6665 43.166H15.9998V45.8326H10.6665V43.166Z" fill="#8FA4C0"/>
<path d="M18.6665 43.166H31.9998V45.8326H18.6665V43.166Z" fill="#8FA4C0"/>
<path d="M34.6665 43.166H47.9998V45.8326H34.6665V43.166Z" fill="#8FA4C0"/>
<path d="M10.6665 35.166H47.9998V37.8326H10.6665V35.166Z" fill="#8FA4C0"/>
<path d="M10.6665 51.166H15.9998V53.8326H10.6665V51.166Z" fill="#8FA4C0"/>
<path d="M18.6665 51.166H31.9998V53.8326H18.6665V51.166Z" fill="#8FA4C0"/>
<path d="M34.6665 51.166H47.9998V53.8326H34.6665V51.166Z" fill="#8FA4C0"/>
<path d="M10.6665 67.166H15.9998V69.8326H10.6665V67.166Z" fill="#8FA4C0"/>
<path d="M18.6665 67.166H31.9998V69.8326H18.6665V67.166Z" fill="#8FA4C0"/>
<path d="M34.6665 67.166H47.9998V69.8326H34.6665V67.166Z" fill="#8FA4C0"/>
<path d="M10.6665 59.166H47.9998V61.8326H10.6665V59.166Z" fill="#8FA4C0"/>
<path d="M76 43.1659H72.8587C77.4284 39.5071 78.6842 33.0813 75.8294 27.9706C72.9753 22.8599 66.8451 20.5605 61.3333 22.5325V4.49927C61.3333 2.29028 59.5423 0.499268 57.3333 0.499268H4C1.79102 0.499268 0 2.29028 0 4.49927V76.4993C0 78.7083 1.79102 80.4993 4 80.4993H62.6667C63.6536 80.496 64.6042 80.1249 65.3333 79.4596C66.0625 80.1249 67.013 80.496 68 80.4993H70.6667C72.8757 80.4993 74.6667 78.7083 74.6667 76.4993V61.8326H76C78.209 61.8326 80 60.0416 80 57.8326V47.1659C80 44.957 78.209 43.1659 76 43.1659ZM58.6667 61.8326V45.8326H64V55.1659H66.6667V45.8326H72V61.8326H58.6667ZM56 59.1659H54.6667C53.9303 59.1659 53.3333 58.5689 53.3333 57.8326V47.1659C53.3333 46.4296 53.9303 45.8326 54.6667 45.8326H56V59.1659ZM65.3333 43.1659C60.181 43.1601 56.0059 38.9849 56 33.8326C56 33.7551 56.0091 33.6809 56.0117 33.6047L61.2494 32.5377L64.9121 33.759C65.1855 33.8502 65.4811 33.8502 65.7546 33.759L69.4186 32.5377L74.655 33.5846C74.655 33.6659 74.6667 33.746 74.6667 33.8274C74.6634 38.9817 70.4876 43.1601 65.3333 43.1659ZM74.1335 30.7662L69.6003 29.8593C69.373 29.8131 69.1374 29.8267 68.9173 29.9003L65.3385 31.1008L61.7598 29.9003C61.5384 29.828 61.3021 29.8137 61.0736 29.8593L56.528 30.7805C57.8281 27.0325 61.3581 24.5188 65.3255 24.5149C69.2923 24.5116 72.8268 27.0201 74.1335 30.7662ZM2.66667 76.4993V4.49927C2.66667 3.76294 3.26367 3.16593 4 3.16593H57.3333C58.0697 3.16593 58.6667 3.76294 58.6667 4.49927V23.8619C55.4915 25.9797 53.515 29.4836 53.3457 33.2961C53.1758 37.1093 54.8333 40.7747 57.8079 43.1659H54.6667C52.4577 43.1659 50.6667 44.957 50.6667 47.1659V57.8326C50.6667 60.0416 52.4577 61.8326 54.6667 61.8326H56V76.4993C56.0046 76.9543 56.0872 77.4055 56.2454 77.8326H4C3.26367 77.8326 2.66667 77.2356 2.66667 76.4993ZM62.6667 77.8326H60C59.2637 77.8326 58.6667 77.2356 58.6667 76.4993V64.4993H64V76.4993C64 77.2356 63.403 77.8326 62.6667 77.8326ZM70.6667 77.8326H68C67.2637 77.8326 66.6667 77.2356 66.6667 76.4993V64.4993H72V76.4993C72 77.2356 71.403 77.8326 70.6667 77.8326ZM77.3333 57.8326C77.3333 58.5689 76.7363 59.1659 76 59.1659H74.6667V45.8326H76C76.7363 45.8326 77.3333 46.4296 77.3333 47.1659V57.8326Z" fill="#8FA4C0"/>
<path d="M60 33.8326H62.6667V36.4992H60V33.8326Z" fill="#8FA4C0"/>
<path d="M68 33.8326H70.6667V36.4992H68V33.8326Z" fill="#8FA4C0"/>
<path d="M65.3332 39.1659C64.7082 39.1464 64.1235 38.8541 63.7329 38.3658L61.6001 39.966C62.481 41.1412 63.8644 41.8326 65.3332 41.8326C66.8019 41.8326 68.1854 41.1412 69.0662 39.966L66.9334 38.3658C66.5428 38.8541 65.9582 39.1464 65.3332 39.1659Z" fill="#8FA4C0"/>
</g>
<defs>
<clipPath id="clip0_495_327">
<rect width="80" height="80" fill="white" transform="translate(0 0.499268)"/>
</clipPath>
</defs>
</svg>
