<svg width="81" height="80" viewBox="0 0 81 80" fill="none" xmlns="http://www.w3.org/2000/svg">
<g clip-path="url(#clip0_367_823)">
<path d="M39.2656 70.464C39.9628 70.6871 40.7124 70.6871 41.4097 70.464C59.3124 64.6746 65.6657 53.4426 65.6657 45.5839V22.7573C65.6652 21.4848 64.9571 20.3183 63.8283 19.7306L41.9324 8.39996C40.9384 7.87059 39.7463 7.87059 38.7524 8.39996L16.827 19.7333C15.7023 20.3225 14.9979 21.4876 14.999 22.7573V45.5841C14.9989 53.4427 21.3523 64.6748 39.2656 70.464ZM17.6656 22.7573C17.6623 22.4773 17.8172 22.2195 18.0656 22.0906L39.9909 10.7439C40.0969 10.6912 40.2139 10.6647 40.3324 10.6665C40.4586 10.6667 40.5831 10.6973 40.695 10.7559L62.5991 22.0933C62.8474 22.2223 63.0021 22.4801 62.9991 22.76V45.5868C62.9991 52.5508 57.1324 62.5815 40.587 67.9268C40.422 67.9781 40.2453 67.9781 40.0803 67.9268C23.5323 62.5788 17.6656 52.5482 17.6656 45.5841V22.7573Z" fill="#8FA4C0"/>
<path d="M39.249 65.6347C39.9485 65.8908 40.7162 65.8908 41.4157 65.6347C55.3796 60.4119 60.3331 51.8774 60.3331 46.156V25.3786C60.335 24.2517 59.7101 23.2173 58.7117 22.6945L41.741 13.7892C40.859 13.3278 39.807 13.3278 38.9251 13.7892L21.9557 22.6945C20.9566 23.2165 20.3311 24.2512 20.333 25.3786V46.156C20.333 51.876 25.2863 60.4107 39.249 65.6347ZM46.057 32.3547C46.5838 31.8483 47.4167 31.8483 47.9437 32.3547C48.4634 32.8751 48.4634 33.7181 47.9437 34.2387L37.277 44.9055C36.7502 45.4111 35.9184 45.4111 35.3916 44.9055L32.7249 42.2388C32.3785 41.9038 32.2399 41.408 32.3623 40.9419C32.4846 40.4758 32.849 40.112 33.3152 39.9903C33.7815 39.8686 34.2771 40.008 34.6116 40.3548L35.3916 41.1348C35.9123 41.6553 36.7563 41.6553 37.277 41.1348L46.057 32.3547ZM57.4717 25.0573C57.5914 25.1198 57.6664 25.2437 57.6664 25.3787V46.1561C57.6664 51.2228 52.6943 58.1894 41.6663 62.6602V44.2866L49.8278 36.1252C51.3893 34.5631 51.3893 32.0311 49.8278 30.4692C48.2446 28.9584 45.7535 28.9584 44.1704 30.4692L41.6663 32.9733V16.7626L57.4717 25.0573ZM22.9996 25.3786C22.9996 25.2436 23.0746 25.1198 23.1943 25.0572L38.9996 16.7625V35.6398L36.333 38.3066C34.7337 36.9436 32.3624 37.0116 30.8437 38.4639C30.0933 39.2141 29.6718 40.2316 29.6718 41.2925C29.6718 42.3534 30.0933 43.3709 30.8437 44.1211L33.5104 46.7878C35.0104 48.2985 37.4349 48.3572 39.0063 46.9211V62.6665C27.9783 58.1944 23.0063 51.2332 23.0063 46.1624L22.9996 25.3786Z" fill="#8FA4C0"/>
<path fill-rule="evenodd" clip-rule="evenodd" d="M13.6663 5.33329C12.9299 5.33329 12.333 5.93032 12.333 6.66657V12C12.333 12.7364 12.9299 13.3333 13.6663 13.3333H18.9996C19.736 13.3333 20.3329 12.7363 20.3329 12C20.3329 11.2636 19.7358 10.6667 18.9996 10.6667H17.2396C30.6566 0.102806 49.5311 -0.0107873 63.0744 10.3906C63.4522 10.681 63.9561 10.7477 64.3964 10.5658C64.8367 10.3838 65.1466 9.9808 65.2091 9.50845C65.2716 9.03611 65.0775 8.56626 64.6997 8.27595C49.9642 -3.04407 29.3719 -2.72048 14.9996 9.05736V6.66673C14.9996 6.31313 14.8591 5.97391 14.6091 5.72391C14.3591 5.47391 14.0199 5.33329 13.6663 5.33329Z" fill="#8FA4C0"/>
<path fill-rule="evenodd" clip-rule="evenodd" d="M9.38892 65.3335H6.99954C6.26314 65.3335 5.66626 65.9303 5.66626 66.6668C5.66626 67.4032 6.26329 68 6.99954 68H12.333C13.0694 68 13.6663 67.4032 13.6663 66.6668V61.3335C13.6663 60.5971 13.0692 60.0002 12.333 60.0002C11.5966 60.0002 10.9997 60.5971 10.9997 61.3335V63.0921C0.43547 49.6753 0.32125 30.8011 10.7222 17.2574C11.0374 16.8821 11.1213 16.3643 10.9408 15.9087C10.7602 15.4531 10.3444 15.1332 9.85767 15.0759C9.37096 15.0184 8.89205 15.2326 8.61033 15.6335C-2.71063 30.3683 -2.38797 50.9605 9.38892 65.3335Z" fill="#8FA4C0"/>
<path fill-rule="evenodd" clip-rule="evenodd" d="M66.9996 74.6666C67.736 74.6666 68.3329 74.0696 68.3329 73.3333V68C68.3329 67.2636 67.736 66.6667 66.9996 66.6667H61.6663C60.9299 66.6667 60.333 67.2638 60.333 68C60.333 68.7364 60.9299 69.3333 61.6663 69.3333H63.4263C50.0093 79.8971 31.1349 80.0107 17.5916 69.6093C17.0077 69.1605 16.1703 69.27 15.7216 69.8539C15.2728 70.4379 15.3823 71.2752 15.9662 71.7239C30.7017 83.0441 51.294 82.7204 65.6663 70.9425V73.3332C65.6663 74.0697 66.2634 74.6666 66.9996 74.6666Z" fill="#8FA4C0"/>
<path fill-rule="evenodd" clip-rule="evenodd" d="M73.6666 14.6666C74.403 14.6666 74.9999 14.0695 74.9999 13.3333C74.9999 12.5969 74.4028 12 73.6666 12H68.3333C67.5969 12 67 12.597 67 13.3333V18.6666C67 19.403 67.597 19.9999 68.3333 19.9999C69.0697 19.9999 69.6666 19.4028 69.6666 18.6666V16.908C80.2308 30.3247 80.3449 49.1991 69.9439 62.7428C69.6288 63.1181 69.5449 63.6359 69.7253 64.0915C69.9059 64.5471 70.3219 64.867 70.8084 64.9243C71.295 64.9817 71.7741 64.7676 72.0558 64.3667C83.3766 49.6318 83.0541 29.0396 71.2772 14.6666H73.6666Z" fill="#8FA4C0"/>
</g>
<defs>
<clipPath id="clip0_367_823">
<rect width="80" height="80" fill="white" transform="translate(0.333008)"/>
</clipPath>
</defs>
</svg>
