<svg width="80" height="81" viewBox="0 0 80 81" fill="none" xmlns="http://www.w3.org/2000/svg">
<g clip-path="url(#clip0_367_1146)">
<path d="M72.9688 5.66895H70.1042V3.3252C70.1042 2.03082 69.0548 0.981445 67.7605 0.981445C66.4661 0.981445 65.4167 2.03082 65.4167 3.3252V5.66895H60.2084V3.3252C60.2084 2.03082 59.1591 0.981445 57.8647 0.981445C56.5703 0.981445 55.5209 2.03082 55.5209 3.3252V5.66895H50.3125V3.3252C50.3125 2.03082 49.2631 0.981445 47.9688 0.981445C46.6744 0.981445 45.625 2.03082 45.625 3.3252V5.66895H40.4167V3.3252C40.4167 2.03082 39.3673 0.981445 38.073 0.981445C36.7786 0.981445 35.7292 2.03082 35.7292 3.3252V5.66895H30.5209V3.3252C30.5209 2.03082 29.4716 0.981445 28.1772 0.981445C26.8828 0.981445 25.8334 2.03082 25.8334 3.3252V5.66895H22.9688C19.0917 5.66895 15.9375 8.82316 15.9375 12.7002V43.0061C6.96 44.1602 0 51.8513 0 61.1377C0 71.218 8.20094 79.4189 18.2812 79.4189C27.5677 79.4189 35.2588 72.4589 36.4128 63.4814H72.9688C76.8458 63.4814 80 60.3272 80 56.4502V12.7002C80 8.82316 76.8458 5.66895 72.9688 5.66895ZM20.625 12.7002C20.625 11.4079 21.6764 10.3564 22.9688 10.3564H25.8333V12.7002C25.8333 13.9946 26.8827 15.0439 28.177 15.0439C29.4714 15.0439 30.5208 13.9946 30.5208 12.7002V10.3564H35.7291V12.7002C35.7291 13.9946 36.7784 15.0439 38.0728 15.0439C39.3672 15.0439 40.4166 13.9946 40.4166 12.7002V10.3564H45.625V12.7002C45.625 13.9946 46.6744 15.0439 47.9688 15.0439C49.2631 15.0439 50.3125 13.9946 50.3125 12.7002V10.3564H55.5208V12.7002C55.5208 13.9946 56.5702 15.0439 57.8645 15.0439C59.1589 15.0439 60.2083 13.9946 60.2083 12.7002V10.3564H65.4166V12.7002C65.4166 13.9946 66.4659 15.0439 67.7603 15.0439C69.0547 15.0439 70.1041 13.9946 70.1041 12.7002V10.3564H72.9688C74.2611 10.3564 75.3125 11.4079 75.3125 12.7002V18.1689H20.625V12.7002ZM18.2812 74.7314C10.7856 74.7314 4.6875 68.6333 4.6875 61.1377C4.6875 53.6421 10.7856 47.5439 18.2812 47.5439C25.7769 47.5439 31.875 53.6421 31.875 61.1377C31.875 68.6333 25.7769 74.7314 18.2812 74.7314ZM75.3125 56.4502C75.3125 57.7425 74.2611 58.7939 72.9688 58.7939H36.4128C35.3575 50.5839 28.835 44.0616 20.625 43.0061V22.8564H75.3125V56.4502Z" fill="#8FA4C0"/>
<path d="M65.1562 33.7939H68.2812C69.5756 33.7939 70.625 32.7446 70.625 31.4502C70.625 30.1558 69.5756 29.1064 68.2812 29.1064H65.1562C63.8619 29.1064 62.8125 30.1558 62.8125 31.4502C62.8125 32.7446 63.8619 33.7939 65.1562 33.7939Z" fill="#8FA4C0"/>
<path d="M52.6562 33.7939H55.7812C57.0756 33.7939 58.125 32.7446 58.125 31.4502C58.125 30.1558 57.0756 29.1064 55.7812 29.1064H52.6562C51.3619 29.1064 50.3125 30.1558 50.3125 31.4502C50.3125 32.7446 51.3619 33.7939 52.6562 33.7939Z" fill="#8FA4C0"/>
<path d="M40.1562 33.7939H43.2812C44.5756 33.7939 45.625 32.7446 45.625 31.4502C45.625 30.1558 44.5756 29.1064 43.2812 29.1064H40.1562C38.8619 29.1064 37.8125 30.1558 37.8125 31.4502C37.8125 32.7446 38.8619 33.7939 40.1562 33.7939Z" fill="#8FA4C0"/>
<path d="M27.6562 33.7939H30.7812C32.0756 33.7939 33.125 32.7446 33.125 31.4502C33.125 30.1558 32.0756 29.1064 30.7812 29.1064H27.6562C26.3619 29.1064 25.3125 30.1558 25.3125 31.4502C25.3125 32.7446 26.3619 33.7939 27.6562 33.7939Z" fill="#8FA4C0"/>
<path d="M27.6562 43.1689H30.7812C32.0756 43.1689 33.125 42.1196 33.125 40.8252C33.125 39.5308 32.0756 38.4814 30.7812 38.4814H27.6562C26.3619 38.4814 25.3125 39.5308 25.3125 40.8252C25.3125 42.1196 26.3619 43.1689 27.6562 43.1689Z" fill="#8FA4C0"/>
<path d="M65.1562 43.1689H68.2812C69.5756 43.1689 70.625 42.1196 70.625 40.8252C70.625 39.5308 69.5756 38.4814 68.2812 38.4814H65.1562C63.8619 38.4814 62.8125 39.5308 62.8125 40.8252C62.8125 42.1196 63.8619 43.1689 65.1562 43.1689Z" fill="#8FA4C0"/>
<path d="M52.6562 43.1689H55.7812C57.0756 43.1689 58.125 42.1196 58.125 40.8252C58.125 39.5308 57.0756 38.4814 55.7812 38.4814H52.6562C51.3619 38.4814 50.3125 39.5308 50.3125 40.8252C50.3125 42.1196 51.3619 43.1689 52.6562 43.1689Z" fill="#8FA4C0"/>
<path d="M40.1562 43.1689H43.2812C44.5756 43.1689 45.625 42.1196 45.625 40.8252C45.625 39.5308 44.5756 38.4814 43.2812 38.4814H40.1562C38.8619 38.4814 37.8125 39.5308 37.8125 40.8252C37.8125 42.1196 38.8619 43.1689 40.1562 43.1689Z" fill="#8FA4C0"/>
<path d="M65.1562 52.5439H68.2812C69.5756 52.5439 70.625 51.4946 70.625 50.2002C70.625 48.9058 69.5756 47.8564 68.2812 47.8564H65.1562C63.8619 47.8564 62.8125 48.9058 62.8125 50.2002C62.8125 51.4946 63.8619 52.5439 65.1562 52.5439Z" fill="#8FA4C0"/>
<path d="M52.6562 52.5439H55.7812C57.0756 52.5439 58.125 51.4946 58.125 50.2002C58.125 48.9058 57.0756 47.8564 55.7812 47.8564H52.6562C51.3619 47.8564 50.3125 48.9058 50.3125 50.2002C50.3125 51.4946 51.3619 52.5439 52.6562 52.5439Z" fill="#8FA4C0"/>
<path d="M40.1562 52.5439H43.2812C44.5756 52.5439 45.625 51.4946 45.625 50.2002C45.625 48.9058 44.5756 47.8564 43.2812 47.8564H40.1562C38.8619 47.8564 37.8125 48.9058 37.8125 50.2002C37.8125 51.4946 38.8619 52.5439 40.1562 52.5439Z" fill="#8FA4C0"/>
<path d="M18.2812 52.5439C16.9869 52.5439 15.9375 53.5933 15.9375 54.8877V58.7939H12.0312C10.7369 58.7939 9.6875 59.8433 9.6875 61.1377C9.6875 62.4321 10.7369 63.4814 12.0312 63.4814H18.2812C19.5756 63.4814 20.625 62.4321 20.625 61.1377V54.8877C20.625 53.5933 19.5756 52.5439 18.2812 52.5439Z" fill="#8FA4C0"/>
</g>
<defs>
<clipPath id="clip0_367_1146">
<rect width="80" height="80" fill="white" transform="translate(0 0.200195)"/>
</clipPath>
</defs>
</svg>
