<svg width="44" height="60" viewBox="0 0 44 60" fill="none" xmlns="http://www.w3.org/2000/svg">
<path d="M13.5619 59.0624C13.3877 59.0625 13.2169 59.014 13.0687 58.9224C12.9205 58.8309 12.8007 58.6998 12.7228 58.544L10.3857 53.8687L5.64472 57.0299C5.48393 57.1373 5.29388 57.1923 5.1006 57.1875C4.90731 57.1827 4.72025 57.1182 4.56503 57.0029C4.40982 56.8876 4.29404 56.7272 4.23356 56.5435C4.17309 56.3599 4.17087 56.162 4.22722 55.9771L9.89909 37.3302C9.93492 37.2124 9.9936 37.1028 10.0718 37.0076C10.15 36.9125 10.2461 36.8337 10.3548 36.7757C10.4634 36.7177 10.5824 36.6817 10.705 36.6697C10.8275 36.6577 10.9513 36.67 11.0691 36.7058C11.1869 36.7417 11.2965 36.8004 11.3917 36.8785C11.4868 36.9567 11.5656 37.0529 11.6236 37.1615C11.6816 37.2702 11.7176 37.3892 11.7296 37.5117C11.7416 37.6343 11.7293 37.758 11.6935 37.8758L6.78378 54.0168L10.2291 51.7199C10.3397 51.646 10.4648 51.5965 10.5961 51.5748C10.7273 51.553 10.8617 51.5593 10.9903 51.5935C11.1188 51.6276 11.2387 51.6887 11.3418 51.7728C11.445 51.8568 11.529 51.9618 11.5885 52.0808L13.3697 55.6433L18.2578 40.274C18.3332 40.037 18.4996 39.8397 18.7204 39.7254C18.9412 39.6111 19.1984 39.5893 19.4353 39.6646C19.6723 39.7399 19.8696 39.9063 19.9839 40.1271C20.0982 40.348 20.1201 40.6051 20.0447 40.8421L14.4553 58.4062C14.3988 58.5839 14.2906 58.7408 14.1445 58.8567C13.9983 58.9726 13.821 59.0422 13.635 59.0568C13.6107 59.0624 13.5853 59.0624 13.5619 59.0624Z" fill="#8FA4C0"/>
<path d="M30.4371 59.0624C30.4137 59.0624 30.3884 59.0624 30.364 59.0624C30.1781 59.0478 30.0007 58.9781 29.8545 58.8622C29.7084 58.7463 29.6002 58.5895 29.5437 58.4117L23.9562 40.843C23.9189 40.7257 23.905 40.6021 23.9155 40.4795C23.9259 40.3568 23.9604 40.2374 24.017 40.128C24.0736 40.0187 24.1512 39.9216 24.2453 39.8422C24.3394 39.7628 24.4482 39.7028 24.5656 39.6655C24.6829 39.6282 24.8064 39.6144 24.9291 39.6248C25.0518 39.6352 25.1712 39.6697 25.2805 39.7263C25.3899 39.7829 25.487 39.8605 25.5663 39.9546C25.6457 40.0487 25.7058 40.1575 25.7431 40.2749L30.6312 55.6442L32.4124 52.0817C32.4718 51.9627 32.5559 51.8577 32.6591 51.7737C32.7622 51.6896 32.882 51.6285 33.0106 51.5944C33.1392 51.5602 33.2736 51.5539 33.4048 51.5757C33.5361 51.5974 33.6612 51.6469 33.7718 51.7208L37.2171 54.0177L32.3056 37.8749C32.2697 37.757 32.2575 37.6333 32.2694 37.5108C32.2814 37.3882 32.3174 37.2692 32.3754 37.1606C32.4334 37.0519 32.5122 36.9557 32.6074 36.8776C32.7025 36.7994 32.8121 36.7407 32.9299 36.7049C33.0477 36.669 33.1715 36.6568 33.294 36.6688C33.4166 36.6807 33.5356 36.7168 33.6442 36.7747C33.7529 36.8327 33.849 36.9115 33.9272 37.0067C34.0054 37.1018 34.0641 37.2114 34.0999 37.3292L39.7718 55.9761C39.8281 56.1611 39.8259 56.3589 39.7655 56.5426C39.705 56.7262 39.5892 56.8867 39.434 57.0019C39.2788 57.1172 39.0917 57.1817 38.8984 57.1865C38.7051 57.1914 38.5151 57.1363 38.3543 57.0289L33.6134 53.8686L31.2809 58.5439C31.2026 58.7005 31.0821 58.832 30.933 58.9236C30.7839 59.0153 30.6121 59.0633 30.4371 59.0624Z" fill="#8FA4C0"/>
<path d="M22 34.6875C19.5895 34.6875 17.2332 33.9727 15.229 32.6335C13.2248 31.2944 11.6627 29.3909 10.7402 27.164C9.81778 24.937 9.57643 22.4865 10.0467 20.1223C10.5169 17.7582 11.6777 15.5866 13.3821 13.8821C15.0866 12.1777 17.2582 11.0169 19.6223 10.5467C21.9865 10.0764 24.437 10.3178 26.664 11.2402C28.8909 12.1627 30.7944 13.7248 32.1335 15.729C33.4727 17.7332 34.1875 20.0895 34.1875 22.5C34.1838 25.7312 32.8986 28.829 30.6138 31.1138C28.329 33.3986 25.2312 34.6838 22 34.6875ZM22 12.1875C19.9604 12.1875 17.9666 12.7923 16.2707 13.9255C14.5748 15.0586 13.253 16.6692 12.4725 18.5536C11.692 20.4379 11.4877 22.5114 11.8857 24.5119C12.2836 26.5123 13.2657 28.3498 14.708 29.792C16.1502 31.2343 17.9877 32.2164 19.9881 32.6144C21.9886 33.0123 24.0621 32.808 25.9464 32.0275C27.8308 31.247 29.4414 29.9252 30.5745 28.2293C31.7077 26.5334 32.3125 24.5396 32.3125 22.5C32.3093 19.766 31.2218 17.1448 29.2885 15.2115C27.3552 13.2783 24.7341 12.1907 22 12.1875Z" fill="#8FA4C0"/>
<path d="M22.9375 27.1875H19.1875C18.9389 27.1875 18.7004 27.0887 18.5246 26.9129C18.3488 26.7371 18.25 26.4986 18.25 26.25C18.25 26.0014 18.3488 25.7629 18.5246 25.5871C18.7004 25.4113 18.9389 25.3125 19.1875 25.3125H22.9375C23.1861 25.3125 23.4246 25.2137 23.6004 25.0379C23.7762 24.8621 23.875 24.6236 23.875 24.375C23.875 24.1264 23.7762 23.8879 23.6004 23.7121C23.4246 23.5363 23.1861 23.4375 22.9375 23.4375H21.0625C20.3166 23.4375 19.6012 23.1412 19.0738 22.6137C18.5463 22.0863 18.25 21.3709 18.25 20.625C18.25 19.8791 18.5463 19.1637 19.0738 18.6363C19.6012 18.1088 20.3166 17.8125 21.0625 17.8125H24.8125C25.0611 17.8125 25.2996 17.9113 25.4754 18.0871C25.6512 18.2629 25.75 18.5014 25.75 18.75C25.75 18.9986 25.6512 19.2371 25.4754 19.4129C25.2996 19.5887 25.0611 19.6875 24.8125 19.6875H21.0625C20.8139 19.6875 20.5754 19.7863 20.3996 19.9621C20.2238 20.1379 20.125 20.3764 20.125 20.625C20.125 20.8736 20.2238 21.1121 20.3996 21.2879C20.5754 21.4637 20.8139 21.5625 21.0625 21.5625H22.9375C23.6834 21.5625 24.3988 21.8588 24.9262 22.3863C25.4537 22.9137 25.75 23.6291 25.75 24.375C25.75 25.1209 25.4537 25.8363 24.9262 26.3637C24.3988 26.8912 23.6834 27.1875 22.9375 27.1875Z" fill="#8FA4C0"/>
<path d="M22 19.6875C21.7514 19.6875 21.5129 19.5887 21.3371 19.4129C21.1613 19.2371 21.0625 18.9986 21.0625 18.75V16.875C21.0625 16.6264 21.1613 16.3879 21.3371 16.2121C21.5129 16.0363 21.7514 15.9375 22 15.9375C22.2486 15.9375 22.4871 16.0363 22.6629 16.2121C22.8387 16.3879 22.9375 16.6264 22.9375 16.875V18.75C22.9375 18.9986 22.8387 19.2371 22.6629 19.4129C22.4871 19.5887 22.2486 19.6875 22 19.6875Z" fill="#8FA4C0"/>
<path d="M22 29.0625C21.7514 29.0625 21.5129 28.9637 21.3371 28.7879C21.1613 28.6121 21.0625 28.3736 21.0625 28.125V26.25C21.0625 26.0014 21.1613 25.7629 21.3371 25.5871C21.5129 25.4113 21.7514 25.3125 22 25.3125C22.2486 25.3125 22.4871 25.4113 22.6629 25.5871C22.8387 25.7629 22.9375 26.0014 22.9375 26.25V28.125C22.9375 28.3736 22.8387 28.6121 22.6629 28.7879C22.4871 28.9637 22.2486 29.0625 22 29.0625Z" fill="#8FA4C0"/>
<path d="M21.9997 44.0624C21.7676 44.0623 21.5438 43.9761 21.3715 43.8205L17.2765 40.1249L11.8812 41.2818C11.654 41.3306 11.4167 41.2933 11.2154 41.1771C11.0141 41.0608 10.8631 40.874 10.7918 40.6527L9.10435 35.4027L3.85435 33.7152C3.6331 33.6439 3.44622 33.493 3.32998 33.2917C3.21374 33.0904 3.17643 32.8531 3.22529 32.6258L4.37466 27.223L0.679036 23.128C0.523562 22.9558 0.4375 22.732 0.4375 22.4999C0.4375 22.2679 0.523562 22.044 0.679036 21.8718L4.37466 17.7768L3.21779 12.3815C3.16893 12.1542 3.20624 11.9169 3.32248 11.7156C3.43872 11.5143 3.6256 11.3634 3.84685 11.2921L9.09685 9.60459L10.7843 4.35459C10.8556 4.13334 11.0066 3.94647 11.2079 3.83023C11.4092 3.71399 11.6465 3.67667 11.8737 3.72553L17.2765 4.87491L21.3715 1.17928C21.5438 1.02381 21.7676 0.937744 21.9997 0.937744C22.2317 0.937744 22.4555 1.02381 22.6278 1.17928L26.7228 4.87491L32.1181 3.71803C32.3454 3.66917 32.5827 3.70649 32.784 3.82273C32.9853 3.93897 33.1362 4.12584 33.2075 4.34709L34.895 9.59709L40.145 11.2846C40.3662 11.3559 40.5531 11.5068 40.6693 11.7081C40.7856 11.9094 40.8229 12.1467 40.774 12.374L39.6247 17.7768L43.3222 21.8718C43.4776 22.044 43.5637 22.2679 43.5637 22.4999C43.5637 22.732 43.4776 22.9558 43.3222 23.128L39.6247 27.223L40.7815 32.6183C40.8304 32.8456 40.7931 33.0829 40.6768 33.2842C40.5606 33.4855 40.3737 33.6364 40.1525 33.7077L34.9025 35.3952L33.215 40.6452C33.1437 40.8665 32.9928 41.0533 32.7915 41.1696C32.5902 41.2858 32.3529 41.3231 32.1256 41.2743L26.7228 40.1249L22.6278 43.8205C22.4556 43.9761 22.2318 44.0623 21.9997 44.0624ZM17.5484 38.1683C17.7805 38.1684 18.0043 38.2546 18.1765 38.4102L21.9997 41.8612L25.8228 38.4102C25.9326 38.31 26.0648 38.2377 26.2084 38.1992C26.3519 38.1607 26.5026 38.1572 26.6478 38.189L31.6822 39.269L33.26 34.3658C33.3056 34.2243 33.3842 34.0957 33.4894 33.9905C33.5945 33.8854 33.7231 33.8068 33.8647 33.7612L38.7687 32.1824L37.6887 27.148C37.6576 27.0028 37.6615 26.8523 37.6999 26.7089C37.7384 26.5654 37.8104 26.4332 37.91 26.323L41.3609 22.4999L37.91 18.6768C37.8104 18.5666 37.7384 18.4344 37.6999 18.2909C37.6615 18.1475 37.6576 17.997 37.6887 17.8518L38.7687 12.8174L33.8656 11.2396C33.7241 11.194 33.5954 11.1154 33.4903 11.0102C33.3851 10.9051 33.3065 10.7764 33.2609 10.6349L31.6822 5.73084L26.6478 6.81084C26.5026 6.84304 26.3518 6.83974 26.2082 6.80122C26.0646 6.76271 25.9324 6.69011 25.8228 6.58959L21.9997 3.13866L18.1765 6.58959C18.0667 6.68977 17.9345 6.76215 17.791 6.80065C17.6474 6.83915 17.4967 6.84264 17.3515 6.81084L12.3172 5.73084L10.7393 10.634C10.6937 10.7755 10.6151 10.9041 10.51 11.0093C10.4048 11.1144 10.2762 11.193 10.1347 11.2387L5.2306 12.8174L6.3106 17.8518C6.3417 17.997 6.33785 18.1475 6.29939 18.2909C6.26092 18.4344 6.18893 18.5666 6.08935 18.6768L2.63841 22.4999L6.08935 26.323C6.18893 26.4332 6.26092 26.5654 6.29939 26.7089C6.33785 26.8523 6.3417 27.0028 6.3106 27.148L5.2306 32.1824L10.1337 33.7602C10.2752 33.8058 10.4039 33.8845 10.509 33.9896C10.6142 34.0947 10.6928 34.2234 10.7384 34.3649L12.3172 39.269L17.3515 38.189C17.4163 38.1752 17.4822 38.1683 17.5484 38.1683Z" fill="#8FA4C0"/>
<path d="M21.9997 44.0624C21.7676 44.0623 21.5438 43.9761 21.3715 43.8205L17.2765 40.1249L11.8812 41.2818C11.654 41.3306 11.4167 41.2933 11.2154 41.1771C11.0141 41.0608 10.8631 40.874 10.7918 40.6527L9.10435 35.4027L3.85435 33.7152C3.6331 33.6439 3.44622 33.493 3.32998 33.2917C3.21374 33.0904 3.17643 32.8531 3.22529 32.6258L4.37466 27.223L0.679036 23.128C0.523562 22.9558 0.4375 22.732 0.4375 22.4999C0.4375 22.2679 0.523562 22.044 0.679036 21.8718L4.37466 17.7768L3.21779 12.3815C3.16893 12.1542 3.20624 11.9169 3.32248 11.7156C3.43872 11.5143 3.6256 11.3634 3.84685 11.2921L9.09685 9.60459L10.7843 4.35459C10.8556 4.13334 11.0066 3.94647 11.2079 3.83023C11.4092 3.71399 11.6465 3.67667 11.8737 3.72553L17.2765 4.87491L21.3715 1.17928C21.5438 1.02381 21.7676 0.937744 21.9997 0.937744C22.2317 0.937744 22.4555 1.02381 22.6278 1.17928L26.7228 4.87491L32.1181 3.71803C32.3454 3.66917 32.5827 3.70649 32.784 3.82273C32.9853 3.93897 33.1362 4.12584 33.2075 4.34709L34.895 9.59709L40.145 11.2846C40.3662 11.3559 40.5531 11.5068 40.6693 11.7081C40.7856 11.9094 40.8229 12.1467 40.774 12.374L39.6247 17.7768L43.3222 21.8718C43.4776 22.044 43.5637 22.2679 43.5637 22.4999C43.5637 22.732 43.4776 22.9558 43.3222 23.128L39.6247 27.223L40.7815 32.6183C40.8304 32.8456 40.7931 33.0829 40.6768 33.2842C40.5606 33.4855 40.3737 33.6364 40.1525 33.7077L34.9025 35.3952L33.215 40.6452C33.1437 40.8665 32.9928 41.0533 32.7915 41.1696C32.5902 41.2858 32.3529 41.3231 32.1256 41.2743L26.7228 40.1249L22.6278 43.8205C22.4556 43.9761 22.2318 44.0623 21.9997 44.0624ZM17.5484 38.1683C17.7805 38.1684 18.0043 38.2546 18.1765 38.4102L21.9997 41.8612L25.8228 38.4102C25.9326 38.31 26.0648 38.2377 26.2084 38.1992C26.3519 38.1607 26.5026 38.1572 26.6478 38.189L31.6822 39.269L33.26 34.3658C33.3056 34.2243 33.3842 34.0957 33.4894 33.9905C33.5945 33.8854 33.7231 33.8068 33.8647 33.7612L38.7687 32.1824L37.6887 27.148C37.6576 27.0028 37.6615 26.8523 37.6999 26.7089C37.7384 26.5654 37.8104 26.4332 37.91 26.323L41.3609 22.4999L37.91 18.6768C37.8104 18.5666 37.7384 18.4344 37.6999 18.2909C37.6615 18.1475 37.6576 17.997 37.6887 17.8518L38.7687 12.8174L33.8656 11.2396C33.7241 11.194 33.5954 11.1154 33.4903 11.0102C33.3851 10.9051 33.3065 10.7764 33.2609 10.6349L31.6822 5.73084L26.6478 6.81084C26.5026 6.84304 26.3518 6.83974 26.2082 6.80122C26.0646 6.76271 25.9324 6.69011 25.8228 6.58959L21.9997 3.13866L18.1765 6.58959C18.0667 6.68977 17.9345 6.76215 17.791 6.80065C17.6474 6.83915 17.4967 6.84264 17.3515 6.81084L12.3172 5.73084L10.7393 10.634C10.6937 10.7755 10.6151 10.9041 10.51 11.0093C10.4048 11.1144 10.2762 11.193 10.1347 11.2387L5.2306 12.8174L6.3106 17.8518C6.3417 17.997 6.33785 18.1475 6.29939 18.2909C6.26092 18.4344 6.18893 18.5666 6.08935 18.6768L2.63841 22.4999L6.08935 26.323C6.18893 26.4332 6.26092 26.5654 6.29939 26.7089C6.33785 26.8523 6.3417 27.0028 6.3106 27.148L5.2306 32.1824L10.1337 33.7602C10.2752 33.8058 10.4039 33.8845 10.509 33.9896C10.6142 34.0947 10.6928 34.2234 10.7384 34.3649L12.3172 39.269L17.3515 38.189C17.4163 38.1752 17.4822 38.1683 17.5484 38.1683Z" fill="#8FA4C0"/>
</svg>
