<svg width="80" height="81" viewBox="0 0 80 81" fill="none" xmlns="http://www.w3.org/2000/svg">
<path d="M74.6312 39.2874L65.7875 30.4437C65.5533 30.2109 65.2364 30.0802 64.9062 30.0802C64.576 30.0802 64.2592 30.2109 64.025 30.4437L44.575 49.8937C44.427 50.0446 44.3176 50.229 44.2562 50.4312L40.725 62.8062C40.6594 63.0238 40.6545 63.2552 40.7106 63.4755C40.7668 63.6957 40.882 63.8965 41.0437 64.0562C41.2771 64.2909 41.594 64.4235 41.925 64.4249C42.0413 64.4237 42.1569 64.4068 42.2687 64.3749L54.6437 60.8437C54.847 60.7847 55.0319 60.675 55.1812 60.5249L74.6312 41.0749C74.864 40.8407 74.9947 40.5239 74.9947 40.1937C74.9947 39.8635 74.864 39.5466 74.6312 39.3124V39.2874ZM43.75 61.3249L46.0875 53.1562L51.9187 58.9874L43.75 61.3249ZM54.3062 57.8437L47.225 50.7749L64.9062 33.0999L71.975 40.1687L54.3062 57.8437Z" fill="#8FA4C0"/>
<path d="M45.3686 35.1062L32.7498 47.725L24.6248 39.6C24.3867 39.3849 24.0749 39.2697 23.7541 39.2782C23.4334 39.2866 23.1282 39.4181 22.9017 39.6454C22.6752 39.8727 22.5448 40.1784 22.5374 40.4992C22.5301 40.82 22.6464 41.1313 22.8623 41.3687L31.8748 50.375C32.109 50.6078 32.4258 50.7385 32.7561 50.7385C33.0863 50.7385 33.4031 50.6078 33.6373 50.375L47.1373 36.875C47.3532 36.6376 47.4695 36.3263 47.4622 36.0055C47.4549 35.6847 47.3245 35.379 47.098 35.1517C46.8715 34.9244 46.5662 34.7929 46.2455 34.7844C45.9247 34.776 45.613 34.8912 45.3748 35.1062H45.3686Z" fill="#8FA4C0"/>
<path d="M56.25 63.2C55.9185 63.2 55.6005 63.3316 55.3661 63.5661C55.1317 63.8005 55 64.1184 55 64.45V68.2H15V15.7H43.2312L55 27.4687V33.2C55 33.5315 55.1317 33.8494 55.3661 34.0838C55.6005 34.3183 55.9185 34.45 56.25 34.45C56.5815 34.45 56.8995 34.3183 57.1339 34.0838C57.3683 33.8494 57.5 33.5315 57.5 33.2V26.95C57.4986 26.619 57.366 26.302 57.1313 26.0687L44.6313 13.5687C44.3979 13.334 44.081 13.2013 43.75 13.2H13.75C13.4185 13.2 13.1005 13.3316 12.8661 13.5661C12.6317 13.8005 12.5 14.1184 12.5 14.45V69.45C12.5 69.7815 12.6317 70.0994 12.8661 70.3338C13.1005 70.5683 13.4185 70.7 13.75 70.7H56.25C56.5815 70.7 56.8995 70.5683 57.1339 70.3338C57.3683 70.0994 57.5 69.7815 57.5 69.45V64.45C57.5 64.1184 57.3683 63.8005 57.1339 63.5661C56.8995 63.3316 56.5815 63.2 56.25 63.2Z" fill="#8FA4C0"/>
</svg>
