<svg width="80" height="81" viewBox="0 0 80 81" fill="none" xmlns="http://www.w3.org/2000/svg">
<g clip-path="url(#clip0_367_845)">
<path d="M79.8534 19.5669C79.5781 18.5428 78.9063 17.6698 77.9872 17.1405C77.0674 16.6086 75.9739 16.4647 74.948 16.7401C73.9234 17.0161 73.0505 17.6873 72.5213 18.6066L71.8548 19.7668C71.2214 19.4028 70.4123 19.617 70.0419 20.2472L66.6558 26.02L65.4958 25.3533C65.1886 25.1756 64.8228 25.1274 64.4804 25.2199C64.1373 25.313 63.8457 25.5382 63.6693 25.8468C63.308 26.4842 63.5281 27.2941 64.1627 27.66L65.3227 28.3267L53.9913 47.9666L51.1916 55.4471L49.8585 57.9399C49.078 59.298 49.1614 60.9862 50.072 62.2602L47.0725 65.9399L46.2328 63.8338C45.854 62.895 44.9772 62.2518 43.9689 62.173C42.9599 62.0936 41.9933 62.5923 41.4732 63.4601L40.9935 64.2733L40.5404 58.9399C40.4363 57.6782 39.4592 56.6639 38.2029 56.5116C36.946 56.3599 35.7561 57.1131 35.3545 58.3136L32.0751 68.1535C31.846 68.8494 32.2209 69.5994 32.9148 69.8338C33.045 69.8944 33.1849 69.9308 33.3281 69.9399C33.9009 69.9419 34.4113 69.5767 34.5948 69.0337L37.8606 59.1938L38.3273 64.6066C38.4236 65.7615 39.2535 66.7218 40.3823 66.9836C41.511 67.2453 42.6787 66.7479 43.273 65.7537L43.7665 64.9399L44.5931 67.0337C44.944 67.9158 45.7375 68.5454 46.6768 68.6854C47.6161 68.8253 48.5586 68.4549 49.1523 67.7134L52.2585 63.7804C52.6022 63.8703 52.9563 63.9152 53.3117 63.9139C54.7405 63.925 56.0671 63.1724 56.7909 61.9399L58.124 59.7134L63.2032 53.5402L74.6544 33.66L75.8144 34.3267C76.1236 34.5037 76.3488 34.7961 76.4406 35.1405C76.533 35.4823 76.4848 35.8468 76.3078 36.1535L70.9754 45.3937C70.7742 45.6971 70.7059 46.0695 70.7866 46.425C70.8673 46.7798 71.0893 47.0864 71.4017 47.2733C71.709 47.4517 72.0748 47.4998 72.4172 47.4074C72.7602 47.3143 73.0518 47.089 73.2282 46.7804L78.5607 37.5402C79.0925 36.6203 79.2363 35.5265 78.9603 34.5005C78.6843 33.4757 78.0132 32.6027 77.0941 32.0734L75.9341 31.4067L79.2669 25.6333C79.6308 24.9998 79.4166 24.1912 78.7872 23.8201L79.4537 22.66C79.9999 21.7257 80.1444 20.6099 79.8534 19.5669ZM74.8276 19.9399C75.004 19.6313 75.2969 19.4054 75.6412 19.3136C75.9836 19.229 76.3455 19.2765 76.6541 19.4471C76.9633 19.6235 77.1885 19.9165 77.2809 20.2602C77.3655 20.6027 77.318 20.9647 77.1475 21.2733L76.4809 22.4334L74.161 21.1001L74.8276 19.9399ZM56.6575 57.1671L55.9909 56.7804L54.018 55.6333L55.9109 50.5669L60.11 52.9933L56.6575 57.1671ZM52.6582 61.02C52.0951 60.6274 51.922 59.8722 52.2585 59.2733L52.925 58.1138L55.2443 59.4471L54.5778 60.5936C54.3909 60.9178 54.0772 61.1483 53.712 61.2296C53.3469 61.3104 52.9648 61.2349 52.6582 61.02ZM61.6299 50.8071L57.0175 48.1405L67.6823 29.66L72.2948 32.3267L61.6299 50.8071ZM73.6279 30.02L69.0154 27.3533L71.6816 22.7401L76.2941 25.4067L73.6279 30.02Z" fill="#8FA4C0"/>
<path d="M21.0361 60.3533L16.3175 65.0603L13.4911 62.2335C12.9711 61.7166 12.1314 61.7166 11.6113 62.2335C11.3587 62.4842 11.2168 62.8247 11.2168 63.1801C11.2168 63.5356 11.3587 63.8767 11.6113 64.1267L14.4376 66.9536C14.9375 67.4497 15.6132 67.7277 16.3175 67.727C17.0257 67.7309 17.7072 67.4529 18.2104 66.9536L22.916 62.2335C23.369 61.7042 23.3384 60.9158 22.8463 60.4236C22.3536 59.9308 21.5653 59.9002 21.0361 60.3533Z" fill="#8FA4C0"/>
<path d="M5.33203 63.9399C5.33203 70.1997 10.4054 75.2732 16.6634 75.2732C22.9215 75.2732 27.9948 70.1997 27.9948 63.9399C27.9948 63.2036 27.3979 62.6066 26.6617 62.6066C25.9255 62.6066 25.3286 63.2036 25.3286 63.9399C25.3286 68.7264 21.4491 72.6066 16.6634 72.6066C11.8778 72.6066 7.99824 68.7264 7.99824 63.9399C7.99824 59.1534 11.8778 55.2732 16.6634 55.2732C18.5394 55.268 20.3653 55.8768 21.8624 57.007C22.4515 57.449 23.2873 57.3292 23.7286 56.74C24.1706 56.1508 24.0515 55.3156 23.4624 54.8735C20.0287 52.298 15.4345 51.8839 11.5959 53.8032C7.75675 55.7231 5.33203 59.6476 5.33203 63.9399Z" fill="#8FA4C0"/>
<path d="M47.9919 11.2734C48.7281 11.2734 49.325 10.677 49.325 9.94002C49.325 9.20369 48.7281 8.60669 47.9919 8.60669H13.3312C12.595 8.60669 11.998 9.20369 11.998 9.94002V15.2734C11.998 16.0103 12.595 16.6067 13.3312 16.6067H47.9919C48.7281 16.6067 49.325 16.0103 49.325 15.2734C49.325 14.537 48.7281 13.94 47.9919 13.94H14.6643V11.2734H47.9919Z" fill="#8FA4C0"/>
<path d="M17.3302 19.2732C16.594 19.2732 15.9971 19.8702 15.9971 20.6065C15.9971 21.3435 16.594 21.9399 17.3302 21.9399H43.9923C44.7285 21.9399 45.3254 21.3435 45.3254 20.6065C45.3254 19.8702 44.7285 19.2732 43.9923 19.2732H17.3302Z" fill="#8FA4C0"/>
<path d="M51.9915 28.6067H22.6632C21.927 28.6067 21.3301 29.2037 21.3301 29.94C21.3301 30.677 21.927 31.2734 22.6632 31.2734H51.9915C52.7277 31.2734 53.3246 30.677 53.3246 29.94C53.3246 29.2037 52.7277 28.6067 51.9915 28.6067Z" fill="#8FA4C0"/>
<path d="M38.6604 37.94C38.6604 37.2037 38.0635 36.6067 37.3273 36.6067H10.6651C9.92893 36.6067 9.33203 37.2037 9.33203 37.94C9.33203 38.677 9.92893 39.2734 10.6651 39.2734H37.3273C38.0635 39.2734 38.6604 38.677 38.6604 37.94Z" fill="#8FA4C0"/>
<path d="M51.991 36.6067H42.6593C41.9231 36.6067 41.3262 37.2037 41.3262 37.94C41.3262 38.677 41.9231 39.2734 42.6593 39.2734H51.991C52.7272 39.2734 53.3241 38.677 53.3241 37.94C53.3241 37.2037 52.7272 36.6067 51.991 36.6067Z" fill="#8FA4C0"/>
<path d="M23.9962 45.9399C24.7324 45.9399 25.3293 45.3435 25.3293 44.6065C25.3293 43.8702 24.7324 43.2732 23.9962 43.2732H10.6651C9.92893 43.2732 9.33203 43.8702 9.33203 44.6065C9.33203 45.3435 9.92893 45.9399 10.6651 45.9399H23.9962Z" fill="#8FA4C0"/>
<path d="M29.3282 45.9399H38.66C39.3962 45.9399 39.9931 45.3435 39.9931 44.6065C39.9931 43.8702 39.3962 43.2732 38.66 43.2732H29.3282C28.592 43.2732 27.9951 43.8702 27.9951 44.6065C27.9951 45.3435 28.592 45.9399 29.3282 45.9399Z" fill="#8FA4C0"/>
<path d="M59.9898 61.94C59.2536 61.94 58.6567 62.537 58.6567 63.2734V76.6067C58.6567 77.3437 58.0598 77.94 57.3236 77.94H3.99932C3.26312 77.94 2.66621 77.3437 2.66621 76.6067V4.60669C2.66621 3.87036 3.26312 3.27336 3.99932 3.27336H57.3236C58.0598 3.27336 58.6567 3.87036 58.6567 4.60669V29.6471C58.6567 30.3834 59.2536 30.9804 59.9898 30.9804C60.726 30.9804 61.3229 30.3834 61.3229 29.6471V4.60669C61.3229 2.39771 59.5322 0.606689 57.3236 0.606689H3.99932C1.79071 0.606689 0 2.39771 0 4.60669V76.6067C0 78.8163 1.79071 80.6067 3.99932 80.6067H57.3236C59.5322 80.6067 61.3229 78.8163 61.3229 76.6067V63.2734C61.3229 62.537 60.726 61.94 59.9898 61.94Z" fill="#8FA4C0"/>
</g>
<defs>
<clipPath id="clip0_367_845">
<rect width="80" height="80" fill="white" transform="translate(0 0.600098)"/>
</clipPath>
</defs>
</svg>
