<svg width="100" height="100" viewBox="0 0 100 100" fill="none" xmlns="http://www.w3.org/2000/svg">
<path d="M81.6133 99.9992H18.3867C8.24869 99.9992 0 91.7513 0 81.6125V18.3867C0 8.24787 8.24869 0 18.3867 0H81.6133C91.7513 0 100 8.24787 100 18.3867V81.6133C100 91.7513 91.7513 99.9992 81.6133 99.9992ZM18.3867 4.08594C10.5017 4.08594 4.08594 10.5017 4.08594 18.3867V81.6133C4.08594 89.4983 10.5017 95.9141 18.3867 95.9141H81.6133C89.4983 95.9141 95.9141 89.4983 95.9141 81.6133V18.3867C95.9141 10.5017 89.4983 4.08594 81.6133 4.08594H18.3867Z" fill="#17A52E"/>
<path d="M77.2484 21.9584L42.1894 78.7169C41.4825 79.8618 39.8376 79.9166 39.0555 78.8223L21.2335 53.8761C20.592 52.978 21.6306 51.8413 22.5827 52.3994L39.4608 62.2972L75.6067 20.7489C76.432 19.8026 77.9087 20.8895 77.2484 21.9584Z" fill="#17A52E"/>
</svg>
