<svg width="80" height="81" viewBox="0 0 80 81" fill="none" xmlns="http://www.w3.org/2000/svg">
<g clip-path="url(#clip0_367_871)">
<path d="M74.2067 61.2084L66.8191 52.6857C66.7245 52.5766 66.6131 52.4832 66.4892 52.4088L52.6697 44.1119L50.8939 38.7848C50.7439 38.3348 50.3716 37.9944 49.9097 37.8855C49.4486 37.7773 48.963 37.9146 48.6275 38.2498L44.756 42.1213L19.9627 17.3279L15.1456 8.71257C15.0116 8.47304 14.8088 8.27913 14.5631 8.15632L6.82048 4.28491C6.29345 4.02163 5.65689 4.12444 5.24048 4.54116L0.401106 9.38054C-0.0156131 9.79726 -0.118894 10.4337 0.144387 10.9607L4.01579 18.7034C4.13876 18.949 4.33251 19.1519 4.5722 19.286L13.1874 24.103L37.9811 48.8966L34.1099 52.7679C33.7744 53.1034 33.6363 53.5887 33.7456 54.0502C33.8545 54.5119 34.1947 54.8843 34.6449 55.0343L39.9738 56.8105L48.4413 70.8332C48.5158 70.9566 48.6094 71.0676 48.7186 71.1618L57.0772 78.3748C58.6813 79.7588 60.7203 80.4429 62.7594 80.4427C65.0224 80.4426 67.2844 79.5999 68.9472 77.9369L73.7967 73.0874C76.9591 69.9252 77.1431 64.5962 74.2067 61.2084ZM14.9889 22.033C14.9 21.944 14.7991 21.8677 14.6892 21.8063L6.27626 17.1024L3.03439 10.6188L6.47861 7.17476L12.9617 10.4163L17.6658 18.8294C17.7274 18.9394 17.8034 19.0402 17.8927 19.1294L42.8203 44.0573L39.9167 46.961L14.9889 22.033ZM71.8613 71.1521L67.0117 76.0016C64.842 78.1715 61.1878 78.3062 58.8656 76.3026L50.6719 69.2319L42.0564 54.964C41.8883 54.6854 41.6264 54.4759 41.3175 54.373L37.6116 53.1377L41.4067 49.3424L45.7239 45.0252C45.7242 45.0249 45.7244 45.0244 45.7247 45.0243L48.997 41.7518L50.2325 45.458C50.3358 45.7679 50.5466 46.0305 50.8266 46.1985L64.8931 54.6438L72.1383 63.0015C74.1541 65.3269 74.0297 68.9835 71.8613 71.1521Z" fill="#8FA4C0"/>
<path d="M79.5988 35.9135L74.7595 31.0744C74.2248 30.54 73.3579 30.54 72.824 31.0744L71.8562 32.0422L67.0168 27.203L67.9846 26.235C68.5193 25.7005 68.5193 24.8339 67.9846 24.2994L55.4026 11.7174C55.1196 11.4344 48.4244 4.7622 44.4004 2.75048C40.2743 0.68689 36.1035 0.754702 35.9271 0.758296C35.379 0.770483 34.8912 1.1083 34.6874 1.61689C34.4832 2.12564 34.6023 2.70689 34.9899 3.09455C35.0463 3.15111 40.6754 8.79923 42.5812 12.3627C44.4104 15.782 44.3563 21.3203 44.3552 21.3752C44.3499 21.7452 44.4946 22.1016 44.7563 22.3635L45.7243 23.3314L37.8841 31.1714C37.3494 31.706 37.3494 32.5725 37.8841 33.1072C38.4188 33.6416 39.2857 33.6416 39.8196 33.1072L47.6599 25.267L51.5313 29.1385L43.6915 36.9786C43.1568 37.5133 43.1568 38.3797 43.6915 38.9144C43.9585 39.1816 44.309 39.3152 44.6593 39.3152C45.0094 39.3152 45.3601 39.1816 45.6271 38.9144L53.4674 31.0741L57.3388 34.9455C57.8735 35.4799 58.7396 35.4799 59.2743 34.9455L60.2424 33.9777L65.0818 38.8169L64.114 39.7849C63.5793 40.3194 63.5793 41.1858 64.114 41.7205L68.953 46.5597C69.2098 46.8164 69.5579 46.9605 69.9209 46.9605C70.2838 46.9605 70.6319 46.8163 70.8887 46.5597L79.5995 37.8489C79.8562 37.592 80.0004 37.2441 80.0004 36.881C80.0004 36.5178 79.8555 36.17 79.5988 35.9135ZM69.9204 43.6564L67.0168 40.7528L67.9846 39.7849C68.5193 39.2503 68.5193 38.3838 67.9846 37.8492L61.2098 31.0744C60.6751 30.54 59.809 30.54 59.2743 31.0744L58.3062 32.0422L47.0888 20.8247C47.0541 19.1686 46.7934 14.4338 44.9952 11.0719C43.7979 8.83298 41.4126 5.99455 39.5429 3.92798C40.6593 4.17876 41.9276 4.57455 43.176 5.19876C46.804 7.01251 53.4009 13.5869 53.4671 13.653L65.0815 25.2672L64.1137 26.2352C63.579 26.7697 63.579 27.6363 64.1137 28.1708L70.8885 34.9456C71.4226 35.48 72.2901 35.48 72.824 34.9456L73.7918 33.9778L76.6954 36.8813L69.9204 43.6564Z" fill="#8FA4C0"/>
<path d="M33.4228 49.1828C32.8888 48.6484 32.0212 48.6484 31.4873 49.1828L9.91422 70.7561C8.84625 71.8237 7.10953 71.8236 6.04219 70.7562C5.52625 70.2403 5.24188 69.5531 5.24156 68.8214C5.24125 68.0894 5.52531 67.4022 6.04125 66.8861L27.5013 45.4259C28.0359 44.8912 28.0359 44.0245 27.5013 43.4901C26.9666 42.9558 26.0997 42.9558 25.5658 43.4901L4.10563 64.9503C3.07203 65.9839 2.50297 67.3592 2.50391 68.823C2.50453 70.2853 3.07359 71.6594 4.10656 72.6922C5.17391 73.7595 6.57578 74.2931 7.97797 74.2929C9.38016 74.2929 10.7823 73.759 11.8497 72.6919L33.423 51.1186C33.9575 50.5839 33.9575 49.7173 33.4228 49.1828Z" fill="#8FA4C0"/>
</g>
<defs>
<clipPath id="clip0_367_871">
<rect width="80" height="80" fill="white" transform="translate(0 0.600098)"/>
</clipPath>
</defs>
</svg>
