<svg width="81" height="80" viewBox="0 0 81 80" fill="none" xmlns="http://www.w3.org/2000/svg">
<path d="M8.1665 60H44.4165C47.2943 64.9921 51.3389 69.2125 56.204 72.3C56.4054 72.4292 56.6397 72.4979 56.879 72.4979C57.1183 72.4979 57.3526 72.4292 57.554 72.3C62.0208 69.4743 65.8059 65.694 68.6373 61.2308C71.4686 56.7676 73.2759 51.7325 73.929 46.4875L74.4165 42.65C74.4464 42.4005 74.4003 42.1477 74.2844 41.9247C74.1684 41.7017 73.988 41.5189 73.7665 41.4L64.4165 36.375V8.75C64.4165 8.41848 64.2848 8.10054 64.0504 7.86612C63.816 7.6317 63.498 7.5 63.1665 7.5H8.1665C7.83498 7.5 7.51704 7.6317 7.28262 7.86612C7.0482 8.10054 6.9165 8.41848 6.9165 8.75V58.75C6.9165 59.0815 7.0482 59.3995 7.28262 59.6339C7.51704 59.8683 7.83498 60 8.1665 60ZM71.454 46.175C70.8646 50.9193 69.2613 55.4813 66.7529 59.5512C64.2445 63.6212 60.8898 67.1037 56.9165 69.7625C52.9427 67.1055 49.5883 63.6231 47.0817 59.5527C44.5752 55.4823 42.9755 50.9195 42.3915 46.175L42.0165 43.2L56.9165 35.175L71.8165 43.2L71.454 46.175ZM30.6665 10H40.6665V31.25L36.4165 28.0625C36.2001 27.9002 35.937 27.8125 35.6665 27.8125C35.396 27.8125 35.1329 27.9002 34.9165 28.0625L30.6665 31.25V10ZM9.4165 10H28.1665V33.75C28.1672 33.9808 28.2318 34.207 28.3532 34.4033C28.4745 34.5997 28.6479 34.7586 28.854 34.8625C29.0616 34.9678 29.2944 35.0131 29.5263 34.9932C29.7582 34.9733 29.9799 34.8891 30.1665 34.75L35.6665 30.625L41.1665 34.75C41.3829 34.9123 41.646 35 41.9165 35C42.1127 35.0035 42.3065 34.9561 42.479 34.8625C42.6851 34.7586 42.8585 34.5997 42.9799 34.4033C43.1012 34.207 43.1658 33.9808 43.1665 33.75V10H61.9165V35L57.504 32.625C57.3232 32.5287 57.1214 32.4783 56.9165 32.4783C56.7116 32.4783 56.5099 32.5287 56.329 32.625L40.079 41.375C39.8576 41.4939 39.6771 41.6767 39.5611 41.8997C39.4452 42.1227 39.3991 42.3755 39.429 42.625L39.904 46.4625C40.3927 50.2928 41.4943 54.0195 43.1665 57.5H9.4165V10Z" fill="#8FA4C0"/>
<path d="M52.8417 53.75C52.621 53.5034 52.3115 53.3544 51.9811 53.3357C51.6508 53.317 51.3264 53.43 51.0792 53.65C50.9562 53.7603 50.8562 53.894 50.7851 54.0432C50.714 54.1924 50.6732 54.3542 50.6651 54.5193C50.657 54.6843 50.6816 54.8494 50.7377 55.0048C50.7938 55.1603 50.8801 55.3031 50.9917 55.425L54.7417 59.5875C54.8586 59.717 55.0013 59.8206 55.1606 59.8916C55.3199 59.9627 55.4923 59.9996 55.6667 60H55.8292C56.0305 59.9731 56.2222 59.8976 56.3877 59.78C56.5532 59.6624 56.6876 59.5062 56.7792 59.325L63.0292 46.825C63.1506 46.5336 63.1572 46.2072 63.0478 45.9111C62.9383 45.6151 62.721 45.3714 62.4393 45.229C62.1576 45.0866 61.8325 45.056 61.5292 45.1433C61.226 45.2307 60.967 45.4296 60.8042 45.7L55.3667 56.5625L52.8417 53.75Z" fill="#8FA4C0"/>
</svg>
