<svg width="81" height="81" viewBox="0 0 81 81" fill="none" xmlns="http://www.w3.org/2000/svg">
<path d="M71.5067 51.7079C68.0214 48.2226 62.8917 47.0109 58.2436 48.5178L48.3241 38.5982L60.0724 26.8499L67.5445 22.6722C67.7523 22.556 67.9203 22.3799 68.027 22.167L71.3846 15.4518C71.6131 14.9947 71.5237 14.4428 71.1623 14.0813L66.9651 9.88405C66.6037 9.52271 66.0514 9.43329 65.5946 9.66175L58.8794 13.0193C58.6665 13.1258 58.4904 13.294 58.3742 13.5018L54.1965 20.974L42.4482 32.7223L33.0142 23.2885C34.5208 18.6406 33.3094 13.5107 29.824 10.0253C26.1521 6.3537 20.6555 5.20499 15.8195 7.10032C15.4466 7.24634 15.1724 7.57077 15.0906 7.96288C15.0087 8.35485 15.13 8.76173 15.4131 9.04515L22.965 16.5967L17.9284 21.6333L10.3767 14.0813C10.0934 13.7983 9.68695 13.6776 9.29443 13.7588C8.90232 13.8407 8.57802 14.1148 8.43187 14.4877C6.53681 19.3231 7.68497 24.8203 11.3568 28.4925C14.8421 31.9777 19.9718 33.1893 24.6199 31.6825L34.0537 41.1164L32.6928 42.4773L29.3351 39.1196C29.0439 38.8288 28.6236 38.71 28.2229 38.8037C27.8226 38.8981 27.4995 39.1933 27.3694 39.5838L25.8289 44.2054L13.6674 51.5493C13.5603 51.6141 13.4641 51.6952 13.3823 51.7899L7.12648 59.0393C4.5939 61.9742 4.76425 66.5923 7.50615 69.3342L11.7119 73.5401C13.1502 74.9784 15.1047 75.7061 17.0625 75.7061C18.8385 75.7061 20.6174 75.107 22.0149 73.8956L29.4065 67.4882C29.5011 67.4062 29.5823 67.3097 29.6465 67.2024L36.8425 55.2166L41.4625 53.6766C41.8527 53.5465 42.1478 53.2235 42.2423 52.8231C42.3368 52.4226 42.2173 52.0018 41.9264 51.7109L38.5688 48.3533L39.9297 46.9924L49.8492 56.9118C48.3424 61.5597 49.554 66.6897 53.0394 70.175C55.5359 72.6715 58.8764 74.0014 62.2789 74.0014C63.8805 74.0013 65.4963 73.7065 67.0441 73.1C67.4169 72.954 67.6912 72.6295 67.7729 72.2374C67.8548 71.8455 67.7336 71.4386 67.4504 71.1552L59.8985 63.6034L64.9352 58.5671L72.4866 66.1186C72.7699 66.4017 73.1772 66.523 73.5689 66.4411C73.961 66.3592 74.2853 66.0851 74.4314 65.7121C76.3268 60.8771 75.1786 55.3799 71.5067 51.7079ZM25.768 29.4727C25.4344 29.1391 24.9351 29.0351 24.4954 29.2069C20.5387 30.7575 16.0403 29.8181 13.0359 26.8137C10.484 24.2617 9.42185 20.6323 10.1098 17.1721L17.0889 24.1514C17.5528 24.615 18.3043 24.6146 18.7678 24.1514L25.4832 17.436C25.9468 16.9722 25.9468 16.2208 25.4832 15.7571L18.504 8.778C21.9638 8.08975 25.5932 9.15206 28.1454 11.7042C31.1498 14.7086 32.0893 19.2066 30.5388 23.1637C30.3666 23.6031 30.471 24.1025 30.8046 24.4363L40.7694 34.401L35.7331 39.4373L25.768 29.4727ZM38.8896 52.0315L35.6753 53.1028C35.4066 53.1925 35.1789 53.3752 35.033 53.618L27.7084 65.8181L20.4597 72.1015C18.443 73.8502 15.2718 73.7423 13.3908 71.8611L9.18492 67.6552C7.30326 65.7735 7.18595 62.6042 8.92392 60.5904L15.0563 53.4841L27.4309 46.0119C27.6725 45.866 27.8542 45.6388 27.9434 45.3709L29.0148 42.1567L31.8537 44.9957L36.0507 49.1926L38.8896 52.0315ZM36.8902 46.6746L34.372 44.1563L55.9919 22.5366C56.0691 22.4593 56.1351 22.3718 56.1885 22.2764L60.2682 14.9796L65.8911 12.1682L68.8783 15.1553L66.0667 20.7784L58.77 24.8581C58.6746 24.9114 58.5871 24.9774 58.5098 25.0547L36.8902 46.6746ZM72.754 63.0281L65.7751 56.049C65.3116 55.5858 64.56 55.5855 64.0963 56.049L57.3808 62.7642C57.1581 62.9869 57.033 63.2888 57.033 63.6036C57.033 63.9185 57.1581 64.2204 57.3807 64.4431L64.3599 71.4223C60.9001 72.1093 57.2702 71.0479 54.7185 68.4961C51.7141 65.4917 50.7745 60.9935 52.3251 57.0366C52.4972 56.5972 52.3929 56.0978 52.0593 55.764L41.6088 45.3135L46.6451 40.2771L57.0956 50.7276C57.4295 51.0612 57.9293 51.1655 58.3682 50.9934C62.3254 49.4434 66.8234 50.3824 69.8277 53.3866C72.3799 55.9386 73.442 59.568 72.754 63.0281Z" fill="#8FA4C0"/>
</svg>
