<svg width="80" height="81" viewBox="0 0 80 81" fill="none" xmlns="http://www.w3.org/2000/svg">
<g clip-path="url(#clip0_367_1135)">
<path d="M53.3556 53.0572C61.8686 39.6989 60.7984 41.3655 61.0437 41.0172C64.1431 36.6457 65.7812 31.5005 65.7812 26.1377C65.7812 11.9158 54.2405 0.200195 40 0.200195C25.8059 0.200195 14.2188 11.8927 14.2188 26.1377C14.2188 31.4971 15.8913 36.7769 19.0922 41.2074L26.6441 53.0574C18.5698 54.2982 4.84375 57.9958 4.84375 66.1377C4.84375 69.1057 6.78094 73.3354 16.0097 76.6313C22.4538 78.9327 30.9736 80.2002 40 80.2002C56.8789 80.2002 75.1562 75.4389 75.1562 66.1377C75.1562 57.9944 61.4463 54.3007 53.3556 53.0572ZM23.0077 38.6291C22.9819 38.5888 22.955 38.5494 22.9269 38.5107C20.2633 34.8463 18.9062 30.5035 18.9062 26.1377C18.9062 14.4161 28.3447 4.8877 40 4.8877C51.6311 4.8877 61.0938 14.4204 61.0938 26.1377C61.0938 30.5105 59.7623 34.706 57.2428 38.2738C57.017 38.5716 58.195 36.7416 40 65.2922L23.0077 38.6291ZM40 75.5127C21.5634 75.5127 9.53125 70.0935 9.53125 66.1377C9.53125 63.4789 15.7137 59.1072 29.4137 57.4032L38.0234 70.913C38.4538 71.5883 39.1991 71.9971 39.9998 71.9971C40.8006 71.9971 41.5461 71.5882 41.9762 70.913L50.5858 57.4032C64.2861 59.1072 70.4688 63.4789 70.4688 66.1377C70.4688 70.0599 58.5448 75.5127 40 75.5127Z" fill="#8FA4C0"/>
<path d="M40 14.4189C33.5383 14.4189 28.2812 19.676 28.2812 26.1377C28.2812 32.5994 33.5383 37.8564 40 37.8564C46.4617 37.8564 51.7188 32.5994 51.7188 26.1377C51.7188 19.676 46.4617 14.4189 40 14.4189ZM40 33.1689C36.123 33.1689 32.9688 30.0147 32.9688 26.1377C32.9688 22.2607 36.123 19.1064 40 19.1064C43.877 19.1064 47.0312 22.2607 47.0312 26.1377C47.0312 30.0147 43.877 33.1689 40 33.1689Z" fill="#8FA4C0"/>
</g>
<defs>
<clipPath id="clip0_367_1135">
<rect width="80" height="80" fill="white" transform="translate(0 0.200195)"/>
</clipPath>
</defs>
</svg>
