<svg width="81" height="81" viewBox="0 0 81 81" fill="none" xmlns="http://www.w3.org/2000/svg">
<g clip-path="url(#clip0_367_924)">
<path d="M52.6627 36.1304H28.67C27.0315 36.1324 25.4607 36.7841 24.3021 37.9427C23.1435 39.1013 22.4918 40.6721 22.4899 42.3106V74.52C22.4918 76.1584 23.1436 77.7292 24.3022 78.8877C25.4608 80.0463 27.0315 80.698 28.67 80.6999H52.6627C54.3012 80.698 55.872 80.0463 57.0306 78.8877C58.1892 77.7291 58.8409 76.1583 58.8428 74.5198V42.3106C58.8409 40.6721 58.1892 39.1013 57.0306 37.9427C55.872 36.7841 54.3012 36.1324 52.6627 36.1304ZM56.3428 74.52C56.3417 75.4956 55.9536 76.431 55.2637 77.1209C54.5738 77.8108 53.6384 78.1988 52.6627 78.2H28.67C27.6943 78.1988 26.7589 77.8108 26.069 77.1208C25.379 76.4309 24.991 75.4955 24.9898 74.5198V42.3106C24.991 41.3349 25.379 40.3995 26.069 39.7095C26.7589 39.0196 27.6943 38.6315 28.67 38.6304H52.6627C53.6384 38.6315 54.5738 39.0196 55.2637 39.7095C55.9536 40.3995 56.3417 41.3349 56.3428 42.3106V74.52ZM51.7035 41.882H29.6292C28.9807 41.8827 28.3589 42.1407 27.9004 42.5992C27.4418 43.0578 27.1839 43.6795 27.1831 44.3281V50.1494C27.1839 50.798 27.4418 51.4197 27.9004 51.8783C28.3589 52.3368 28.9807 52.5948 29.6292 52.5955H51.7035C52.352 52.5948 52.9737 52.3368 53.4323 51.8783C53.8908 51.4197 54.1487 50.7979 54.1494 50.1494V44.3281C54.1487 43.6796 53.8908 43.0578 53.4323 42.5992C52.9737 42.1407 52.352 41.8827 51.7035 41.882ZM51.6494 50.0955H29.6831V44.382H51.6494V50.0955ZM33.9289 58.2539C33.9289 58.5855 33.7972 58.9034 33.5628 59.1378C33.3283 59.3722 33.0104 59.5039 32.6789 59.5039H28.5503C28.2188 59.5039 27.9008 59.3722 27.6664 59.1378C27.432 58.9034 27.3003 58.5855 27.3003 58.2539C27.3003 57.9224 27.432 57.6045 27.6664 57.3701C27.9008 57.1356 28.2188 57.0039 28.5503 57.0039H32.6789C33.0104 57.0039 33.3283 57.1356 33.5628 57.3701C33.7972 57.6045 33.9289 57.9224 33.9289 58.2539ZM54.0324 58.2539C54.0324 58.5855 53.9007 58.9034 53.6663 59.1378C53.4319 59.3722 53.1139 59.5039 52.7824 59.5039H48.6538C48.3223 59.5039 48.0044 59.3722 47.7699 59.1378C47.5355 58.9034 47.4038 58.5855 47.4038 58.2539C47.4038 57.9224 47.5355 57.6045 47.7699 57.3701C48.0044 57.1356 48.3223 57.0039 48.6538 57.0039H52.7824C53.1139 57.0039 53.4319 57.1356 53.6663 57.3701C53.9007 57.6045 54.0324 57.9224 54.0324 58.2539ZM43.9806 58.2539C43.9806 58.5855 43.8489 58.9034 43.6144 59.1378C43.38 59.3722 43.0621 59.5039 42.7306 59.5039H38.602C38.2705 59.5039 37.9525 59.3722 37.7181 59.1378C37.4837 58.9034 37.352 58.5855 37.352 58.2539C37.352 57.9224 37.4837 57.6045 37.7181 57.3701C37.9525 57.1356 38.2705 57.0039 38.602 57.0039H42.7306C43.0621 57.0039 43.38 57.1356 43.6144 57.3701C43.8489 57.6045 43.9806 57.9224 43.9806 58.2539ZM33.9289 65.8719C33.9289 66.2034 33.7972 66.5213 33.5628 66.7558C33.3283 66.9902 33.0104 67.1219 32.6789 67.1219H28.5503C28.2188 67.1219 27.9008 66.9902 27.6664 66.7558C27.432 66.5213 27.3003 66.2034 27.3003 65.8719C27.3003 65.5404 27.432 65.2224 27.6664 64.988C27.9008 64.7536 28.2188 64.6219 28.5503 64.6219H32.6789C33.0104 64.6219 33.3283 64.7536 33.5628 64.988C33.7972 65.2224 33.9289 65.5404 33.9289 65.8719ZM54.0324 65.8719C54.0324 66.2034 53.9007 66.5213 53.6663 66.7558C53.4319 66.9902 53.1139 67.1219 52.7824 67.1219H48.6538C48.3223 67.1219 48.0044 66.9902 47.7699 66.7558C47.5355 66.5213 47.4038 66.2034 47.4038 65.8719C47.4038 65.5404 47.5355 65.2224 47.7699 64.988C48.0044 64.7536 48.3223 64.6219 48.6538 64.6219H52.7824C53.1139 64.6219 53.4319 64.7536 53.6663 64.988C53.9007 65.2224 54.0324 65.5404 54.0324 65.8719ZM43.9806 65.8719C43.9806 66.2034 43.8489 66.5213 43.6144 66.7558C43.38 66.9902 43.0621 67.1219 42.7306 67.1219H38.602C38.2705 67.1219 37.9525 66.9902 37.7181 66.7558C37.4837 66.5213 37.352 66.2034 37.352 65.8719C37.352 65.5404 37.4837 65.2224 37.7181 64.988C37.9525 64.7536 38.2705 64.6219 38.602 64.6219H42.7306C43.0621 64.6219 43.38 64.7536 43.6144 64.988C43.8489 65.2224 43.9806 65.5404 43.9806 65.8719ZM33.9289 73.4884C33.9289 73.8199 33.7972 74.1379 33.5628 74.3723C33.3283 74.6067 33.0104 74.7384 32.6789 74.7384H28.5503C28.2188 74.7384 27.9008 74.6067 27.6664 74.3723C27.432 74.1379 27.3003 73.8199 27.3003 73.4884C27.3003 73.1569 27.432 72.839 27.6664 72.6045C27.9008 72.3701 28.2188 72.2384 28.5503 72.2384H32.6789C33.0104 72.2384 33.3283 72.3701 33.5628 72.6045C33.7972 72.839 33.9289 73.1569 33.9289 73.4884ZM54.0324 73.4884C54.0324 73.8199 53.9007 74.1379 53.6663 74.3723C53.4319 74.6067 53.1139 74.7384 52.7824 74.7384H48.6538C48.3223 74.7384 48.0044 74.6067 47.7699 74.3723C47.5355 74.1379 47.4038 73.8199 47.4038 73.4884C47.4038 73.1569 47.5355 72.839 47.7699 72.6045C48.0044 72.3701 48.3223 72.2384 48.6538 72.2384H52.7824C53.1139 72.2384 53.4319 72.3701 53.6663 72.6045C53.9007 72.839 54.0324 73.1569 54.0324 73.4884ZM43.9806 73.4884C43.9806 73.8199 43.8489 74.1379 43.6144 74.3723C43.38 74.6067 43.0621 74.7384 42.7306 74.7384H38.602C38.2705 74.7384 37.9525 74.6067 37.7181 74.3723C37.4837 74.1379 37.352 73.8199 37.352 73.4884C37.352 73.1569 37.4837 72.839 37.7181 72.6045C37.9525 72.3701 38.2705 72.2384 38.602 72.2384H42.7306C43.0621 72.2384 43.38 72.3701 43.6144 72.6045C43.8489 72.839 43.9806 73.1569 43.9806 73.4884ZM40.6663 28.3876C40.9979 28.3876 41.3158 28.5193 41.5502 28.7538C41.7846 28.9882 41.9163 29.3061 41.9163 29.6376V32.5439C41.9163 32.8754 41.7846 33.1933 41.5502 33.4278C41.3158 33.6622 40.9979 33.7939 40.6663 33.7939C40.3348 33.7939 40.0169 33.6622 39.7825 33.4278C39.548 33.1933 39.4164 32.8754 39.4164 32.5439V29.6376C39.4164 29.3061 39.548 28.9882 39.7825 28.7538C40.0169 28.5193 40.3348 28.3876 40.6663 28.3876ZM29.8411 20.7002L40.0414 26.5891C40.2314 26.6988 40.4469 26.7565 40.6663 26.7565C40.8858 26.7565 41.1013 26.6988 41.2913 26.5891L51.4916 20.7002C51.6816 20.5905 51.8394 20.4327 51.9491 20.2427C52.0588 20.0526 52.1166 19.8371 52.1166 19.6177V7.83914C52.1166 7.61972 52.0588 7.40417 51.9491 7.21416C51.8394 7.02414 51.6816 6.86635 51.4916 6.75664L41.2913 0.867602C41.1013 0.757892 40.8858 0.700134 40.6663 0.700134C40.4469 0.700134 40.2314 0.757892 40.0414 0.867602L29.8411 6.75664C29.6511 6.86635 29.4933 7.02414 29.3836 7.21416C29.2738 7.40417 29.2161 7.61972 29.2161 7.83914V19.6174C29.216 19.8368 29.2738 20.0525 29.3835 20.2425C29.4932 20.4326 29.651 20.5904 29.8411 20.7002ZM31.7161 10.0046L39.4164 14.4502V23.3408L31.7161 18.895V10.0046ZM41.9163 23.3408V14.4502L49.6166 10.0044V18.895L41.9163 23.3408ZM40.6663 3.39337L48.3666 7.83914L40.6663 12.2849L32.9661 7.83914L40.6663 3.39337ZM70.4659 47.4487V52.0424C70.4659 52.2066 70.4336 52.3691 70.3708 52.5208C70.308 52.6724 70.2159 52.8102 70.0998 52.9263L63.5842 59.4419C63.3493 59.674 63.0321 59.8036 62.7019 59.8026C62.3717 59.8016 62.0553 59.67 61.8218 59.4365C61.5884 59.203 61.4568 58.8866 61.4558 58.5564C61.4548 58.2262 61.5845 57.909 61.8166 57.6741L67.9661 51.5246V47.4487C67.9661 47.1172 68.0978 46.7992 68.3322 46.5648C68.5666 46.3304 68.8846 46.1987 69.2161 46.1987C69.5476 46.1987 69.8655 46.3304 70.1 46.5648C70.3344 46.7992 70.4661 47.1172 70.4661 47.4487H70.4659ZM80.0412 22.4486L69.8409 16.5596C69.6509 16.4499 69.4353 16.3921 69.2159 16.3921C68.9965 16.3921 68.7809 16.4499 68.5909 16.5596L58.3908 22.4486C58.2008 22.5583 58.043 22.7161 57.9333 22.9061C57.8236 23.0961 57.7658 23.3117 57.7658 23.5311V35.3095C57.7658 35.5289 57.8236 35.7445 57.9333 35.9345C58.043 36.1245 58.2008 36.2823 58.3908 36.392L68.5909 42.2812C68.781 42.3908 68.9965 42.4485 69.2159 42.4485C69.4353 42.4485 69.6509 42.3908 69.8409 42.2812L80.0412 36.3918C80.2312 36.2821 80.389 36.1243 80.4987 35.9343C80.6084 35.7443 80.6662 35.5288 80.6662 35.3093V23.5311C80.6662 23.3117 80.6084 23.0961 80.4987 22.9061C80.389 22.7161 80.2312 22.5583 80.0412 22.4486ZM69.2159 19.0855L76.9162 23.5311L69.2159 27.9769L61.5156 23.5311L69.2159 19.0855ZM60.2658 25.6963L67.9659 30.142V39.0334L60.2658 34.5876V25.6963ZM70.4659 39.0334V30.1428L78.1662 25.6963V34.5876L70.4659 39.0334ZM19.5163 57.6739C19.6335 57.7897 19.7267 57.9276 19.7904 58.0796C19.8542 58.2315 19.8873 58.3946 19.8878 58.5594C19.8883 58.7242 19.8562 58.8874 19.7934 59.0398C19.7306 59.1921 19.6383 59.3305 19.5217 59.4471C19.4052 59.5636 19.2668 59.6559 19.1145 59.7188C18.9621 59.7816 18.7989 59.8137 18.6341 59.8132C18.4693 59.8127 18.3062 59.7796 18.1543 59.7159C18.0023 59.6521 17.8644 59.559 17.7486 59.4417L11.233 52.9261C11.117 52.8101 11.0249 52.6723 10.9621 52.5206C10.8993 52.3689 10.8669 52.2064 10.8669 52.0422V47.4485C10.8669 47.117 10.9986 46.7991 11.233 46.5646C11.4675 46.3302 11.7854 46.1985 12.1169 46.1985C12.4484 46.1985 12.7664 46.3302 13.0008 46.5646C13.2352 46.7991 13.3669 47.117 13.3669 47.4485V51.5244L19.5163 57.6739ZM12.1168 42.4484C12.3362 42.4484 12.5517 42.3907 12.7418 42.281L22.9419 36.3918C23.1319 36.2821 23.2897 36.1243 23.3994 35.9343C23.5091 35.7443 23.5669 35.5288 23.5669 35.3093V23.5311C23.5669 23.3117 23.5091 23.0961 23.3994 22.9061C23.2897 22.7161 23.1319 22.5583 22.9419 22.4486L12.7418 16.5596C12.5517 16.4499 12.3362 16.3921 12.1168 16.3921C11.8974 16.3921 11.6818 16.4499 11.4918 16.5596L1.2915 22.4486C1.10148 22.5583 0.943689 22.7161 0.833979 22.9061C0.72427 23.0961 0.666509 23.3117 0.666504 23.5311L0.666504 35.3095C0.666509 35.5289 0.72427 35.7445 0.833979 35.9345C0.943689 36.1245 1.10148 36.2823 1.2915 36.392L11.4918 42.2812C11.6818 42.3908 11.8974 42.4485 12.1168 42.4484ZM13.3668 39.0334V30.1428L21.0669 25.697V34.5876L13.3668 39.0334ZM12.1168 19.0855L19.8171 23.5311L12.1168 27.9769L4.41649 23.5311L12.1168 19.0855ZM3.16649 25.6963L10.8668 30.142V39.0334L3.16649 34.5876V25.6963Z" fill="#8FA4C0"/>
</g>
<defs>
<clipPath id="clip0_367_924">
<rect width="79.9997" height="80" fill="white" transform="translate(0.666504 0.699951)"/>
</clipPath>
</defs>
</svg>
