<svg width="100" height="100" viewBox="0 0 100 100" fill="none" xmlns="http://www.w3.org/2000/svg">
<path d="M81.614 100H18.3869C8.24875 100 0 91.7513 0 81.6131V18.3869C0 8.24875 8.24875 0 18.3869 0H81.614C91.7521 0 100.001 8.24875 100.001 18.3869V81.6131C100.001 91.7521 91.7521 100 81.614 100ZM18.3869 4.08597C10.5018 4.08597 4.08597 10.5018 4.08597 18.3869V81.6131C4.08597 89.4982 10.5018 95.914 18.3869 95.914H81.614C89.4991 95.914 95.9149 89.4982 95.9149 81.6131V18.3869C95.9149 10.5018 89.4991 4.08597 81.614 4.08597H18.3869Z" fill="#F32F2F"/>
<path d="M76.8471 34.8672C78.9506 32.4295 78.533 28.7219 75.9367 26.8178C73.526 25.0494 70.1502 25.5242 68.3197 27.8884C64.8417 32.3805 58.7046 39.9902 50.741 48.0878C44.5647 41.4767 39.7661 35.5046 36.8463 31.7333C35.0158 29.3691 31.6407 28.8943 29.2292 30.6627C26.633 32.5668 26.2154 36.2744 28.3189 38.7121C31.4373 42.3257 36.6469 47.872 44.3546 54.2894C37.8882 60.2738 30.5588 66.1641 22.6843 70.93C21.8091 71.4595 21.5419 72.6027 22.1098 73.4543C22.6116 74.2069 23.6028 74.4684 24.4094 74.0598C34.4184 68.9949 42.8813 63.7632 49.9647 58.757C56.0471 63.3971 63.3479 68.3337 72.015 73.2295C73.0202 73.7975 74.295 73.509 74.9667 72.5709C75.6949 71.5535 75.4521 70.1479 74.4405 69.4116C67.8555 64.6196 61.7813 59.2318 56.4426 53.9569C66.5938 46.0669 73.1722 39.1256 76.8471 34.8672Z" fill="#F32F2F"/>
</svg>
