<svg width="81" height="81" viewBox="0 0 81 81" fill="none" xmlns="http://www.w3.org/2000/svg">
<path d="M52.6627 35.9297H28.67C27.0315 35.9317 25.4607 36.5834 24.3021 37.742C23.1435 38.9006 22.4918 40.4714 22.4899 42.1099V74.3193C22.4918 75.9577 23.1436 77.5285 24.3022 78.6871C25.4608 79.8456 27.0315 80.4973 28.67 80.4993H52.6627C54.3012 80.4973 55.872 79.8456 57.0306 78.687C58.1892 77.5284 58.8409 75.9576 58.8428 74.3191V42.1099C58.8409 40.4714 58.1892 38.9006 57.0306 37.742C55.872 36.5834 54.3012 35.9317 52.6627 35.9297ZM56.3428 74.3193C56.3417 75.295 55.9536 76.2303 55.2637 76.9202C54.5738 77.6101 53.6384 77.9982 52.6627 77.9993H28.67C27.6943 77.9982 26.7589 77.6101 26.069 76.9202C25.379 76.2302 24.991 75.2948 24.9898 74.3191V42.1099C24.991 41.1342 25.379 40.1988 26.069 39.5089C26.7589 38.8189 27.6943 38.4309 28.67 38.4297H52.6627C53.6384 38.4309 54.5738 38.8189 55.2637 39.5089C55.9536 40.1988 56.3417 41.1342 56.3428 42.1099V74.3193ZM51.7035 41.6813H29.6292C28.9807 41.682 28.3589 41.94 27.9004 42.3986C27.4418 42.8571 27.1839 43.4789 27.1831 44.1274V49.9488C27.1839 50.5973 27.4418 51.219 27.9004 51.6776C28.3589 52.1361 28.9807 52.3941 29.6292 52.3948H51.7035C52.352 52.3941 52.9737 52.1361 53.4323 51.6776C53.8908 51.219 54.1487 50.5973 54.1494 49.9488V44.1274C54.1487 43.4789 53.8908 42.8571 53.4323 42.3986C52.9737 41.94 52.352 41.682 51.7035 41.6813ZM51.6494 49.8949H29.6831V44.1813H51.6494V49.8949ZM33.9289 58.0533C33.9289 58.3848 33.7972 58.7027 33.5628 58.9371C33.3283 59.1716 33.0104 59.3032 32.6789 59.3032H28.5503C28.2188 59.3032 27.9008 59.1716 27.6664 58.9371C27.432 58.7027 27.3003 58.3848 27.3003 58.0533C27.3003 57.7217 27.432 57.4038 27.6664 57.1694C27.9008 56.935 28.2188 56.8033 28.5503 56.8033H32.6789C33.0104 56.8033 33.3283 56.935 33.5628 57.1694C33.7972 57.4038 33.9289 57.7217 33.9289 58.0533ZM54.0324 58.0533C54.0324 58.3848 53.9007 58.7027 53.6663 58.9371C53.4319 59.1716 53.1139 59.3032 52.7824 59.3032H48.6538C48.3223 59.3032 48.0044 59.1716 47.7699 58.9371C47.5355 58.7027 47.4038 58.3848 47.4038 58.0533C47.4038 57.7217 47.5355 57.4038 47.7699 57.1694C48.0044 56.935 48.3223 56.8033 48.6538 56.8033H52.7824C53.1139 56.8033 53.4319 56.935 53.6663 57.1694C53.9007 57.4038 54.0324 57.7217 54.0324 58.0533ZM43.9806 58.0533C43.9806 58.3848 43.8489 58.7027 43.6144 58.9371C43.38 59.1716 43.0621 59.3032 42.7306 59.3032H38.602C38.2705 59.3032 37.9525 59.1716 37.7181 58.9371C37.4837 58.7027 37.352 58.3848 37.352 58.0533C37.352 57.7217 37.4837 57.4038 37.7181 57.1694C37.9525 56.935 38.2705 56.8033 38.602 56.8033H42.7306C43.0621 56.8033 43.38 56.935 43.6144 57.1694C43.8489 57.4038 43.9806 57.7217 43.9806 58.0533ZM33.9289 65.6712C33.9289 66.0027 33.7972 66.3207 33.5628 66.5551C33.3283 66.7895 33.0104 66.9212 32.6789 66.9212H28.5503C28.2188 66.9212 27.9008 66.7895 27.6664 66.5551C27.432 66.3207 27.3003 66.0027 27.3003 65.6712C27.3003 65.3397 27.432 65.0217 27.6664 64.7873C27.9008 64.5529 28.2188 64.4212 28.5503 64.4212H32.6789C33.0104 64.4212 33.3283 64.5529 33.5628 64.7873C33.7972 65.0217 33.9289 65.3397 33.9289 65.6712ZM54.0324 65.6712C54.0324 66.0027 53.9007 66.3207 53.6663 66.5551C53.4319 66.7895 53.1139 66.9212 52.7824 66.9212H48.6538C48.3223 66.9212 48.0044 66.7895 47.7699 66.5551C47.5355 66.3207 47.4038 66.0027 47.4038 65.6712C47.4038 65.3397 47.5355 65.0217 47.7699 64.7873C48.0044 64.5529 48.3223 64.4212 48.6538 64.4212H52.7824C53.1139 64.4212 53.4319 64.5529 53.6663 64.7873C53.9007 65.0217 54.0324 65.3397 54.0324 65.6712ZM43.9806 65.6712C43.9806 66.0027 43.8489 66.3207 43.6144 66.5551C43.38 66.7895 43.0621 66.9212 42.7306 66.9212H38.602C38.2705 66.9212 37.9525 66.7895 37.7181 66.5551C37.4837 66.3207 37.352 66.0027 37.352 65.6712C37.352 65.3397 37.4837 65.0217 37.7181 64.7873C37.9525 64.5529 38.2705 64.4212 38.602 64.4212H42.7306C43.0621 64.4212 43.38 64.5529 43.6144 64.7873C43.8489 65.0217 43.9806 65.3397 43.9806 65.6712ZM33.9289 73.2877C33.9289 73.6192 33.7972 73.9372 33.5628 74.1716C33.3283 74.406 33.0104 74.5377 32.6789 74.5377H28.5503C28.2188 74.5377 27.9008 74.406 27.6664 74.1716C27.432 73.9372 27.3003 73.6192 27.3003 73.2877C27.3003 72.9562 27.432 72.6383 27.6664 72.4038C27.9008 72.1694 28.2188 72.0377 28.5503 72.0377H32.6789C33.0104 72.0377 33.3283 72.1694 33.5628 72.4038C33.7972 72.6383 33.9289 72.9562 33.9289 73.2877ZM54.0324 73.2877C54.0324 73.6192 53.9007 73.9372 53.6663 74.1716C53.4319 74.406 53.1139 74.5377 52.7824 74.5377H48.6538C48.3223 74.5377 48.0044 74.406 47.7699 74.1716C47.5355 73.9372 47.4038 73.6192 47.4038 73.2877C47.4038 72.9562 47.5355 72.6383 47.7699 72.4038C48.0044 72.1694 48.3223 72.0377 48.6538 72.0377H52.7824C53.1139 72.0377 53.4319 72.1694 53.6663 72.4038C53.9007 72.6383 54.0324 72.9562 54.0324 73.2877ZM43.9806 73.2877C43.9806 73.6192 43.8489 73.9372 43.6144 74.1716C43.38 74.406 43.0621 74.5377 42.7306 74.5377H38.602C38.2705 74.5377 37.9525 74.406 37.7181 74.1716C37.4837 73.9372 37.352 73.6192 37.352 73.2877C37.352 72.9562 37.4837 72.6383 37.7181 72.4038C37.9525 72.1694 38.2705 72.0377 38.602 72.0377H42.7306C43.0621 72.0377 43.38 72.1694 43.6144 72.4038C43.8489 72.6383 43.9806 72.9562 43.9806 73.2877ZM40.6663 28.187C40.9979 28.187 41.3158 28.3187 41.5502 28.5531C41.7846 28.7875 41.9163 29.1054 41.9163 29.437V32.3432C41.9163 32.6747 41.7846 32.9927 41.5502 33.2271C41.3158 33.4615 40.9979 33.5932 40.6663 33.5932C40.3348 33.5932 40.0169 33.4615 39.7825 33.2271C39.548 32.9927 39.4164 32.6747 39.4164 32.3432V29.437C39.4164 29.1054 39.548 28.7875 39.7825 28.5531C40.0169 28.3187 40.3348 28.187 40.6663 28.187ZM29.8411 20.4995L40.0414 26.3884C40.2314 26.4981 40.4469 26.5558 40.6663 26.5558C40.8858 26.5558 41.1013 26.4981 41.2913 26.3884L51.4916 20.4995C51.6816 20.3898 51.8394 20.232 51.9491 20.042C52.0588 19.852 52.1166 19.6364 52.1166 19.417V7.63845C52.1166 7.41904 52.0588 7.20349 51.9491 7.01347C51.8394 6.82346 51.6816 6.66567 51.4916 6.55596L41.2913 0.666918C41.1013 0.557208 40.8858 0.499451 40.6663 0.499451C40.4469 0.499451 40.2314 0.557208 40.0414 0.666918L29.8411 6.55596C29.6511 6.66567 29.4933 6.82346 29.3836 7.01347C29.2738 7.20349 29.2161 7.41904 29.2161 7.63845V19.4167C29.216 19.6362 29.2738 19.8518 29.3835 20.0418C29.4932 20.2319 29.651 20.3898 29.8411 20.4995ZM31.7161 9.80391L39.4164 14.2495V23.1401L31.7161 18.6943V9.80391ZM41.9163 23.1401V14.2495L49.6166 9.80376V18.6943L41.9163 23.1401ZM40.6663 3.19269L48.3666 7.63845L40.6663 12.0842L32.9661 7.63845L40.6663 3.19269ZM70.4659 47.248V51.8417C70.4659 52.0059 70.4336 52.1684 70.3708 52.3201C70.308 52.4717 70.2159 52.6095 70.0998 52.7256L63.5842 59.2412C63.3493 59.4733 63.0321 59.603 62.7019 59.6019C62.3717 59.6009 62.0553 59.4693 61.8218 59.2358C61.5884 59.0023 61.4568 58.6859 61.4558 58.3557C61.4548 58.0255 61.5845 57.7083 61.8166 57.4734L67.9661 51.3239V47.248C67.9661 46.9165 68.0978 46.5985 68.3322 46.3641C68.5666 46.1297 68.8846 45.998 69.2161 45.998C69.5476 45.998 69.8655 46.1297 70.1 46.3641C70.3344 46.5985 70.4661 46.9165 70.4661 47.248H70.4659ZM80.0412 22.2479L69.8409 16.3589C69.6509 16.2492 69.4353 16.1914 69.2159 16.1914C68.9965 16.1914 68.7809 16.2492 68.5909 16.3589L58.3908 22.2479C58.2008 22.3576 58.043 22.5154 57.9333 22.7054C57.8236 22.8955 57.7658 23.111 57.7658 23.3304V35.1088C57.7658 35.3282 57.8236 35.5438 57.9333 35.7338C58.043 35.9238 58.2008 36.0816 58.3908 36.1913L68.5909 42.0805C68.781 42.1901 68.9965 42.2479 69.2159 42.2479C69.4353 42.2479 69.6509 42.1901 69.8409 42.0805L80.0412 36.1912C80.2312 36.0814 80.389 35.9237 80.4987 35.7336C80.6084 35.5436 80.6662 35.3281 80.6662 35.1087V23.3304C80.6662 23.111 80.6084 22.8955 80.4987 22.7054C80.389 22.5154 80.2312 22.3576 80.0412 22.2479ZM69.2159 18.8848L76.9162 23.3304L69.2159 27.7762L61.5156 23.3304L69.2159 18.8848ZM60.2658 25.4956L67.9659 29.9413V38.8327L60.2658 34.3869V25.4956ZM70.4659 38.8327V29.9421L78.1662 25.4956V34.3869L70.4659 38.8327ZM19.5163 57.4733C19.6335 57.5891 19.7267 57.7269 19.7904 57.8789C19.8542 58.0308 19.8873 58.1939 19.8878 58.3587C19.8883 58.5235 19.8562 58.6867 19.7934 58.8391C19.7306 58.9914 19.6383 59.1298 19.5217 59.2464C19.4052 59.3629 19.2668 59.4552 19.1145 59.5181C18.9621 59.5809 18.7989 59.613 18.6341 59.6125C18.4693 59.612 18.3062 59.579 18.1543 59.5152C18.0023 59.4515 17.8644 59.3583 17.7486 59.2411L11.233 52.7255C11.117 52.6094 11.0249 52.4716 10.9621 52.3199C10.8993 52.1683 10.8669 52.0057 10.8669 51.8416V47.2478C10.8669 46.9163 10.9986 46.5984 11.233 46.3639C11.4675 46.1295 11.7854 45.9978 12.1169 45.9978C12.4484 45.9978 12.7664 46.1295 13.0008 46.3639C13.2352 46.5984 13.3669 46.9163 13.3669 47.2478V51.3237L19.5163 57.4733ZM12.1168 42.2477C12.3362 42.2477 12.5517 42.19 12.7418 42.0804L22.9419 36.1912C23.1319 36.0814 23.2897 35.9237 23.3994 35.7336C23.5091 35.5436 23.5669 35.3281 23.5669 35.1087V23.3304C23.5669 23.111 23.5091 22.8955 23.3994 22.7054C23.2897 22.5154 23.1319 22.3576 22.9419 22.2479L12.7418 16.3589C12.5517 16.2492 12.3362 16.1914 12.1168 16.1914C11.8974 16.1914 11.6818 16.2492 11.4918 16.3589L1.2915 22.2479C1.10148 22.3576 0.943689 22.5154 0.833979 22.7054C0.72427 22.8955 0.666509 23.111 0.666504 23.3304L0.666504 35.1088C0.666509 35.3282 0.72427 35.5438 0.833979 35.7338C0.943689 35.9238 1.10148 36.0816 1.2915 36.1913L11.4918 42.0805C11.6818 42.1901 11.8974 42.2478 12.1168 42.2477ZM13.3668 38.8327V29.9421L21.0669 25.4964V34.3869L13.3668 38.8327ZM12.1168 18.8848L19.8171 23.3304L12.1168 27.7762L4.41649 23.3304L12.1168 18.8848ZM3.16649 25.4956L10.8668 29.9413V38.8327L3.16649 34.3869V25.4956Z" fill="#8FA4C0"/>
</svg>
