<svg width="61" height="60" viewBox="0 0 61 60" fill="none" xmlns="http://www.w3.org/2000/svg">
<g clip-path="url(#clip0_497_404)">
<path d="M58.0478 50.374L46.5474 38.874C46.5025 38.8291 46.4541 38.7899 46.4032 38.7561L46.4104 37.4821L49.8489 37.0009C50.1152 36.9636 50.3521 36.8127 50.4985 36.5873C50.645 36.3619 50.6865 36.084 50.6121 35.8255L49.6529 32.4886L52.8165 31.0581C53.0615 30.9472 53.2463 30.7358 53.3233 30.4783C53.4003 30.2207 53.3617 29.9422 53.2176 29.7154L51.3571 26.7838L53.9895 24.52C54.1933 24.3447 54.3112 24.0896 54.3125 23.8209C54.3136 23.5521 54.1984 23.2959 53.9962 23.1187L51.3853 20.83L53.2731 17.9163C53.4193 17.6907 53.4604 17.4128 53.386 17.1544C53.3115 16.896 53.1286 16.6828 52.8848 16.5697L49.7348 15.1093L50.7255 11.7815C50.8022 11.524 50.7633 11.2456 50.6191 11.0188C50.4748 10.792 50.2393 10.639 49.9734 10.5991L46.5396 10.0854L46.5526 6.61335C46.5535 6.34452 46.438 6.08847 46.2356 5.9114C46.0334 5.73433 45.7647 5.65429 45.4978 5.6905L42.0583 6.16499L41.0927 2.83008C41.0179 2.57192 40.8349 2.35864 40.5909 2.2459C40.3468 2.13329 40.0659 2.13165 39.8208 2.24192L36.6544 3.66609L34.7883 0.738762C34.6438 0.512122 34.408 0.359193 34.1422 0.319584C33.8763 0.280209 33.6062 0.357904 33.4022 0.532747L30.7653 2.79153L28.1499 0.508021C27.9474 0.331185 27.6781 0.250795 27.4118 0.287943C27.1456 0.324974 26.9084 0.475677 26.7618 0.700911L24.8681 3.61102L21.7153 2.15684C21.4713 2.04423 21.1901 2.04305 20.9451 2.15368C20.7002 2.2643 20.5149 2.47559 20.4377 2.73305L19.4404 6.05882L16.0057 5.55175C15.74 5.51296 15.4698 5.59054 15.2657 5.76573C15.0618 5.94081 14.9437 6.19581 14.9422 6.46452L14.9224 9.93666L11.484 10.4179C11.2178 10.4553 10.9808 10.6061 10.8344 10.8316C10.688 11.0571 10.6465 11.3349 10.7209 11.5934L11.6801 14.9303L8.51648 16.3608C8.27167 16.4717 8.08663 16.6831 8.00964 16.9409C7.93265 17.1984 7.9712 17.4768 8.11534 17.7037L9.97581 20.6351L7.34343 22.8989C7.13965 23.0743 7.02176 23.3294 7.02047 23.5981C7.01918 23.8668 7.13449 24.1231 7.33675 24.3003L9.9478 26.5889L8.0598 29.5028C7.91367 29.7284 7.87242 30.0062 7.94695 30.2646C8.02148 30.523 8.20441 30.7363 8.44827 30.8494L11.5983 32.3097L10.6076 35.6374C10.5308 35.895 10.5697 36.1733 10.714 36.4002C10.8582 36.6269 11.0938 36.78 11.3597 36.8198L14.7935 37.3337L14.7876 38.8925C14.746 38.9221 14.7058 38.9546 14.6684 38.9919L11.9464 41.7139C11.5841 42.0765 11.5841 42.6638 11.9464 43.0263C12.1276 43.2075 12.3651 43.298 12.6026 43.298C12.84 43.298 13.0775 43.2075 13.2587 43.0263L14.947 41.338C14.9899 41.3997 15.0396 41.457 15.0972 41.5074C15.2995 41.6846 15.5686 41.765 15.835 41.7283L19.2745 41.2538L20.2402 44.5887C20.315 44.8469 20.498 45.0602 20.742 45.1729C20.9861 45.2857 21.2671 45.2874 21.5122 45.1769L24.6786 43.7526L25.195 44.5628L12.7276 57.0298L12.2145 51.6422C12.1724 51.1993 11.8217 50.8486 11.3788 50.8065L5.99109 50.2934L10.1656 46.1189C10.528 45.7563 10.528 45.1689 10.1656 44.8065C9.80331 44.4443 9.21573 44.4443 8.85339 44.8065L3.28571 50.3741C2.74115 50.9187 3.08896 51.8813 3.85384 51.9542L10.4396 52.5815L11.0668 59.1673C11.1396 59.9311 12.1022 60.28 12.6469 59.7355L26.2168 46.1654C26.3412 46.3607 26.4545 46.5717 26.5976 46.7542C26.9185 47.1637 27.5357 47.2246 27.931 46.886L30.5679 44.6272L33.1834 46.9107C33.6143 47.2872 34.2668 47.1718 34.5779 46.7081C34.723 46.4917 34.8621 46.2713 35.0041 46.0531L48.6867 59.7355C49.2313 60.28 50.1939 59.9311 50.2667 59.1673L50.8939 52.5815L57.4797 51.9542C58.2444 51.8812 58.5924 50.9187 58.0478 50.374ZM35.3474 42.1228L33.5986 44.8096L31.1838 42.7013C31.0091 42.5488 30.7914 42.4723 30.5735 42.4723C30.3586 42.4723 30.1436 42.5468 29.9699 42.6956L27.5352 44.7809L27.3845 44.5444C27.3694 44.3292 27.2805 44.1181 27.1158 43.9534C27.053 43.8905 26.983 43.8393 26.909 43.7983L25.8121 42.0775C25.5644 41.6888 25.069 41.5408 24.6489 41.73L21.7254 43.0449L20.834 39.9658C20.7058 39.5232 20.2722 39.2415 19.8159 39.3047L16.6402 39.7428L16.6522 36.5373C16.6539 36.0764 16.3173 35.6842 15.8615 35.6162L12.691 35.1417L13.6058 32.0693C13.7373 31.6277 13.5247 31.1564 13.1067 30.9627L10.1983 29.6146L11.9415 26.9242C12.192 26.5376 12.1209 26.0255 11.7744 25.7219L9.36374 23.6088L11.7942 21.5185C12.1436 21.2179 12.2196 20.7067 11.9726 20.3177L10.2548 17.611L13.1757 16.2902C13.5955 16.1003 13.8124 15.6311 13.6852 15.1883L12.7997 12.1075L15.9745 11.6632C16.4308 11.5992 16.7711 11.2102 16.7737 10.7495L16.7919 7.5437L19.9632 8.01186C20.4193 8.07924 20.8551 7.80162 20.9875 7.3603L21.9081 4.28965L24.8191 5.63238C25.2375 5.82515 25.7342 5.68183 25.9854 5.29581L27.734 2.60883L30.1487 4.71714C30.496 5.02031 31.0129 5.02277 31.3627 4.723L33.7973 2.63766L35.5204 5.34093C35.7681 5.72952 36.2632 5.87765 36.6835 5.68851L39.6071 4.37355L40.4988 7.45276C40.627 7.89549 41.0612 8.17744 41.5169 8.11393L44.6926 7.67577L44.6806 10.8814C44.6789 11.3423 45.0155 11.7345 45.4714 11.8025L48.6418 12.2769L47.727 15.3493C47.5955 15.7909 47.8081 16.2622 48.2261 16.4559L51.1346 17.8041L49.3914 20.4944C49.1409 20.881 49.212 21.3931 49.5585 21.6967L51.9692 23.8098L49.5387 25.9001C49.1893 26.2007 49.1133 26.7119 49.3604 27.1009L51.0781 29.8076L48.1572 31.1284C47.7373 31.3183 47.5204 31.7873 47.6477 32.2303L48.5331 35.3112L45.3584 35.7554C44.9021 35.8194 44.5618 36.2083 44.5592 36.6691L44.5411 39.8749L41.3697 39.4067C40.9144 39.3402 40.4778 39.6169 40.3454 40.0583L39.4248 43.1289L36.5139 41.7862C36.0952 41.5932 35.5986 41.7366 35.3474 42.1228ZM49.9544 50.8065C49.5114 50.8486 49.1607 51.1993 49.1186 51.6422L48.6056 57.0298L36.0387 44.4628L36.4651 43.8076L39.6179 45.2617C39.862 45.3745 40.143 45.3757 40.3881 45.2649C40.6331 45.1543 40.8183 44.943 40.8955 44.6855L41.8927 41.3598L45.3275 41.8668C45.5936 41.9061 45.8635 41.8282 46.0674 41.6529C46.1858 41.5511 46.2741 41.4221 46.3287 41.2796L55.3424 50.2932L49.9544 50.8065Z" fill="#8FA4C0"/>
<path d="M30.6663 4.96509C20.3305 4.96509 11.9219 13.3738 11.9219 23.7095C11.9219 34.0452 20.3305 42.454 30.6663 42.454C34.2256 42.454 37.6892 41.452 40.6825 39.5561C43.5948 37.7116 45.942 35.1071 47.4702 32.024C47.6979 31.5649 47.5101 31.0082 47.0509 30.7805C46.5919 30.5529 46.035 30.7407 45.8073 31.1998C42.9337 36.9968 37.1319 40.5979 30.6663 40.5979C21.3539 40.5979 13.7776 33.0218 13.7776 23.7093C13.7776 14.3968 21.3539 6.82086 30.6663 6.82086C39.9787 6.82086 47.5549 14.397 47.5549 23.7094C47.5549 24.8095 47.4485 25.9096 47.2388 26.9793C47.1402 27.4821 47.4679 27.9698 47.9708 28.0684C48.4733 28.1673 48.9614 27.8393 49.06 27.3364C49.2927 26.1495 49.4107 24.9292 49.4107 23.7095C49.4107 13.3738 41.0021 4.96509 30.6663 4.96509Z" fill="#8FA4C0"/>
<path d="M44.5571 20.9571L39.3605 13.0387C39.1892 12.7773 38.8975 12.6199 38.5849 12.6199H22.7481C22.4354 12.6199 22.1439 12.7773 21.9722 13.0387L16.7756 20.9571C16.5508 21.3 16.5774 21.7499 16.8414 22.0636L29.9564 37.6531C30.1327 37.8628 30.3927 37.9837 30.6664 37.9837C30.9402 37.9837 31.2002 37.8627 31.3764 37.6531L44.4914 22.0636C44.7555 21.7499 44.7822 21.3 44.5571 20.9571ZM38.6808 15.3854L41.9002 20.2909H36.1489L38.6808 15.3854ZM37.0619 14.4758L34.6123 19.2217L32.0811 14.4758H37.0619ZM33.0792 20.2909H28.2539L30.6665 15.7672L33.0792 20.2909ZM29.252 14.4758L26.7072 19.247L24.1626 14.4758H29.252ZM22.5928 15.4758L25.1607 20.2909H19.4329L22.5928 15.4758ZM19.3366 22.1468H25.9913L29.0062 33.6408L19.3366 22.1468ZM30.6666 32.6559L27.91 22.1468H33.4231L30.6666 32.6559ZM32.3269 33.6408L35.3418 22.1468H41.9964L32.3269 33.6408Z" fill="#8FA4C0"/>
</g>
<defs>
<clipPath id="clip0_497_404">
<rect width="60" height="60" fill="white" transform="translate(0.666504)"/>
</clipPath>
</defs>
</svg>
