<svg width="80" height="62" viewBox="0 0 80 62" fill="none" xmlns="http://www.w3.org/2000/svg">
<path d="M71.4062 0.731445H8.59375C6.31531 0.733927 4.13089 1.64013 2.51979 3.25124C0.908689 4.86234 0.00248152 7.04675 0 9.3252V53.0752C0.00248152 55.3536 0.908689 57.538 2.51979 59.1492C4.13089 60.7603 6.31531 61.6665 8.59375 61.6689H71.4062C73.6847 61.6665 75.8691 60.7603 77.4802 59.1492C79.0913 57.538 79.9975 55.3536 80 53.0752V9.3252C79.9975 7.04675 79.0913 4.86234 77.4802 3.25124C75.8691 1.64013 73.6847 0.733927 71.4062 0.731445ZM75.3125 9.3252V53.0752C75.3124 53.3616 75.281 53.6472 75.2188 53.9268L50.3234 31.2002L75.2188 8.47363C75.281 8.75322 75.3124 9.03877 75.3125 9.3252ZM71.4062 5.41895H71.6062L42.6328 31.8721C41.9157 32.5337 40.9757 32.901 40 32.901C39.0243 32.901 38.0843 32.5337 37.3672 31.8721L8.39375 5.41895H8.59375H71.4062ZM4.78125 53.9268C4.71905 53.6472 4.68761 53.3616 4.6875 53.0752V9.3252C4.68761 9.03877 4.71905 8.75322 4.78125 8.47363L29.6766 31.2002L4.78125 53.9268ZM8.59375 56.9814C8.52656 56.9814 8.45938 56.9814 8.39375 56.9814L33.1531 34.3736L34.2062 35.3346C35.7853 36.7886 37.8534 37.5958 40 37.5958C42.1466 37.5958 44.2147 36.7886 45.7937 35.3346L46.8469 34.3736L71.6062 56.9814C71.5406 56.9814 71.4734 56.9814 71.4062 56.9814H8.59375Z" fill="#8FA4C0"/>
</svg>
