<svg width="80" height="81" viewBox="0 0 80 81" fill="none" xmlns="http://www.w3.org/2000/svg">
<g clip-path="url(#clip0_367_1112)">
<path d="M65.3799 61.2241L55.4361 51.2806C54.1081 49.9526 52.3423 49.2212 50.4642 49.2212C48.5861 49.2212 46.8204 49.9526 45.4925 51.2806C44.2957 52.4773 40.7299 56.0431 39.5766 57.1964C37.9652 57.0197 33.8627 56.0674 28.9196 51.1244C23.9628 46.1676 23.1094 42.1001 22.9789 40.4921C24.2544 39.2167 27.8264 35.6446 28.9196 34.5515C30.2477 33.2234 30.9791 31.4577 30.9791 29.5796C30.9791 27.7015 30.2477 25.9357 28.9196 24.6077L18.9758 14.6639C16.2344 11.9225 11.7734 11.9227 9.03216 14.6639L5.71761 17.9785C5.71714 17.9789 5.71683 17.9792 5.71652 17.9797C5.71605 17.9802 5.71574 17.9805 5.71527 17.9808L5.70433 17.9919C2.38885 21.3074 0.380247 25.7071 0.0488393 30.3805C-0.281787 35.041 1.07447 39.6848 3.86792 43.4567C8.61028 49.8603 13.6934 55.7856 18.9759 61.0682C24.4982 66.5905 30.7529 72.0115 36.5874 76.3324C39.987 78.8501 44.0948 80.2003 48.2848 80.2003C48.7436 80.2003 49.2034 80.184 49.6634 80.1514C54.3369 79.8199 58.7364 77.8113 62.0495 74.4982L62.063 74.4848C62.0635 74.4843 62.0638 74.484 62.0641 74.4835C62.0644 74.4832 62.0649 74.4827 62.0653 74.4824L65.3799 71.1679C66.708 69.8398 67.4394 68.0741 67.4394 66.196C67.4394 64.3179 66.708 62.5521 65.3799 61.2241ZM12.3467 17.9786C13.2605 17.0649 14.7473 17.0647 15.6612 17.9786L25.605 27.9224C26.5188 28.8362 26.5188 30.3232 25.605 31.2369L23.9478 32.8941L10.6895 19.6358L12.3467 17.9786ZM39.3771 72.5654C33.7226 68.3777 27.6544 63.1174 22.2905 57.7535C17.1709 52.6339 12.2401 46.8851 7.63496 40.6668C3.67698 35.3224 3.71823 28.2568 7.50168 23.0772C7.94856 23.5241 20.2955 35.871 20.6333 36.2087L18.9759 37.866C18.6028 38.2392 18.3666 38.7273 18.3053 39.2515C18.2717 39.5399 17.5728 46.4067 25.6052 54.4389C31.5679 60.4016 37.6877 62.176 40.732 61.9013C41.2784 61.8519 41.7901 61.6124 42.1781 61.2243L43.8353 59.5671L56.9672 72.6988C51.789 76.4824 44.7223 76.524 39.3771 72.5654ZM62.0653 67.8535L60.4081 69.5107L47.1498 56.2524L48.807 54.5952C49.7209 53.6813 51.2078 53.6814 52.1215 54.5952L62.0653 64.539C62.508 64.9816 62.7519 65.5702 62.7519 66.1961C62.7519 66.8221 62.508 67.4108 62.0653 67.8535Z" fill="#8FA4C0"/>
<path d="M68.3477 11.8524C60.8336 4.33834 50.8279 0.200195 40.1738 0.200195C38.8795 0.200195 37.8301 1.24957 37.8301 2.54395C37.8301 3.83833 38.8795 4.88771 40.1738 4.88771C49.5759 4.88771 58.4044 8.53835 65.0332 15.167C71.6618 21.7957 75.3124 30.6242 75.3124 40.0263C75.3124 41.3207 76.3618 42.37 77.6562 42.37C78.9506 42.37 79.9999 41.3207 79.9999 40.0263C79.9999 29.3722 75.8618 19.3665 68.3477 11.8524Z" fill="#8FA4C0"/>
<path d="M61.7186 18.4816C55.9719 12.735 48.3206 9.57031 40.1738 9.57031C38.8795 9.57031 37.8301 10.6197 37.8301 11.9141C37.8301 13.2085 38.8795 14.2578 40.1738 14.2578C47.0684 14.2578 53.5428 16.935 58.4041 21.7963C63.2653 26.6576 65.9425 33.1318 65.9425 40.0264C65.9425 41.3207 66.9919 42.3701 68.2863 42.3701C69.5807 42.3701 70.6301 41.3207 70.6301 40.0264C70.6301 31.8796 67.4653 24.2282 61.7186 18.4816Z" fill="#8FA4C0"/>
<path d="M55.0894 25.1109C51.1053 21.1268 45.8082 18.9326 40.1738 18.9326C38.8795 18.9326 37.8301 19.982 37.8301 21.2764C37.8301 22.5708 38.8795 23.6201 40.1738 23.6201C44.5562 23.6201 48.6761 25.3267 51.7748 28.4255C54.8736 31.5242 56.5802 35.6441 56.5802 40.0264C56.5802 41.3208 57.6295 42.3702 58.9239 42.3702C60.2183 42.3702 61.2677 41.3208 61.2677 40.0264C61.2677 34.3921 59.0736 29.095 55.0894 25.1109Z" fill="#8FA4C0"/>
</g>
<defs>
<clipPath id="clip0_367_1112">
<rect width="80" height="80" fill="white" transform="translate(0 0.200195)"/>
</clipPath>
</defs>
</svg>
