<svg width="60" height="60" viewBox="0 0 60 60" fill="none" xmlns="http://www.w3.org/2000/svg">
<path d="M39.9468 21.3901L26.7191 36.1291L20.0065 29.4526C19.5473 28.9958 18.8036 28.9958 18.3444 29.4526C17.8852 29.9094 17.8852 30.6491 18.3444 31.1059L25.9362 38.6578C26.1564 38.8776 26.4558 39 26.7677 39C26.7786 39 26.7896 39 26.8006 38.9992C27.1242 38.9899 27.429 38.8496 27.6445 38.6095L41.7013 22.9476C42.1339 22.4658 42.0916 21.7268 41.6073 21.2965C41.1214 20.867 40.3801 20.9091 39.9468 21.3901Z" fill="#8FA4C0"/>
<path d="M58.9671 29.9982C58.9867 29.9177 59 29.8344 59 29.7475C59 26.924 56.0956 25.4649 53.5324 24.1767C51.7129 23.2628 49.8324 22.3172 49.3317 21.1257C48.8218 19.9096 49.5418 17.9279 50.2365 16.0105C51.2058 13.3387 52.2073 10.5766 50.3591 8.71429C48.5466 6.88654 45.8965 7.50521 43.3325 8.10622C41.5382 8.52573 39.6816 8.95865 38.4455 8.43179C37.2388 7.91695 36.2359 6.32084 35.2659 4.77559C33.8589 2.53752 32.2657 0 29.5 0C26.7294 0 25.1662 2.59261 23.788 4.88082C22.8313 6.46916 21.8417 8.11046 20.6364 8.6246C19.4045 9.15075 17.5283 8.67404 15.7144 8.21427C13.1301 7.5603 10.4583 6.88089 8.64157 8.715C6.80596 10.5653 7.69541 13.3416 8.55683 16.0274C9.17174 17.9434 9.80695 19.9251 9.29289 21.1519C8.79145 22.3482 6.99436 23.2854 5.2554 24.1922C2.79228 25.4762 0 26.9317 0 29.7489C0 29.8365 0.0140072 29.9206 0.0336169 30.0018C0.0140072 30.0823 0.000700629 30.1656 0.000700629 30.2525C0.000700629 33.0697 2.79298 34.5252 5.2568 35.8092C6.99436 36.7153 8.79215 37.6525 9.2936 38.8488C9.80765 40.0756 9.17244 42.0573 8.55753 43.974C7.69681 46.6591 6.80666 49.4347 8.64157 51.2857C10.4597 53.1198 13.1315 52.4425 15.7151 51.7864C17.5297 51.3274 19.4066 50.8521 20.6378 51.3775C21.8424 51.891 22.832 53.5323 23.7887 55.1199C25.1676 57.4074 26.7301 60 29.5007 60C32.2664 60 33.8603 57.4625 35.2666 55.2244C36.2373 53.6792 37.2402 52.0831 38.4448 51.5682C39.6858 51.0399 41.5389 51.4736 43.3325 51.8938C45.8951 52.4934 48.5466 53.1149 50.3577 51.2864C52.208 49.4234 51.2058 46.6605 50.2365 43.9895C49.5411 42.0721 48.8218 40.0904 49.331 38.8757C49.8324 37.6835 51.7129 36.7379 53.5324 35.824C56.0949 34.5365 59 33.0767 59 30.2532C59.0007 30.1635 58.9867 30.0795 58.9671 29.9982ZM52.596 33.9249C50.4354 35.0104 48.2013 36.1333 47.3966 38.048C46.5653 40.0325 47.4289 42.4132 48.2637 44.7149C49.0396 46.8555 49.7736 48.8788 48.8723 49.7857C47.8855 50.7829 45.9035 50.3189 43.8074 49.8287C41.6867 49.333 39.4939 48.8195 37.6268 49.6155C35.8164 50.3881 34.6349 52.2695 33.492 54.0888C32.2671 56.038 31.1101 57.8792 29.5007 57.8792C27.9116 57.8792 26.7812 56.0034 25.5837 54.0174C24.454 52.1424 23.2851 50.203 21.4558 49.4241C19.5754 48.6204 17.3532 49.1839 15.2017 49.7299C13.0937 50.2631 11.1026 50.7702 10.127 49.7857C9.20045 48.852 9.85878 46.7983 10.5556 44.6237C11.2889 42.3391 12.046 39.976 11.228 38.0218C10.431 36.1206 8.2907 35.0048 6.22118 33.9249C4.10263 32.8211 2.10104 31.778 2.10104 30.2504C2.10104 30.1628 2.08703 30.0787 2.06742 29.9968C2.08703 29.9163 2.10034 29.833 2.10034 29.7461C2.10034 28.2185 4.10123 27.1754 6.21978 26.0715C8.29 24.9924 10.431 23.8766 11.2273 21.9739C12.0453 20.0205 11.2882 17.6581 10.5549 15.3727C9.85807 13.1982 9.19905 11.1445 10.127 10.2101C11.1005 9.22632 13.0916 9.73198 15.201 10.2666C17.3511 10.8111 19.5733 11.3768 21.4544 10.5731C23.2837 9.79343 24.4526 7.85409 25.5837 5.97902C26.7805 3.99237 27.9109 2.1166 29.5 2.1166C31.1094 2.1166 32.2664 3.95777 33.4906 5.90769C34.6342 7.72697 35.8157 9.60839 37.6268 10.3817C39.4939 11.1777 41.6867 10.6642 43.8074 10.1677C45.9035 9.6776 47.8848 9.2136 48.873 10.2115C49.7729 11.1176 49.0389 13.1403 48.263 15.2816C47.4282 17.584 46.5646 19.9647 47.3966 21.9499C48.1999 23.8638 50.4347 24.9868 52.5953 26.0722C54.8084 27.1839 56.8989 28.2348 56.8989 29.7461C56.8989 29.8337 56.9129 29.9177 56.9326 29.9989C56.9129 30.0795 56.8996 30.1628 56.8996 30.2497C56.8996 31.7631 54.8091 32.8133 52.596 33.9249Z" fill="#8FA4C0"/>
</svg>
