<?xml version="1.0" encoding="utf-8"?><svg viewBox="0 0 100 100" xmlns="http://www.w3.org/2000/svg" xmlns:xlink="http://www.w3.org/1999/xlink"><style>:root>svg{display:none}:root>svg:target{display:block}</style><svg viewBox="0 0 24 25" id="icon-attach" xmlns="http://www.w3.org/2000/svg"><path d="M21 13.7h-1.5c-.827 0-1.5.673-1.5 1.5v3H6v-3c0-.827-.673-1.5-1.5-1.5H3c-.827 0-1.5.673-1.5 1.5v3.75a3.754 3.754 0 003.75 3.75h13.5a3.754 3.754 0 003.75-3.75V15.2c0-.827-.673-1.5-1.5-1.5zm-15 6h12c.827 0 1.5-.673 1.5-1.5v-3l1.5.001v3.75c0 1.24-1.01 2.25-2.25 2.25H5.25A2.255 2.255 0 013 18.95V15.2h1.5v3c0 .827.673 1.5 1.5 1.5zm7.5-3h-3c-.827 0-1.5-.673-1.5-1.5v-6H6a.75.75 0 01-.53-1.28l6-6a.75.75 0 011.06 0l6 6A.75.75 0 0118 9.2h-3v6c0 .827-.673 1.5-1.5 1.5zm-5.69-9h1.94a.75.75 0 01.75.75v6.75h3V8.45a.75.75 0 01.75-.75h1.94L12 3.51 7.81 7.7z"/></svg><svg viewBox="0 0 20 16" id="icon-burger" xmlns="http://www.w3.org/2000/svg"><rect width="20" height="2" rx="1"/><rect y="7" width="20" height="2" rx="1"/><rect y="14" width="20" height="2" rx="1"/></svg><svg viewBox="0 0 80 81" id="icon-calendar" xmlns="http://www.w3.org/2000/svg"><g clip-path="url(#ca)"><path d="M72.969 5.669h-2.865V3.325a2.344 2.344 0 00-4.687 0V5.67h-5.209V3.325a2.344 2.344 0 10-4.687 0V5.67h-5.209V3.325a2.344 2.344 0 00-4.687 0V5.67h-5.208V3.325a2.344 2.344 0 00-4.688 0V5.67h-5.208V3.325a2.344 2.344 0 10-4.688 0V5.67H22.97a7.04 7.04 0 00-7.032 7.031v30.306C6.96 44.16 0 51.851 0 61.138c0 10.08 8.2 18.28 18.281 18.28 9.287 0 16.978-6.96 18.132-15.937h36.556A7.04 7.04 0 0080 56.451V12.7a7.04 7.04 0 00-7.031-7.032zM20.625 12.7a2.346 2.346 0 012.344-2.344h2.864V12.7a2.344 2.344 0 004.688 0v-2.344h5.208V12.7a2.344 2.344 0 104.688 0v-2.344h5.208V12.7a2.344 2.344 0 004.688 0v-2.344h5.208V12.7a2.344 2.344 0 004.687 0v-2.344h5.209V12.7a2.344 2.344 0 104.687 0v-2.344h2.865a2.346 2.346 0 012.344 2.344v5.469H20.624V12.7zm-2.344 62.031c-7.495 0-13.593-6.098-13.593-13.593 0-7.496 6.098-13.594 13.593-13.594 7.496 0 13.594 6.098 13.594 13.594 0 7.495-6.098 13.593-13.594 13.593zm57.032-18.28a2.346 2.346 0 01-2.344 2.343H36.413c-1.055-8.21-7.578-14.732-15.788-15.788v-20.15h54.688V56.45z"/><path d="M65.156 33.794h3.125a2.344 2.344 0 100-4.688h-3.125a2.344 2.344 0 000 4.688zm-12.5 0h3.125a2.344 2.344 0 100-4.688h-3.125a2.344 2.344 0 000 4.688zm-12.5 0h3.125a2.344 2.344 0 100-4.688h-3.125a2.344 2.344 0 000 4.688zm-12.5 0h3.125a2.344 2.344 0 100-4.688h-3.125a2.344 2.344 0 000 4.688zm0 9.375h3.125a2.344 2.344 0 100-4.688h-3.125a2.344 2.344 0 000 4.688zm37.5 0h3.125a2.344 2.344 0 100-4.688h-3.125a2.344 2.344 0 000 4.688zm-12.5 0h3.125a2.344 2.344 0 100-4.688h-3.125a2.344 2.344 0 000 4.688zm-12.5 0h3.125a2.344 2.344 0 100-4.688h-3.125a2.344 2.344 0 000 4.688zm25 9.375h3.125a2.344 2.344 0 100-4.688h-3.125a2.344 2.344 0 000 4.688zm-12.5 0h3.125a2.344 2.344 0 100-4.688h-3.125a2.344 2.344 0 000 4.688zm-12.5 0h3.125a2.344 2.344 0 100-4.688h-3.125a2.344 2.344 0 000 4.688zm-21.875 0a2.344 2.344 0 00-2.343 2.344v3.906H12.03a2.344 2.344 0 000 4.687h6.25a2.344 2.344 0 002.344-2.343v-6.25a2.344 2.344 0 00-2.344-2.344z"/></g><defs><clipPath id="ca"><path transform="translate(0 .2)" d="M0 0h80v80H0z"/></clipPath></defs></svg><svg viewBox="0 0 22 22" id="icon-close" xmlns="http://www.w3.org/2000/svg"><path fill-rule="evenodd" clip-rule="evenodd" d="M.364.364a.9.9 0 011.272 0L11 9.727 20.364.364a.9.9 0 011.272 1.272L12.273 11l9.363 9.364a.9.9 0 01-1.272 1.272L11 12.273l-9.364 9.363a.9.9 0 01-1.272-1.272L9.727 11 .364 1.636a.9.9 0 010-1.272z"/></svg><svg viewBox="0 0 80 81" id="icon-contract" xmlns="http://www.w3.org/2000/svg"><g clip-path="url(#ea)"><path d="M79.853 19.567a3.999 3.999 0 00-1.866-2.427 4 4 0 00-5.466 1.467l-.666 1.16a1.333 1.333 0 00-1.813.48l-3.386 5.773-1.16-.667a1.334 1.334 0 00-1.827.494 1.334 1.334 0 00.494 1.813l1.16.667-11.332 19.64-2.8 7.48-1.333 2.493a4.001 4.001 0 00.214 4.32l-3 3.68-.84-2.106a2.665 2.665 0 00-4.759-.374l-.48.813-.453-5.333a2.667 2.667 0 00-5.185-.626l-3.28 9.84a1.334 1.334 0 00.84 1.68c.13.06.27.097.413.106a1.333 1.333 0 001.267-.906l3.266-9.84.466 5.413a2.667 2.667 0 004.946 1.147l.493-.814.827 2.094a2.666 2.666 0 004.56.68l3.105-3.934c.344.09.698.135 1.054.134a4 4 0 003.479-1.974l1.333-2.227 5.08-6.173 11.45-19.88 1.16.667a1.333 1.333 0 01.494 1.827l-5.333 9.24a1.332 1.332 0 00.427 1.88 1.332 1.332 0 001.826-.494l5.333-9.24a3.998 3.998 0 00-1.467-5.467l-1.16-.666 3.333-5.774a1.334 1.334 0 00-.48-1.813l.667-1.16c.546-.934.69-2.05.4-3.093zm-5.025.373c.176-.309.469-.535.813-.626a1.4 1.4 0 011.013.133c.31.177.535.47.627.813a1.4 1.4 0 01-.134 1.013l-.666 1.16-2.32-1.333.667-1.16zm-18.17 37.227l-.667-.387-1.973-1.147 1.893-5.066 4.199 2.426-3.453 4.174zm-4 3.853a1.333 1.333 0 01-.4-1.747l.667-1.16 2.32 1.334-.667 1.147a1.333 1.333 0 01-1.92.426zm8.972-10.213l-4.613-2.666L67.683 29.66l4.613 2.667-10.665 18.48zM73.628 30.02l-4.613-2.667 2.667-4.613 4.612 2.667-2.666 4.613zM21.036 60.353l-4.719 4.707-2.826-2.827a1.333 1.333 0 10-1.88 1.894l2.827 2.827c.5.496 1.175.774 1.88.773a2.667 2.667 0 001.892-.773l4.706-4.72a1.334 1.334 0 00-1.88-1.88z"/><path d="M5.332 63.94c0 6.26 5.073 11.333 11.331 11.333 6.259 0 11.332-5.073 11.332-11.333a1.333 1.333 0 10-2.666 0 8.666 8.666 0 11-17.33 0 8.666 8.666 0 018.664-8.667 8.589 8.589 0 015.2 1.734 1.333 1.333 0 101.6-2.133A11.331 11.331 0 005.331 63.94zm42.66-52.667a1.333 1.333 0 100-2.666h-34.66c-.737 0-1.334.597-1.334 1.333v5.333c0 .737.597 1.334 1.333 1.334h34.66a1.333 1.333 0 100-2.667H14.665v-2.667h33.328zm-30.662 8a1.333 1.333 0 000 2.667h26.662a1.333 1.333 0 100-2.667H17.33zm34.662 9.334H22.663a1.333 1.333 0 000 2.666h29.329a1.333 1.333 0 100-2.666zM38.66 37.94c0-.736-.596-1.333-1.333-1.333H10.665a1.333 1.333 0 000 2.666h26.662c.736 0 1.333-.596 1.333-1.333zm13.331-1.333h-9.332a1.333 1.333 0 000 2.666h9.332a1.333 1.333 0 100-2.666zM23.996 45.94a1.333 1.333 0 100-2.667h-13.33a1.333 1.333 0 000 2.667h13.33zm5.332 0h9.332a1.333 1.333 0 100-2.667h-9.332a1.333 1.333 0 000 2.667z"/><path d="M59.99 61.94c-.736 0-1.333.597-1.333 1.333v13.334c0 .737-.597 1.333-1.333 1.333H3.999a1.333 1.333 0 01-1.333-1.333v-72c0-.737.597-1.334 1.333-1.334h53.325c.736 0 1.333.597 1.333 1.334v25.04a1.333 1.333 0 102.666 0V4.607a4 4 0 00-4-4H4a4 4 0 00-3.999 4v72a4 4 0 004 4h53.324a4 4 0 003.999-4V63.273c0-.736-.597-1.333-1.333-1.333z"/></g><defs><clipPath id="ea"><path transform="translate(0 .6)" d="M0 0h80v80H0z"/></clipPath></defs></svg><svg viewBox="0 0 48 48" id="icon-error" xmlns="http://www.w3.org/2000/svg"><path d="M24 6a18 18 0 100 36 18 18 0 000-36zm0 33a15 15 0 110-29.998A15 15 0 0124 39z"/><path d="M24 27a1.5 1.5 0 001.5-1.5v-9a1.5 1.5 0 10-3 0v9A1.5 1.5 0 0024 27zm0 3a1.5 1.5 0 100 3 1.5 1.5 0 000-3z"/></svg><svg viewBox="0 0 80 80" id="icon-feature-1" xmlns="http://www.w3.org/2000/svg"><g clip-path="url(#ga)"><path d="M40 80c-.255 0-.505-.073-.719-.21l-11.208-7.174a49.118 49.118 0 01-22.74-41.55V12a1.333 1.333 0 01.933-1.27L39.6.063c.264-.084.548-.084.813 0L73.746 10.73a1.333 1.333 0 01.92 1.27v19.067a49.118 49.118 0 01-22.74 41.549l-11.208 7.173c-.214.138-.464.21-.718.211zM8 12.974v18.093a46.465 46.465 0 0021.51 39.306L40 77.083l10.489-6.712a46.466 46.466 0 0021.51-39.304V12.974L40 2.734 8 12.974z"/><path d="M40 70.501c-.255 0-.504-.072-.719-.209l-6.895-4.413a41.152 41.152 0 01-19.053-34.812V17.84a1.333 1.333 0 01.934-1.27L39.6 8.463c.264-.084.548-.084.813 0l25.333 8.107a1.333 1.333 0 01.934 1.27v13.227a41.153 41.153 0 01-19.067 34.812l-6.895 4.413c-.214.137-.464.21-.718.21zM16 18.813v12.254a38.497 38.497 0 0017.824 32.565L40 67.585l6.176-3.953A38.496 38.496 0 0064 31.067V18.814l-24-7.68-24 7.68z"/><path d="M50.143 53.972a2.652 2.652 0 01-1.566-.519l-8.578-6.23-8.577 6.23a2.667 2.667 0 01-4.104-2.98l3.276-10.083-8.576-6.232a2.667 2.667 0 011.567-4.824h10.602l3.28-10.083a2.666 2.666 0 015.066 0l3.278 10.083h10.603a2.668 2.668 0 011.567 4.824l-8.576 6.232 3.276 10.082a2.682 2.682 0 01-2.534 3.5h-.004zM40 44.553c.564.001 1.113.18 1.568.513l8.576 6.23-3.276-10.082a2.667 2.667 0 01.97-2.983L56.414 32H45.811a2.667 2.667 0 01-2.533-1.843l-3.279-10.083v-.017l-3.269 10.1A2.667 2.667 0 0134.187 32H23.585l8.577 6.232a2.658 2.658 0 01.968 2.983l-3.275 10.081 8.576-6.23A2.667 2.667 0 0140 44.554z"/></g><defs><clipPath id="ga"><path d="M0 0h80v80H0z"/></clipPath></defs></svg><svg viewBox="0 0 81 80" id="icon-feature-2" xmlns="http://www.w3.org/2000/svg"><path d="M8.166 60h36.25a35.663 35.663 0 0011.788 12.3 1.25 1.25 0 001.35 0 35.775 35.775 0 0016.375-25.813l.487-3.837a1.25 1.25 0 00-.65-1.25l-9.35-5.025V8.75a1.25 1.25 0 00-1.25-1.25h-55a1.25 1.25 0 00-1.25 1.25v50A1.25 1.25 0 008.166 60zm63.288-13.825a33.324 33.324 0 01-14.537 23.588A33.263 33.263 0 0142.39 46.175l-.374-2.975 14.9-8.025 14.9 8.025-.363 2.975zM30.667 10h10v21.25l-4.25-3.188a1.25 1.25 0 00-1.5 0l-4.25 3.188V10zm-21.25 0h18.75v23.75a1.25 1.25 0 001.36 1.243 1.25 1.25 0 00.64-.243l5.5-4.125 5.5 4.125c.216.162.479.25.75.25.196.004.39-.044.562-.138a1.25 1.25 0 00.688-1.112V10h18.75v25l-4.413-2.375a1.25 1.25 0 00-1.175 0l-16.25 8.75a1.25 1.25 0 00-.65 1.25l.475 3.837A36.012 36.012 0 0043.166 57.5H9.416V10z"/><path d="M52.842 53.75a1.25 1.25 0 00-2.057.293 1.249 1.249 0 00.207 1.382l3.75 4.163a1.25 1.25 0 00.925.412h.162a1.25 1.25 0 00.95-.675l6.25-12.5a1.25 1.25 0 00-2.225-1.125l-5.437 10.862-2.525-2.812z"/></svg><svg viewBox="0 0 81 80" id="icon-feature-3" xmlns="http://www.w3.org/2000/svg"><g clip-path="url(#ia)"><path d="M39.266 70.464a3.518 3.518 0 002.144 0c17.902-5.79 24.256-17.021 24.256-24.88V22.757a3.414 3.414 0 00-1.838-3.026L41.932 8.4a3.382 3.382 0 00-3.18 0L16.827 19.733a3.41 3.41 0 00-1.828 3.024v22.827c0 7.859 6.353 19.09 24.267 24.88zm-21.6-47.707a.741.741 0 01.4-.666L39.99 10.744a.784.784 0 01.704.012l21.904 11.337a.742.742 0 01.4.667v22.827c0 6.964-5.867 16.994-22.412 22.34a.853.853 0 01-.507 0c-16.548-5.348-22.414-15.379-22.414-22.343V22.757z"/><path d="M39.249 65.635c.7.256 1.467.256 2.167 0 13.964-5.223 18.917-13.758 18.917-19.479V25.379a3.024 3.024 0 00-1.621-2.684L41.74 13.789a3.037 3.037 0 00-2.816 0l-16.97 8.906a3.022 3.022 0 00-1.622 2.684v20.777c0 5.72 4.953 14.255 18.916 19.479zm6.808-33.28a1.361 1.361 0 011.887 0c.52.52.52 1.363 0 1.884L37.277 44.906a1.361 1.361 0 01-1.885 0l-2.667-2.667a1.333 1.333 0 111.887-1.884l.78.78c.52.52 1.364.52 1.885 0l8.78-8.78zm11.415-7.298c.12.063.194.187.194.322v20.777c0 5.067-4.972 12.033-16 16.504V44.287l8.162-8.162a4 4 0 000-5.656 4.097 4.097 0 00-5.658 0l-2.504 2.504v-16.21l15.806 8.294zM23 25.38c0-.135.075-.26.194-.322L39 16.763V35.64l-2.667 2.667a4.097 4.097 0 00-5.49.157 4 4 0 000 5.657l2.667 2.667a3.97 3.97 0 005.496.133v15.745c-11.028-4.472-16-11.433-16-16.504L23 25.38z"/><path fill-rule="evenodd" clip-rule="evenodd" d="M13.666 5.333c-.736 0-1.333.597-1.333 1.334V12c0 .736.597 1.333 1.333 1.333H19a1.333 1.333 0 000-2.666h-1.76C30.657.103 49.53-.011 63.074 10.39A1.334 1.334 0 1064.7 8.276C49.964-3.044 29.372-2.72 15 9.057v-2.39a1.333 1.333 0 00-1.334-1.334zM9.389 65.334h-2.39A1.333 1.333 0 107 68h5.334c.736 0 1.333-.597 1.333-1.333v-5.334a1.333 1.333 0 00-2.666 0v1.76C.435 49.674.32 30.8 10.722 17.256a1.333 1.333 0 10-2.112-1.624c-11.32 14.735-10.998 35.328.779 49.7zM67 74.667c.736 0 1.333-.597 1.333-1.334V68c0-.736-.597-1.333-1.333-1.333h-5.334a1.333 1.333 0 000 2.666h1.76c-13.417 10.564-32.291 10.678-45.834.276a1.334 1.334 0 00-1.626 2.115c14.736 11.32 35.328 10.996 49.7-.782v2.391c0 .737.597 1.334 1.334 1.334zm6.667-60a1.333 1.333 0 000-2.667h-5.334c-.736 0-1.333.597-1.333 1.333v5.334a1.333 1.333 0 002.667 0v-1.759c10.564 13.417 10.678 32.291.277 45.835a1.334 1.334 0 102.112 1.624c11.32-14.735 10.998-35.327-.779-49.7h2.39z"/></g><defs><clipPath id="ia"><path transform="translate(.333)" d="M0 0h80v80H0z"/></clipPath></defs></svg><svg viewBox="0 0 60 60" id="icon-garantee" xmlns="http://www.w3.org/2000/svg"><path d="M39.947 21.39L26.719 36.13l-6.713-6.677a1.18 1.18 0 00-1.662 0 1.164 1.164 0 000 1.653l7.592 7.552c.22.22.52.342.832.342h.033c.323-.01.628-.15.844-.39L41.7 22.947a1.165 1.165 0 00-.094-1.651 1.182 1.182 0 00-1.66.093z"/><path d="M58.967 29.998c.02-.08.033-.164.033-.25 0-2.824-2.904-4.283-5.468-5.571-1.82-.914-3.7-1.86-4.2-3.051-.51-1.216.21-3.198.904-5.116.97-2.671 1.971-5.433.123-7.296-1.812-1.827-4.462-1.209-7.026-.608-1.795.42-3.651.853-4.887.326-1.207-.515-2.21-2.111-3.18-3.656C33.859 2.538 32.266 0 29.5 0c-2.77 0-4.334 2.593-5.712 4.88-.957 1.59-1.946 3.23-3.152 3.745-1.232.526-3.108.049-4.922-.41-2.584-.655-5.256-1.334-7.072.5-1.836 1.85-.947 4.627-.085 7.312.615 1.916 1.25 3.898.736 5.125-.502 1.196-2.299 2.133-4.038 3.04C2.792 25.476 0 26.932 0 29.75c0 .088.014.172.034.253-.02.08-.033.164-.033.25 0 2.818 2.792 4.273 5.256 5.557 1.737.906 3.535 1.844 4.037 3.04.514 1.227-.122 3.208-.736 5.125-.861 2.685-1.751 5.46.084 7.312 1.818 1.834 4.49 1.157 7.073.5 1.815-.459 3.692-.934 4.923-.409 1.204.514 2.194 2.155 3.15 3.743 1.38 2.287 2.942 4.88 5.713 4.88 2.765 0 4.36-2.538 5.766-4.776.97-1.545 1.973-3.14 3.178-3.656 1.24-.528 3.094-.094 4.888.326 2.562.6 5.214 1.22 7.025-.608 1.85-1.863.848-4.626-.121-7.297-.696-1.917-1.415-3.899-.906-5.113.501-1.192 2.382-2.138 4.201-3.052C56.095 34.536 59 33.077 59 30.254c0-.09-.013-.175-.033-.256zm-6.371 3.927c-2.16 1.085-4.395 2.208-5.2 4.123-.83 1.984.033 4.365.868 6.667.776 2.14 1.51 4.164.608 5.07-.986.998-2.968.534-5.065.044-2.12-.496-4.313-1.01-6.18-.214-1.81.773-2.992 2.654-4.135 4.474-1.225 1.949-2.382 3.79-3.991 3.79-1.59 0-2.72-1.876-3.917-3.862-1.13-1.875-2.299-3.814-4.128-4.593-1.88-.804-4.103-.24-6.254.306-2.108.533-4.1 1.04-5.075.056-.927-.934-.268-2.988.429-5.162.733-2.285 1.49-4.648.672-6.602-.797-1.901-2.937-3.017-5.007-4.097-2.118-1.104-4.12-2.147-4.12-3.675 0-.087-.014-.171-.034-.253.02-.08.033-.164.033-.25 0-1.529 2.001-2.572 4.12-3.675 2.07-1.08 4.211-2.195 5.007-4.098.818-1.954.061-4.316-.672-6.601-.697-2.175-1.356-4.228-.428-5.163.973-.984 2.965-.478 5.074.057 2.15.544 4.372 1.11 6.253.306 1.83-.78 2.999-2.719 4.13-4.594C26.78 3.992 27.91 2.117 29.5 2.117c1.61 0 2.766 1.84 3.99 3.79 1.144 1.82 2.326 3.701 4.137 4.475 1.867.796 4.06.282 6.18-.214 2.096-.49 4.078-.954 5.066.043.9.907.166 2.93-.61 5.07-.835 2.303-1.698 4.684-.866 6.669.803 1.914 3.038 3.037 5.198 4.122 2.213 1.112 4.304 2.163 4.304 3.674 0 .088.014.172.034.253-.02.08-.033.164-.033.25 0 1.514-2.09 2.564-4.304 3.676z"/></svg><svg viewBox="0 0 80 62" id="icon-mail" xmlns="http://www.w3.org/2000/svg"><path d="M71.406.731H8.594A8.603 8.603 0 000 9.325v43.75a8.603 8.603 0 008.594 8.594h62.812A8.603 8.603 0 0080 53.075V9.325A8.603 8.603 0 0071.406.731zm3.906 8.594v43.75c0 .287-.031.572-.093.852L50.323 31.2 75.22 8.474c.062.28.093.565.094.851zM71.406 5.42h.2L42.633 31.872a3.883 3.883 0 01-5.266 0L8.394 5.42h63.012zM4.781 53.927a3.929 3.929 0 01-.093-.852V9.325c0-.286.031-.572.093-.851L29.677 31.2 4.78 53.927zm3.813 3.054h-.2l24.76-22.607 1.052.96a8.553 8.553 0 0011.588 0l1.053-.96 24.76 22.607H8.593z"/></svg><svg viewBox="0 0 80 81" id="icon-phone" xmlns="http://www.w3.org/2000/svg"><g clip-path="url(#la)"><path d="M65.38 61.224l-9.944-9.943a6.985 6.985 0 00-4.972-2.06 6.985 6.985 0 00-4.971 2.06l-5.916 5.915c-1.612-.176-5.714-1.129-10.657-6.072-4.957-4.956-5.81-9.024-5.941-10.632l5.94-5.94a6.985 6.985 0 002.06-4.972 6.985 6.985 0 00-2.06-4.972l-9.943-9.944a7.04 7.04 0 00-9.944 0l-3.314 3.315h-.001l-.002.002-.01.01a19.471 19.471 0 00-5.656 12.39 19.654 19.654 0 003.819 13.076c4.742 6.403 9.825 12.329 15.108 17.611 5.522 5.523 11.777 10.944 17.611 15.264a19.67 19.67 0 0013.076 3.82 19.469 19.469 0 0012.387-5.654l.013-.013.001-.001.001-.002 3.315-3.314a6.985 6.985 0 002.06-4.972 6.985 6.985 0 00-2.06-4.972zM12.347 17.98a2.346 2.346 0 013.314 0l9.944 9.943a2.347 2.347 0 010 3.315l-1.657 1.657L10.69 19.636l1.657-1.657zm27.03 54.586c-5.654-4.187-11.723-9.448-17.087-14.811-5.12-5.12-10.05-10.869-14.655-17.087-3.958-5.345-3.917-12.41-.133-17.59L20.633 36.21l-1.657 1.657c-.373.373-.61.861-.67 1.386-.034.288-.733 7.155 7.3 15.187 5.962 5.963 12.082 7.737 15.126 7.462a2.343 2.343 0 001.446-.677l1.657-1.657L56.967 72.7c-5.178 3.783-12.245 3.825-17.59-.134zm22.688-4.712l-1.657 1.658-13.258-13.26 1.657-1.657a2.346 2.346 0 013.314 0l9.944 9.944c.443.443.687 1.031.687 1.657 0 .626-.244 1.215-.687 1.657zm6.283-56.002C60.834 4.338 50.828.2 40.174.2a2.344 2.344 0 000 4.688c9.402 0 18.23 3.65 24.86 10.279 6.628 6.629 10.278 15.457 10.278 24.86a2.344 2.344 0 004.688 0c0-10.655-4.138-20.66-11.652-28.175z"/><path d="M61.719 18.482C55.972 12.735 48.32 9.57 40.174 9.57a2.344 2.344 0 000 4.688c6.894 0 13.369 2.677 18.23 7.538 4.861 4.862 7.538 11.336 7.538 18.23a2.344 2.344 0 004.688 0c0-8.146-3.165-15.798-8.911-21.544z"/><path d="M55.09 25.11a20.956 20.956 0 00-14.916-6.177 2.344 2.344 0 000 4.687c4.382 0 8.502 1.707 11.6 4.805a16.298 16.298 0 014.806 11.601 2.344 2.344 0 104.688 0 20.955 20.955 0 00-6.179-14.915z"/></g><defs><clipPath id="la"><path transform="translate(0 .2)" d="M0 0h80v80H0z"/></clipPath></defs></svg><svg viewBox="0 0 80 81" id="icon-pin" xmlns="http://www.w3.org/2000/svg"><g clip-path="url(#ma)"><path d="M53.356 53.057c8.513-13.358 7.442-11.692 7.688-12.04a25.588 25.588 0 004.737-14.88C65.781 11.917 54.241.2 40 .2 25.806.2 14.219 11.893 14.219 26.138c0 5.36 1.672 10.639 4.873 15.07l7.552 11.85c-8.074 1.24-21.8 4.938-21.8 13.08 0 2.968 1.937 7.197 11.166 10.493 6.444 2.302 14.964 3.57 23.99 3.57 16.879 0 35.156-4.762 35.156-14.063 0-8.144-13.71-11.837-21.8-13.08zM23.008 38.63a2.445 2.445 0 00-.081-.118 21.03 21.03 0 01-4.02-12.373c0-11.722 9.438-21.25 21.093-21.25 11.631 0 21.094 9.532 21.094 21.25 0 4.372-1.332 8.568-3.851 12.136-.226.298.952-1.532-17.243 27.018L23.008 38.63zM40 75.513c-18.437 0-30.469-5.42-30.469-9.375 0-2.66 6.183-7.03 19.883-8.735l8.61 13.51a2.344 2.344 0 003.952 0l8.61-13.51c13.7 1.704 19.883 6.076 19.883 8.735 0 3.922-11.924 9.375-30.469 9.375z"/><path d="M40 14.419c-6.462 0-11.719 5.257-11.719 11.719 0 6.461 5.257 11.718 11.719 11.718S51.719 32.6 51.719 26.138 46.462 14.418 40 14.418zm0 18.75a7.04 7.04 0 01-7.031-7.031A7.04 7.04 0 0140 19.106a7.04 7.04 0 017.031 7.032A7.04 7.04 0 0140 33.168z"/></g><defs><clipPath id="ma"><path transform="translate(0 .2)" d="M0 0h80v80H0z"/></clipPath></defs></svg><svg viewBox="0 0 44 60" id="icon-price" xmlns="http://www.w3.org/2000/svg"><path d="M13.562 59.062a.937.937 0 01-.84-.518l-2.336-4.675-4.741 3.16a.938.938 0 01-1.418-1.052L9.9 37.33a.938.938 0 011.795.546l-4.91 16.14 3.445-2.296a.935.935 0 011.36.36l1.78 3.563 4.889-15.369a.938.938 0 011.787.568l-5.59 17.564a.938.938 0 01-.82.65c-.024.006-.05.006-.073.006zm16.875 0h-.073a.938.938 0 01-.82-.65l-5.588-17.569a.936.936 0 111.787-.568l4.888 15.37 1.781-3.563a.936.936 0 011.36-.361l3.445 2.297-4.911-16.143a.938.938 0 111.794-.546l5.672 18.647a.939.939 0 01-1.418 1.053l-4.74-3.16-2.333 4.675a.938.938 0 01-.844.518zM22 34.688A12.187 12.187 0 1134.188 22.5 12.201 12.201 0 0122 34.688zm0-22.5A10.312 10.312 0 1032.313 22.5 10.325 10.325 0 0022 12.187z"/><path d="M22.938 27.188h-3.75a.938.938 0 010-1.875h3.75a.938.938 0 000-1.875h-1.875a2.812 2.812 0 110-5.625h3.75a.938.938 0 010 1.875h-3.75a.938.938 0 000 1.875h1.875a2.812 2.812 0 110 5.625z"/><path d="M22 19.688a.938.938 0 01-.938-.938v-1.875a.938.938 0 011.875 0v1.875a.938.938 0 01-.937.938zm0 9.375a.938.938 0 01-.938-.938V26.25a.938.938 0 011.875 0v1.875a.938.938 0 01-.937.938z"/><path d="M22 44.062a.938.938 0 01-.628-.241l-4.096-3.696-5.395 1.157a.938.938 0 01-1.09-.63l-1.687-5.25-5.25-1.687a.938.938 0 01-.629-1.09l1.15-5.402-3.696-4.095a.937.937 0 010-1.256l3.696-4.095-1.157-5.396a.938.938 0 01.629-1.089l5.25-1.687 1.687-5.25a.938.938 0 011.09-.63l5.402 1.15 4.096-3.696a.938.938 0 011.256 0l4.095 3.696 5.395-1.157a.938.938 0 011.09.63l1.687 5.25 5.25 1.687a.937.937 0 01.629 1.089l-1.15 5.403 3.698 4.095a.938.938 0 010 1.256l-3.697 4.095 1.157 5.395a.937.937 0 01-.63 1.09l-5.25 1.687-1.687 5.25a.938.938 0 01-1.09.63l-5.402-1.15-4.095 3.696a.937.937 0 01-.628.241zm-4.452-5.894c.233 0 .456.087.629.242L22 41.861l3.823-3.45a.929.929 0 01.825-.222l5.034 1.08 1.578-4.903a.937.937 0 01.605-.605l4.904-1.579-1.08-5.034a.938.938 0 01.221-.825l3.45-3.823-3.45-3.823a.938.938 0 01-.221-.825l1.08-5.035-4.903-1.577a.937.937 0 01-.605-.605L31.682 5.73l-5.034 1.08a.924.924 0 01-.825-.221L22 3.139l-3.823 3.45a.93.93 0 01-.825.222l-5.035-1.08-1.578 4.903a.938.938 0 01-.604.605L5.23 12.817l1.08 5.035a.937.937 0 01-.222.825L2.64 22.5l3.45 3.823a.938.938 0 01.222.825l-1.08 5.034 4.903 1.578a.938.938 0 01.604.605l1.58 4.904 5.034-1.08a.945.945 0 01.196-.02z"/><path d="M22 44.062a.938.938 0 01-.628-.241l-4.096-3.696-5.395 1.157a.938.938 0 01-1.09-.63l-1.687-5.25-5.25-1.687a.938.938 0 01-.629-1.09l1.15-5.402-3.696-4.095a.937.937 0 010-1.256l3.696-4.095-1.157-5.396a.938.938 0 01.629-1.089l5.25-1.687 1.687-5.25a.938.938 0 011.09-.63l5.402 1.15 4.096-3.696a.938.938 0 011.256 0l4.095 3.696 5.395-1.157a.938.938 0 011.09.63l1.687 5.25 5.25 1.687a.937.937 0 01.629 1.089l-1.15 5.403 3.698 4.095a.938.938 0 010 1.256l-3.697 4.095 1.157 5.395a.937.937 0 01-.63 1.09l-5.25 1.687-1.687 5.25a.938.938 0 01-1.09.63l-5.402-1.15-4.095 3.696a.937.937 0 01-.628.241zm-4.452-5.894c.233 0 .456.087.629.242L22 41.861l3.823-3.45a.929.929 0 01.825-.222l5.034 1.08 1.578-4.903a.937.937 0 01.605-.605l4.904-1.579-1.08-5.034a.938.938 0 01.221-.825l3.45-3.823-3.45-3.823a.938.938 0 01-.221-.825l1.08-5.035-4.903-1.577a.937.937 0 01-.605-.605L31.682 5.73l-5.034 1.08a.924.924 0 01-.825-.221L22 3.139l-3.823 3.45a.93.93 0 01-.825.222l-5.035-1.08-1.578 4.903a.938.938 0 01-.604.605L5.23 12.817l1.08 5.035a.937.937 0 01-.222.825L2.64 22.5l3.45 3.823a.938.938 0 01.222.825l-1.08 5.034 4.903 1.578a.938.938 0 01.604.605l1.58 4.904 5.034-1.08a.945.945 0 01.196-.02z"/></svg><svg viewBox="0 0 40 41" id="icon-quotes" xmlns="http://www.w3.org/2000/svg"><path d="M37.314 8.196c-1.808-2.03-4.002-3.06-6.52-3.06-2.265 0-4.184.806-5.705 2.396-1.512 1.58-2.279 3.542-2.279 5.832 0 2.164.774 4.093 2.302 5.732 1.347 1.447 3.044 2.366 5.053 2.741-.351 2.664-2.706 5.075-7.013 7.176l-.776.378 3.18 5.87.718-.363C35.382 30.28 40 23.756 40 15.505c0-2.847-.904-5.306-2.686-7.309zM26.24 33.051l-1.593-2.94c4.79-2.51 7.218-5.529 7.218-8.979v-.739l-.734-.083c-1.977-.223-3.55-.99-4.809-2.341-1.25-1.342-1.858-2.848-1.858-4.605 0-1.875.595-3.409 1.82-4.688 1.214-1.269 2.69-1.886 4.51-1.886 2.055 0 3.783.82 5.284 2.506 1.526 1.715 2.268 3.746 2.268 6.209 0 3.782-1.065 7.196-3.165 10.148-2.004 2.816-5.01 5.303-8.94 7.398zM14.894 8.193c-1.828-2.028-4.03-3.057-6.548-3.057-2.266 0-4.177.808-5.678 2.4-1.489 1.58-2.244 3.54-2.244 5.828 0 2.164.774 4.093 2.302 5.732 1.344 1.443 3.02 2.363 4.992 2.74-.347 2.665-2.682 5.077-6.954 7.178L0 29.39l3.1 5.874.726-.366c9.149-4.616 13.788-11.141 13.788-19.393 0-2.849-.916-5.31-2.72-7.312zM3.8 33.048l-1.55-2.936c4.757-2.511 7.167-5.53 7.167-8.98v-.737l-.733-.085c-1.936-.223-3.49-.989-4.75-2.341-1.25-1.342-1.857-2.848-1.857-4.605 0-1.878.587-3.413 1.793-4.693 1.194-1.265 2.657-1.88 4.475-1.88 2.057 0 3.797.82 5.319 2.509 1.544 1.714 2.295 3.743 2.295 6.205 0 3.781-1.07 7.195-3.18 10.146-2.012 2.816-5.03 5.302-8.979 7.397z"/></svg><svg viewBox="0 0 80 81" id="icon-repair" xmlns="http://www.w3.org/2000/svg"><g clip-path="url(#pa)"><path d="M74.207 61.208l-7.388-8.522a1.37 1.37 0 00-.33-.277l-13.82-8.297-1.775-5.327a1.368 1.368 0 00-2.267-.535l-3.871 3.871-24.793-24.793-4.817-8.615a1.369 1.369 0 00-.583-.557L6.82 4.285a1.369 1.369 0 00-1.58.256L.401 9.381a1.37 1.37 0 00-.257 1.58l3.872 7.742c.123.246.317.449.556.583l8.615 4.817 24.794 24.794-3.871 3.87a1.368 1.368 0 00.535 2.267l5.329 1.776 8.467 14.023c.075.124.168.235.278.329l8.358 7.213c1.604 1.384 3.643 2.068 5.682 2.068 2.263 0 4.525-.843 6.188-2.506l4.85-4.85c3.162-3.162 3.346-8.49.41-11.879zM14.989 22.033a1.364 1.364 0 00-.3-.227l-8.413-4.704-3.242-6.483L6.48 7.175l6.483 3.241 4.704 8.413c.061.11.137.211.227.3L42.82 44.057l-2.903 2.904-24.928-24.928zm56.872 49.12l-4.85 4.849c-2.169 2.17-5.823 2.304-8.145.3l-8.194-7.07-8.616-14.268a1.368 1.368 0 00-.738-.591l-3.706-1.235 3.795-3.796 4.317-4.317 3.273-3.273 1.236 3.706c.103.31.314.573.594.74l14.066 8.446 7.245 8.358c2.016 2.325 1.892 5.982-.277 8.15z"/><path d="M79.599 35.913l-4.84-4.839a1.369 1.369 0 00-1.935 0l-.968.968-4.84-4.839.969-.968a1.368 1.368 0 000-1.936L55.403 11.717c-.283-.283-6.979-6.955-11.003-8.967C40.274.687 36.103.755 35.927.758a1.368 1.368 0 00-.937 2.337c.056.056 5.685 5.704 7.591 9.268 1.83 3.419 1.775 8.957 1.774 9.012-.005.37.14.727.401.988l.968.968-7.84 7.84a1.369 1.369 0 101.936 1.936l7.84-7.84 3.871 3.872-7.84 7.84a1.369 1.369 0 101.936 1.935l7.84-7.84 3.872 3.872c.535.534 1.4.534 1.935 0l.968-.968 4.84 4.839-.968.968a1.368 1.368 0 000 1.936l4.839 4.839a1.369 1.369 0 001.936 0l8.71-8.711a1.369 1.369 0 000-1.935zm-9.679 7.743l-2.903-2.903.968-.968a1.368 1.368 0 000-1.936l-6.775-6.775a1.369 1.369 0 00-1.936 0l-.968.968L47.09 20.825c-.035-1.656-.296-6.391-2.094-9.753-1.197-2.239-3.582-5.077-5.452-7.144 1.116.25 2.385.647 3.633 1.27 3.628 1.815 10.225 8.389 10.291 8.455l11.615 11.614-.968.968a1.368 1.368 0 000 1.936l6.774 6.775a1.369 1.369 0 001.936 0l.968-.968 2.903 2.903-6.775 6.775zm-36.497 5.527a1.369 1.369 0 00-1.936 0L9.914 70.756a2.741 2.741 0 01-3.872 0 2.72 2.72 0 01-.8-1.935c0-.732.283-1.419.8-1.935l21.46-21.46a1.369 1.369 0 00-1.936-1.936L4.106 64.95a5.435 5.435 0 00-1.602 3.873 5.44 5.44 0 001.603 3.87 5.457 5.457 0 003.871 1.6 5.46 5.46 0 003.872-1.601l21.573-21.573a1.369 1.369 0 000-1.936z"/></g><defs><clipPath id="pa"><path transform="translate(0 .6)" d="M0 0h80v80H0z"/></clipPath></defs></svg><svg viewBox="0 0 28 28" id="icon-slider-arr" xmlns="http://www.w3.org/2000/svg"><path d="M14 .867l-2.35 2.35 9.3 9.316H.667v3.334H20.95l-9.3 9.316 2.35 2.35L27.334 14.2 14 .867z"/></svg><svg viewBox="0 0 100 100" id="icon-success" xmlns="http://www.w3.org/2000/svg"><path d="M81.613 100H18.387C8.249 100 0 91.75 0 81.611V18.387C0 8.247 8.249 0 18.387 0h63.226C91.751 0 100 8.248 100 18.387v63.226C100 91.751 91.751 100 81.613 100zM18.387 4.085c-7.885 0-14.301 6.416-14.301 14.3v63.227c0 7.885 6.416 14.301 14.3 14.301h63.227c7.885 0 14.301-6.416 14.301-14.3V18.386c0-7.885-6.416-14.301-14.3-14.301H18.386z"/><path d="M77.248 21.958L42.19 78.717a1.883 1.883 0 01-3.133.105L21.234 53.876c-.642-.898.397-2.035 1.349-1.477l16.878 9.898L75.607 20.75c.825-.946 2.302.14 1.641 1.21z"/></svg><svg viewBox="0 0 80 81" id="icon-workflow_1" xmlns="http://www.w3.org/2000/svg"><path d="M74.631 39.287l-8.844-8.843a1.25 1.25 0 00-1.762 0l-19.45 19.45c-.148.15-.257.335-.319.537l-3.531 12.375a1.25 1.25 0 00.319 1.25c.233.235.55.368.881.369.116-.001.232-.018.344-.05l12.375-3.531a1.25 1.25 0 00.537-.32l19.45-19.45a1.25 1.25 0 000-1.762v-.025zM43.75 61.325l2.337-8.169 5.832 5.831-8.169 2.338zm10.556-3.481l-7.081-7.07L64.906 33.1l7.069 7.069-17.669 17.675zm-8.937-22.738l-12.62 12.619-8.124-8.125a1.25 1.25 0 00-1.763 1.769l9.013 9.006a1.25 1.25 0 001.762 0l13.5-13.5a1.25 1.25 0 00-1.762-1.769h-.006z"/><path d="M56.25 63.2A1.25 1.25 0 0055 64.45v3.75H15V15.7h28.231L55 27.469V33.2a1.25 1.25 0 002.5 0v-6.25a1.25 1.25 0 00-.369-.881l-12.5-12.5a1.25 1.25 0 00-.881-.369h-30a1.25 1.25 0 00-1.25 1.25v55a1.25 1.25 0 001.25 1.25h42.5a1.25 1.25 0 001.25-1.25v-5a1.25 1.25 0 00-1.25-1.25z"/></svg><svg viewBox="0 0 81 81" id="icon-workflow_2" xmlns="http://www.w3.org/2000/svg"><g clip-path="url(#ta)"><path d="M52.663 36.13H28.67a6.188 6.188 0 00-6.18 6.18v32.21a6.187 6.187 0 006.18 6.18h23.993a6.187 6.187 0 006.18-6.18V42.31a6.187 6.187 0 00-6.18-6.18zm3.68 38.39a3.684 3.684 0 01-3.68 3.68H28.67a3.684 3.684 0 01-3.68-3.68V42.31a3.685 3.685 0 013.68-3.68h23.993a3.684 3.684 0 013.68 3.68v32.21zm-4.64-32.638H29.63a2.449 2.449 0 00-2.446 2.446v5.821a2.45 2.45 0 002.446 2.447h22.074a2.449 2.449 0 002.446-2.447v-5.82a2.45 2.45 0 00-2.446-2.447zm-.054 8.214H29.683v-5.714H51.65v5.714zm-17.72 8.158a1.25 1.25 0 01-1.25 1.25H28.55a1.25 1.25 0 010-2.5h4.129a1.25 1.25 0 011.25 1.25zm20.103 0a1.25 1.25 0 01-1.25 1.25h-4.128a1.25 1.25 0 010-2.5h4.128a1.25 1.25 0 011.25 1.25zm-10.051 0a1.25 1.25 0 01-1.25 1.25h-4.129a1.25 1.25 0 010-2.5h4.129a1.25 1.25 0 011.25 1.25zm-10.052 7.618a1.25 1.25 0 01-1.25 1.25H28.55a1.25 1.25 0 010-2.5h4.129a1.25 1.25 0 011.25 1.25zm20.103 0a1.25 1.25 0 01-1.25 1.25h-4.128a1.25 1.25 0 010-2.5h4.128a1.25 1.25 0 011.25 1.25zm-10.051 0a1.25 1.25 0 01-1.25 1.25h-4.129a1.25 1.25 0 010-2.5h4.129a1.25 1.25 0 011.25 1.25zm-10.052 7.616a1.25 1.25 0 01-1.25 1.25H28.55a1.25 1.25 0 010-2.5h4.129a1.25 1.25 0 011.25 1.25zm20.103 0a1.25 1.25 0 01-1.25 1.25h-4.128a1.25 1.25 0 010-2.5h4.128a1.25 1.25 0 011.25 1.25zm-10.051 0a1.25 1.25 0 01-1.25 1.25h-4.129a1.25 1.25 0 010-2.5h4.129a1.25 1.25 0 011.25 1.25zm-3.315-45.1a1.25 1.25 0 011.25 1.25v2.906a1.25 1.25 0 01-2.5 0v-2.906a1.25 1.25 0 011.25-1.25zM29.841 20.7l10.2 5.89a1.25 1.25 0 001.25 0l10.2-5.89a1.25 1.25 0 00.626-1.082V7.839a1.25 1.25 0 00-.625-1.082l-10.2-5.89a1.25 1.25 0 00-1.25 0l-10.2 5.89a1.25 1.25 0 00-.626 1.082v11.778a1.25 1.25 0 00.625 1.083zm1.875-10.695l7.7 4.445v8.89l-7.7-4.445v-8.89zm10.2 13.336v-8.89l7.7-4.447v8.891l-7.7 4.446zm-1.25-19.948l7.7 4.446-7.7 4.446-7.7-4.446 7.7-4.446zm29.8 44.056v4.593a1.25 1.25 0 01-.366.884l-6.516 6.516a1.25 1.25 0 01-1.767-1.768l6.15-6.15V47.45a1.25 1.25 0 012.5 0h-.001zm9.575-25l-10.2-5.89a1.25 1.25 0 00-1.25 0l-10.2 5.89a1.25 1.25 0 00-.625 1.082V35.31a1.25 1.25 0 00.625 1.082l10.2 5.89a1.251 1.251 0 001.25 0l10.2-5.89a1.25 1.25 0 00.625-1.083V23.531a1.25 1.25 0 00-.625-1.082zm-10.825-3.364l7.7 4.446-7.7 4.446-7.7-4.446 7.7-4.445zm-8.95 6.611l7.7 4.446v8.891l-7.7-4.445v-8.892zm10.2 13.337v-8.89l7.7-4.447v8.892l-7.7 4.445zm-50.95 18.64a1.25 1.25 0 11-1.767 1.769l-6.516-6.516a1.25 1.25 0 01-.366-.884V47.45a1.25 1.25 0 012.5 0v4.075l6.15 6.15zm-7.4-15.225c.22 0 .436-.057.626-.167l10.2-5.89a1.25 1.25 0 00.625-1.082V23.531a1.25 1.25 0 00-.625-1.082l-10.2-5.89a1.25 1.25 0 00-1.25 0l-10.2 5.89a1.25 1.25 0 00-.625 1.082V35.31a1.25 1.25 0 00.625 1.082l10.2 5.89c.19.109.405.167.625.166zm1.25-3.415v-8.89l7.7-4.446v8.89l-7.7 4.446zm-1.25-19.948l7.701 4.446-7.7 4.446-7.7-4.446 7.7-4.445zm-8.95 6.611l7.7 4.446v8.891l-7.7-4.445v-8.892z"/></g><defs><clipPath id="ta"><path transform="translate(.667 .7)" d="M0 0h80v80H0z"/></clipPath></defs></svg><svg viewBox="0 0 81 81" id="icon-workflow_3" xmlns="http://www.w3.org/2000/svg"><g clip-path="url(#ua)"><path d="M20.366.739H1.684a1.35 1.35 0 00-1.351 1.35V79.31c0 .746.605 1.351 1.35 1.351h18.683a1.35 1.35 0 001.351-1.35V2.09a1.35 1.35 0 00-1.35-1.351zm-1.35 77.22H3.034v-6.016h9.858a1.35 1.35 0 100-2.702H3.035v-3.94h3.63a1.35 1.35 0 000-2.702h-3.63v-3.941h3.63a1.35 1.35 0 100-2.702h-3.63v-3.94h9.858a1.35 1.35 0 000-2.703H3.035v-3.94h3.63a1.35 1.35 0 100-2.702h-3.63v-3.94h3.63a1.35 1.35 0 100-2.703h-3.63v-3.94h9.858a1.35 1.35 0 000-2.702H3.035v-3.94h3.63a1.35 1.35 0 100-2.702h-3.63v-3.941h3.63a1.35 1.35 0 000-2.702h-3.63V12.16h9.858a1.35 1.35 0 100-2.702H3.035V3.441h15.98v74.518zm61.084.593L27.712 1.332a1.352 1.352 0 00-2.469.758v77.22c0 .746.605 1.351 1.351 1.351h52.388a1.35 1.35 0 001.118-2.11zm-52.155-.593V6.487L76.433 77.96H27.945z"/><path d="M35.39 70.697h25.277a1.351 1.351 0 001.118-2.109L36.508 31.33a1.351 1.351 0 00-2.469.758v37.259c0 .746.605 1.35 1.35 1.35zm1.35-34.211l21.378 31.51H36.74v-31.51z"/></g><defs><clipPath id="ua"><path transform="translate(.333 .7)" d="M0 0h80v80H0z"/></clipPath></defs></svg><svg viewBox="0 0 80 81" id="icon-workflow_4" xmlns="http://www.w3.org/2000/svg"><g clip-path="url(#va)"><path d="M61.574 53.834a24.968 24.968 0 002.97-7.166h3.73c.691 0 1.25-.56 1.25-1.25v-9.437c0-.69-.559-1.25-1.25-1.25h-3.73a24.97 24.97 0 00-2.97-7.165l2.64-2.639a1.25 1.25 0 000-1.768l-6.673-6.673a1.25 1.25 0 00-1.768 0l-2.64 2.64a24.973 24.973 0 00-7.165-2.97v-3.73c0-.691-.56-1.25-1.25-1.25h-9.436c-.69 0-1.25.559-1.25 1.25v3.73a24.97 24.97 0 00-7.166 2.97l-2.64-2.64a1.25 1.25 0 00-1.767 0l-6.673 6.673a1.25 1.25 0 000 1.768l2.64 2.64a24.969 24.969 0 00-2.97 7.165h-3.73c-.691 0-1.25.56-1.25 1.25v9.436c0 .69.559 1.25 1.25 1.25h3.73a24.971 24.971 0 002.97 7.166l-2.64 2.64a1.25 1.25 0 000 1.767l6.673 6.673a1.25 1.25 0 001.768 0l2.64-2.64a24.969 24.969 0 007.164 2.97v3.73c0 .691.56 1.25 1.25 1.25h9.437c.69 0 1.25-.559 1.25-1.25v-3.73a24.962 24.962 0 007.165-2.97l2.64 2.64a1.25 1.25 0 001.768 0l6.672-6.673a1.25 1.25 0 000-1.768l-2.64-2.64zm-4.917 8.428l-2.466-2.466a1.25 1.25 0 00-1.578-.156 22.527 22.527 0 01-8.14 3.374 1.25 1.25 0 00-1.005 1.226v3.485h-6.937V64.24c0-.596-.42-1.11-1.005-1.226a22.53 22.53 0 01-8.14-3.373 1.25 1.25 0 00-1.578.156l-2.465 2.465-4.905-4.905 2.465-2.466a1.25 1.25 0 00.156-1.578 22.53 22.53 0 01-3.374-8.14 1.25 1.25 0 00-1.226-1.005h-3.484v-6.937h3.485c.596 0 1.11-.42 1.226-1.005a22.531 22.531 0 013.373-8.14 1.25 1.25 0 00-.155-1.577l-2.466-2.466 4.905-4.905 2.466 2.465a1.25 1.25 0 001.578.156 22.53 22.53 0 018.14-3.373 1.25 1.25 0 001.005-1.226v-3.485h6.937v3.485c0 .596.42 1.11 1.005 1.226a22.528 22.528 0 018.14 3.374 1.25 1.25 0 001.578-.156l2.465-2.466 4.905 4.905-2.465 2.466a1.25 1.25 0 00-.156 1.578 22.526 22.526 0 013.373 8.14 1.25 1.25 0 001.226 1.005h3.485v6.937H63.54a1.25 1.25 0 00-1.226 1.005 22.527 22.527 0 01-3.373 8.14 1.25 1.25 0 00.156 1.578l2.465 2.465-4.905 4.905zm18.569 6.307a1.25 1.25 0 01-1.146 1.346l-7.893.633a1.25 1.25 0 01-1.346-1.346l.633-7.891a1.25 1.25 0 012.493.2l-.357 4.446c6.334-6.915 9.812-15.845 9.812-25.257 0-7.67-2.306-15.044-6.669-21.324a1.25 1.25 0 012.053-1.426c4.655 6.701 7.116 14.568 7.116 22.75 0 10.106-3.759 19.691-10.602 27.09l4.56-.367a1.252 1.252 0 011.346 1.146zM16.936 9.633a1.25 1.25 0 01.314-1.74C23.95 3.24 31.817.779 40 .779c10.106 0 19.692 3.759 27.09 10.601l-.367-4.559a1.25 1.25 0 012.492-.2l.634 7.892a1.25 1.25 0 01-1.346 1.346l-7.892-.633a1.25 1.25 0 01.2-2.492l4.446.357C58.342 6.755 49.412 3.278 40 3.278c-7.67 0-15.044 2.306-21.324 6.669a1.25 1.25 0 01-1.74-.314zm-7.69 52.39a1.25 1.25 0 11-2.052 1.427C2.539 56.75.078 48.882.078 40.7c0-10.106 3.759-19.692 10.601-27.09l-4.559.367a1.25 1.25 0 11-.2-2.492l7.893-.634a1.248 1.248 0 011.345 1.346l-.633 7.892a1.25 1.25 0 01-2.492-.2l.357-4.446C6.055 22.358 2.578 31.288 2.578 40.7c0 7.67 2.306 15.044 6.669 21.323zm53.817 9.743a1.25 1.25 0 01-.313 1.74c-6.7 4.655-14.568 7.116-22.75 7.116-10.106 0-19.692-3.76-27.09-10.601l.367 4.559a1.25 1.25 0 11-2.492.2l-.634-7.892a1.25 1.25 0 011.346-1.346l7.892.633a1.25 1.25 0 11-.2 2.492l-4.447-.357c6.916 6.334 15.846 9.812 25.258 9.812 7.67 0 15.043-2.306 21.323-6.669a1.25 1.25 0 011.74.313zM40 23.208c-9.645 0-17.491 7.847-17.491 17.492S30.355 58.191 40 58.191 57.491 50.345 57.491 40.7 49.645 23.208 40 23.208zm0 32.483c-8.266 0-14.991-6.725-14.991-14.991S31.734 25.708 40 25.708 54.991 32.434 54.991 40.7c0 8.266-6.725 14.991-14.991 14.991zm0-28.7c-7.56 0-13.71 6.15-13.71 13.709 0 7.56 6.15 13.709 13.71 13.709 7.56 0 13.71-6.15 13.71-13.709 0-7.56-6.15-13.71-13.71-13.71zm0 24.918c-6.18 0-11.21-5.028-11.21-11.209 0-6.18 5.03-11.21 11.21-11.21 6.18 0 11.21 5.03 11.21 11.21 0 6.18-5.03 11.209-11.21 11.209zm2.214-12.245a1.25 1.25 0 01-.457 1.707l-.507.293v.586a1.25 1.25 0 01-2.268.724l-3.952 2.281a1.25 1.25 0 11-1.25-2.165l4.97-2.87v-8.446a1.25 1.25 0 012.5 0v7.272c.389.037.754.254.964.618z"/></g><defs><clipPath id="va"><path transform="translate(0 .7)" d="M0 0h80v80H0z"/></clipPath></defs></svg><svg viewBox="0 0 81 81" id="icon-workflow_5" xmlns="http://www.w3.org/2000/svg"><path d="M4.296 35.657h6.71c.397 1.432.97 2.81 1.704 4.1l-4.75 4.751a1.21 1.21 0 000 1.712l5.132 5.136a1.21 1.21 0 001.71 0l4.751-4.753a17.97 17.97 0 004.098 1.704v6.715c0 .668.541 1.21 1.21 1.21h7.257a1.21 1.21 0 001.21-1.21v-6.715a17.969 17.969 0 004.097-1.704l4.75 4.753c.48.454 1.232.454 1.711 0l5.133-5.136a1.21 1.21 0 000-1.712l-4.751-4.75a18.006 18.006 0 001.704-4.101h6.71a1.21 1.21 0 001.21-1.21v-7.262a1.21 1.21 0 00-1.21-1.21h-6.71a18.011 18.011 0 00-1.704-4.1l4.75-4.751a1.21 1.21 0 000-1.712l-5.132-5.136a1.21 1.21 0 00-1.71 0l-4.75 4.753a18.028 18.028 0 00-4.098-1.704V6.61a1.21 1.21 0 00-1.21-1.21H24.86a1.21 1.21 0 00-1.21 1.21v6.715c-1.43.397-2.806.97-4.097 1.704l-4.75-4.753a1.245 1.245 0 00-1.71 0L7.96 15.412a1.211 1.211 0 000 1.712l4.75 4.75a18.011 18.011 0 00-1.704 4.1h-6.71a1.21 1.21 0 00-1.21 1.21v7.263c0 .668.541 1.21 1.21 1.21zm1.21-7.262h6.447a1.21 1.21 0 001.182-.951 15.576 15.576 0 012.12-5.1 1.211 1.211 0 00-.164-1.51l-4.566-4.567 3.422-3.424 4.565 4.567a1.21 1.21 0 001.51.165 15.582 15.582 0 015.097-2.12c.555-.123.95-.615.95-1.184v-6.45h4.84v6.45c0 .569.396 1.061.95 1.183a15.582 15.582 0 015.098 2.12 1.21 1.21 0 001.51-.164l4.564-4.567 3.42 3.424-4.563 4.566a1.211 1.211 0 00-.164 1.51 15.57 15.57 0 012.118 5.102c.122.555.614.952 1.182.952h6.449v4.84h-6.45a1.21 1.21 0 00-1.18.952 15.556 15.556 0 01-2.119 5.099 1.211 1.211 0 00.164 1.51l4.565 4.566-3.422 3.425-4.564-4.568a1.21 1.21 0 00-1.51-.163 15.548 15.548 0 01-5.096 2.12 1.21 1.21 0 00-.953 1.182v6.451H26.07v-6.45a1.21 1.21 0 00-.952-1.183 15.547 15.547 0 01-5.097-2.12 1.21 1.21 0 00-1.51.163l-4.563 4.568-3.422-3.424 4.565-4.567a1.21 1.21 0 00.163-1.51 15.58 15.58 0 01-2.12-5.101 1.21 1.21 0 00-1.181-.95H5.505v-4.842z"/><path d="M28.489 40.498c5.345 0 9.677-4.334 9.677-9.682 0-5.348-4.332-9.682-9.677-9.682s-9.678 4.334-9.678 9.682c.006 5.344 4.336 9.676 9.678 9.682zm0-16.944a7.26 7.26 0 017.258 7.262 7.26 7.26 0 01-7.258 7.262 7.26 7.26 0 01-7.258-7.262 7.267 7.267 0 017.258-7.262z"/><path d="M28.49 44.129c7.348 0 13.305-5.96 13.305-13.313 0-7.353-5.957-13.313-13.306-13.313-7.349 0-13.306 5.96-13.306 13.313.009 7.349 5.96 13.304 13.306 13.313zm0-24.206c6.012 0 10.886 4.877 10.886 10.893 0 6.016-4.874 10.892-10.887 10.892-6.013 0-10.887-4.876-10.887-10.892.007-6.013 4.877-10.886 10.887-10.893zm43.548 41.15v-9.682a1.21 1.21 0 00-1.21-1.21h-2.42v-9.683a1.21 1.21 0 00-1.21-1.21H56.313a1.21 1.21 0 00-1.21 1.21v9.682h-6.048a1.21 1.21 0 00-1.21 1.21v9.683H9.134a6.057 6.057 0 00-6.048 6.051v2.421a6.057 6.057 0 006.048 6.051h62.904a6.057 6.057 0 006.048-6.051v-2.42a6.057 6.057 0 00-6.048-6.052zm-2.42 0h-8.467v-8.472h8.467v8.472zM57.521 41.708h8.468v8.472h-8.468v-8.472zm-7.258 10.893h8.468v8.472h-8.468v-8.472zm25.404 16.944a3.63 3.63 0 01-3.63 3.63H9.135a3.63 3.63 0 01-3.629-3.63v-2.42a3.63 3.63 0 013.63-3.632h62.903a3.63 3.63 0 013.629 3.631v2.421z"/><path d="M40.586 64.704a3.63 3.63 0 10.002 7.26 3.63 3.63 0 00-.002-7.26zm0 4.841a1.21 1.21 0 110-2.42 1.21 1.21 0 010 2.42zm-12.097-4.841a3.63 3.63 0 10.002 7.26 3.63 3.63 0 00-.002-7.26zm0 4.841a1.21 1.21 0 110-2.42 1.21 1.21 0 010 2.42zm24.194-4.841a3.63 3.63 0 10.002 7.26 3.63 3.63 0 00-.002-7.26zm0 4.841a1.21 1.21 0 110-2.42 1.21 1.21 0 010 2.42zm-36.291-4.841a3.63 3.63 0 10.003 7.26 3.63 3.63 0 00-.003-7.26zm0 4.841a1.21 1.21 0 110-2.42 1.21 1.21 0 010 2.42zm48.388-4.841a3.63 3.63 0 10.002 7.26 3.63 3.63 0 00-.003-7.26zm0 4.841a1.21 1.21 0 110-2.42 1.21 1.21 0 010 2.42z"/></svg><svg viewBox="0 0 81 81" id="icon-workflow_6" xmlns="http://www.w3.org/2000/svg"><path d="M71.507 51.708a13.063 13.063 0 00-13.263-3.19l-9.92-9.92L60.072 26.85l7.472-4.178c.208-.116.376-.292.483-.505l3.358-6.715a1.187 1.187 0 00-.223-1.37l-4.197-4.198a1.188 1.188 0 00-1.37-.222l-6.716 3.357a1.188 1.188 0 00-.505.483l-4.178 7.472-11.748 11.748-9.434-9.434A13.063 13.063 0 0015.82 7.1a1.187 1.187 0 00-.406 1.945l7.552 7.552-5.037 5.036-7.551-7.552a1.19 1.19 0 00-1.945.407A13.064 13.064 0 0024.62 31.683l9.434 9.433-1.361 1.361-3.358-3.357a1.19 1.19 0 00-1.966.464l-1.54 4.621-12.162 7.344a1.192 1.192 0 00-.285.24l-6.256 7.25c-2.532 2.935-2.362 7.553.38 10.295l4.206 4.206c1.438 1.438 3.393 2.166 5.35 2.166 1.776 0 3.555-.599 4.953-1.81l7.392-6.408a1.2 1.2 0 00.24-.286l7.196-11.985 4.62-1.54a1.187 1.187 0 00.463-1.966l-3.357-3.358 1.36-1.36 9.92 9.919A13.063 13.063 0 0067.044 73.1a1.187 1.187 0 00.406-1.945l-7.552-7.552 5.037-5.036 7.552 7.552a1.188 1.188 0 001.944-.407 13.062 13.062 0 00-2.924-14.004zM25.768 29.473a1.188 1.188 0 00-1.273-.266A10.69 10.69 0 0110.11 17.172l6.979 6.98a1.188 1.188 0 001.679 0l6.715-6.716a1.187 1.187 0 000-1.679l-6.979-6.979a10.689 10.689 0 0112.035 14.386c-.172.44-.068.938.266 1.272l9.964 9.965-5.036 5.036-9.965-9.964zM38.89 52.032l-3.215 1.07c-.268.09-.496.273-.642.516l-7.325 12.2-7.248 6.284c-2.017 1.748-5.188 1.64-7.07-.24l-4.205-4.207c-1.882-1.882-2-5.05-.261-7.065l6.132-7.106 12.375-7.472c.241-.146.423-.373.512-.641l1.072-3.214 2.839 2.839 4.197 4.197 2.839 2.839zm-2-5.357l-2.518-2.519 21.62-21.62c.077-.077.143-.164.197-.26l4.08-7.296 5.622-2.812 2.987 2.987-2.811 5.623-7.297 4.08c-.095.053-.183.12-.26.197l-21.62 21.62zm35.864 16.353l-6.979-6.979a1.188 1.188 0 00-1.679 0l-6.715 6.715a1.187 1.187 0 000 1.68l6.979 6.978a10.69 10.69 0 01-12.035-14.386 1.186 1.186 0 00-.266-1.272l-10.45-10.45 5.036-5.037 10.45 10.45c.334.334.834.439 1.273.266a10.69 10.69 0 0114.386 12.035z"/></svg><svg viewBox="0 0 14 14" id="icon-zoom-in" xmlns="http://www.w3.org/2000/svg"><path d="M14 8H8v6H6V8H0V6h6V0h2v6h6v2z"/></svg><svg viewBox="0 0 14 2" id="icon-zoom-out" xmlns="http://www.w3.org/2000/svg"><path d="M14 2H0V0h14v2z"/></svg></svg>